M48
;Layer_Color=9474304
;FILE_FORMAT=2:5
INCH,TZ
;TYPE=PLATED
T1F00S00C0.00787
T2F00S00C0.02800
T3F00S00C0.03346
T4F00S00C0.03543
T5F00S00C0.04094
T6F00S00C0.04724
;TYPE=NON_PLATED
T7F00S00C0.10827
%
T01
X368929Y351980
Y355130
T02
X81890Y3307
X131417Y13661
X189882Y3124
X206600Y44600
X207016Y52100
X219600Y39700
X228600Y48300
X246200Y28200
X248622Y16339
X295423Y29500
X304300Y23500
X311890Y24606
X314016Y36063
X330118Y46929
X321654Y14134
X358600Y31200
X364900Y39500
X386600Y46500
X393200Y31900
X388800Y19400
X419496Y38183
X427071Y40400
X442300Y20500
X470600Y47400
X496100Y25000
X501900Y29800
X516653Y52835
X527008Y94213
X495800Y75200
X470700Y73200
X469410Y101654
X468465Y124921
X450900Y146500
X445315Y150945
X433000Y141000
X435200Y134921
X425202Y144598
X411200Y152100
X417000Y162000
X410600Y183000
X395000Y183200
X472700Y164500
X500200Y133400
X447205Y87638
X433700Y88700
X351600Y64000
X281900Y77300
X273300Y80800
X264300Y72600
X242500Y102700
X254646Y122480
X257244Y129449
X266339Y131220
X271457Y120905
X253800Y154200
X324000Y146500
X328647Y197953
X296700Y206200
X204200Y133300
X204764Y117283
X194500Y141400
X202400Y82300
X100600Y193900
X32900Y104800
X194800Y217012
X202400Y228800
X196900Y254300
X249400Y286300
Y217400
X291700Y259000
X319500Y254800
X374900Y232900
X415800Y246300
X427091Y224109
X445157Y286221
X458917Y302677
X473779Y293347
X480709Y297953
X500539Y293301
X471024Y325472
X406021Y304801
X402283Y292283
X384134Y290476
X392244Y346811
X563350Y242950
X563200Y235000
X568000Y224200
X353150Y375669
T03
X533878Y62913
Y72913
Y82913
Y92913
Y102913
Y112913
Y122913
Y132913
Y142913
Y152913
Y162913
Y172913
Y182913
Y192913
Y202913
X541378Y207913
Y197913
Y187913
Y177913
Y167913
Y157913
Y147913
Y137913
Y127913
Y117913
Y107913
Y97913
Y87913
Y77913
Y67913
X548878Y72913
Y82913
Y92913
Y102913
Y112913
Y122913
Y132913
Y142913
Y152913
Y162913
Y172913
Y182913
Y192913
Y202913
X556378Y207913
Y197913
Y187913
Y177913
Y167913
Y157913
Y147913
Y137913
Y127913
Y117913
Y107913
Y97913
Y87913
Y77913
Y67913
X548878Y62913
Y212913
Y222913
X541378Y227913
Y217913
X533878Y222913
Y212913
X556378Y217913
Y227913
T04
X456417Y238071
X466417
T05
X213142Y67012
Y77012
Y87012
Y97012
Y107012
Y117012
Y127012
Y137012
Y147012
Y157012
Y167012
Y177012
Y187012
Y197012
Y207012
X223142
Y197012
Y187012
Y177012
Y167012
Y157012
Y147012
Y137012
Y127012
Y117012
Y107012
Y97012
Y87012
Y77012
Y67012
X23142
X13142
Y77012
Y87012
Y97012
Y107012
Y117012
Y127012
Y137012
Y147012
Y157012
Y167012
Y177012
Y187012
Y197012
Y207012
X23142
Y197012
Y187012
Y177012
Y167012
Y157012
Y147012
Y137012
Y127012
Y117012
Y107012
Y97012
Y87012
Y77012
Y217012
X13142
Y227012
Y237012
Y247012
Y257012
Y267012
Y277012
Y287012
Y297012
Y307012
X23142
Y297012
Y287012
Y277012
Y267012
Y257012
Y247012
Y237012
Y227012
X213142
Y217012
X223142
Y227012
Y237012
X213142
Y247012
Y257012
Y267012
Y277012
Y287012
Y297012
Y307012
X223142
Y297012
Y287012
Y277012
Y267012
Y257012
Y247012
T06
X533403Y333898
Y347817
X540363Y340857
X547323Y347817
Y333898
T07
X548876Y31417
Y259409
M30
