%TF.GenerationSoftware,Altium Limited,Altium Designer,19.0.15 (446)*%
G04 Layer_Color=0*
%FSLAX26Y26*%
%MOIN*%
%TF.FileFunction,Other,Mechanical_15*%
%TF.Part,Single*%
G01*
G75*
%TA.AperFunction,NonConductor*%
%ADD55C,0.003937*%
%ADD57C,0.007874*%
%ADD86C,0.001968*%
D55*
X3902756Y3523228D02*
X3942126D01*
X3922442Y3503542D02*
Y3542912D01*
X4223622Y129922D02*
Y169292D01*
X4203938Y149606D02*
X4243308D01*
X3678740Y124804D02*
Y164174D01*
X3659056Y144488D02*
X3698426D01*
X2842914Y79922D02*
X2882284D01*
X2862598Y60236D02*
Y99606D01*
X3117322Y120866D02*
Y160236D01*
X3097638Y140552D02*
X3137008D01*
X2455120Y2019292D02*
X2494490D01*
X2474804Y1999608D02*
Y2038978D01*
X4077952Y2863780D02*
X4117322D01*
X4097638Y2844094D02*
Y2883464D01*
X4645275Y3007086D02*
Y3046456D01*
X4625591Y3026772D02*
X4664961D01*
X4087008Y1746456D02*
Y1785826D01*
X4067322Y1766142D02*
X4106692D01*
X3819686Y1744488D02*
Y1783858D01*
X3800000Y1764174D02*
X3839370D01*
X3026378Y1760236D02*
Y1799606D01*
X3006692Y1779922D02*
X3046062D01*
X2808268Y1760236D02*
Y1799606D01*
X2788582Y1779922D02*
X2827952D01*
X2535040Y123652D02*
Y163022D01*
X2515354Y143338D02*
X2554724D01*
X2818110Y614960D02*
X2857480D01*
X2837796Y595276D02*
Y634646D01*
X3409842Y85826D02*
X3449212D01*
X3429528Y66142D02*
Y105512D01*
X3975984Y82284D02*
X4015354D01*
X3995670Y62598D02*
Y101968D01*
X4195276Y494094D02*
X4234646D01*
X4214960Y474410D02*
Y513780D01*
X5037796Y600000D02*
X5077166D01*
X5057480Y580316D02*
Y619686D01*
X5064960Y94488D02*
X5104330D01*
X5084646Y74804D02*
Y114174D01*
X4512204Y86220D02*
X4551574D01*
X4531890Y66536D02*
Y105906D01*
X4780708Y132678D02*
Y172048D01*
X4761024Y152362D02*
X4800394D01*
X4753938Y490944D02*
X4793308D01*
X4773622Y471260D02*
Y510630D01*
X4819016Y3408574D02*
X5403632Y2823958D01*
X4819016Y3408574D02*
X5403632Y3993190D01*
X5988248Y3408574D01*
X5403632Y2823958D02*
X5988248Y3408574D01*
X3852136Y1929134D02*
Y1968504D01*
X3832452Y1948820D02*
X3871822D01*
X4541338Y1355118D02*
Y1394488D01*
X4521654Y1374804D02*
X4561024D01*
X4480708Y599212D02*
X4520078D01*
X4500394Y579528D02*
Y618898D01*
X3934252Y600000D02*
X3973622D01*
X3953938Y580316D02*
Y619686D01*
X3378740Y599212D02*
X3418110D01*
X3398426Y579528D02*
Y618898D01*
X4584536Y2597500D02*
Y2636870D01*
X4564852Y2617186D02*
X4604222D01*
X4082962Y3053012D02*
X4122332D01*
X4102648Y3033328D02*
Y3072698D01*
X3841338Y2847638D02*
Y2887008D01*
X3821654Y2867322D02*
X3861024D01*
X1270866Y709058D02*
Y748428D01*
X1251182Y728742D02*
X1290552D01*
X3651968Y469292D02*
Y508662D01*
X3632284Y488976D02*
X3671654D01*
X3084646Y464174D02*
Y503544D01*
X3064960Y483858D02*
X3104330D01*
X2533464Y474016D02*
Y513386D01*
X2513780Y493700D02*
X2553150D01*
X4779922Y1235826D02*
Y1275196D01*
X4760236Y1255512D02*
X4799606D01*
X4769686Y845276D02*
Y884646D01*
X4750000Y864960D02*
X4789370D01*
X4535040Y1554070D02*
X4574410D01*
X4554724Y1534384D02*
Y1573754D01*
X4570078Y1089370D02*
X4609448D01*
X4589764Y1069686D02*
Y1109056D01*
X4288582Y1038582D02*
Y1077952D01*
X4268898Y1058268D02*
X4308268D01*
X4313780Y1508662D02*
Y1548032D01*
X4294094Y1528346D02*
X4333464D01*
X4500788Y906692D02*
X4540158D01*
X4520472Y887008D02*
Y926378D01*
X2997414Y1945670D02*
X3036784D01*
X3017100Y1925984D02*
Y1965354D01*
X2787966Y1945670D02*
X2827336D01*
X2807652Y1925984D02*
Y1965354D01*
X4041900Y1948820D02*
X4081270D01*
X4061584Y1929134D02*
Y1968504D01*
X3669606Y3535552D02*
X3708976D01*
X3689292Y3515866D02*
Y3555236D01*
X3442518Y3473228D02*
Y3512598D01*
X3422834Y3492914D02*
X3462204D01*
X4890550Y2372442D02*
X4929920D01*
X4910236Y2352756D02*
Y2392126D01*
X3572440Y3244094D02*
X3611810D01*
X3592126Y3224410D02*
Y3263780D01*
X4887796Y2675130D02*
Y2714500D01*
X4868110Y2694814D02*
X4907480D01*
X5451280Y1434444D02*
Y1473814D01*
X5431594Y1454130D02*
X5470964D01*
X3371448Y2016928D02*
Y2056298D01*
X3351764Y2036614D02*
X3391134D01*
X4977056Y343766D02*
X5016426D01*
X4996742Y324080D02*
Y363450D01*
X1440944Y711026D02*
Y750396D01*
X1421260Y730710D02*
X1460630D01*
X837796Y725984D02*
X877166D01*
X857480Y706298D02*
Y745668D01*
X1729922Y707480D02*
Y746850D01*
X1710236Y727164D02*
X1749606D01*
X1915354Y709450D02*
Y748820D01*
X1895668Y729136D02*
X1935038D01*
X424016Y706694D02*
Y746064D01*
X404332Y726378D02*
X443702D01*
X600394Y708664D02*
Y748034D01*
X580708Y728348D02*
X620078D01*
X1024802Y708270D02*
Y747640D01*
X1005118Y727954D02*
X1044488D01*
X4422948Y343766D02*
X4462318D01*
X4442634Y324080D02*
Y363450D01*
X3868842Y343766D02*
X3908212D01*
X3888528Y324080D02*
Y363450D01*
X3314736Y343766D02*
X3354106D01*
X3334422Y324080D02*
Y363450D01*
X2760628Y343766D02*
X2799998D01*
X2780314Y324080D02*
Y363450D01*
X3655512Y2082676D02*
X3694882D01*
X3675198Y2062992D02*
Y2102362D01*
X3517716Y2001576D02*
Y2040946D01*
X3498032Y2021260D02*
X3537402D01*
X4374016Y2004724D02*
Y2044094D01*
X4354332Y2024408D02*
X4393702D01*
X4189764Y2076378D02*
X4229134D01*
X4209450Y2056692D02*
Y2096062D01*
X2611812Y2083070D02*
X2651182D01*
X2631496Y2063386D02*
Y2102756D01*
X3192306Y2071260D02*
X3231676D01*
X3211990Y2051574D02*
Y2090944D01*
X3531496Y3681888D02*
Y3721258D01*
X3511810Y3701574D02*
X3551180D01*
D57*
X4173304Y64838D02*
Y234374D01*
X4273940D01*
Y64838D02*
Y234374D01*
X4173304Y64838D02*
X4273940D01*
X3628422Y59720D02*
Y229256D01*
X3729060D01*
Y59720D02*
Y229256D01*
X3628422Y59720D02*
X3729060D01*
X2777830Y29602D02*
X2947366D01*
X2777830D02*
Y130240D01*
X2947366D01*
Y29602D02*
Y130240D01*
X3067004Y55784D02*
Y225318D01*
X3167642D01*
Y55784D02*
Y225318D01*
X3067004Y55784D02*
X3167642D01*
X4002240Y1715822D02*
Y1816460D01*
Y1715822D02*
X4171776D01*
Y1816460D01*
X4002240D02*
X4171776D01*
X3734918Y1713854D02*
Y1814492D01*
Y1713854D02*
X3904452D01*
Y1814492D01*
X3734918D02*
X3904452D01*
X2941610Y1729602D02*
Y1830240D01*
Y1729602D02*
X3111146D01*
Y1830240D01*
X2941610D02*
X3111146D01*
X2723500Y1729602D02*
Y1830240D01*
Y1729602D02*
X2893036D01*
Y1830240D01*
X2723500D02*
X2893036D01*
X2484720Y58570D02*
Y228106D01*
X2585358D01*
Y58570D02*
Y228106D01*
X2484720Y58570D02*
X2585358D01*
X2753028Y564642D02*
X2922564D01*
X2753028D02*
Y665280D01*
X2922564D01*
Y564642D02*
Y665280D01*
X3344760Y35508D02*
X3514296D01*
X3344760D02*
Y136146D01*
X3514296D01*
Y35508D02*
Y136146D01*
X3910902Y31964D02*
X4080438D01*
X3910902D02*
Y132602D01*
X4080438D01*
Y31964D02*
Y132602D01*
X4164642Y578862D02*
X4265280D01*
X4164642Y409326D02*
Y578862D01*
Y409326D02*
X4265280D01*
Y578862D01*
X4972712Y549682D02*
X5142248D01*
X4972712D02*
Y650318D01*
X5142248D01*
Y549682D02*
Y650318D01*
X4999878Y44170D02*
X5169414D01*
X4999878D02*
Y144808D01*
X5169414D01*
Y44170D02*
Y144808D01*
X4447122Y35902D02*
X4616658D01*
X4447122D02*
Y136540D01*
X4616658D01*
Y35902D02*
Y136540D01*
X4730390Y67594D02*
Y237130D01*
X4831028D01*
Y67594D02*
Y237130D01*
X4730390Y67594D02*
X4831028D01*
X4723304Y575712D02*
X4823940D01*
X4723304Y406178D02*
Y575712D01*
Y406178D02*
X4823940D01*
Y575712D01*
X4415626Y548894D02*
X4585162D01*
X4415626D02*
Y649532D01*
X4585162D01*
Y548894D02*
Y649532D01*
X3869170Y549682D02*
X4038704D01*
X3869170D02*
Y650318D01*
X4038704D01*
Y549682D02*
Y650318D01*
X3313658Y548894D02*
X3483192D01*
X3313658D02*
Y649532D01*
X3483192D01*
Y548894D02*
Y649532D01*
X4534218Y2532418D02*
Y2701954D01*
X4634856D01*
Y2532418D02*
Y2701954D01*
X4534218Y2532418D02*
X4634856D01*
X4017880Y3103332D02*
X4187414D01*
Y3002694D02*
Y3103332D01*
X4017880Y3002694D02*
X4187414D01*
X4017880D02*
Y3103332D01*
X3891658Y2782556D02*
Y2952090D01*
X3791020Y2782556D02*
X3891658D01*
X3791020D02*
Y2952090D01*
X3891658D01*
X3702288Y404208D02*
Y573744D01*
X3601650Y404208D02*
X3702288D01*
X3601650D02*
Y573744D01*
X3702288D01*
X3134964Y399090D02*
Y568626D01*
X3034326Y399090D02*
X3134964D01*
X3034326D02*
Y568626D01*
X3134964D01*
X2583784Y408934D02*
Y578468D01*
X2483146Y408934D02*
X2583784D01*
X2483146D02*
Y578468D01*
X2583784D01*
X4830240Y1170744D02*
Y1340280D01*
X4729602Y1170744D02*
X4830240D01*
X4729602D02*
Y1340280D01*
X4830240D01*
X4820004Y780192D02*
Y949728D01*
X4719366Y780192D02*
X4820004D01*
X4719366D02*
Y949728D01*
X4820004D01*
X4469956Y1503750D02*
X4639492D01*
X4469956D02*
Y1604388D01*
X4639492D01*
Y1503750D02*
Y1604388D01*
X4504996Y1039052D02*
X4674532D01*
X4504996D02*
Y1139690D01*
X4674532D01*
Y1039052D02*
Y1139690D01*
X4238264Y973500D02*
Y1143036D01*
X4338902D01*
Y973500D02*
Y1143036D01*
X4238264Y973500D02*
X4338902D01*
X4263460Y1443578D02*
Y1613114D01*
X4364098D01*
Y1443578D02*
Y1613114D01*
X4263460Y1443578D02*
X4364098D01*
D86*
X3867324Y3444488D02*
Y3601968D01*
X3977560Y3444488D02*
Y3601968D01*
X3867324Y3444488D02*
X3977560D01*
X3867324Y3601968D02*
X3977560D01*
X2417718Y1912992D02*
Y2125592D01*
X2531890Y1912992D02*
Y2125592D01*
X2417718Y1912992D02*
X2531890D01*
X2417718Y2125592D02*
X2531890D01*
X3985434Y2763386D02*
Y2964174D01*
X4201968Y2763386D02*
Y2964174D01*
X3985434D02*
X4201968D01*
X3985434Y2763386D02*
X4201968D01*
X4556693Y3070078D02*
X4733859D01*
X4556693Y2983464D02*
X4733859D01*
X4556693D02*
Y3070078D01*
X4733859Y2983464D02*
Y3070078D01*
X3773396Y1877954D02*
X3930876D01*
X3773396Y2019686D02*
X3930876D01*
Y1877954D02*
Y2019686D01*
X3773396Y1877954D02*
Y2019686D01*
X4387796Y1264566D02*
X4694882D01*
X4387796Y1485040D02*
X4694882D01*
Y1264566D02*
Y1485040D01*
X4387796Y1264566D02*
Y1485040D01*
X1213780Y837010D02*
X1327952D01*
X1213780Y620474D02*
X1327952D01*
Y837010D01*
X1213780Y620474D02*
Y837010D01*
X4366930Y796456D02*
Y1016930D01*
X4674016Y796456D02*
Y1016930D01*
X4366930D02*
X4674016D01*
X4366930Y796456D02*
X4674016D01*
X2938360Y1874804D02*
Y2016536D01*
X3095840Y1874804D02*
Y2016536D01*
X2938360D02*
X3095840D01*
X2938360Y1874804D02*
X3095840D01*
X2728910D02*
Y2016536D01*
X2886392Y1874804D02*
Y2016536D01*
X2728910D02*
X2886392D01*
X2728910Y1874804D02*
X2886392D01*
X3982844Y1877954D02*
Y2019686D01*
X4140326Y1877954D02*
Y2019686D01*
X3982844D02*
X4140326D01*
X3982844Y1877954D02*
X4140326D01*
X3740472Y3490276D02*
Y3580828D01*
X3638110Y3490276D02*
Y3580828D01*
Y3490276D02*
X3740472D01*
X3638110Y3580828D02*
X3740472D01*
X3375590Y3429922D02*
X3509448D01*
Y3555906D01*
X3375590D02*
X3509448D01*
X3375590Y3429922D02*
Y3555906D01*
X2287716Y601222D02*
Y3139018D01*
X2075118D02*
X2287716D01*
X2075118Y601222D02*
Y3139018D01*
Y601222D02*
X2287716D01*
X5018504Y2297638D02*
Y2447244D01*
X4801968Y2297638D02*
Y2447244D01*
Y2297638D02*
X5018504D01*
X4801968Y2447244D02*
X5018504D01*
X3477952Y3188976D02*
Y3299212D01*
X3706300Y3188976D02*
Y3299212D01*
X3477952D02*
X3706300D01*
X3477952Y3188976D02*
X3706300D01*
X4724410Y2576704D02*
X5051180D01*
X4724410Y2812924D02*
X5051180D01*
Y2576704D02*
Y2812924D01*
X4724410Y2576704D02*
Y2812924D01*
X5284232Y192122D02*
X5981082D01*
Y2716138D01*
X5284232D02*
X5981082D01*
X5284232Y192122D02*
Y2716138D01*
X3328142Y1948032D02*
X3414756D01*
X3328142Y2125196D02*
X3414756D01*
X3328142Y1948032D02*
Y2125196D01*
X3414756Y1948032D02*
Y2125196D01*
X4852056Y160694D02*
Y526836D01*
X5141426Y160694D02*
Y526836D01*
X4852056D02*
X5141426D01*
X4852056Y160694D02*
X5141426D01*
X1383858Y837010D02*
X1498030D01*
X1383858Y624412D02*
X1498030D01*
Y837010D01*
X1383858Y624412D02*
Y837010D01*
X800394Y617716D02*
Y834252D01*
X914566Y617716D02*
Y834252D01*
X800394Y617716D02*
X914566D01*
X800394Y834252D02*
X914566D01*
X1672834Y835432D02*
X1787008D01*
X1672834Y618898D02*
X1787008D01*
Y835432D01*
X1672834Y618898D02*
Y835432D01*
X1858266Y835434D02*
X1972440D01*
X1858266Y622836D02*
X1972440D01*
Y835434D01*
X1858266Y622836D02*
Y835434D01*
X366930Y834646D02*
X481104D01*
X366930Y618110D02*
X481104D01*
Y834646D01*
X366930Y618110D02*
Y834646D01*
X543306Y834648D02*
X657480D01*
X543306Y622050D02*
X657480D01*
Y834648D01*
X543306Y622050D02*
Y834648D01*
X967716Y834254D02*
X1081890D01*
X967716Y621656D02*
X1081890D01*
Y834254D01*
X967716Y621656D02*
Y834254D01*
X4297948Y160694D02*
Y526836D01*
X4587318Y160694D02*
Y526836D01*
X4297948D02*
X4587318D01*
X4297948Y160694D02*
X4587318D01*
X3743842D02*
Y526836D01*
X4033212Y160694D02*
Y526836D01*
X3743842D02*
X4033212D01*
X3743842Y160694D02*
X4033212D01*
X3189736D02*
Y526836D01*
X3479106Y160694D02*
Y526836D01*
X3189736D02*
X3479106D01*
X3189736Y160694D02*
X3479106D01*
X2635628D02*
Y526836D01*
X2924998Y160694D02*
Y526836D01*
X2635628D02*
X2924998D01*
X2635628Y160694D02*
X2924998D01*
X3763780Y2039370D02*
Y2125984D01*
X3586614Y2039370D02*
Y2125984D01*
Y2039370D02*
X3763780D01*
X3586614Y2125984D02*
X3763780D01*
X3460630Y2127560D02*
X3574802D01*
X3460630Y1914962D02*
X3574802D01*
Y2127560D01*
X3460630Y1914962D02*
Y2127560D01*
X4316930Y2130708D02*
X4431102D01*
X4316930Y1918110D02*
X4431102D01*
Y2130708D01*
X4316930Y1918110D02*
Y2130708D01*
X4120866Y2033070D02*
Y2119684D01*
X4298032Y2033070D02*
Y2119684D01*
X4120866D02*
X4298032D01*
X4120866Y2033070D02*
X4298032D01*
X2720078Y2039764D02*
Y2126378D01*
X2542914Y2039764D02*
Y2126378D01*
Y2039764D02*
X2720078D01*
X2542914Y2126378D02*
X2720078D01*
X3318290Y2014174D02*
Y2128346D01*
X3105692Y2014174D02*
Y2128346D01*
Y2014174D02*
X3318290D01*
X3105692Y2128346D02*
X3318290D01*
X287716Y601222D02*
Y3139018D01*
X75118D02*
X287716D01*
X75118Y601222D02*
Y3139018D01*
Y601222D02*
X287716D01*
X3476378Y3622834D02*
X3586614D01*
X3476378Y3780314D02*
X3586614D01*
X3476378Y3622834D02*
Y3780314D01*
X3586614Y3622834D02*
Y3780314D01*
%TF.MD5,86d73a6be20d2083bc2f9709bc5e8fda*%
M02*
