M48
;Layer_Color=9474304
;FILE_FORMAT=2:5
INCH,TZ
;TYPE=PLATED
T1F00S00C0.00787
T2F00S00C0.02800
T3F00S00C0.03346
T4F00S00C0.03543
T5F00S00C0.04094
T6F00S00C0.04724
;TYPE=NON_PLATED
T7F00S00C0.10827
%
T01
X368929Y351980
Y355055
T02
X171400Y9800
X216024Y39961
X217953Y50276
X227710Y33725
X235700Y28150
X239175Y42128
X275251Y33725
X278200Y48200
X296500Y47500
X315669Y36772
X305400Y14000
X334989Y53200
X388900Y39377
X384500Y29377
X411300Y43400
X409700Y52795
X421496Y53153
X432200Y53700
X440400Y54800
X501400Y39377
X495600Y27377
X528200Y29400
X534200Y42600
X538000Y51400
X545100Y49400
X526572Y73472
X526400Y119100
X566100Y131000
X502400Y135300
X496700Y150139
X502200Y157600
X475020Y137480
X447200Y149300
X432502Y142598
X411100Y137400
X405170Y163937
X397008Y172283
X379055Y176945
X403107Y198661
X442000Y206900
X447323Y90118
X434125Y91760
X428465Y87126
X420354Y83346
X429400Y68200
X438900Y69488
X458937Y72008
X464006Y64606
X470512Y93413
X456300Y98500
X497323Y91142
X511400Y98500
X509491Y60000
X411000Y59100
X366500Y68000
X355730Y60827
X350630Y65827
X363535Y87559
X291312Y130882
X286223Y145905
X240900Y135300
X240700Y110800
X231200Y112100
X236775Y99100
X240300Y78600
X233600Y69300
X203100Y72600
X191535Y66910
X157165Y61102
X199500Y124400
X205039Y146361
X38600Y163200
X38300Y87600
X29500Y92800
X33300Y66500
X192480Y219724
X234000Y243100
X258700Y248500
X285748Y217677
X367992Y236142
X350276Y256535
X401213Y248300
X397400Y226100
X391063Y225417
X384134Y290476
X402283Y292283
X406521Y305301
X458917Y302677
X454838Y248300
X477520Y261181
X465551Y215315
X468780Y357126
X487480Y357480
Y341732
X392244Y346614
X534410Y290984
X353150Y375669
T03
X533878Y62913
Y72913
Y82913
Y92913
Y102913
Y112913
Y122913
Y132913
Y142913
Y152913
Y162913
Y172913
Y182913
Y192913
Y202913
X541378Y197913
Y187913
Y177913
Y167913
Y157913
Y147913
Y137913
Y127913
Y117913
Y107913
Y97913
Y87913
Y77913
Y67913
X548878Y62913
Y72913
Y82913
Y92913
Y102913
Y112913
Y122913
Y132913
Y142913
Y152913
Y162913
Y172913
Y182913
Y192913
Y202913
X541378Y207913
X556378
Y197913
Y187913
Y177913
Y167913
Y157913
Y147913
Y137913
Y127913
Y117913
Y107913
Y97913
Y87913
Y77913
Y67913
Y217913
Y227913
X548878Y222913
Y212913
X541378Y217913
Y227913
X533878Y222913
Y212913
T04
X456417Y238071
X466417
T05
X213142Y67012
Y77012
Y87012
Y97012
Y107012
Y117012
Y127012
Y137012
Y147012
Y157012
Y167012
Y177012
Y187012
Y197012
Y207012
X223142
Y197012
Y187012
Y177012
Y167012
Y157012
Y147012
Y137012
Y127012
Y117012
Y107012
Y97012
Y87012
Y77012
Y67012
X23142
X13142
Y77012
Y87012
Y97012
Y107012
Y117012
Y127012
Y137012
Y147012
Y157012
Y167012
Y177012
Y187012
Y197012
Y207012
X23142
Y197012
Y187012
Y177012
Y167012
Y157012
Y147012
Y137012
Y127012
Y117012
Y107012
Y97012
Y87012
Y77012
Y217012
X13142
Y227012
Y237012
Y247012
Y257012
Y267012
Y277012
Y287012
Y297012
Y307012
X23142
Y297012
Y287012
Y277012
Y267012
Y257012
Y247012
Y237012
Y227012
X213142
Y217012
X223142
Y227012
Y237012
X213142
Y247012
Y257012
Y267012
Y277012
Y287012
Y297012
Y307012
X223142
Y297012
Y287012
Y277012
Y267012
Y257012
Y247012
T06
X533403Y333898
X547323
X547323Y333898
Y347817
X533403
X540363Y340857
T07
X548876Y31417
Y259409
M30
