G04*
G04 #@! TF.GenerationSoftware,Altium Limited,Altium Designer,19.0.15 (446)*
G04*
G04 Layer_Color=2752767*
%FSLAX25Y25*%
%MOIN*%
G70*
G01*
G75*
%ADD11C,0.00394*%
%ADD14C,0.00787*%
%ADD16C,0.01000*%
%ADD17C,0.00197*%
%ADD88C,0.00200*%
%ADD89C,0.00267*%
D11*
X483280Y270843D02*
Y268875D01*
X483673Y268481D01*
X484460D01*
X484854Y268875D01*
Y270843D01*
X485641Y268481D02*
X486428D01*
X486034D01*
Y270843D01*
X485641Y270449D01*
X489183Y268481D02*
X487609D01*
X489183Y270056D01*
Y270449D01*
X488790Y270843D01*
X488002D01*
X487609Y270449D01*
X450787Y143976D02*
X450524Y144961D01*
X449803Y145681D01*
X448819Y145945D01*
X447835Y145681D01*
X447114Y144961D01*
X446850Y143976D01*
X447114Y142992D01*
X447835Y142272D01*
X448819Y142008D01*
X449803Y142272D01*
X450524Y142992D01*
X450787Y143976D01*
X448701Y97165D02*
X448437Y98150D01*
X447717Y98870D01*
X446732Y99134D01*
X445748Y98870D01*
X445027Y98150D01*
X444764Y97165D01*
X445027Y96181D01*
X445748Y95461D01*
X446732Y95197D01*
X447717Y95461D01*
X448437Y96181D01*
X448701Y97165D01*
X371488Y352571D02*
X371187Y353497D01*
X370400Y354069D01*
X369427D01*
X368639Y353497D01*
X368339Y352571D01*
X368639Y351645D01*
X369427Y351073D01*
X370400D01*
X371187Y351645D01*
X371488Y352571D01*
X486417Y275781D02*
X486154Y276765D01*
X485433Y277485D01*
X484449Y277749D01*
X483465Y277485D01*
X482744Y276765D01*
X482480Y275781D01*
X482744Y274796D01*
X483465Y274076D01*
X484449Y273812D01*
X485433Y274076D01*
X486154Y274796D01*
X486417Y275781D01*
X497312Y48156D02*
X497048Y49140D01*
X496328Y49861D01*
X495343Y50125D01*
X494359Y49861D01*
X493639Y49140D01*
X493375Y48156D01*
X493639Y47172D01*
X494359Y46451D01*
X495343Y46188D01*
X496328Y46451D01*
X497048Y47172D01*
X497312Y48156D01*
X441901Y48156D02*
X441638Y49140D01*
X440917Y49861D01*
X439933Y50125D01*
X438948Y49861D01*
X438228Y49140D01*
X437964Y48156D01*
X438228Y47172D01*
X438948Y46451D01*
X439933Y46188D01*
X440917Y46451D01*
X441638Y47172D01*
X441901Y48156D01*
X386491Y48156D02*
X386227Y49140D01*
X385506Y49861D01*
X384522Y50125D01*
X383538Y49861D01*
X382817Y49140D01*
X382554Y48156D01*
X382817Y47172D01*
X383538Y46451D01*
X384522Y46188D01*
X385506Y46451D01*
X386227Y47172D01*
X386491Y48156D01*
X331080D02*
X330816Y49140D01*
X330096Y49861D01*
X329111Y50125D01*
X328127Y49861D01*
X327407Y49140D01*
X327143Y48156D01*
X327407Y47172D01*
X328127Y46451D01*
X329111Y46188D01*
X330096Y46451D01*
X330816Y47172D01*
X331080Y48156D01*
X275669D02*
X275406Y49140D01*
X274685Y49861D01*
X273701Y50125D01*
X272716Y49861D01*
X271996Y49140D01*
X271732Y48156D01*
X271996Y47172D01*
X272716Y46451D01*
X273701Y46188D01*
X274685Y46451D01*
X275406Y47172D01*
X275669Y48156D01*
X386732Y345630D02*
Y359016D01*
X397756Y345630D02*
Y359016D01*
X386732Y345630D02*
X397756D01*
X386732Y359016D02*
X397756D01*
X244036Y195433D02*
Y208425D01*
X250925Y195433D02*
Y208425D01*
X244036Y195433D02*
X250925D01*
X244036Y208425D02*
X250925D01*
X404646Y277323D02*
Y295433D01*
X414882Y277323D02*
Y295433D01*
X404646D02*
X414882D01*
X404646Y277323D02*
X414882D01*
X458130Y305925D02*
X470925D01*
X458130Y299429D02*
X470925D01*
X458130D02*
Y305925D01*
X470925Y299429D02*
Y305925D01*
X381670Y188780D02*
X388757D01*
X381670Y200984D02*
X388757D01*
Y188780D02*
Y200984D01*
X381670Y188780D02*
Y200984D01*
X445276Y127441D02*
X462992D01*
X445276Y147520D02*
X462992D01*
Y127441D02*
Y147520D01*
X445276Y127441D02*
Y147520D01*
X123543Y79567D02*
X130630D01*
X123543Y66181D02*
X130630D01*
Y79567D01*
X123543Y66181D02*
Y79567D01*
X443189Y80630D02*
Y100709D01*
X460906Y80630D02*
Y100709D01*
X443189D02*
X460906D01*
X443189Y80630D02*
X460906D01*
X298167Y188465D02*
Y200669D01*
X305253Y188465D02*
Y200669D01*
X298167D02*
X305253D01*
X298167Y188465D02*
X305253D01*
X277222D02*
Y200669D01*
X284308Y188465D02*
Y200669D01*
X277222D02*
X284308D01*
X277222Y188465D02*
X284308D01*
X402615Y188780D02*
Y200984D01*
X409702Y188780D02*
Y200984D01*
X402615D02*
X409702D01*
X402615Y188780D02*
X409702D01*
X373063Y349421D02*
Y357689D01*
X364795Y349421D02*
Y357689D01*
Y349421D02*
X373063D01*
X364795Y357689D02*
X373063D01*
X338346Y343386D02*
X350157D01*
Y355197D01*
X338346D02*
X350157D01*
X338346Y343386D02*
Y355197D01*
X227886Y61008D02*
Y313016D01*
X208398D02*
X227886D01*
X208398Y61008D02*
Y313016D01*
Y61008D02*
X227886D01*
X497716Y231929D02*
Y242559D01*
X484331Y231929D02*
Y242559D01*
Y231929D02*
X497716D01*
X484331Y242559D02*
X497716D01*
X348976Y319095D02*
Y329724D01*
X369449Y319095D02*
Y329724D01*
X348976D02*
X369449D01*
X348976Y319095D02*
X369449D01*
X480905Y259639D02*
X496654D01*
X480905Y279324D02*
X496654D01*
Y259639D02*
Y279324D01*
X480905Y259639D02*
Y279324D01*
X575628Y247988D02*
X592203D01*
X575274D02*
Y270913D01*
X528819Y271220D02*
X575274D01*
X528818Y19607D02*
X575275D01*
X528819Y19606D02*
Y271220D01*
X575276Y19606D02*
Y42834D01*
X575280Y42838D01*
X592205D01*
X596929Y42834D02*
Y247992D01*
X593780Y251141D02*
X596929Y247992D01*
X592205Y251141D02*
X593780D01*
X592205Y247990D02*
Y251141D01*
X593780Y39685D02*
X596929Y42834D01*
X592205Y39685D02*
X593780D01*
X592205D02*
Y42838D01*
X333798Y197165D02*
X340491D01*
X333798Y210157D02*
X340491D01*
X333798Y197165D02*
Y210157D01*
X340491Y197165D02*
Y210157D01*
X491800Y17152D02*
Y51601D01*
X507548Y17152D02*
Y51601D01*
X491800D02*
X507548D01*
X491800Y17152D02*
X507548D01*
X140650Y79567D02*
X147539D01*
X140650Y66575D02*
X147539D01*
Y79567D01*
X140650Y66575D02*
Y79567D01*
X82205Y65905D02*
Y79291D01*
X89291Y65905D02*
Y79291D01*
X82205Y65905D02*
X89291D01*
X82205Y79291D02*
X89291D01*
X169449Y79409D02*
X176535D01*
X169449Y66024D02*
X176535D01*
Y79409D01*
X169449Y66024D02*
Y79409D01*
X188090Y79410D02*
X194980D01*
X188090Y66418D02*
X194980D01*
Y79410D01*
X188090Y66418D02*
Y79410D01*
X38858Y79331D02*
X45945D01*
X38858Y65945D02*
X45945D01*
Y79331D01*
X38858Y65945D02*
Y79331D01*
X56594Y79331D02*
X63484D01*
X56594Y66339D02*
X63484D01*
Y79331D01*
X56594Y66339D02*
Y79331D01*
X99035Y79292D02*
X105925D01*
X99035Y66299D02*
X105925D01*
Y79292D01*
X99035Y66299D02*
Y79292D01*
X436389Y17152D02*
Y51601D01*
X452137Y17152D02*
Y51601D01*
X436389D02*
X452137D01*
X436389Y17152D02*
X452137D01*
X380979D02*
Y51601D01*
X396727Y17152D02*
Y51601D01*
X380979D02*
X396727D01*
X380979Y17152D02*
X396727D01*
X325568D02*
Y51601D01*
X341316Y17152D02*
Y51601D01*
X325568D02*
X341316D01*
X325568Y17152D02*
X341316D01*
X270157D02*
Y51601D01*
X285905Y17152D02*
Y51601D01*
X270157D02*
X285905D01*
X270157Y17152D02*
X285905D01*
X374016Y204921D02*
Y211614D01*
X361024Y204921D02*
Y211614D01*
Y204921D02*
X374016D01*
X361024Y211614D02*
X374016D01*
X348327Y208622D02*
X355217D01*
X348327Y195630D02*
X355217D01*
Y208622D01*
X348327Y195630D02*
Y208622D01*
X433957Y208937D02*
X440847D01*
X433957Y195945D02*
X440847D01*
Y208937D01*
X433957Y195945D02*
Y208937D01*
X414449Y204291D02*
Y210984D01*
X427441Y204291D02*
Y210984D01*
X414449D02*
X427441D01*
X414449Y204291D02*
X427441D01*
X269646Y204961D02*
Y211653D01*
X256654Y204961D02*
Y211653D01*
Y204961D02*
X269646D01*
X256654Y211653D02*
X269646D01*
X327695Y203681D02*
Y210571D01*
X314703Y203681D02*
Y210571D01*
Y203681D02*
X327695D01*
X314703Y210571D02*
X327695D01*
X27886Y61008D02*
Y313016D01*
X8398D02*
X27886D01*
X8398Y61008D02*
Y313016D01*
Y61008D02*
X27886D01*
X347638Y363464D02*
X358661D01*
X347638Y376850D02*
X358661D01*
X347638Y363464D02*
Y376850D01*
X358661Y363464D02*
Y376850D01*
X390276Y352323D02*
X394213D01*
X392244Y350354D02*
Y354291D01*
X422362Y12992D02*
Y16929D01*
X420394Y14961D02*
X424331D01*
X367874Y12480D02*
Y16417D01*
X365906Y14449D02*
X369843D01*
X284291Y7992D02*
X288228D01*
X286260Y6024D02*
Y9961D01*
X311732Y12087D02*
Y16024D01*
X309764Y14055D02*
X313701D01*
X245512Y201929D02*
X249449D01*
X247480Y199961D02*
Y203898D01*
X407795Y286378D02*
X411732D01*
X409764Y284409D02*
Y288346D01*
X464528Y300709D02*
Y304646D01*
X462559Y302677D02*
X466496D01*
X408701Y174646D02*
Y178583D01*
X406732Y176614D02*
X410669D01*
X381969Y174449D02*
Y178386D01*
X380000Y176417D02*
X383937D01*
X302638Y176024D02*
Y179961D01*
X300669Y177992D02*
X304606D01*
X280827Y176024D02*
Y179961D01*
X278858Y177992D02*
X282795D01*
X253504Y12365D02*
Y16302D01*
X251535Y14334D02*
X255472D01*
X281811Y61496D02*
X285748D01*
X283780Y59528D02*
Y63465D01*
X340984Y8583D02*
X344921D01*
X342953Y6614D02*
Y10551D01*
X397598Y8228D02*
X401535D01*
X399567Y6260D02*
Y10197D01*
X419528Y49409D02*
X423465D01*
X421496Y47441D02*
Y51378D01*
X503780Y60000D02*
X507717D01*
X505748Y58032D02*
Y61969D01*
X506496Y9449D02*
X510433D01*
X508465Y7480D02*
Y11417D01*
X451220Y8622D02*
X455157D01*
X453189Y6654D02*
Y10591D01*
X478071Y13268D02*
Y17205D01*
X476102Y15236D02*
X480039D01*
X475394Y49094D02*
X479331D01*
X477362Y47126D02*
Y51063D01*
X481902Y340857D02*
X540363Y282396D01*
X481902Y340857D02*
X540363Y399319D01*
X598825Y340857D01*
X540363Y282396D02*
X598825Y340857D01*
X385214Y192913D02*
Y196850D01*
X383245Y194882D02*
X387182D01*
X454134Y135512D02*
Y139449D01*
X452165Y137480D02*
X456102D01*
X448071Y59921D02*
X452008D01*
X450039Y57953D02*
Y61890D01*
X393425Y60000D02*
X397362D01*
X395394Y58032D02*
Y61969D01*
X337874Y59921D02*
X341811D01*
X339843Y57953D02*
Y61890D01*
X458454Y259750D02*
Y263687D01*
X456485Y261719D02*
X460422D01*
X408296Y305301D02*
X412233D01*
X410265Y303333D02*
Y307270D01*
X384134Y284764D02*
Y288701D01*
X382165Y286732D02*
X386102D01*
X127087Y70906D02*
Y74843D01*
X125118Y72874D02*
X129055D01*
X365197Y46929D02*
Y50866D01*
X363228Y48898D02*
X367165D01*
X308465Y46417D02*
Y50354D01*
X306496Y48386D02*
X310433D01*
X253346Y47402D02*
Y51339D01*
X251378Y49370D02*
X255315D01*
X477992Y123583D02*
Y127520D01*
X476024Y125551D02*
X479961D01*
X476969Y84528D02*
Y88465D01*
X475000Y86496D02*
X478937D01*
X453504Y155407D02*
X457441D01*
X455472Y153438D02*
Y157375D01*
X457008Y108937D02*
X460945D01*
X458976Y106969D02*
Y110906D01*
X428858Y103858D02*
Y107795D01*
X426890Y105827D02*
X430827D01*
X431378Y150866D02*
Y154803D01*
X429409Y152835D02*
X433346D01*
X450079Y90669D02*
X454016D01*
X452047Y88701D02*
Y92638D01*
X299741Y194567D02*
X303678D01*
X301710Y192598D02*
Y196535D01*
X278797Y194567D02*
X282734D01*
X280765Y192598D02*
Y196535D01*
X404190Y194882D02*
X408127D01*
X406158Y192913D02*
Y196850D01*
X366961Y353555D02*
X370898D01*
X368929Y351587D02*
Y355524D01*
X344252Y347323D02*
Y351260D01*
X342283Y349291D02*
X346220D01*
X489055Y237244D02*
X492992D01*
X491024Y235276D02*
Y239213D01*
X357244Y324409D02*
X361181D01*
X359213Y322441D02*
Y326378D01*
X488780Y267513D02*
Y271450D01*
X486811Y269481D02*
X490748D01*
X545128Y143444D02*
Y147381D01*
X543159Y145413D02*
X547096D01*
X337145Y201693D02*
Y205630D01*
X335176Y203661D02*
X339113D01*
X497706Y34377D02*
X501643D01*
X499674Y32408D02*
Y36345D01*
X144094Y71103D02*
Y75040D01*
X142126Y73071D02*
X146063D01*
X83780Y72598D02*
X87717D01*
X85748Y70630D02*
Y74567D01*
X172992Y70748D02*
Y74685D01*
X171024Y72716D02*
X174961D01*
X191535Y70945D02*
Y74882D01*
X189567Y72914D02*
X193504D01*
X42402Y70669D02*
Y74606D01*
X40433Y72638D02*
X44370D01*
X60039Y70866D02*
Y74803D01*
X58071Y72835D02*
X62008D01*
X102480Y70827D02*
Y74764D01*
X100512Y72795D02*
X104449D01*
X442295Y34377D02*
X446232D01*
X444263Y32408D02*
Y36345D01*
X386884Y34377D02*
X390821D01*
X388853Y32408D02*
Y36345D01*
X331474Y34377D02*
X335411D01*
X333442Y32408D02*
Y36345D01*
X276063Y34377D02*
X280000D01*
X278031Y32408D02*
Y36345D01*
X365551Y208268D02*
X369488D01*
X367520Y206299D02*
Y210236D01*
X351772Y200158D02*
Y204095D01*
X349803Y202126D02*
X353740D01*
X437402Y200472D02*
Y204409D01*
X435433Y202441D02*
X439370D01*
X418976Y207638D02*
X422913D01*
X420945Y205669D02*
Y209606D01*
X261181Y208307D02*
X265118D01*
X263150Y206339D02*
Y210276D01*
X319231Y207126D02*
X323168D01*
X321199Y205157D02*
Y209094D01*
X353150Y368189D02*
Y372126D01*
X351181Y370157D02*
X355118D01*
D14*
X566810Y314410D02*
X567505Y315124D01*
X568180Y315856D01*
X568836Y316605D01*
X569471Y317371D01*
X570086Y318155D01*
X570680Y318954D01*
X571252Y319769D01*
X571803Y320599D01*
X572331Y321443D01*
X572836Y322301D01*
X573319Y323171D01*
X573778Y324055D01*
X574214Y324951D01*
X574625Y325857D01*
X575012Y326775D01*
X575375Y327702D01*
X575713Y328639D01*
X576025Y329584D01*
X576313Y330537D01*
X576575Y331498D01*
X576811Y332465D01*
X577022Y333439D01*
X577206Y334417D01*
X577364Y335400D01*
X577497Y336387D01*
X577602Y337377D01*
X577682Y338370D01*
X577735Y339364D01*
X577761Y340359D01*
Y341355D01*
X577735Y342351D01*
X577682Y343345D01*
X577602Y344337D01*
X577497Y345327D01*
X577364Y346315D01*
X577206Y347298D01*
X577022Y348276D01*
X576811Y349249D01*
X576575Y350217D01*
X576313Y351177D01*
X576025Y352131D01*
X575713Y353076D01*
X575375Y354013D01*
X575012Y354940D01*
X574625Y355857D01*
X574214Y356764D01*
X573778Y357660D01*
X573319Y358543D01*
X572836Y359414D01*
X572331Y360272D01*
X571803Y361116D01*
X571252Y361946D01*
X570680Y362761D01*
X570086Y363560D01*
X569471Y364343D01*
X568836Y365110D01*
X568180Y365859D01*
X567505Y366591D01*
X566810Y367304D01*
X566097Y367999D01*
X565365Y368674D01*
X564616Y369330D01*
X563849Y369966D01*
X563066Y370580D01*
X562267Y371174D01*
X561452Y371746D01*
X560622Y372297D01*
X559778Y372825D01*
X558920Y373331D01*
X558049Y373813D01*
X557165Y374272D01*
X556270Y374708D01*
X555363Y375119D01*
X554446Y375506D01*
X553518Y375869D01*
X552582Y376207D01*
X551637Y376519D01*
X550683Y376807D01*
X549722Y377069D01*
X548755Y377305D01*
X547782Y377516D01*
X546804Y377700D01*
X545820Y377859D01*
X544834Y377991D01*
X543843Y378097D01*
X542851Y378176D01*
X541856Y378229D01*
X540861Y378256D01*
X539865Y378256D01*
X538870Y378229D01*
X537876Y378176D01*
X536883Y378097D01*
X535893Y377991D01*
X534906Y377859D01*
X533923Y377700D01*
X532945Y377516D01*
X531971Y377305D01*
X531004Y377069D01*
X530043Y376807D01*
X529090Y376520D01*
X528145Y376207D01*
X527208Y375869D01*
X526281Y375506D01*
X525363Y375119D01*
X524457Y374708D01*
X523561Y374272D01*
X522677Y373813D01*
X521806Y373331D01*
X520949Y372825D01*
X520104Y372297D01*
X519275Y371747D01*
X518460Y371174D01*
X517661Y370581D01*
X516877Y369966D01*
X516111Y369330D01*
X515361Y368674D01*
X514630Y367999D01*
X513916Y367304D01*
X513916Y367304D02*
X513222Y366591D01*
X512546Y365859D01*
X511890Y365110D01*
X511255Y364343D01*
X510640Y363560D01*
X510046Y362761D01*
X509474Y361946D01*
X508923Y361116D01*
X508395Y360272D01*
X507890Y359414D01*
X507407Y358543D01*
X506948Y357660D01*
X506513Y356764D01*
X506101Y355857D01*
X505714Y354940D01*
X505351Y354013D01*
X505014Y353076D01*
X504701Y352131D01*
X504414Y351177D01*
X504151Y350217D01*
X503915Y349249D01*
X503705Y348276D01*
X503520Y347298D01*
X503362Y346315D01*
X503230Y345328D01*
X503124Y344338D01*
X503044Y343345D01*
X502991Y342351D01*
X502965Y341355D01*
Y340359D01*
X502991Y339364D01*
X503044Y338370D01*
X503124Y337377D01*
X503230Y336387D01*
X503362Y335400D01*
X503520Y334417D01*
X503705Y333439D01*
X503915Y332466D01*
X504151Y331498D01*
X504414Y330538D01*
X504701Y329584D01*
X505014Y328639D01*
X505351Y327702D01*
X505714Y326775D01*
X506101Y325857D01*
X506513Y324951D01*
X506948Y324055D01*
X507407Y323172D01*
X507890Y322301D01*
X508395Y321443D01*
X508923Y320599D01*
X509474Y319769D01*
X510046Y318954D01*
X510640Y318155D01*
X511255Y317372D01*
X511890Y316605D01*
X512546Y315856D01*
X513222Y315124D01*
X513916Y314410D01*
X514630Y313716D01*
X515361Y313040D01*
X516111Y312385D01*
X516877Y311749D01*
X517660Y311134D01*
X518460Y310541D01*
X519274Y309968D01*
X520104Y309418D01*
X520948Y308890D01*
X521806Y308384D01*
X522677Y307902D01*
X523561Y307442D01*
X524456Y307007D01*
X525363Y306595D01*
X526280Y306208D01*
X527208Y305846D01*
X528144Y305508D01*
X529090Y305195D01*
X530043Y304908D01*
X531004Y304646D01*
X531971Y304409D01*
X532944Y304199D01*
X533923Y304014D01*
X534906Y303856D01*
X535893Y303724D01*
X536883Y303618D01*
X537875Y303539D01*
X538870Y303486D01*
X539865Y303459D01*
X540861Y303459D01*
X541856Y303486D01*
X542851Y303539D01*
X543843Y303618D01*
X544833Y303724D01*
X545820Y303856D01*
X546803Y304014D01*
X547782Y304199D01*
X548755Y304409D01*
X549722Y304646D01*
X550683Y304908D01*
X551636Y305195D01*
X552582Y305508D01*
X553518Y305846D01*
X554446Y306208D01*
X555363Y306595D01*
X556270Y307007D01*
X557165Y307442D01*
X558049Y307901D01*
X558920Y308384D01*
X559778Y308889D01*
X560622Y309418D01*
X561452Y309968D01*
X562266Y310540D01*
X563066Y311134D01*
X563849Y311749D01*
X564615Y312385D01*
X565365Y313040D01*
X566096Y313716D01*
X566810Y314410D01*
X417330Y6484D02*
Y23437D01*
X427394D01*
Y6484D02*
Y23437D01*
X417330Y6484D02*
X427394D01*
X362842Y5972D02*
Y22926D01*
X372906D01*
Y5972D02*
Y22926D01*
X362842Y5972D02*
X372906D01*
X277783Y2960D02*
X294737D01*
X277783D02*
Y13024D01*
X294737D01*
Y2960D02*
Y13024D01*
X306700Y5578D02*
Y22532D01*
X316764D01*
Y5578D02*
Y22532D01*
X306700Y5578D02*
X316764D01*
X400224Y171582D02*
Y181646D01*
Y171582D02*
X417178D01*
Y181646D01*
X400224D02*
X417178D01*
X373492Y171385D02*
Y181449D01*
Y171385D02*
X390445D01*
Y181449D01*
X373492D02*
X390445D01*
X294161Y172960D02*
Y183024D01*
Y172960D02*
X311115D01*
Y183024D01*
X294161D02*
X311115D01*
X272350Y172960D02*
Y183024D01*
Y172960D02*
X289304D01*
Y183024D01*
X272350D02*
X289304D01*
X248472Y5857D02*
Y22811D01*
X258536D01*
Y5857D02*
Y22811D01*
X248472Y5857D02*
X258536D01*
X275303Y56464D02*
X292256D01*
X275303D02*
Y66528D01*
X292256D01*
Y56464D02*
Y66528D01*
X334476Y3551D02*
X351430D01*
X334476D02*
Y13615D01*
X351430D01*
Y3551D02*
Y13615D01*
X391090Y3196D02*
X408044D01*
X391090D02*
Y13260D01*
X408044D01*
Y3196D02*
Y13260D01*
X416464Y57886D02*
X426528D01*
X416464Y40933D02*
Y57886D01*
Y40933D02*
X426528D01*
Y57886D01*
X497271Y54968D02*
X514225D01*
X497271D02*
Y65032D01*
X514225D01*
Y54968D02*
Y65032D01*
X499988Y4417D02*
X516941D01*
X499988D02*
Y14481D01*
X516941D01*
Y4417D02*
Y14481D01*
X444712Y3590D02*
X461666D01*
X444712D02*
Y13654D01*
X461666D01*
Y3590D02*
Y13654D01*
X473039Y6759D02*
Y23713D01*
X483103D01*
Y6759D02*
Y23713D01*
X473039Y6759D02*
X483103D01*
X472330Y57571D02*
X482394D01*
X472330Y40618D02*
Y57571D01*
Y40618D02*
X482394D01*
Y57571D01*
X441563Y54889D02*
X458516D01*
X441563D02*
Y64953D01*
X458516D01*
Y54889D02*
Y64953D01*
X386917Y54968D02*
X403870D01*
X386917D02*
Y65032D01*
X403870D01*
Y54968D02*
Y65032D01*
X331366Y54889D02*
X348319D01*
X331366D02*
Y64953D01*
X348319D01*
Y54889D02*
Y64953D01*
X453422Y253242D02*
Y270195D01*
X463486D01*
Y253242D02*
Y270195D01*
X453422Y253242D02*
X463486D01*
X401788Y310333D02*
X418741D01*
Y300269D02*
Y310333D01*
X401788Y300269D02*
X418741D01*
X401788D02*
Y310333D01*
X389166Y278256D02*
Y295209D01*
X379102Y278256D02*
X389166D01*
X379102D02*
Y295209D01*
X389166D01*
X370229Y40421D02*
Y57374D01*
X360165Y40421D02*
X370229D01*
X360165D02*
Y57374D01*
X370229D01*
X313496Y39909D02*
Y56863D01*
X303433Y39909D02*
X313496D01*
X303433D02*
Y56863D01*
X313496D01*
X258378Y40893D02*
Y57847D01*
X248315Y40893D02*
X258378D01*
X248315D02*
Y57847D01*
X258378D01*
X483024Y117074D02*
Y134028D01*
X472960Y117074D02*
X483024D01*
X472960D02*
Y134028D01*
X483024D01*
X482000Y78019D02*
Y94973D01*
X471937Y78019D02*
X482000D01*
X471937D02*
Y94973D01*
X482000D01*
X446996Y150375D02*
X463949D01*
X446996D02*
Y160439D01*
X463949D01*
Y150375D02*
Y160439D01*
X450500Y103905D02*
X467453D01*
X450500D02*
Y113969D01*
X467453D01*
Y103905D02*
Y113969D01*
X423826Y97350D02*
Y114304D01*
X433890D01*
Y97350D02*
Y114304D01*
X423826Y97350D02*
X433890D01*
X426346Y144358D02*
Y161311D01*
X436410D01*
Y144358D02*
Y161311D01*
X426346Y144358D02*
X436410D01*
D16*
X488487Y11534D02*
X487487Y12533D01*
X485488D01*
X484488Y11534D01*
Y7535D01*
X485488Y6535D01*
X487487D01*
X488487Y7535D01*
X494485Y6535D02*
X490486D01*
X494485Y10534D01*
Y11534D01*
X493485Y12533D01*
X491486D01*
X490486Y11534D01*
X496484D02*
X497484Y12533D01*
X499483D01*
X500483Y11534D01*
Y7535D01*
X499483Y6535D01*
X497484D01*
X496484Y7535D01*
Y11534D01*
D17*
X386732Y344449D02*
Y360197D01*
X397756Y344449D02*
Y360197D01*
X386732Y344449D02*
X397756D01*
X386732Y360197D02*
X397756D01*
X241772Y191299D02*
Y212559D01*
X253189Y191299D02*
Y212559D01*
X241772Y191299D02*
X253189D01*
X241772Y212559D02*
X253189D01*
X398543Y276339D02*
Y296417D01*
X420197Y276339D02*
Y296417D01*
X398543D02*
X420197D01*
X398543Y276339D02*
X420197D01*
X455669Y307008D02*
X473386D01*
X455669Y298346D02*
X473386D01*
X455669D02*
Y307008D01*
X473386Y298346D02*
Y307008D01*
X377340Y187795D02*
X393088D01*
X377340Y201969D02*
X393088D01*
Y187795D02*
Y201969D01*
X377340Y187795D02*
Y201969D01*
X438780Y126457D02*
X469488D01*
X438780Y148504D02*
X469488D01*
Y126457D02*
Y148504D01*
X438780Y126457D02*
Y148504D01*
X121378Y83701D02*
X132795D01*
X121378Y62047D02*
X132795D01*
Y83701D01*
X121378Y62047D02*
Y83701D01*
X436693Y79646D02*
Y101693D01*
X467402Y79646D02*
Y101693D01*
X436693D02*
X467402D01*
X436693Y79646D02*
X467402D01*
X293836Y187480D02*
Y201654D01*
X309584Y187480D02*
Y201654D01*
X293836D02*
X309584D01*
X293836Y187480D02*
X309584D01*
X272891D02*
Y201654D01*
X288639Y187480D02*
Y201654D01*
X272891D02*
X288639D01*
X272891Y187480D02*
X288639D01*
X398284Y187795D02*
Y201969D01*
X414033Y187795D02*
Y201969D01*
X398284D02*
X414033D01*
X398284Y187795D02*
X414033D01*
X374047Y349028D02*
Y358083D01*
X363811Y349028D02*
Y358083D01*
Y349028D02*
X374047D01*
X363811Y358083D02*
X374047D01*
X337559Y342992D02*
X350945D01*
Y355591D01*
X337559D02*
X350945D01*
X337559Y342992D02*
Y355591D01*
X228772Y60122D02*
Y313902D01*
X207512D02*
X228772D01*
X207512Y60122D02*
Y313902D01*
Y60122D02*
X228772D01*
X501850Y229764D02*
Y244724D01*
X480197Y229764D02*
Y244724D01*
Y229764D02*
X501850D01*
X480197Y244724D02*
X501850D01*
X347795Y318898D02*
Y329921D01*
X370630Y318898D02*
Y329921D01*
X347795D02*
X370630D01*
X347795Y318898D02*
X370630D01*
X472441Y257670D02*
X505118D01*
X472441Y281292D02*
X505118D01*
Y257670D02*
Y281292D01*
X472441Y257670D02*
Y281292D01*
X528423Y19212D02*
X598108D01*
Y271614D01*
X528423D02*
X598108D01*
X528423Y19212D02*
Y271614D01*
X332814Y194803D02*
X341476D01*
X332814Y212520D02*
X341476D01*
X332814Y194803D02*
Y212520D01*
X341476Y194803D02*
Y212520D01*
X485206Y16069D02*
Y52684D01*
X514143Y16069D02*
Y52684D01*
X485206D02*
X514143D01*
X485206Y16069D02*
X514143D01*
X138386Y83701D02*
X149803D01*
X138386Y62441D02*
X149803D01*
Y83701D01*
X138386Y62441D02*
Y83701D01*
X80039Y61772D02*
Y83425D01*
X91457Y61772D02*
Y83425D01*
X80039Y61772D02*
X91457D01*
X80039Y83425D02*
X91457D01*
X167283Y83543D02*
X178701D01*
X167283Y61890D02*
X178701D01*
Y83543D01*
X167283Y61890D02*
Y83543D01*
X185827Y83543D02*
X197244D01*
X185827Y62284D02*
X197244D01*
Y83543D01*
X185827Y62284D02*
Y83543D01*
X36693Y83465D02*
X48110D01*
X36693Y61811D02*
X48110D01*
Y83465D01*
X36693Y61811D02*
Y83465D01*
X54331Y83465D02*
X65748D01*
X54331Y62205D02*
X65748D01*
Y83465D01*
X54331Y62205D02*
Y83465D01*
X96772Y83425D02*
X108189D01*
X96772Y62166D02*
X108189D01*
Y83425D01*
X96772Y62166D02*
Y83425D01*
X429795Y16069D02*
Y52684D01*
X458732Y16069D02*
Y52684D01*
X429795D02*
X458732D01*
X429795Y16069D02*
X458732D01*
X374384D02*
Y52684D01*
X403321Y16069D02*
Y52684D01*
X374384D02*
X403321D01*
X374384Y16069D02*
X403321D01*
X318974D02*
Y52684D01*
X347911Y16069D02*
Y52684D01*
X318974D02*
X347911D01*
X318974Y16069D02*
X347911D01*
X263563D02*
Y52684D01*
X292500Y16069D02*
Y52684D01*
X263563D02*
X292500D01*
X263563Y16069D02*
X292500D01*
X376378Y203937D02*
Y212598D01*
X358661Y203937D02*
Y212598D01*
Y203937D02*
X376378D01*
X358661Y212598D02*
X376378D01*
X346063Y212756D02*
X357480D01*
X346063Y191496D02*
X357480D01*
Y212756D01*
X346063Y191496D02*
Y212756D01*
X431693Y213071D02*
X443110D01*
X431693Y191811D02*
X443110D01*
Y213071D01*
X431693Y191811D02*
Y213071D01*
X412087Y203307D02*
Y211968D01*
X429803Y203307D02*
Y211968D01*
X412087D02*
X429803D01*
X412087Y203307D02*
X429803D01*
X272008Y203976D02*
Y212638D01*
X254291Y203976D02*
Y212638D01*
Y203976D02*
X272008D01*
X254291Y212638D02*
X272008D01*
X331829Y201417D02*
Y212835D01*
X310569Y201417D02*
Y212835D01*
Y201417D02*
X331829D01*
X310569Y212835D02*
X331829D01*
X28772Y60122D02*
Y313902D01*
X7512D02*
X28772D01*
X7512Y60122D02*
Y313902D01*
Y60122D02*
X28772D01*
X347638Y362283D02*
X358661D01*
X347638Y378031D02*
X358661D01*
X347638Y362283D02*
Y378031D01*
X358661Y362283D02*
Y378031D01*
D88*
X546523Y347017D02*
Y348617D01*
X548123D01*
Y347017D01*
X546523D01*
Y333098D02*
Y334698D01*
X548123D01*
Y333098D01*
X546523D01*
X532603D02*
Y334698D01*
X534203D01*
Y333098D01*
X532603D01*
Y347017D02*
Y348617D01*
X534203D01*
Y347017D01*
X532603D01*
X539563Y340057D02*
Y341657D01*
X541163D01*
Y340057D01*
X539563D01*
X213142Y66212D02*
X212342Y67812D01*
X213942D01*
X213142Y66212D01*
Y76212D02*
X212342Y77812D01*
X213942D01*
X213142Y76212D01*
Y86212D02*
X212342Y87812D01*
X213942D01*
X213142Y86212D01*
Y96212D02*
X212342Y97812D01*
X213942D01*
X213142Y96212D01*
Y106212D02*
X212342Y107812D01*
X213942D01*
X213142Y106212D01*
Y116212D02*
X212342Y117812D01*
X213942D01*
X213142Y116212D01*
Y126212D02*
X212342Y127812D01*
X213942D01*
X213142Y126212D01*
Y136212D02*
X212342Y137812D01*
X213942D01*
X213142Y136212D01*
Y146212D02*
X212342Y147812D01*
X213942D01*
X213142Y146212D01*
Y156212D02*
X212342Y157812D01*
X213942D01*
X213142Y156212D01*
Y166212D02*
X212342Y167812D01*
X213942D01*
X213142Y166212D01*
Y176212D02*
X212342Y177812D01*
X213942D01*
X213142Y176212D01*
Y186212D02*
X212342Y187812D01*
X213942D01*
X213142Y186212D01*
Y196212D02*
X212342Y197812D01*
X213942D01*
X213142Y196212D01*
Y206212D02*
X212342Y207812D01*
X213942D01*
X213142Y206212D01*
Y216212D02*
X212342Y217812D01*
X213942D01*
X213142Y216212D01*
Y226212D02*
X212342Y227812D01*
X213942D01*
X213142Y226212D01*
Y236212D02*
X212342Y237812D01*
X213942D01*
X213142Y236212D01*
Y246212D02*
X212342Y247812D01*
X213942D01*
X213142Y246212D01*
Y256212D02*
X212342Y257812D01*
X213942D01*
X213142Y256212D01*
Y266212D02*
X212342Y267812D01*
X213942D01*
X213142Y266212D01*
Y276212D02*
X212342Y277812D01*
X213942D01*
X213142Y276212D01*
Y286212D02*
X212342Y287812D01*
X213942D01*
X213142Y286212D01*
Y296212D02*
X212342Y297812D01*
X213942D01*
X213142Y296212D01*
Y306212D02*
X212342Y307812D01*
X213942D01*
X213142Y306212D01*
X223142Y66212D02*
X222342Y67812D01*
X223942D01*
X223142Y66212D01*
Y76212D02*
X222342Y77812D01*
X223942D01*
X223142Y76212D01*
Y86212D02*
X222342Y87812D01*
X223942D01*
X223142Y86212D01*
Y96212D02*
X222342Y97812D01*
X223942D01*
X223142Y96212D01*
Y106212D02*
X222342Y107812D01*
X223942D01*
X223142Y106212D01*
Y116212D02*
X222342Y117812D01*
X223942D01*
X223142Y116212D01*
Y126212D02*
X222342Y127812D01*
X223942D01*
X223142Y126212D01*
Y136212D02*
X222342Y137812D01*
X223942D01*
X223142Y136212D01*
Y146212D02*
X222342Y147812D01*
X223942D01*
X223142Y146212D01*
Y156212D02*
X222342Y157812D01*
X223942D01*
X223142Y156212D01*
Y166212D02*
X222342Y167812D01*
X223942D01*
X223142Y166212D01*
Y176212D02*
X222342Y177812D01*
X223942D01*
X223142Y176212D01*
Y186212D02*
X222342Y187812D01*
X223942D01*
X223142Y186212D01*
Y196212D02*
X222342Y197812D01*
X223942D01*
X223142Y196212D01*
Y206212D02*
X222342Y207812D01*
X223942D01*
X223142Y206212D01*
Y216212D02*
X222342Y217812D01*
X223942D01*
X223142Y216212D01*
Y226212D02*
X222342Y227812D01*
X223942D01*
X223142Y226212D01*
Y236212D02*
X222342Y237812D01*
X223942D01*
X223142Y236212D01*
Y246212D02*
X222342Y247812D01*
X223942D01*
X223142Y246212D01*
Y256212D02*
X222342Y257812D01*
X223942D01*
X223142Y256212D01*
Y266212D02*
X222342Y267812D01*
X223942D01*
X223142Y266212D01*
Y276212D02*
X222342Y277812D01*
X223942D01*
X223142Y276212D01*
Y286212D02*
X222342Y287812D01*
X223942D01*
X223142Y286212D01*
Y296212D02*
X222342Y297812D01*
X223942D01*
X223142Y296212D01*
Y306212D02*
X222342Y307812D01*
X223942D01*
X223142Y306212D01*
X548876Y258609D02*
X549276Y259009D01*
X549676D01*
X549276Y259409D01*
X549676Y259809D01*
X549276D01*
X548876Y260209D01*
X548476Y259809D01*
X548076D01*
X548476Y259409D01*
X548076Y259009D01*
X548476D01*
X548876Y258609D01*
Y30617D02*
X549276Y31017D01*
X549676D01*
X549276Y31417D01*
X549676Y31817D01*
X549276D01*
X548876Y32217D01*
X548476Y31817D01*
X548076D01*
X548476Y31417D01*
X548076Y31017D01*
X548476D01*
X548876Y30617D01*
X555578Y227113D02*
X555978Y227913D01*
X555578Y228713D01*
X556378Y228313D01*
X557178Y228713D01*
X556778Y227913D01*
X557178Y227113D01*
X556378Y227513D01*
X555578Y227113D01*
Y217113D02*
X555978Y217913D01*
X555578Y218713D01*
X556378Y218313D01*
X557178Y218713D01*
X556778Y217913D01*
X557178Y217113D01*
X556378Y217513D01*
X555578Y217113D01*
Y207113D02*
X555978Y207913D01*
X555578Y208713D01*
X556378Y208313D01*
X557178Y208713D01*
X556778Y207913D01*
X557178Y207113D01*
X556378Y207513D01*
X555578Y207113D01*
Y197113D02*
X555978Y197913D01*
X555578Y198713D01*
X556378Y198313D01*
X557178Y198713D01*
X556778Y197913D01*
X557178Y197113D01*
X556378Y197513D01*
X555578Y197113D01*
Y187113D02*
X555978Y187913D01*
X555578Y188713D01*
X556378Y188313D01*
X557178Y188713D01*
X556778Y187913D01*
X557178Y187113D01*
X556378Y187513D01*
X555578Y187113D01*
Y177113D02*
X555978Y177913D01*
X555578Y178713D01*
X556378Y178313D01*
X557178Y178713D01*
X556778Y177913D01*
X557178Y177113D01*
X556378Y177513D01*
X555578Y177113D01*
Y167113D02*
X555978Y167913D01*
X555578Y168713D01*
X556378Y168313D01*
X557178Y168713D01*
X556778Y167913D01*
X557178Y167113D01*
X556378Y167513D01*
X555578Y167113D01*
Y157113D02*
X555978Y157913D01*
X555578Y158713D01*
X556378Y158313D01*
X557178Y158713D01*
X556778Y157913D01*
X557178Y157113D01*
X556378Y157513D01*
X555578Y157113D01*
Y147113D02*
X555978Y147913D01*
X555578Y148713D01*
X556378Y148313D01*
X557178Y148713D01*
X556778Y147913D01*
X557178Y147113D01*
X556378Y147513D01*
X555578Y147113D01*
Y137113D02*
X555978Y137913D01*
X555578Y138713D01*
X556378Y138313D01*
X557178Y138713D01*
X556778Y137913D01*
X557178Y137113D01*
X556378Y137513D01*
X555578Y137113D01*
Y127113D02*
X555978Y127913D01*
X555578Y128713D01*
X556378Y128313D01*
X557178Y128713D01*
X556778Y127913D01*
X557178Y127113D01*
X556378Y127513D01*
X555578Y127113D01*
Y117113D02*
X555978Y117913D01*
X555578Y118713D01*
X556378Y118313D01*
X557178Y118713D01*
X556778Y117913D01*
X557178Y117113D01*
X556378Y117513D01*
X555578Y117113D01*
Y107113D02*
X555978Y107913D01*
X555578Y108713D01*
X556378Y108313D01*
X557178Y108713D01*
X556778Y107913D01*
X557178Y107113D01*
X556378Y107513D01*
X555578Y107113D01*
Y97113D02*
X555978Y97913D01*
X555578Y98713D01*
X556378Y98313D01*
X557178Y98713D01*
X556778Y97913D01*
X557178Y97113D01*
X556378Y97513D01*
X555578Y97113D01*
Y87113D02*
X555978Y87913D01*
X555578Y88713D01*
X556378Y88313D01*
X557178Y88713D01*
X556778Y87913D01*
X557178Y87113D01*
X556378Y87513D01*
X555578Y87113D01*
Y77113D02*
X555978Y77913D01*
X555578Y78713D01*
X556378Y78313D01*
X557178Y78713D01*
X556778Y77913D01*
X557178Y77113D01*
X556378Y77513D01*
X555578Y77113D01*
X548078Y222113D02*
X548478Y222913D01*
X548078Y223713D01*
X548878Y223313D01*
X549678Y223713D01*
X549278Y222913D01*
X549678Y222113D01*
X548878Y222513D01*
X548078Y222113D01*
Y212113D02*
X548478Y212913D01*
X548078Y213713D01*
X548878Y213313D01*
X549678Y213713D01*
X549278Y212913D01*
X549678Y212113D01*
X548878Y212513D01*
X548078Y212113D01*
Y202113D02*
X548478Y202913D01*
X548078Y203713D01*
X548878Y203313D01*
X549678Y203713D01*
X549278Y202913D01*
X549678Y202113D01*
X548878Y202513D01*
X548078Y202113D01*
Y192113D02*
X548478Y192913D01*
X548078Y193713D01*
X548878Y193313D01*
X549678Y193713D01*
X549278Y192913D01*
X549678Y192113D01*
X548878Y192513D01*
X548078Y192113D01*
Y182113D02*
X548478Y182913D01*
X548078Y183713D01*
X548878Y183313D01*
X549678Y183713D01*
X549278Y182913D01*
X549678Y182113D01*
X548878Y182513D01*
X548078Y182113D01*
Y172113D02*
X548478Y172913D01*
X548078Y173713D01*
X548878Y173313D01*
X549678Y173713D01*
X549278Y172913D01*
X549678Y172113D01*
X548878Y172513D01*
X548078Y172113D01*
Y162113D02*
X548478Y162913D01*
X548078Y163713D01*
X548878Y163313D01*
X549678Y163713D01*
X549278Y162913D01*
X549678Y162113D01*
X548878Y162513D01*
X548078Y162113D01*
Y152113D02*
X548478Y152913D01*
X548078Y153713D01*
X548878Y153313D01*
X549678Y153713D01*
X549278Y152913D01*
X549678Y152113D01*
X548878Y152513D01*
X548078Y152113D01*
Y142113D02*
X548478Y142913D01*
X548078Y143713D01*
X548878Y143313D01*
X549678Y143713D01*
X549278Y142913D01*
X549678Y142113D01*
X548878Y142513D01*
X548078Y142113D01*
Y132113D02*
X548478Y132913D01*
X548078Y133713D01*
X548878Y133313D01*
X549678Y133713D01*
X549278Y132913D01*
X549678Y132113D01*
X548878Y132513D01*
X548078Y132113D01*
Y122113D02*
X548478Y122913D01*
X548078Y123713D01*
X548878Y123313D01*
X549678Y123713D01*
X549278Y122913D01*
X549678Y122113D01*
X548878Y122513D01*
X548078Y122113D01*
Y112113D02*
X548478Y112913D01*
X548078Y113713D01*
X548878Y113313D01*
X549678Y113713D01*
X549278Y112913D01*
X549678Y112113D01*
X548878Y112513D01*
X548078Y112113D01*
Y102113D02*
X548478Y102913D01*
X548078Y103713D01*
X548878Y103313D01*
X549678Y103713D01*
X549278Y102913D01*
X549678Y102113D01*
X548878Y102513D01*
X548078Y102113D01*
Y92113D02*
X548478Y92913D01*
X548078Y93713D01*
X548878Y93313D01*
X549678Y93713D01*
X549278Y92913D01*
X549678Y92113D01*
X548878Y92513D01*
X548078Y92113D01*
Y82113D02*
X548478Y82913D01*
X548078Y83713D01*
X548878Y83313D01*
X549678Y83713D01*
X549278Y82913D01*
X549678Y82113D01*
X548878Y82513D01*
X548078Y82113D01*
Y72113D02*
X548478Y72913D01*
X548078Y73713D01*
X548878Y73313D01*
X549678Y73713D01*
X549278Y72913D01*
X549678Y72113D01*
X548878Y72513D01*
X548078Y72113D01*
X555578Y67113D02*
X555978Y67913D01*
X555578Y68713D01*
X556378Y68313D01*
X557178Y68713D01*
X556778Y67913D01*
X557178Y67113D01*
X556378Y67513D01*
X555578Y67113D01*
X548078Y62113D02*
X548478Y62913D01*
X548078Y63713D01*
X548878Y63313D01*
X549678Y63713D01*
X549278Y62913D01*
X549678Y62113D01*
X548878Y62513D01*
X548078Y62113D01*
X540578Y227113D02*
X540978Y227913D01*
X540578Y228713D01*
X541378Y228313D01*
X542178Y228713D01*
X541778Y227913D01*
X542178Y227113D01*
X541378Y227513D01*
X540578Y227113D01*
Y217113D02*
X540978Y217913D01*
X540578Y218713D01*
X541378Y218313D01*
X542178Y218713D01*
X541778Y217913D01*
X542178Y217113D01*
X541378Y217513D01*
X540578Y217113D01*
Y207113D02*
X540978Y207913D01*
X540578Y208713D01*
X541378Y208313D01*
X542178Y208713D01*
X541778Y207913D01*
X542178Y207113D01*
X541378Y207513D01*
X540578Y207113D01*
Y197113D02*
X540978Y197913D01*
X540578Y198713D01*
X541378Y198313D01*
X542178Y198713D01*
X541778Y197913D01*
X542178Y197113D01*
X541378Y197513D01*
X540578Y197113D01*
Y187113D02*
X540978Y187913D01*
X540578Y188713D01*
X541378Y188313D01*
X542178Y188713D01*
X541778Y187913D01*
X542178Y187113D01*
X541378Y187513D01*
X540578Y187113D01*
Y177113D02*
X540978Y177913D01*
X540578Y178713D01*
X541378Y178313D01*
X542178Y178713D01*
X541778Y177913D01*
X542178Y177113D01*
X541378Y177513D01*
X540578Y177113D01*
Y167113D02*
X540978Y167913D01*
X540578Y168713D01*
X541378Y168313D01*
X542178Y168713D01*
X541778Y167913D01*
X542178Y167113D01*
X541378Y167513D01*
X540578Y167113D01*
Y157113D02*
X540978Y157913D01*
X540578Y158713D01*
X541378Y158313D01*
X542178Y158713D01*
X541778Y157913D01*
X542178Y157113D01*
X541378Y157513D01*
X540578Y157113D01*
Y147113D02*
X540978Y147913D01*
X540578Y148713D01*
X541378Y148313D01*
X542178Y148713D01*
X541778Y147913D01*
X542178Y147113D01*
X541378Y147513D01*
X540578Y147113D01*
Y137113D02*
X540978Y137913D01*
X540578Y138713D01*
X541378Y138313D01*
X542178Y138713D01*
X541778Y137913D01*
X542178Y137113D01*
X541378Y137513D01*
X540578Y137113D01*
Y127113D02*
X540978Y127913D01*
X540578Y128713D01*
X541378Y128313D01*
X542178Y128713D01*
X541778Y127913D01*
X542178Y127113D01*
X541378Y127513D01*
X540578Y127113D01*
Y117113D02*
X540978Y117913D01*
X540578Y118713D01*
X541378Y118313D01*
X542178Y118713D01*
X541778Y117913D01*
X542178Y117113D01*
X541378Y117513D01*
X540578Y117113D01*
Y107113D02*
X540978Y107913D01*
X540578Y108713D01*
X541378Y108313D01*
X542178Y108713D01*
X541778Y107913D01*
X542178Y107113D01*
X541378Y107513D01*
X540578Y107113D01*
Y97113D02*
X540978Y97913D01*
X540578Y98713D01*
X541378Y98313D01*
X542178Y98713D01*
X541778Y97913D01*
X542178Y97113D01*
X541378Y97513D01*
X540578Y97113D01*
Y87113D02*
X540978Y87913D01*
X540578Y88713D01*
X541378Y88313D01*
X542178Y88713D01*
X541778Y87913D01*
X542178Y87113D01*
X541378Y87513D01*
X540578Y87113D01*
Y77113D02*
X540978Y77913D01*
X540578Y78713D01*
X541378Y78313D01*
X542178Y78713D01*
X541778Y77913D01*
X542178Y77113D01*
X541378Y77513D01*
X540578Y77113D01*
Y67113D02*
X540978Y67913D01*
X540578Y68713D01*
X541378Y68313D01*
X542178Y68713D01*
X541778Y67913D01*
X542178Y67113D01*
X541378Y67513D01*
X540578Y67113D01*
X533078Y222113D02*
X533478Y222913D01*
X533078Y223713D01*
X533878Y223313D01*
X534678Y223713D01*
X534278Y222913D01*
X534678Y222113D01*
X533878Y222513D01*
X533078Y222113D01*
Y212113D02*
X533478Y212913D01*
X533078Y213713D01*
X533878Y213313D01*
X534678Y213713D01*
X534278Y212913D01*
X534678Y212113D01*
X533878Y212513D01*
X533078Y212113D01*
Y202113D02*
X533478Y202913D01*
X533078Y203713D01*
X533878Y203313D01*
X534678Y203713D01*
X534278Y202913D01*
X534678Y202113D01*
X533878Y202513D01*
X533078Y202113D01*
Y192113D02*
X533478Y192913D01*
X533078Y193713D01*
X533878Y193313D01*
X534678Y193713D01*
X534278Y192913D01*
X534678Y192113D01*
X533878Y192513D01*
X533078Y192113D01*
Y182113D02*
X533478Y182913D01*
X533078Y183713D01*
X533878Y183313D01*
X534678Y183713D01*
X534278Y182913D01*
X534678Y182113D01*
X533878Y182513D01*
X533078Y182113D01*
Y172113D02*
X533478Y172913D01*
X533078Y173713D01*
X533878Y173313D01*
X534678Y173713D01*
X534278Y172913D01*
X534678Y172113D01*
X533878Y172513D01*
X533078Y172113D01*
Y162113D02*
X533478Y162913D01*
X533078Y163713D01*
X533878Y163313D01*
X534678Y163713D01*
X534278Y162913D01*
X534678Y162113D01*
X533878Y162513D01*
X533078Y162113D01*
Y152113D02*
X533478Y152913D01*
X533078Y153713D01*
X533878Y153313D01*
X534678Y153713D01*
X534278Y152913D01*
X534678Y152113D01*
X533878Y152513D01*
X533078Y152113D01*
Y142113D02*
X533478Y142913D01*
X533078Y143713D01*
X533878Y143313D01*
X534678Y143713D01*
X534278Y142913D01*
X534678Y142113D01*
X533878Y142513D01*
X533078Y142113D01*
Y132113D02*
X533478Y132913D01*
X533078Y133713D01*
X533878Y133313D01*
X534678Y133713D01*
X534278Y132913D01*
X534678Y132113D01*
X533878Y132513D01*
X533078Y132113D01*
Y122113D02*
X533478Y122913D01*
X533078Y123713D01*
X533878Y123313D01*
X534678Y123713D01*
X534278Y122913D01*
X534678Y122113D01*
X533878Y122513D01*
X533078Y122113D01*
Y112113D02*
X533478Y112913D01*
X533078Y113713D01*
X533878Y113313D01*
X534678Y113713D01*
X534278Y112913D01*
X534678Y112113D01*
X533878Y112513D01*
X533078Y112113D01*
Y102113D02*
X533478Y102913D01*
X533078Y103713D01*
X533878Y103313D01*
X534678Y103713D01*
X534278Y102913D01*
X534678Y102113D01*
X533878Y102513D01*
X533078Y102113D01*
Y92113D02*
X533478Y92913D01*
X533078Y93713D01*
X533878Y93313D01*
X534678Y93713D01*
X534278Y92913D01*
X534678Y92113D01*
X533878Y92513D01*
X533078Y92113D01*
Y82113D02*
X533478Y82913D01*
X533078Y83713D01*
X533878Y83313D01*
X534678Y83713D01*
X534278Y82913D01*
X534678Y82113D01*
X533878Y82513D01*
X533078Y82113D01*
Y72113D02*
X533478Y72913D01*
X533078Y73713D01*
X533878Y73313D01*
X534678Y73713D01*
X534278Y72913D01*
X534678Y72113D01*
X533878Y72513D01*
X533078Y72113D01*
Y62113D02*
X533478Y62913D01*
X533078Y63713D01*
X533878Y63313D01*
X534678Y63713D01*
X534278Y62913D01*
X534678Y62113D01*
X533878Y62513D01*
X533078Y62113D01*
X13142Y66212D02*
X12342Y67812D01*
X13942D01*
X13142Y66212D01*
Y76212D02*
X12342Y77812D01*
X13942D01*
X13142Y76212D01*
Y86212D02*
X12342Y87812D01*
X13942D01*
X13142Y86212D01*
Y96212D02*
X12342Y97812D01*
X13942D01*
X13142Y96212D01*
Y106212D02*
X12342Y107812D01*
X13942D01*
X13142Y106212D01*
Y116212D02*
X12342Y117812D01*
X13942D01*
X13142Y116212D01*
Y126212D02*
X12342Y127812D01*
X13942D01*
X13142Y126212D01*
Y136212D02*
X12342Y137812D01*
X13942D01*
X13142Y136212D01*
Y146212D02*
X12342Y147812D01*
X13942D01*
X13142Y146212D01*
Y156212D02*
X12342Y157812D01*
X13942D01*
X13142Y156212D01*
Y166212D02*
X12342Y167812D01*
X13942D01*
X13142Y166212D01*
Y176212D02*
X12342Y177812D01*
X13942D01*
X13142Y176212D01*
Y186212D02*
X12342Y187812D01*
X13942D01*
X13142Y186212D01*
Y196212D02*
X12342Y197812D01*
X13942D01*
X13142Y196212D01*
Y206212D02*
X12342Y207812D01*
X13942D01*
X13142Y206212D01*
Y216212D02*
X12342Y217812D01*
X13942D01*
X13142Y216212D01*
Y226212D02*
X12342Y227812D01*
X13942D01*
X13142Y226212D01*
Y236212D02*
X12342Y237812D01*
X13942D01*
X13142Y236212D01*
Y246212D02*
X12342Y247812D01*
X13942D01*
X13142Y246212D01*
Y256212D02*
X12342Y257812D01*
X13942D01*
X13142Y256212D01*
Y266212D02*
X12342Y267812D01*
X13942D01*
X13142Y266212D01*
Y276212D02*
X12342Y277812D01*
X13942D01*
X13142Y276212D01*
Y286212D02*
X12342Y287812D01*
X13942D01*
X13142Y286212D01*
Y296212D02*
X12342Y297812D01*
X13942D01*
X13142Y296212D01*
Y306212D02*
X12342Y307812D01*
X13942D01*
X13142Y306212D01*
X23142Y66212D02*
X22342Y67812D01*
X23942D01*
X23142Y66212D01*
Y76212D02*
X22342Y77812D01*
X23942D01*
X23142Y76212D01*
Y86212D02*
X22342Y87812D01*
X23942D01*
X23142Y86212D01*
Y96212D02*
X22342Y97812D01*
X23942D01*
X23142Y96212D01*
Y106212D02*
X22342Y107812D01*
X23942D01*
X23142Y106212D01*
Y116212D02*
X22342Y117812D01*
X23942D01*
X23142Y116212D01*
Y126212D02*
X22342Y127812D01*
X23942D01*
X23142Y126212D01*
Y136212D02*
X22342Y137812D01*
X23942D01*
X23142Y136212D01*
Y146212D02*
X22342Y147812D01*
X23942D01*
X23142Y146212D01*
Y156212D02*
X22342Y157812D01*
X23942D01*
X23142Y156212D01*
Y166212D02*
X22342Y167812D01*
X23942D01*
X23142Y166212D01*
Y176212D02*
X22342Y177812D01*
X23942D01*
X23142Y176212D01*
Y186212D02*
X22342Y187812D01*
X23942D01*
X23142Y186212D01*
Y196212D02*
X22342Y197812D01*
X23942D01*
X23142Y196212D01*
Y206212D02*
X22342Y207812D01*
X23942D01*
X23142Y206212D01*
Y216212D02*
X22342Y217812D01*
X23942D01*
X23142Y216212D01*
Y226212D02*
X22342Y227812D01*
X23942D01*
X23142Y226212D01*
Y236212D02*
X22342Y237812D01*
X23942D01*
X23142Y236212D01*
Y246212D02*
X22342Y247812D01*
X23942D01*
X23142Y246212D01*
Y256212D02*
X22342Y257812D01*
X23942D01*
X23142Y256212D01*
Y266212D02*
X22342Y267812D01*
X23942D01*
X23142Y266212D01*
Y276212D02*
X22342Y277812D01*
X23942D01*
X23142Y276212D01*
Y286212D02*
X22342Y287812D01*
X23942D01*
X23142Y286212D01*
Y296212D02*
X22342Y297812D01*
X23942D01*
X23142Y296212D01*
Y306212D02*
X22342Y307812D01*
X23942D01*
X23142Y306212D01*
X311175Y145742D02*
Y145342D01*
X311975D01*
Y145742D01*
X312375D01*
Y146542D01*
X311975D01*
Y146942D01*
X311175D01*
Y146542D01*
X310775D01*
Y145742D01*
X311175D01*
X352750Y375269D02*
Y374869D01*
X353550D01*
Y375269D01*
X353950D01*
Y376069D01*
X353550D01*
Y376469D01*
X352750D01*
Y376069D01*
X352350D01*
Y375269D01*
X352750D01*
X473380Y292947D02*
Y292547D01*
X474180D01*
Y292947D01*
X474579D01*
Y293746D01*
X474180D01*
Y294146D01*
X473380D01*
Y293746D01*
X472979D01*
Y292947D01*
X473380D01*
X480309Y297553D02*
Y297153D01*
X481109D01*
Y297553D01*
X481509D01*
Y298353D01*
X481109D01*
Y298753D01*
X480309D01*
Y298353D01*
X479909D01*
Y297553D01*
X480309D01*
X405621Y304401D02*
Y304001D01*
X406421D01*
Y304401D01*
X406821D01*
Y305201D01*
X406421D01*
Y305601D01*
X405621D01*
Y305201D01*
X405221D01*
Y304401D01*
X405621D01*
X458517Y302277D02*
Y301877D01*
X459317D01*
Y302277D01*
X459717D01*
Y303077D01*
X459317D01*
Y303477D01*
X458517D01*
Y303077D01*
X458117D01*
Y302277D01*
X458517D01*
X391844Y346411D02*
Y346011D01*
X392644D01*
Y346411D01*
X393044D01*
Y347211D01*
X392644D01*
Y347611D01*
X391844D01*
Y347211D01*
X391444D01*
Y346411D01*
X391844D01*
X383734Y290076D02*
Y289676D01*
X384534D01*
Y290076D01*
X384934D01*
Y290876D01*
X384534D01*
Y291276D01*
X383734D01*
Y290876D01*
X383334D01*
Y290076D01*
X383734D01*
X444758Y285821D02*
Y285420D01*
X445557D01*
Y285821D01*
X445958D01*
Y286620D01*
X445557D01*
Y287020D01*
X444758D01*
Y286620D01*
X444357D01*
Y285821D01*
X444758D01*
X401883Y291883D02*
Y291483D01*
X402683D01*
Y291883D01*
X403083D01*
Y292683D01*
X402683D01*
Y293083D01*
X401883D01*
Y292683D01*
X401483D01*
Y291883D01*
X401883D01*
X470624Y325072D02*
Y324672D01*
X471424D01*
Y325072D01*
X471824D01*
Y325872D01*
X471424D01*
Y326272D01*
X470624D01*
Y325872D01*
X470224D01*
Y325072D01*
X470624D01*
X204364Y116884D02*
Y116483D01*
X205164D01*
Y116884D01*
X205564D01*
Y117683D01*
X205164D01*
Y118084D01*
X204364D01*
Y117683D01*
X203964D01*
Y116884D01*
X204364D01*
X254246Y122080D02*
Y121680D01*
X255046D01*
Y122080D01*
X255446D01*
Y122880D01*
X255046D01*
Y123280D01*
X254246D01*
Y122880D01*
X253846D01*
Y122080D01*
X254246D01*
X265939Y130821D02*
Y130420D01*
X266739D01*
Y130821D01*
X267139D01*
Y131621D01*
X266739D01*
Y132020D01*
X265939D01*
Y131621D01*
X265539D01*
Y130821D01*
X265939D01*
X271057Y120505D02*
Y120106D01*
X271857D01*
Y120505D01*
X272257D01*
Y121306D01*
X271857D01*
Y121705D01*
X271057D01*
Y121306D01*
X270657D01*
Y120505D01*
X271057D01*
X256844Y129049D02*
Y128649D01*
X257644D01*
Y129049D01*
X258044D01*
Y129849D01*
X257644D01*
Y130249D01*
X256844D01*
Y129849D01*
X256444D01*
Y129049D01*
X256844D01*
X444915Y150545D02*
Y150145D01*
X445715D01*
Y150545D01*
X446115D01*
Y151345D01*
X445715D01*
Y151745D01*
X444915D01*
Y151345D01*
X444515D01*
Y150545D01*
X444915D01*
X446805Y87238D02*
Y86838D01*
X447605D01*
Y87238D01*
X448005D01*
Y88038D01*
X447605D01*
Y88438D01*
X446805D01*
Y88038D01*
X446405D01*
Y87238D01*
X446805D01*
X469009Y101253D02*
Y100854D01*
X469809D01*
Y101253D01*
X470210D01*
Y102053D01*
X469809D01*
Y102453D01*
X469009D01*
Y102053D01*
X468610D01*
Y101253D01*
X469009D01*
X468065Y124521D02*
Y124121D01*
X468865D01*
Y124521D01*
X469265D01*
Y125321D01*
X468865D01*
Y125721D01*
X468065D01*
Y125321D01*
X467665D01*
Y124521D01*
X468065D01*
X516254Y52435D02*
Y52035D01*
X517054D01*
Y52435D01*
X517453D01*
Y53235D01*
X517054D01*
Y53635D01*
X516254D01*
Y53235D01*
X515854D01*
Y52435D01*
X516254D01*
X426671Y40000D02*
Y39600D01*
X427471D01*
Y40000D01*
X427871D01*
Y40800D01*
X427471D01*
Y41200D01*
X426671D01*
Y40800D01*
X426271D01*
Y40000D01*
X426671D01*
X419096Y37783D02*
Y37383D01*
X419896D01*
Y37783D01*
X420296D01*
Y38583D01*
X419896D01*
Y38983D01*
X419096D01*
Y38583D01*
X418696D01*
Y37783D01*
X419096D01*
X329718Y46529D02*
Y46129D01*
X330518D01*
Y46529D01*
X330918D01*
Y47329D01*
X330518D01*
Y47729D01*
X329718D01*
Y47329D01*
X329318D01*
Y46529D01*
X329718D01*
X526608Y93813D02*
Y93413D01*
X527408D01*
Y93813D01*
X527808D01*
Y94613D01*
X527408D01*
Y95013D01*
X526608D01*
Y94613D01*
X526208D01*
Y93813D01*
X526608D01*
X394600Y182800D02*
Y182400D01*
X395400D01*
Y182800D01*
X395800D01*
Y183600D01*
X395400D01*
Y184000D01*
X394600D01*
Y183600D01*
X394200D01*
Y182800D01*
X394600D01*
X311490Y24206D02*
Y23806D01*
X312290D01*
Y24206D01*
X312690D01*
Y25006D01*
X312290D01*
Y25406D01*
X311490D01*
Y25006D01*
X311090D01*
Y24206D01*
X311490D01*
X313616Y35663D02*
Y35263D01*
X314416D01*
Y35663D01*
X314816D01*
Y36463D01*
X314416D01*
Y36863D01*
X313616D01*
Y36463D01*
X313216D01*
Y35663D01*
X313616D01*
X321253Y13734D02*
Y13334D01*
X322054D01*
Y13734D01*
X322453D01*
Y14534D01*
X322054D01*
Y14934D01*
X321253D01*
Y14534D01*
X320853D01*
Y13734D01*
X321253D01*
X189482Y2724D02*
Y2324D01*
X190282D01*
Y2724D01*
X190682D01*
Y3524D01*
X190282D01*
Y3924D01*
X189482D01*
Y3524D01*
X189082D01*
Y2724D01*
X189482D01*
X81490Y2907D02*
Y2507D01*
X82290D01*
Y2907D01*
X82690D01*
Y3707D01*
X82290D01*
Y4107D01*
X81490D01*
Y3707D01*
X81090D01*
Y2907D01*
X81490D01*
X248222Y15939D02*
Y15539D01*
X249022D01*
Y15939D01*
X249422D01*
Y16739D01*
X249022D01*
Y17139D01*
X248222D01*
Y16739D01*
X247822D01*
Y15939D01*
X248222D01*
X131017Y13261D02*
Y12861D01*
X131817D01*
Y13261D01*
X132217D01*
Y14061D01*
X131817D01*
Y14461D01*
X131017D01*
Y14061D01*
X130617D01*
Y13261D01*
X131017D01*
X415400Y245900D02*
Y245500D01*
X416200D01*
Y245900D01*
X416600D01*
Y246700D01*
X416200D01*
Y247100D01*
X415400D01*
Y246700D01*
X415000D01*
Y245900D01*
X415400D01*
X472300Y164100D02*
Y163700D01*
X473100D01*
Y164100D01*
X473500D01*
Y164900D01*
X473100D01*
Y165300D01*
X472300D01*
Y164900D01*
X471900D01*
Y164100D01*
X472300D01*
X194400Y216612D02*
Y216212D01*
X195200D01*
Y216612D01*
X195600D01*
Y217412D01*
X195200D01*
Y217812D01*
X194400D01*
Y217412D01*
X194000D01*
Y216612D01*
X194400D01*
X364500Y39100D02*
Y38700D01*
X365300D01*
Y39100D01*
X365700D01*
Y39900D01*
X365300D01*
Y40300D01*
X364500D01*
Y39900D01*
X364100D01*
Y39100D01*
X364500D01*
X410200Y182600D02*
Y182200D01*
X411000D01*
Y182600D01*
X411400D01*
Y183400D01*
X411000D01*
Y183800D01*
X410200D01*
Y183400D01*
X409800D01*
Y182600D01*
X410200D01*
X424802Y144198D02*
Y143798D01*
X425602D01*
Y144198D01*
X426002D01*
Y144998D01*
X425602D01*
Y145398D01*
X424802D01*
Y144998D01*
X424402D01*
Y144198D01*
X424802D01*
X433300Y88300D02*
Y87900D01*
X434100D01*
Y88300D01*
X434500D01*
Y89100D01*
X434100D01*
Y89500D01*
X433300D01*
Y89100D01*
X432900D01*
Y88300D01*
X433300D01*
X32500Y104400D02*
Y104000D01*
X33300D01*
Y104400D01*
X33700D01*
Y105200D01*
X33300D01*
Y105600D01*
X32500D01*
Y105200D01*
X32100D01*
Y104400D01*
X32500D01*
X495700Y24600D02*
Y24200D01*
X496500D01*
Y24600D01*
X496900D01*
Y25400D01*
X496500D01*
Y25800D01*
X495700D01*
Y25400D01*
X495300D01*
Y24600D01*
X495700D01*
X206200Y44200D02*
Y43800D01*
X207000D01*
Y44200D01*
X207400D01*
Y45000D01*
X207000D01*
Y45400D01*
X206200D01*
Y45000D01*
X205800D01*
Y44200D01*
X206200D01*
X202000Y228400D02*
Y228000D01*
X202800D01*
Y228400D01*
X203200D01*
Y229200D01*
X202800D01*
Y229600D01*
X202000D01*
Y229200D01*
X201600D01*
Y228400D01*
X202000D01*
Y81900D02*
Y81500D01*
X202800D01*
Y81900D01*
X203200D01*
Y82700D01*
X202800D01*
Y83100D01*
X202000D01*
Y82700D01*
X201600D01*
Y81900D01*
X202000D01*
X562800Y234600D02*
Y234200D01*
X563600D01*
Y234600D01*
X564000D01*
Y235400D01*
X563600D01*
Y235800D01*
X562800D01*
Y235400D01*
X562400D01*
Y234600D01*
X562800D01*
X228200Y47900D02*
Y47500D01*
X229000D01*
Y47900D01*
X229400D01*
Y48700D01*
X229000D01*
Y49100D01*
X228200D01*
Y48700D01*
X227800D01*
Y47900D01*
X228200D01*
X219200Y39300D02*
Y38900D01*
X220000D01*
Y39300D01*
X220400D01*
Y40100D01*
X220000D01*
Y40500D01*
X219200D01*
Y40100D01*
X218800D01*
Y39300D01*
X219200D01*
X272900Y80400D02*
Y80000D01*
X273700D01*
Y80400D01*
X274100D01*
Y81200D01*
X273700D01*
Y81600D01*
X272900D01*
Y81200D01*
X272500D01*
Y80400D01*
X272900D01*
X281500Y76900D02*
Y76500D01*
X282300D01*
Y76900D01*
X282700D01*
Y77700D01*
X282300D01*
Y78100D01*
X281500D01*
Y77700D01*
X281100D01*
Y76900D01*
X281500D01*
X434800Y134521D02*
Y134121D01*
X435600D01*
Y134521D01*
X436000D01*
Y135321D01*
X435600D01*
Y135721D01*
X434800D01*
Y135321D01*
X434400D01*
Y134521D01*
X434800D01*
X253400Y153800D02*
Y153400D01*
X254200D01*
Y153800D01*
X254600D01*
Y154600D01*
X254200D01*
Y155000D01*
X253400D01*
Y154600D01*
X253000D01*
Y153800D01*
X253400D01*
X432600Y140600D02*
Y140200D01*
X433400D01*
Y140600D01*
X433800D01*
Y141400D01*
X433400D01*
Y141800D01*
X432600D01*
Y141400D01*
X432200D01*
Y140600D01*
X432600D01*
X295023Y29100D02*
Y28700D01*
X295823D01*
Y29100D01*
X296223D01*
Y29900D01*
X295823D01*
Y30300D01*
X295023D01*
Y29900D01*
X294623D01*
Y29100D01*
X295023D01*
X495400Y74800D02*
Y74400D01*
X496200D01*
Y74800D01*
X496600D01*
Y75600D01*
X496200D01*
Y76000D01*
X495400D01*
Y75600D01*
X495000D01*
Y74800D01*
X495400D01*
X499800Y133000D02*
Y132600D01*
X500600D01*
Y133000D01*
X501000D01*
Y133800D01*
X500600D01*
Y134200D01*
X499800D01*
Y133800D01*
X499400D01*
Y133000D01*
X499800D01*
X100200Y193500D02*
Y193100D01*
X101000D01*
Y193500D01*
X101400D01*
Y194300D01*
X101000D01*
Y194700D01*
X100200D01*
Y194300D01*
X99800D01*
Y193500D01*
X100200D01*
X374500Y232500D02*
Y232100D01*
X375300D01*
Y232500D01*
X375700D01*
Y233300D01*
X375300D01*
Y233700D01*
X374500D01*
Y233300D01*
X374100D01*
Y232500D01*
X374500D01*
X303900Y23100D02*
Y22700D01*
X304700D01*
Y23100D01*
X305100D01*
Y23900D01*
X304700D01*
Y24300D01*
X303900D01*
Y23900D01*
X303500D01*
Y23100D01*
X303900D01*
X358200Y30800D02*
Y30400D01*
X359000D01*
Y30800D01*
X359400D01*
Y31600D01*
X359000D01*
Y32000D01*
X358200D01*
Y31600D01*
X357800D01*
Y30800D01*
X358200D01*
X388400Y19000D02*
Y18600D01*
X389200D01*
Y19000D01*
X389600D01*
Y19800D01*
X389200D01*
Y20200D01*
X388400D01*
Y19800D01*
X388000D01*
Y19000D01*
X388400D01*
X470300Y72800D02*
Y72400D01*
X471100D01*
Y72800D01*
X471500D01*
Y73600D01*
X471100D01*
Y74000D01*
X470300D01*
Y73600D01*
X469900D01*
Y72800D01*
X470300D01*
X450500Y146100D02*
Y145700D01*
X451300D01*
Y146100D01*
X451700D01*
Y146900D01*
X451300D01*
Y147300D01*
X450500D01*
Y146900D01*
X450100D01*
Y146100D01*
X450500D01*
X196500Y253900D02*
Y253500D01*
X197300D01*
Y253900D01*
X197700D01*
Y254700D01*
X197300D01*
Y255100D01*
X196500D01*
Y254700D01*
X196100D01*
Y253900D01*
X196500D01*
X426691Y223709D02*
Y223309D01*
X427491D01*
Y223709D01*
X427891D01*
Y224509D01*
X427491D01*
Y224909D01*
X426691D01*
Y224509D01*
X426291D01*
Y223709D01*
X426691D01*
X567600Y223800D02*
Y223400D01*
X568400D01*
Y223800D01*
X568800D01*
Y224600D01*
X568400D01*
Y225000D01*
X567600D01*
Y224600D01*
X567200D01*
Y223800D01*
X567600D01*
X291300Y258600D02*
Y258200D01*
X292100D01*
Y258600D01*
X292500D01*
Y259400D01*
X292100D01*
Y259800D01*
X291300D01*
Y259400D01*
X290900D01*
Y258600D01*
X291300D01*
X351200Y63600D02*
Y63200D01*
X352000D01*
Y63600D01*
X352400D01*
Y64400D01*
X352000D01*
Y64800D01*
X351200D01*
Y64400D01*
X350800D01*
Y63600D01*
X351200D01*
X410800Y151700D02*
Y151300D01*
X411600D01*
Y151700D01*
X412000D01*
Y152500D01*
X411600D01*
Y152900D01*
X410800D01*
Y152500D01*
X410400D01*
Y151700D01*
X410800D01*
X416600Y161600D02*
Y161200D01*
X417400D01*
Y161600D01*
X417800D01*
Y162400D01*
X417400D01*
Y162800D01*
X416600D01*
Y162400D01*
X416200D01*
Y161600D01*
X416600D01*
X441900Y20100D02*
Y19700D01*
X442700D01*
Y20100D01*
X443100D01*
Y20900D01*
X442700D01*
Y21300D01*
X441900D01*
Y20900D01*
X441500D01*
Y20100D01*
X441900D01*
X245800Y27800D02*
Y27400D01*
X246600D01*
Y27800D01*
X247000D01*
Y28600D01*
X246600D01*
Y29000D01*
X245800D01*
Y28600D01*
X245400D01*
Y27800D01*
X245800D01*
X386200Y46100D02*
Y45700D01*
X387000D01*
Y46100D01*
X387400D01*
Y46900D01*
X387000D01*
Y47300D01*
X386200D01*
Y46900D01*
X385800D01*
Y46100D01*
X386200D01*
X206616Y51700D02*
Y51300D01*
X207416D01*
Y51700D01*
X207816D01*
Y52500D01*
X207416D01*
Y52900D01*
X206616D01*
Y52500D01*
X206216D01*
Y51700D01*
X206616D01*
X203800Y132900D02*
Y132500D01*
X204600D01*
Y132900D01*
X205000D01*
Y133700D01*
X204600D01*
Y134100D01*
X203800D01*
Y133700D01*
X203400D01*
Y132900D01*
X203800D01*
X194100Y141000D02*
Y140600D01*
X194900D01*
Y141000D01*
X195300D01*
Y141800D01*
X194900D01*
Y142200D01*
X194100D01*
Y141800D01*
X193700D01*
Y141000D01*
X194100D01*
X263900Y72200D02*
Y71800D01*
X264700D01*
Y72200D01*
X265100D01*
Y73000D01*
X264700D01*
Y73400D01*
X263900D01*
Y73000D01*
X263500D01*
Y72200D01*
X263900D01*
X242100Y102300D02*
Y101900D01*
X242900D01*
Y102300D01*
X243300D01*
Y103100D01*
X242900D01*
Y103500D01*
X242100D01*
Y103100D01*
X241700D01*
Y102300D01*
X242100D01*
X501500Y29400D02*
Y29000D01*
X502300D01*
Y29400D01*
X502700D01*
Y30200D01*
X502300D01*
Y30600D01*
X501500D01*
Y30200D01*
X501100D01*
Y29400D01*
X501500D01*
X500139Y292901D02*
Y292501D01*
X500939D01*
Y292901D01*
X501339D01*
Y293701D01*
X500939D01*
Y294101D01*
X500139D01*
Y293701D01*
X499739D01*
Y292901D01*
X500139D01*
X319100Y254400D02*
Y254000D01*
X319900D01*
Y254400D01*
X320300D01*
Y255200D01*
X319900D01*
Y255600D01*
X319100D01*
Y255200D01*
X318700D01*
Y254400D01*
X319100D01*
X249000Y285900D02*
Y285500D01*
X249800D01*
Y285900D01*
X250200D01*
Y286700D01*
X249800D01*
Y287100D01*
X249000D01*
Y286700D01*
X248600D01*
Y285900D01*
X249000D01*
Y217000D02*
Y216600D01*
X249800D01*
Y217000D01*
X250200D01*
Y217800D01*
X249800D01*
Y218200D01*
X249000D01*
Y217800D01*
X248600D01*
Y217000D01*
X249000D01*
X392800Y31500D02*
Y31100D01*
X393600D01*
Y31500D01*
X394000D01*
Y32300D01*
X393600D01*
Y32700D01*
X392800D01*
Y32300D01*
X392400D01*
Y31500D01*
X392800D01*
X470200Y47000D02*
Y46600D01*
X471000D01*
Y47000D01*
X471400D01*
Y47800D01*
X471000D01*
Y48200D01*
X470200D01*
Y47800D01*
X469800D01*
Y47000D01*
X470200D01*
X562950Y242550D02*
Y242150D01*
X563750D01*
Y242550D01*
X564150D01*
Y243350D01*
X563750D01*
Y243750D01*
X562950D01*
Y243350D01*
X562550D01*
Y242550D01*
X562950D01*
X328247Y197553D02*
Y197153D01*
X329047D01*
Y197553D01*
X329447D01*
Y198353D01*
X329047D01*
Y198753D01*
X328247D01*
Y198353D01*
X327847D01*
Y197553D01*
X328247D01*
X296300Y205800D02*
Y205400D01*
X297100D01*
Y205800D01*
X297500D01*
Y206600D01*
X297100D01*
Y207000D01*
X296300D01*
Y206600D01*
X295900D01*
Y205800D01*
X296300D01*
X368129Y354330D02*
X368529D01*
X368929Y354730D01*
X369329Y354330D01*
X369729D01*
Y354730D01*
X369329Y355130D01*
X369729Y355530D01*
Y355930D01*
X369329D01*
X368929Y355530D01*
X368529Y355930D01*
X368129D01*
Y355530D01*
X368529Y355130D01*
X368129Y354730D01*
Y354330D01*
Y351180D02*
X368529D01*
X368929Y351580D01*
X369329Y351180D01*
X369729D01*
Y351580D01*
X369329Y351980D01*
X369729Y352380D01*
Y352780D01*
X369329D01*
X368929Y352380D01*
X368529Y352780D01*
X368129D01*
Y352380D01*
X368529Y351980D01*
X368129Y351580D01*
Y351180D01*
D89*
X467217Y238071D02*
X466665Y238832D01*
X465770Y238541D01*
Y237601D01*
X466665Y237310D01*
X467217Y238071D01*
X457217D02*
X456665Y238832D01*
X455770Y238541D01*
Y237601D01*
X456665Y237310D01*
X457217Y238071D01*
M02*
