%TF.GenerationSoftware,Altium Limited,Altium Designer,19.0.15 (446)*%
G04 Layer_Physical_Order=2*
G04 Layer_Color=16711680*
%FSLAX26Y26*%
%MOIN*%
%TF.FileFunction,Copper,L2,Bot,Signal*%
%TF.Part,Single*%
G01*
G75*
%TA.AperFunction,Conductor*%
%ADD33C,0.010000*%
%ADD34C,0.019685*%
%TA.AperFunction,ComponentPad*%
%ADD37C,0.070866*%
%ADD38R,0.053150X0.053150*%
%ADD39C,0.053150*%
%ADD40C,0.061024*%
%ADD41R,0.061024X0.061024*%
%ADD42R,0.059055X0.059055*%
%ADD43C,0.059055*%
%TA.AperFunction,ViaPad*%
%ADD44C,0.050000*%
%TA.AperFunction,TestPad*%
%ADD45C,0.050000*%
%TA.AperFunction,ViaPad*%
%ADD46C,0.070866*%
%ADD47C,0.019685*%
G36*
X4653936Y3910771D02*
X4653936Y2969291D01*
X4279527D01*
X4279528Y2731446D01*
X4274854Y2726772D01*
X3695669D01*
X2903511Y2726771D01*
X2586614Y3031780D01*
X2586614Y3912624D01*
X3692132Y3914037D01*
X3692136Y3914033D01*
X4650400Y3914306D01*
X4653936Y3910771D01*
D02*
G37*
%LPC*%
G36*
X3536496Y3791336D02*
Y3761692D01*
X3566140D01*
X3565595Y3765829D01*
X3562068Y3774343D01*
X3556458Y3781654D01*
X3549147Y3787264D01*
X3540633Y3790791D01*
X3536496Y3791336D01*
D02*
G37*
G36*
X3526496D02*
X3522359Y3790791D01*
X3513845Y3787264D01*
X3506534Y3781654D01*
X3500924Y3774343D01*
X3497397Y3765829D01*
X3496852Y3761692D01*
X3526496D01*
Y3791336D01*
D02*
G37*
G36*
X3566140Y3751692D02*
X3536496D01*
Y3722048D01*
X3540633Y3722593D01*
X3549147Y3726120D01*
X3556458Y3731730D01*
X3562068Y3739041D01*
X3565595Y3747555D01*
X3566140Y3751692D01*
D02*
G37*
G36*
X3526496D02*
X3496852D01*
X3497397Y3747555D01*
X3500924Y3739041D01*
X3506534Y3731730D01*
X3513845Y3726120D01*
X3522359Y3722593D01*
X3526496Y3722048D01*
Y3751692D01*
D02*
G37*
G36*
X3694292Y3569789D02*
Y3555552D01*
X3708529D01*
X3707983Y3558294D01*
X3703598Y3564858D01*
X3700512Y3566919D01*
X3697034Y3569243D01*
X3694292Y3569789D01*
D02*
G37*
G36*
X3684292D02*
X3681550Y3569243D01*
X3674986Y3564858D01*
X3670601Y3558294D01*
X3670055Y3555552D01*
X3684292D01*
Y3569789D01*
D02*
G37*
G36*
X3708529Y3545552D02*
X3670055D01*
X3670601Y3542810D01*
X3673196Y3538927D01*
X3674589Y3535178D01*
D01*
D01*
X3673196Y3531430D01*
D01*
X3670601Y3527546D01*
X3670055Y3524804D01*
X3708529D01*
X3707983Y3527546D01*
X3705388Y3531430D01*
X3703995Y3535178D01*
X3705388Y3538927D01*
X3707983Y3542810D01*
X3708529Y3545552D01*
D02*
G37*
G36*
Y3514804D02*
X3694292D01*
Y3500567D01*
X3697034Y3501113D01*
X3703598Y3505498D01*
X3707983Y3512062D01*
X3708529Y3514804D01*
D02*
G37*
G36*
X3684292D02*
X3670055D01*
X3670601Y3512062D01*
X3674986Y3505498D01*
X3681550Y3501113D01*
X3684292Y3500567D01*
Y3514804D01*
D02*
G37*
G36*
X3927440Y3500785D02*
Y3471141D01*
X3957084D01*
X3956539Y3475278D01*
X3953013Y3483792D01*
X3947403Y3491104D01*
X3940091Y3496714D01*
X3931577Y3500240D01*
X3927440Y3500785D01*
D02*
G37*
G36*
X3917440D02*
X3913304Y3500240D01*
X3904789Y3496714D01*
X3897478Y3491104D01*
X3891868Y3483792D01*
X3888341Y3475278D01*
X3887797Y3471141D01*
X3917440D01*
Y3500785D01*
D02*
G37*
G36*
X3957084Y3461141D02*
X3927440D01*
Y3431497D01*
X3931577Y3432042D01*
X3940091Y3435569D01*
X3947403Y3441179D01*
X3953013Y3448490D01*
X3956539Y3457004D01*
X3957084Y3461141D01*
D02*
G37*
G36*
X3917440D02*
X3887797D01*
X3888341Y3457004D01*
X3891868Y3448490D01*
X3897478Y3441179D01*
X3904789Y3435569D01*
X3913304Y3432042D01*
X3917440Y3431497D01*
Y3461141D01*
D02*
G37*
G36*
X4070214Y3087656D02*
Y3058012D01*
X4099858D01*
X4099313Y3062149D01*
X4095786Y3070663D01*
X4090176Y3077974D01*
X4082865Y3083584D01*
X4074351Y3087111D01*
X4070214Y3087656D01*
D02*
G37*
G36*
X4060214D02*
X4056077Y3087111D01*
X4047563Y3083584D01*
X4040252Y3077974D01*
X4034642Y3070663D01*
X4031115Y3062149D01*
X4030570Y3058012D01*
X4060214D01*
Y3087656D01*
D02*
G37*
G36*
X4594174Y3061416D02*
Y3031772D01*
X4623818D01*
X4623273Y3035909D01*
X4619746Y3044423D01*
X4614136Y3051734D01*
X4606825Y3057344D01*
X4598311Y3060871D01*
X4594174Y3061416D01*
D02*
G37*
G36*
X4584174D02*
X4580037Y3060871D01*
X4571523Y3057344D01*
X4564212Y3051734D01*
X4558602Y3044423D01*
X4555075Y3035909D01*
X4554530Y3031772D01*
X4584174D01*
Y3061416D01*
D02*
G37*
G36*
X4099858Y3048012D02*
X4070214D01*
Y3018368D01*
X4074351Y3018913D01*
X4082865Y3022440D01*
X4090176Y3028050D01*
X4095786Y3035361D01*
X4099313Y3043875D01*
X4099858Y3048012D01*
D02*
G37*
G36*
X4060214D02*
X4030570D01*
X4030597Y3047809D01*
X4030933Y3045260D01*
X4031115Y3043875D01*
X4034642Y3035361D01*
X4040252Y3028050D01*
X4047563Y3022440D01*
X4056077Y3018913D01*
X4060214Y3018368D01*
Y3048012D01*
D02*
G37*
G36*
X4623818Y3021772D02*
X4594174D01*
Y2992128D01*
X4598311Y2992673D01*
X4606825Y2996200D01*
X4614136Y3001810D01*
X4619746Y3009121D01*
X4623273Y3017635D01*
X4623818Y3021772D01*
D02*
G37*
G36*
X4584174D02*
X4554530D01*
X4555075Y3017635D01*
X4558602Y3009121D01*
X4564212Y3001810D01*
X4571523Y2996200D01*
X4580037Y2992673D01*
X4584174Y2992128D01*
Y3021772D01*
D02*
G37*
G36*
X4027834Y2957478D02*
Y2927834D01*
X4057478D01*
X4056933Y2931971D01*
X4053406Y2940485D01*
X4047796Y2947796D01*
X4040485Y2953406D01*
X4031971Y2956933D01*
X4027834Y2957478D01*
D02*
G37*
G36*
X4017834D02*
X4013697Y2956933D01*
X4005183Y2953406D01*
X3997872Y2947796D01*
X3992262Y2940485D01*
X3988735Y2931971D01*
X3988190Y2927834D01*
X4017834D01*
Y2957478D01*
D02*
G37*
G36*
X3846338Y2939400D02*
Y2909756D01*
X3875982D01*
X3875437Y2913893D01*
X3871910Y2922407D01*
X3866300Y2929718D01*
X3858989Y2935328D01*
X3850475Y2938855D01*
X3846338Y2939400D01*
D02*
G37*
G36*
X3836338D02*
X3832201Y2938855D01*
X3823687Y2935328D01*
X3816376Y2929718D01*
X3810766Y2922407D01*
X3807239Y2913893D01*
X3806694Y2909756D01*
X3836338D01*
Y2939400D01*
D02*
G37*
G36*
X4057478Y2917834D02*
X4027834D01*
Y2888190D01*
X4031971Y2888735D01*
X4040485Y2892262D01*
X4047796Y2897872D01*
X4053406Y2905183D01*
X4056933Y2913697D01*
X4057478Y2917834D01*
D02*
G37*
G36*
X4017834D02*
X3988190D01*
X3988735Y2913697D01*
X3992262Y2905183D01*
X3997872Y2897872D01*
X4005183Y2892262D01*
X4013697Y2888735D01*
X4017834Y2888190D01*
Y2917834D01*
D02*
G37*
G36*
X3875982Y2899756D02*
X3846338D01*
Y2870112D01*
X3850475Y2870657D01*
X3858989Y2874184D01*
X3866300Y2879794D01*
X3871910Y2887105D01*
X3875437Y2895619D01*
X3875982Y2899756D01*
D02*
G37*
G36*
X3836338D02*
X3806694D01*
X3807239Y2895619D01*
X3810766Y2887105D01*
X3816376Y2879794D01*
X3823687Y2874184D01*
X3832201Y2870657D01*
X3836338Y2870112D01*
Y2899756D01*
D02*
G37*
%LPD*%
D33*
X2149389Y1813504D02*
X2178698Y1784195D01*
X2184138D01*
X2213447Y1813504D01*
X2249389D02*
X2283365Y1779528D01*
X2079471D02*
X2113447Y1813504D01*
X599472Y1779528D02*
X2079471D01*
X2283365D02*
X3668976D01*
X2113447Y1813504D02*
X2149389D01*
X2213447D02*
X2249389D01*
X3668976Y1779528D02*
X3809134Y1639370D01*
X259000Y2120000D02*
X599472Y1779528D01*
X2932213Y1500787D02*
X3169000Y1264000D01*
X2404509Y1500787D02*
X2932213D01*
X2329722Y1426000D02*
X2404509Y1500787D01*
X602552Y1520000D02*
X2986666D01*
X452434Y1670118D02*
X602552Y1520000D01*
X2986666D02*
X3222050Y1284616D01*
X2255000Y1326000D02*
X2388055Y1459055D01*
X2862231D01*
X2913122Y1308822D02*
Y1346878D01*
X2858000Y1402000D02*
X2913122Y1346878D01*
X3635346Y875591D02*
Y897552D01*
X3637518Y899724D01*
X1714000Y98000D02*
X5645244D01*
X3054000Y140000D02*
X5128000D01*
X5645244Y98000D02*
X5737953Y190709D01*
X2243584Y2176772D02*
X2857480D01*
X2240828Y2179528D02*
X2243584Y2176772D01*
X2408956Y2688032D02*
X5194252D01*
X5544882Y2337402D01*
X5590158D01*
X5621104Y2306455D01*
X5332612Y2524000D02*
X5538036Y2318576D01*
X5580120D01*
X5603230Y2295468D01*
X3998000Y2524000D02*
X5332612D01*
X5677559Y2773228D02*
X5740552Y2710235D01*
X5357126Y2773228D02*
X5677559D01*
X5457000Y551874D02*
X5488874Y520000D01*
X5320874Y551874D02*
X5457000D01*
X5222543Y453543D02*
X5320874Y551874D01*
X5342000Y426000D02*
X5381512D01*
X5397638Y442126D01*
X5452688D01*
X5488874Y478312D01*
Y520000D01*
X4073756Y1677244D02*
X4325016Y1425984D01*
X3039430Y2619764D02*
X3897925D01*
X3905878Y2611811D01*
X4775197D01*
X4131301Y493652D02*
X4334526D01*
X4097000Y527953D02*
X4131301Y493652D01*
X4389000Y694882D02*
X4395882D01*
X4340882Y743000D02*
X4389000Y694882D01*
X4561921Y720079D02*
X4589370D01*
X4516000Y766000D02*
X4561921Y720079D01*
X5646748Y569748D02*
X5697000Y620000D01*
X5118222Y569748D02*
X5646748D01*
X5110600Y562126D02*
X5118222Y569748D01*
X4804834Y493652D02*
X4873308Y562126D01*
X5110600D01*
X5139418Y723779D02*
X5174198Y689000D01*
X4801779Y723779D02*
X5139418D01*
X4567716Y642126D02*
X4685118Y759528D01*
X4640064Y646064D02*
X4735654Y741654D01*
X4683276Y605276D02*
X4801779Y723779D01*
X4735654Y741654D02*
X5258779D01*
X5265716Y734716D01*
X4685118Y759528D02*
X5101528D01*
X5129000Y787000D01*
X5102968Y705905D02*
X5219874Y589000D01*
X4828905Y705905D02*
X5102968D01*
X4709000Y586000D02*
X4828905Y705905D01*
X3983734Y569874D02*
X4077830Y475778D01*
X4334526Y493652D02*
X4360000Y519126D01*
X4077830Y475778D02*
X4786958D01*
X4792432Y481252D01*
X1543200Y569874D02*
X3983734D01*
X3577166Y591732D02*
X4044858D01*
X1518504Y594570D02*
X1543200Y569874D01*
X4792432Y481252D02*
X4804832Y493652D01*
X2277098Y337252D02*
X2752512D01*
X538850Y459150D02*
X2739588D01*
X333000Y665000D02*
X538850Y459150D01*
X2761244Y502756D02*
X2782000Y482000D01*
X2179528Y502756D02*
X2761244D01*
X3340943Y540945D02*
X3349888Y532000D01*
X513055Y540945D02*
X3340943D01*
X295000Y759000D02*
X513055Y540945D01*
X2160236Y399606D02*
X2171394D01*
X2195874Y375126D01*
X2739588Y459150D02*
X2762612Y436126D01*
X4750196Y1374804D02*
X4772000Y1353000D01*
X4380000Y1450000D02*
X4813858D01*
X3037776Y2618110D02*
X3039430Y2619764D01*
X2127890Y2618110D02*
X3037776D01*
X2120000Y2626000D02*
X2127890Y2618110D01*
X4705118Y900787D02*
X4714568Y891338D01*
X4953149D01*
X4705118Y900787D02*
Y934130D01*
X4953149Y891338D02*
X4973228Y911417D01*
X4441338Y933071D02*
X4473228Y901181D01*
X4420929Y933071D02*
X4441338D01*
X4284646Y871260D02*
Y892354D01*
X4277276Y899724D02*
X4284646Y892354D01*
X4265024Y830252D02*
X4999252D01*
X4221654Y873622D02*
X4265024Y830252D01*
X4177166Y873622D02*
X4221654D01*
X4203543Y826543D02*
Y833465D01*
X4189370Y812370D02*
X4203543Y826543D01*
X3637518Y899724D02*
X4277276D01*
X3647248Y917598D02*
X4341248D01*
X3638682Y926164D02*
X3647248Y917598D01*
X3156693Y360009D02*
Y367716D01*
X3147684Y351000D02*
X3156693Y360009D01*
X3728923Y409842D02*
X3845000Y293766D01*
X2403182Y409842D02*
X3728923D01*
X2391748Y421276D02*
X2403182Y409842D01*
X4044858Y591732D02*
X4093126Y640000D01*
X4248718Y657874D02*
X4264466Y642126D01*
X4085722Y657874D02*
X4248718D01*
X4075596Y647748D02*
X4085722Y657874D01*
X4053252Y647748D02*
X4075596D01*
X4234740Y640000D02*
X4269464Y605276D01*
X4093126Y640000D02*
X4234740D01*
X4047630Y642126D02*
X4053252Y647748D01*
X4113000Y434000D02*
X4154472D01*
X4174016Y453543D01*
X4969660Y453543D01*
X4983505Y467388D01*
X4990908Y449514D02*
X5037092D01*
X4977064Y435669D02*
X4990908Y449514D01*
X4998312Y431640D02*
X5029688D01*
X4984467Y417795D02*
X4998312Y431640D01*
X4397117Y435669D02*
X4977064D01*
X4337574Y376126D02*
X4397117Y435669D01*
X4414991Y417795D02*
X4984467D01*
X4355448Y358252D02*
X4414991Y417795D01*
X4115126Y376126D02*
X4337574D01*
X4016252Y475000D02*
X4115126Y376126D01*
X4097252Y358252D02*
X4355448D01*
X4019378Y436126D02*
X4097252Y358252D01*
X5014000Y240000D02*
Y393766D01*
X5043533Y417795D02*
X5237350D01*
X5029688Y431640D02*
X5043533Y417795D01*
X5050936Y435669D02*
X5229947D01*
X5037092Y449514D02*
X5050936Y435669D01*
X5058340Y453543D02*
X5222543D01*
X5044495Y467388D02*
X5058340Y453543D01*
X4983505Y467388D02*
X5044495D01*
X5253729Y434174D02*
X5268864D01*
X5237350Y417795D02*
X5253729Y434174D01*
X5246326Y452048D02*
X5253048D01*
X5229947Y435669D02*
X5246326Y452048D01*
X3633170Y658268D02*
X3649312Y642126D01*
X3506299Y658268D02*
X3633170D01*
X3643032Y701968D02*
X3665000Y680000D01*
X3480968Y701968D02*
X3643032D01*
X3387858Y608858D02*
X3480968Y701968D01*
X3557296Y608268D02*
X3560630D01*
X3577166Y591732D01*
X5737953Y190709D02*
Y1681175D01*
X5253048Y452048D02*
X5315000Y514000D01*
X5698874Y1099874D02*
Y1460126D01*
X5617578Y1018578D02*
X5698874Y1099874D01*
X5629000Y1530000D02*
X5698874Y1460126D01*
X5651872Y1629128D02*
X5720079Y1560921D01*
Y1095801D02*
Y1560921D01*
X5697000Y1072722D02*
X5720079Y1095801D01*
X5690000Y1729128D02*
X5737953Y1681175D01*
X5697126Y620126D02*
Y1072848D01*
X5697000Y620000D02*
X5697126Y620126D01*
X5697000Y620000D02*
Y1072722D01*
X4254000Y2483000D02*
X4548376D01*
X5740552Y1971274D02*
Y2710235D01*
X164000Y2337000D02*
Y2370118D01*
X4668362Y1029128D02*
X5338778D01*
X4459096D02*
X4668362D01*
X2431874Y1000000D02*
X4429968D01*
X2762612Y436126D02*
X4019378D01*
X4465220Y1071000D02*
X4582622D01*
X5641000Y1378000D02*
X5661000Y1358000D01*
X5600000Y1419000D02*
X5641000Y1378000D01*
X2292786Y375126D02*
X2736824D01*
X2195874D02*
X2261410D01*
X4269464Y605276D02*
X4683276D01*
X5400664Y736452D02*
X5407988Y729128D01*
X5350116Y787000D02*
X5400664Y736452D01*
X4562590Y637000D02*
X4567716Y642126D01*
X4557464D02*
X4562590Y637000D01*
X4549272Y650318D02*
X4557464Y642126D01*
X4567716D01*
X4307688D02*
X4557464D01*
X4264466D02*
X4307688D01*
X5111000Y985000D02*
X5114000D01*
X4563000D02*
X5111000D01*
X4804832Y493652D02*
X4873308Y562126D01*
X4804832Y493652D02*
X4804834D01*
X3974000Y2264564D02*
Y2500000D01*
Y2261000D02*
Y2264564D01*
X4878128Y2229128D02*
X5338778D01*
X4642000Y2095000D02*
X4744000D01*
X4254000Y2483000D02*
X4642000Y2095000D01*
X4012134Y2483000D02*
X4254000D01*
X1864960Y2192126D02*
Y2370960D01*
X1913386Y2143700D02*
X2105000D01*
X2231418Y2170118D02*
X2240828Y2179528D01*
X2382814Y2714174D02*
X2408956Y2688032D01*
X5496102Y1836452D02*
X5580452D01*
X131418Y2570118D02*
X174804Y2613504D01*
X204142Y2816142D02*
X2306124D01*
X5547438Y1818578D02*
X5587856D01*
X4429968Y1000000D02*
X4459096Y1029128D01*
X2402132Y1029742D02*
X2431874Y1000000D01*
X2288252Y1029742D02*
X2402132D01*
X2284510Y1026000D02*
X2288252Y1029742D01*
X475000Y1026000D02*
X2284510D01*
X88000Y1226000D02*
X275000D01*
X70000Y1244000D02*
Y1608700D01*
X131418Y1670118D01*
X2188000Y2426700D02*
X2231418Y2470118D01*
X3412000Y2219000D02*
X3946040Y1684960D01*
X4016056D01*
X4991874Y1552268D02*
X5155142Y1389000D01*
X5367860D02*
X5397860Y1419000D01*
X5429700D01*
X5459022Y1389678D02*
X5505120D01*
X5534442Y1419000D01*
X5661000Y1310000D02*
Y1358000D01*
X4388000Y966000D02*
X4420929Y933071D01*
X2392748Y966000D02*
X4388000D01*
X2357000Y281504D02*
X2384504Y254000D01*
X3863000D01*
X3889000Y280000D01*
X2105300Y1244000D02*
X2131418Y1270118D01*
X5174198Y689000D02*
X5298650D01*
X4967000Y1501394D02*
X5099394Y1369000D01*
X5403652D01*
X5022000Y1576000D02*
X5168872Y1429128D01*
X5378872Y1569000D02*
X5413780Y1579128D01*
X5030898Y1722834D02*
X5184732Y1569000D01*
X5121780Y1846126D02*
X5338778Y1629128D01*
X4117998Y1846126D02*
X5121780D01*
X3533124Y2431000D02*
X4117998Y1846126D01*
X5563780Y734920D02*
Y779128D01*
X5524330Y695470D02*
X5563780Y734920D01*
X5524330Y662786D02*
Y695470D01*
Y662786D02*
X5530000Y657116D01*
Y602000D02*
Y657116D01*
X5517000Y589000D02*
X5530000Y602000D01*
X5219874Y589000D02*
X5517000D01*
X4380000Y586000D02*
X4709000D01*
X4360000Y566000D02*
X4380000Y586000D01*
X4360000Y519126D02*
Y566000D01*
X1544686Y669096D02*
X1915354D01*
X5488778Y1629128D02*
X5651872D01*
X3910630Y2254166D02*
X4185796Y1979000D01*
X5358116D01*
X3974000Y2500000D02*
X3998000Y2524000D01*
X5603230Y2018578D02*
Y2295468D01*
X5507988Y979128D02*
X5547438Y1018578D01*
X5505120Y1568578D02*
X5543698Y1530000D01*
X5430122Y1618578D02*
X5480122Y1568578D01*
X5071458Y1819000D02*
X5300780Y1589678D01*
X4097660Y1819000D02*
X5071458D01*
X3646542Y2270118D02*
X4097660Y1819000D01*
X2231418Y2270118D02*
X3646542D01*
X5488778Y1729128D02*
X5690000D01*
X4472000Y1493000D02*
X4593000Y1614000D01*
X5079000D01*
X5213872Y1479128D02*
X5413780D01*
X88000Y1526700D02*
X131418Y1570118D01*
X88000Y1340000D02*
Y1526700D01*
Y1340000D02*
X114000Y1314000D01*
X2442872Y1055998D02*
X2457874Y1071000D01*
X4465220D01*
X4471126Y1076906D01*
X4576716D01*
X4582622Y1071000D01*
X5405652D01*
X3649312Y642126D02*
X4047630D01*
X5407988Y729128D02*
X5488778D01*
X2965000Y475000D02*
X4016252D01*
X5338778Y2229128D02*
X5370904Y2197002D01*
Y2190000D02*
Y2197002D01*
X481536Y2120000D02*
X3440000D01*
X231418Y2370118D02*
X481536Y2120000D01*
X201000D02*
X259000D01*
X330882Y2170118D02*
X475000Y2026000D01*
X3817040Y1667086D02*
X4023460D01*
X4033618Y1677244D01*
X88000Y2126700D02*
X131418Y2170118D01*
X88000Y2040000D02*
X114000Y2014000D01*
X260000D01*
X560000Y1714000D02*
X3229000D01*
X3569000Y1374000D01*
X4111000D01*
X386000Y1632000D02*
X403000D01*
X5406456Y1286452D02*
X5413780Y1279128D01*
X131418Y1870118D02*
X188000Y1813536D01*
Y1640000D02*
X208000Y1620000D01*
X322026D02*
X736180Y1205846D01*
X5147832Y1190000D02*
X5184706Y1153126D01*
X5368538Y1189678D02*
X5397438Y1218578D01*
X5500698Y1173000D02*
X5563780Y1236082D01*
Y1279128D01*
X2291504Y821748D02*
X2329378Y859622D01*
X2476622D02*
X2506000Y830244D01*
X4133788D02*
X4177166Y873622D01*
X4999252Y830252D02*
X5109486Y940486D01*
X5320968Y980000D02*
X5349436D01*
X5398564Y1029128D02*
X5488778D01*
X3638518Y926000D02*
X3638682Y926164D01*
X52000Y1140000D02*
X72000Y1120000D01*
X52000Y1140000D02*
Y1690700D01*
X231418Y1670118D02*
X452434D01*
X3222050Y1284616D02*
X5252750D01*
X5268788Y1268578D01*
X5355120D01*
X5464002Y1273558D02*
X5489000D01*
X5534442Y1319000D01*
X5580000D01*
X5605920Y1293080D01*
Y1121268D02*
Y1293080D01*
X5563780Y1079128D02*
X5605920Y1121268D01*
X188000Y623000D02*
Y1026700D01*
X4904234Y222000D02*
X4956000Y273766D01*
X88000Y1026700D02*
X131418Y1070118D01*
X88000Y616000D02*
X508000Y196000D01*
X4970000D02*
X5014000Y240000D01*
X2336000Y693000D02*
X2386000Y743000D01*
X4340882D01*
X2050394Y1463606D02*
X2088000Y1426000D01*
X2329722D01*
X3169000Y1264000D02*
X5230000D01*
X2516748Y1245252D02*
X5209748D01*
X2407000Y1108000D02*
X5304114D01*
X5322436Y1089678D01*
X5355120D01*
X5384020Y1118578D02*
X5430122D01*
X5321000Y1129128D02*
X5338778D01*
X2461000Y1131000D02*
X5321000Y1129128D01*
X2418126Y1173874D02*
X2461000Y1131000D01*
X2031000Y726000D02*
X2273000D01*
X2440874Y823874D02*
X2470252Y794496D01*
X5054496D02*
X5139000Y879000D01*
X5358116D01*
X5400116Y837000D02*
X5440588D01*
X5489022Y885434D02*
X5501034D01*
X5563780Y948180D01*
Y979128D01*
X2275622Y770118D02*
X2347252Y841748D01*
X2458748D01*
X2488126Y812370D01*
X4189370D01*
X1993000Y673732D02*
X2040000Y626732D01*
X2338732D01*
X2437000Y725000D01*
X4251000D01*
X5128000Y140000D02*
X5282000Y294000D01*
X4221872Y1879128D02*
X5413780D01*
X4772000Y1353000D02*
X5024000D01*
X5340000Y2069000D02*
X5390000Y2119000D01*
X5443114D01*
X5453230Y2108884D01*
X5440588Y837000D02*
X5489022Y885434D01*
X1518504Y642914D02*
X1544686Y669096D01*
X1518504Y594570D02*
Y642914D01*
X1573814Y608858D02*
X3387858D01*
X1864960Y2370960D02*
X2120000Y2626000D01*
X231418Y2570118D02*
X375474Y2714174D01*
X2382814D01*
X1997678Y2270118D02*
X2131418D01*
X1924804Y2197244D02*
X1997678Y2270118D01*
X1864960Y2192126D02*
X1913386Y2143700D01*
X2105000D02*
X2131418Y2170118D01*
X2736824Y375126D02*
X3123558D01*
X3147684Y351000D01*
X3910630Y2250788D02*
Y2254166D01*
X2261410Y375126D02*
X2292786D01*
X4307688Y642126D02*
X4315880Y650318D01*
X4549272D01*
X5621104Y1877104D02*
Y2306455D01*
X5292952Y2709056D02*
X5357126Y2773228D01*
X2413210Y2709056D02*
X5292952D01*
X2306124Y2816142D02*
X2413210Y2709056D01*
X5587856Y1818578D02*
X5740552Y1971274D01*
X174804Y2786804D02*
X204142Y2816142D01*
X174804Y2613504D02*
Y2786804D01*
X4744000Y2095000D02*
X4878128Y2229128D01*
X5413780Y1779128D02*
X5507988D01*
X5547438Y1818578D01*
X3440000Y2120000D02*
X3793174Y1766826D01*
X131418Y2370118D02*
X164000D01*
Y2337000D02*
X181000Y2320000D01*
Y2140000D02*
Y2320000D01*
Y2140000D02*
X201000Y2120000D01*
X3809134Y1639370D02*
X4051700D01*
X4033618Y1677244D02*
X4073756D01*
X3458126Y2026000D02*
X3817040Y1667086D01*
X475000Y2026000D02*
X3458126D01*
X231418Y2170118D02*
X330882D01*
X403000Y1632000D02*
X709000Y1326000D01*
X2255000D01*
X231418Y1870118D02*
X285596D01*
X529714Y1626000D01*
X3290000D01*
X3613000Y1303000D01*
X5299748D01*
X5316296Y1286452D01*
X5406456D01*
X383000Y876000D02*
X437252Y821748D01*
X2291504D01*
X2329378Y859622D02*
X2476622D01*
X2506000Y830244D02*
X4133788D01*
X5109486Y940486D02*
X5281454D01*
X5320968Y980000D01*
X5349436D02*
X5398564Y1029128D01*
X5355120Y1268578D02*
X5384020Y1239678D01*
X5430122D01*
X5464002Y1273558D01*
X70000Y1244000D02*
X88000Y1226000D01*
X275000D02*
X475000Y1026000D01*
X295000Y759000D02*
Y928000D01*
X5264872Y1229128D02*
X5338778D01*
X5230000Y1264000D02*
X5264872Y1229128D01*
X2364874Y1173874D02*
X2418126D01*
X2312000Y1121000D02*
X2364874Y1173874D01*
X2367748Y991000D02*
X2392748Y966000D01*
X3889000Y280000D02*
Y393766D01*
X2231418Y1270118D02*
X2363300Y1402000D01*
X2858000D01*
X1995000Y1244000D02*
X2105300D01*
X2020000Y770118D02*
X2131418D01*
X1993000Y743118D02*
X2020000Y770118D01*
X1993000Y673732D02*
Y743118D01*
X4251000Y725000D02*
X4294000Y682000D01*
X5403652Y1369000D02*
X5413780Y1379128D01*
X5168872Y1429128D02*
X5338778D01*
X3970078Y1722834D02*
X5030898D01*
X5184732Y1569000D02*
X5378872D01*
X2340000Y2431000D02*
X3533124D01*
X2587000Y2485000D02*
X3616000D01*
X4221872Y1879128D01*
X5315000Y514000D02*
X5380000D01*
X5407988Y1929128D02*
X5488778D01*
X5358116Y1979000D02*
X5407988Y1929128D01*
X4420000Y2069000D02*
X5340000D01*
X5453230Y2062786D02*
Y2108884D01*
X5413780Y2023336D02*
X5453230Y2062786D01*
X5413780Y1979128D02*
Y2023336D01*
X5563780Y1979128D02*
X5603230Y2018578D01*
X5298650Y689000D02*
X5338778Y729128D01*
X5129000Y787000D02*
X5350116D01*
X5400664Y736452D02*
X5481454D01*
X5488778Y729128D01*
X5580452Y1836452D02*
X5621104Y1877104D01*
X5488778Y1829128D02*
X5496102Y1836452D01*
X5388778Y2079128D02*
X5413780D01*
X5338778Y2029128D02*
X5388778Y2079128D01*
X5370904Y2190000D02*
X5381776Y2179128D01*
X5413780D01*
X88000Y2040000D02*
Y2126700D01*
X260000Y2014000D02*
X560000Y1714000D01*
X188000Y1640000D02*
Y1813536D01*
X208000Y1620000D02*
X322026D01*
X736180Y1205846D02*
X2064238D01*
X2076392Y1218000D01*
X2515000D01*
X2543000Y1190000D01*
X5147832D01*
X5184706Y1153126D02*
X5301874D01*
X5338426Y1189678D01*
X5368538D01*
X5397438Y1218578D02*
X5443536D01*
X5489114Y1173000D01*
X5500698D01*
X52000Y1690700D02*
X131418Y1770118D01*
X72000Y1120000D02*
X330000D01*
X524000Y926000D01*
X3638518D01*
X5268864Y434174D02*
X5310438Y475748D01*
X5432748D01*
X5451000Y494000D01*
X114000Y1314000D02*
X383000D01*
X583000Y1114000D01*
X2260126D01*
X2318128Y1055998D01*
X2442872D01*
X5405652Y1071000D02*
X5413780Y1079128D01*
X188000Y1026700D02*
X231418Y1070118D01*
X188000Y623000D02*
X589000Y222000D01*
X4904234D01*
X88000Y616000D02*
Y1026700D01*
X508000Y196000D02*
X4970000D01*
X2403000Y786000D02*
X2423000Y766000D01*
X4516000D01*
X2188000Y2240000D02*
Y2426700D01*
Y2240000D02*
X2209000Y2219000D01*
X3412000D01*
X4016056Y1684960D02*
X4026214Y1695118D01*
X4134882D01*
X4380000Y1450000D01*
X4813858D02*
X4916126Y1552268D01*
X4991874D01*
X5155142Y1389000D02*
X5367860D01*
X5429700Y1419000D02*
X5459022Y1389678D01*
X5534442Y1419000D02*
X5600000D01*
X2409000Y1353000D02*
X2516748Y1245252D01*
X5209748D02*
X5264000Y1191000D01*
X5355120Y1089678D02*
X5384020Y1118578D01*
X5430122D02*
X5459022Y1089678D01*
X5520488D01*
X5528228Y1097418D01*
Y1143576D01*
X5563780Y1179128D01*
X5300780Y1589678D02*
X5355120D01*
X5384020Y1618578D01*
X5430122D01*
X5480122Y1568578D02*
X5505120D01*
X5543698Y1530000D02*
X5629000D01*
X5547438Y1018578D02*
X5617578D01*
X5413780Y979128D02*
X5507988D01*
X2273000Y726000D02*
X2370874Y823874D01*
X2440874D01*
X2470252Y794496D02*
X5054496D01*
X5358116Y879000D02*
X5400116Y837000D01*
X2231418Y770118D02*
X2275622D01*
X5079000Y1614000D02*
X5213872Y1479128D01*
D34*
X5283029Y3427165D02*
X5334034Y3478171D01*
X4697638Y3427165D02*
X5283029D01*
X4643307Y3481496D02*
X4697638Y3427165D01*
X5261024Y3248819D02*
X5344095Y3165748D01*
Y2909843D02*
Y3165748D01*
X4692150Y2153150D02*
X4812420Y2273420D01*
X4655512Y2153150D02*
X4692150D01*
X5488778Y2029128D02*
Y2129128D01*
Y2229128D01*
X5261024Y3405160D02*
X5334034Y3478171D01*
X5261024Y3248819D02*
Y3405160D01*
X5380139Y3571260D02*
X5473228Y3478171D01*
X4687795Y3571260D02*
X5380139D01*
X4687795D02*
X4701970D01*
X4706300Y3575590D01*
X4031072Y1986614D02*
Y2010268D01*
X3679922Y2361418D02*
X4031072Y2010268D01*
X4826000Y548000D02*
X4878000Y600000D01*
X5094912D01*
X4404000Y548000D02*
X4826000D01*
X4220434Y537000D02*
X4322000D01*
X4164000D02*
X4220434D01*
X4220442Y537008D01*
X4214960Y531526D02*
X4220434Y537000D01*
X3679922Y2361418D02*
X3994339Y2046999D01*
X4003422Y2037916D01*
X5357126Y2273420D02*
X5376418Y2254128D01*
Y2253850D02*
Y2254128D01*
X5401140Y2229128D02*
X5488778D01*
X5376418Y2253850D02*
X5401140Y2229128D01*
X4812420Y2273420D02*
X5357126D01*
X4110000Y591000D02*
X4164000Y537000D01*
X5488778Y2029128D02*
X5538778Y2079128D01*
X5563780D01*
X5338778Y929128D02*
X5488778D01*
X5388778Y1679128D02*
X5413780D01*
X5338778Y629128D02*
X5488778D01*
X5413780Y1679128D02*
Y1679130D01*
X4220442Y537008D02*
X4321654D01*
X5413780Y2279128D02*
X5563780D01*
X5338778Y1329128D02*
X5488778D01*
X5338778Y1729128D02*
X5388778Y1679128D01*
X5413780Y1679130D02*
X5563780Y1679128D01*
D37*
X5403631Y3408573D02*
D03*
X5334034Y3338976D02*
D03*
Y3478171D02*
D03*
X5473228Y3338976D02*
D03*
Y3478171D02*
D03*
D38*
X5338778Y629128D02*
D03*
D39*
Y729128D02*
D03*
Y829128D02*
D03*
Y929128D02*
D03*
Y1029128D02*
D03*
Y1129128D02*
D03*
Y1229128D02*
D03*
Y1329128D02*
D03*
Y1429128D02*
D03*
Y1529128D02*
D03*
Y1629128D02*
D03*
Y1729128D02*
D03*
Y1829128D02*
D03*
Y1929128D02*
D03*
Y2029128D02*
D03*
Y2129128D02*
D03*
Y2229128D02*
D03*
X5413780Y679128D02*
D03*
Y779128D02*
D03*
Y879128D02*
D03*
Y979128D02*
D03*
Y1079128D02*
D03*
Y1179128D02*
D03*
Y1279128D02*
D03*
Y1379128D02*
D03*
Y1479128D02*
D03*
Y1579128D02*
D03*
Y1679128D02*
D03*
Y1779128D02*
D03*
Y1879128D02*
D03*
Y1979128D02*
D03*
Y2079128D02*
D03*
Y2179128D02*
D03*
Y2279128D02*
D03*
X5488778Y629128D02*
D03*
X5563780Y679128D02*
D03*
X5488778Y729128D02*
D03*
Y829128D02*
D03*
Y929128D02*
D03*
Y1029128D02*
D03*
Y1129128D02*
D03*
Y1229128D02*
D03*
Y1329128D02*
D03*
Y1429128D02*
D03*
Y1529128D02*
D03*
Y1629128D02*
D03*
Y1729128D02*
D03*
Y1829128D02*
D03*
Y1929128D02*
D03*
Y2029128D02*
D03*
Y2129128D02*
D03*
Y2229128D02*
D03*
X5563780Y779128D02*
D03*
Y879128D02*
D03*
Y979128D02*
D03*
Y1079128D02*
D03*
Y1179128D02*
D03*
Y1279128D02*
D03*
Y1379128D02*
D03*
Y1479128D02*
D03*
Y1579128D02*
D03*
Y1679128D02*
D03*
Y1779128D02*
D03*
Y1879128D02*
D03*
Y1979128D02*
D03*
Y2079128D02*
D03*
Y2179128D02*
D03*
Y2279128D02*
D03*
D40*
X2131418Y670118D02*
D03*
Y770118D02*
D03*
Y870118D02*
D03*
Y970118D02*
D03*
Y1070118D02*
D03*
Y1170118D02*
D03*
Y1270118D02*
D03*
Y1370118D02*
D03*
Y1470118D02*
D03*
Y1570118D02*
D03*
Y1670118D02*
D03*
Y1770118D02*
D03*
Y1870118D02*
D03*
Y1970118D02*
D03*
Y2070118D02*
D03*
Y2170118D02*
D03*
Y2270118D02*
D03*
Y2370118D02*
D03*
Y2470118D02*
D03*
Y2570118D02*
D03*
Y2670118D02*
D03*
Y2770118D02*
D03*
Y2870118D02*
D03*
Y2970118D02*
D03*
Y3070118D02*
D03*
X2231418Y670118D02*
D03*
Y770118D02*
D03*
Y870118D02*
D03*
Y970118D02*
D03*
Y1070118D02*
D03*
Y1170118D02*
D03*
Y1270118D02*
D03*
Y1370118D02*
D03*
Y1470118D02*
D03*
Y1570118D02*
D03*
Y1670118D02*
D03*
Y1770118D02*
D03*
Y1870118D02*
D03*
Y1970118D02*
D03*
Y2070118D02*
D03*
Y2170118D02*
D03*
Y2270118D02*
D03*
Y2370118D02*
D03*
Y2470118D02*
D03*
Y2570118D02*
D03*
Y2670118D02*
D03*
Y2770118D02*
D03*
Y2870118D02*
D03*
Y2970118D02*
D03*
X131418Y670118D02*
D03*
Y770118D02*
D03*
Y870118D02*
D03*
Y970118D02*
D03*
Y1070118D02*
D03*
Y1170118D02*
D03*
Y1270118D02*
D03*
Y1370118D02*
D03*
Y1470118D02*
D03*
Y1570118D02*
D03*
Y1670118D02*
D03*
Y1770118D02*
D03*
Y1870118D02*
D03*
Y1970118D02*
D03*
Y2070118D02*
D03*
Y2170118D02*
D03*
Y2270118D02*
D03*
Y2370118D02*
D03*
Y2470118D02*
D03*
Y2570118D02*
D03*
Y2670118D02*
D03*
Y2770118D02*
D03*
Y2870118D02*
D03*
Y2970118D02*
D03*
Y3070118D02*
D03*
X231418Y670118D02*
D03*
Y770118D02*
D03*
Y870118D02*
D03*
Y970118D02*
D03*
Y1070118D02*
D03*
Y1170118D02*
D03*
Y1270118D02*
D03*
Y1370118D02*
D03*
Y1470118D02*
D03*
Y1570118D02*
D03*
Y1670118D02*
D03*
Y1770118D02*
D03*
Y1870118D02*
D03*
Y1970118D02*
D03*
Y2070118D02*
D03*
Y2170118D02*
D03*
Y2270118D02*
D03*
Y2370118D02*
D03*
Y2470118D02*
D03*
Y2570118D02*
D03*
Y2670118D02*
D03*
Y2770118D02*
D03*
Y2870118D02*
D03*
Y2970118D02*
D03*
D41*
X2231418Y3070118D02*
D03*
X231418D02*
D03*
D42*
X4664174Y2380710D02*
D03*
D43*
X4564174D02*
D03*
D44*
X4874803Y3574803D02*
D03*
Y3417323D02*
D03*
X3502756Y2565354D02*
D03*
X5344095Y2909843D02*
D03*
X2862231Y1459055D02*
D03*
X2913122Y1308822D02*
D03*
X3635346Y875591D02*
D03*
X1714000Y98000D02*
D03*
X3054000Y140000D02*
D03*
X4655512Y2153150D02*
D03*
X2857480Y2176772D02*
D03*
X3922440Y3466141D02*
D03*
X4325016Y1425984D02*
D03*
X4589174Y3026772D02*
D03*
X3531496Y3756692D02*
D03*
X4022834Y2922834D02*
D03*
X4031072Y1986614D02*
D03*
X4389000Y694882D02*
D03*
X4589370Y720079D02*
D03*
X5094912Y600000D02*
D03*
X4214960Y531526D02*
D03*
X4097000Y527953D02*
D03*
X2277098Y337252D02*
D03*
X2179528Y502756D02*
D03*
X2160236Y399606D02*
D03*
X2391748Y421276D02*
D03*
X4750196Y1374804D02*
D03*
X4775197Y2611811D02*
D03*
X4705118Y934130D02*
D03*
X4548376Y2483000D02*
D03*
X4473228Y901181D02*
D03*
X3790551Y1769449D02*
D03*
X4284646Y871260D02*
D03*
X4203543Y833465D02*
D03*
X4341248Y917598D02*
D03*
X3156693Y367716D02*
D03*
X4973228Y911417D02*
D03*
X4113000Y434000D02*
D03*
X5014000Y393766D02*
D03*
X4322000Y537000D02*
D03*
X3506299Y658268D02*
D03*
X3557296Y608268D02*
D03*
X1571650Y611022D02*
D03*
X1915354Y669096D02*
D03*
X3841338Y2904756D02*
D03*
X4065214Y3053012D02*
D03*
X4012134Y2483000D02*
D03*
X4404000Y548000D02*
D03*
X3679922Y2361418D02*
D03*
X3845000Y293766D02*
D03*
X5661000Y1310000D02*
D03*
X2367748Y991000D02*
D03*
X2357000Y281504D02*
D03*
X3889000Y393766D02*
D03*
X1995000Y1244000D02*
D03*
X5342000Y426000D02*
D03*
X4967000Y1501394D02*
D03*
X5022000Y1576000D02*
D03*
X3970078Y1722834D02*
D03*
X3665000Y680000D02*
D03*
X2340000Y2431000D02*
D03*
X4563000Y985000D02*
D03*
X5114000D02*
D03*
X3910630Y2254166D02*
D03*
X3974000Y2261000D02*
D03*
X4472000Y1493000D02*
D03*
X5380000Y514000D02*
D03*
X2965000Y475000D02*
D03*
X5451000Y494000D02*
D03*
X333000Y665000D02*
D03*
X4110000Y591000D02*
D03*
X4051700Y1639370D02*
D03*
X4111000Y1374000D02*
D03*
X386000Y1632000D02*
D03*
X383000Y876000D02*
D03*
X295000Y928000D02*
D03*
X3349888Y532000D02*
D03*
X4956000Y273766D02*
D03*
X2403000Y786000D02*
D03*
X2336000Y693000D02*
D03*
X2050394Y1463606D02*
D03*
X2409000Y1353000D02*
D03*
X5264000Y1191000D02*
D03*
X2407000Y1108000D02*
D03*
X2312000Y1121000D02*
D03*
X1924804Y2197244D02*
D03*
X2031000Y726000D02*
D03*
X2752512Y337252D02*
D03*
X2782000Y482000D02*
D03*
X4294000Y682000D02*
D03*
X5282000Y294000D02*
D03*
X2587000Y2485000D02*
D03*
X4640064Y646064D02*
D03*
X5265716Y734716D02*
D03*
X5024000Y1353000D02*
D03*
X4420000Y2069000D02*
D03*
D45*
X4687795Y3571260D02*
D03*
D46*
X5473228Y3478171D02*
D03*
Y3338976D02*
D03*
X5334034Y3478171D02*
D03*
Y3338976D02*
D03*
X5403631Y3408573D02*
D03*
D47*
X3689292Y3519804D02*
D03*
Y3550552D02*
D03*
%TF.MD5,83ea3a3da35a381d961b162081c2b4f3*%
M02*
