G04*
G04 #@! TF.GenerationSoftware,Altium Limited,Altium Designer,19.0.15 (446)*
G04*
G04 Layer_Physical_Order=2*
G04 Layer_Color=16711680*
%FSLAX25Y25*%
%MOIN*%
G70*
G01*
G75*
%ADD11C,0.00394*%
%ADD14C,0.00787*%
%ADD16C,0.01000*%
%ADD17C,0.00197*%
%ADD75C,0.01968*%
%ADD78C,0.07087*%
%ADD79R,0.05906X0.05906*%
%ADD80C,0.05906*%
%ADD81C,0.06102*%
%ADD82R,0.06102X0.06102*%
%ADD83C,0.05315*%
%ADD84R,0.05315X0.05315*%
%ADD85C,0.05000*%
%ADD86C,0.01968*%
G36*
X465394Y394267D02*
X465394Y302948D01*
X464926Y302480D01*
X462620D01*
X462448Y302677D01*
X462327Y303591D01*
X461974Y304442D01*
X461413Y305173D01*
X460682Y305734D01*
X459831Y306087D01*
X459417Y306142D01*
Y302677D01*
X458417D01*
Y306142D01*
X458004Y306087D01*
X457152Y305734D01*
X456421Y305173D01*
X455860Y304442D01*
X455507Y303591D01*
X455387Y302677D01*
X455214Y302480D01*
X427953D01*
X427953Y273145D01*
X427485Y272677D01*
X359069D01*
X344518Y287228D01*
X344093Y287513D01*
X343590Y287613D01*
X329646D01*
Y394543D01*
X368779Y394593D01*
Y394593D01*
X368785D01*
X369213Y394594D01*
X369214Y394593D01*
X465040Y394620D01*
X465394Y394267D01*
D02*
G37*
%LPC*%
G36*
X353650Y379134D02*
Y376169D01*
X356614D01*
X356559Y376583D01*
X356207Y377434D01*
X355646Y378165D01*
X354915Y378726D01*
X354063Y379079D01*
X353650Y379134D01*
D02*
G37*
G36*
X352650D02*
X352236Y379079D01*
X351384Y378726D01*
X350653Y378165D01*
X350092Y377434D01*
X349740Y376583D01*
X349685Y376169D01*
X352650D01*
Y379134D01*
D02*
G37*
G36*
X356614Y375169D02*
X353650D01*
Y372205D01*
X354063Y372259D01*
X354915Y372612D01*
X355646Y373173D01*
X356207Y373904D01*
X356559Y374756D01*
X356614Y375169D01*
D02*
G37*
G36*
X352650D02*
X349685D01*
X349740Y374756D01*
X350092Y373904D01*
X350653Y373173D01*
X351384Y372612D01*
X352236Y372259D01*
X352650Y372205D01*
Y375169D01*
D02*
G37*
G36*
X369429Y357054D02*
Y355630D01*
X370853D01*
X370798Y355904D01*
X370360Y356561D01*
X370051Y356767D01*
X369703Y356999D01*
X369429Y357054D01*
D02*
G37*
G36*
X368429D02*
X368155Y356999D01*
X367499Y356561D01*
X367060Y355904D01*
X367005Y355630D01*
X368429D01*
Y357054D01*
D02*
G37*
G36*
X370853Y354630D02*
X367005D01*
X367060Y354356D01*
X367354Y353916D01*
X367457Y353555D01*
X367354Y353195D01*
X367060Y352755D01*
X367005Y352480D01*
X370853D01*
X370798Y352755D01*
X370504Y353195D01*
X370401Y353555D01*
X370504Y353916D01*
X370798Y354356D01*
X370853Y354630D01*
D02*
G37*
G36*
Y351480D02*
X369429D01*
Y350057D01*
X369703Y350111D01*
X370360Y350550D01*
X370798Y351206D01*
X370853Y351480D01*
D02*
G37*
G36*
X368429D02*
X367005D01*
X367060Y351206D01*
X367499Y350550D01*
X368155Y350111D01*
X368429Y350057D01*
Y351480D01*
D02*
G37*
G36*
X392744Y350275D02*
Y347311D01*
X395709D01*
X395654Y347725D01*
X395301Y348576D01*
X394740Y349307D01*
X394009Y349868D01*
X393158Y350221D01*
X392744Y350275D01*
D02*
G37*
G36*
X391744D02*
X391331Y350221D01*
X390479Y349868D01*
X389748Y349307D01*
X389187Y348576D01*
X388834Y347725D01*
X388780Y347311D01*
X391744D01*
Y350275D01*
D02*
G37*
G36*
X395709Y346311D02*
X392744D01*
Y343347D01*
X393158Y343401D01*
X394009Y343754D01*
X394740Y344315D01*
X395301Y345046D01*
X395654Y345897D01*
X395709Y346311D01*
D02*
G37*
G36*
X391744D02*
X388780D01*
X388834Y345897D01*
X389187Y345046D01*
X389748Y344315D01*
X390479Y343754D01*
X391331Y343401D01*
X391744Y343347D01*
Y346311D01*
D02*
G37*
G36*
X406521Y308266D02*
Y305301D01*
X409486D01*
X409431Y305715D01*
X409079Y306566D01*
X408518Y307297D01*
X407787Y307858D01*
X406935Y308211D01*
X406521Y308266D01*
D02*
G37*
G36*
X405521D02*
X405108Y308211D01*
X404256Y307858D01*
X403525Y307297D01*
X402964Y306566D01*
X402611Y305715D01*
X402557Y305301D01*
X405521D01*
Y308266D01*
D02*
G37*
G36*
X409486Y304301D02*
X406521D01*
Y301337D01*
X406935Y301391D01*
X407787Y301744D01*
X408518Y302305D01*
X408996Y302929D01*
X409079Y303036D01*
X409431Y303888D01*
X409486Y304301D01*
D02*
G37*
G36*
X405521D02*
X402557D01*
X402611Y303888D01*
X402964Y303036D01*
X403525Y302305D01*
X404256Y301744D01*
X405108Y301391D01*
X405521Y301337D01*
Y304301D01*
D02*
G37*
G36*
X402783Y295748D02*
Y292783D01*
X405748D01*
X405693Y293197D01*
X405341Y294049D01*
X404780Y294780D01*
X404048Y295341D01*
X403197Y295693D01*
X402783Y295748D01*
D02*
G37*
G36*
X401783D02*
X401370Y295693D01*
X400518Y295341D01*
X399787Y294780D01*
X399226Y294049D01*
X398873Y293197D01*
X398819Y292783D01*
X401783D01*
Y295748D01*
D02*
G37*
G36*
X384634Y293940D02*
Y290976D01*
X387598D01*
X387544Y291389D01*
X387191Y292241D01*
X386630Y292972D01*
X385899Y293533D01*
X385048Y293885D01*
X384634Y293940D01*
D02*
G37*
G36*
X383634D02*
X383220Y293885D01*
X382369Y293533D01*
X381638Y292972D01*
X381077Y292241D01*
X380724Y291389D01*
X380669Y290976D01*
X383634D01*
Y293940D01*
D02*
G37*
G36*
X405748Y291783D02*
X402783D01*
Y288819D01*
X403197Y288874D01*
X404048Y289226D01*
X404780Y289787D01*
X405341Y290518D01*
X405693Y291370D01*
X405748Y291783D01*
D02*
G37*
G36*
X401783D02*
X398819D01*
X398873Y291370D01*
X399226Y290518D01*
X399787Y289787D01*
X400518Y289226D01*
X401370Y288874D01*
X401783Y288819D01*
Y291783D01*
D02*
G37*
G36*
X387598Y289976D02*
X384634D01*
Y287011D01*
X385048Y287066D01*
X385899Y287418D01*
X386630Y287979D01*
X387191Y288710D01*
X387544Y289562D01*
X387598Y289976D01*
D02*
G37*
G36*
X383634D02*
X380669D01*
X380724Y289562D01*
X381077Y288710D01*
X381638Y287979D01*
X382369Y287418D01*
X383220Y287066D01*
X383634Y287011D01*
Y289976D01*
D02*
G37*
%LPD*%
D11*
X483280Y270843D02*
Y268875D01*
X483673Y268481D01*
X484460D01*
X484854Y268875D01*
Y270843D01*
X485641Y268481D02*
X486428D01*
X486034D01*
Y270843D01*
X485641Y270449D01*
X489183Y268481D02*
X487609D01*
X489183Y270056D01*
Y270449D01*
X488790Y270843D01*
X488002D01*
X487609Y270449D01*
X450787Y143976D02*
X450524Y144961D01*
X449803Y145681D01*
X448819Y145945D01*
X447835Y145681D01*
X447114Y144961D01*
X446850Y143976D01*
X447114Y142992D01*
X447835Y142272D01*
X448819Y142008D01*
X449803Y142272D01*
X450524Y142992D01*
X450787Y143976D01*
X448701Y97165D02*
X448437Y98150D01*
X447717Y98870D01*
X446732Y99134D01*
X445748Y98870D01*
X445027Y98150D01*
X444764Y97165D01*
X445027Y96181D01*
X445748Y95461D01*
X446732Y95197D01*
X447717Y95461D01*
X448437Y96181D01*
X448701Y97165D01*
X371488Y352571D02*
X371187Y353497D01*
X370400Y354069D01*
X369427D01*
X368639Y353497D01*
X368339Y352571D01*
X368639Y351645D01*
X369427Y351073D01*
X370400D01*
X371187Y351645D01*
X371488Y352571D01*
X486417Y275781D02*
X486154Y276765D01*
X485433Y277485D01*
X484449Y277749D01*
X483465Y277485D01*
X482744Y276765D01*
X482480Y275781D01*
X482744Y274796D01*
X483465Y274076D01*
X484449Y273812D01*
X485433Y274076D01*
X486154Y274796D01*
X486417Y275781D01*
X497312Y48156D02*
X497048Y49140D01*
X496328Y49861D01*
X495343Y50125D01*
X494359Y49861D01*
X493639Y49140D01*
X493375Y48156D01*
X493639Y47172D01*
X494359Y46451D01*
X495343Y46188D01*
X496328Y46451D01*
X497048Y47172D01*
X497312Y48156D01*
X441901Y48156D02*
X441638Y49140D01*
X440917Y49861D01*
X439933Y50125D01*
X438948Y49861D01*
X438228Y49140D01*
X437964Y48156D01*
X438228Y47172D01*
X438948Y46451D01*
X439933Y46188D01*
X440917Y46451D01*
X441638Y47172D01*
X441901Y48156D01*
X386491Y48156D02*
X386227Y49140D01*
X385506Y49861D01*
X384522Y50125D01*
X383538Y49861D01*
X382817Y49140D01*
X382554Y48156D01*
X382817Y47172D01*
X383538Y46451D01*
X384522Y46188D01*
X385506Y46451D01*
X386227Y47172D01*
X386491Y48156D01*
X331080D02*
X330816Y49140D01*
X330096Y49861D01*
X329111Y50125D01*
X328127Y49861D01*
X327407Y49140D01*
X327143Y48156D01*
X327407Y47172D01*
X328127Y46451D01*
X329111Y46188D01*
X330096Y46451D01*
X330816Y47172D01*
X331080Y48156D01*
X275669D02*
X275406Y49140D01*
X274685Y49861D01*
X273701Y50125D01*
X272716Y49861D01*
X271996Y49140D01*
X271732Y48156D01*
X271996Y47172D01*
X272716Y46451D01*
X273701Y46188D01*
X274685Y46451D01*
X275406Y47172D01*
X275669Y48156D01*
X386732Y345630D02*
Y359016D01*
X397756Y345630D02*
Y359016D01*
X386732Y345630D02*
X397756D01*
X386732Y359016D02*
X397756D01*
X244036Y195433D02*
Y208425D01*
X250925Y195433D02*
Y208425D01*
X244036Y195433D02*
X250925D01*
X244036Y208425D02*
X250925D01*
X404646Y277323D02*
Y295433D01*
X414882Y277323D02*
Y295433D01*
X404646D02*
X414882D01*
X404646Y277323D02*
X414882D01*
X458130Y305925D02*
X470925D01*
X458130Y299429D02*
X470925D01*
X458130D02*
Y305925D01*
X470925Y299429D02*
Y305925D01*
X381670Y188780D02*
X388757D01*
X381670Y200984D02*
X388757D01*
Y188780D02*
Y200984D01*
X381670Y188780D02*
Y200984D01*
X445276Y127441D02*
X462992D01*
X445276Y147520D02*
X462992D01*
Y127441D02*
Y147520D01*
X445276Y127441D02*
Y147520D01*
X123543Y79567D02*
X130630D01*
X123543Y66181D02*
X130630D01*
Y79567D01*
X123543Y66181D02*
Y79567D01*
X443189Y80630D02*
Y100709D01*
X460906Y80630D02*
Y100709D01*
X443189D02*
X460906D01*
X443189Y80630D02*
X460906D01*
X298167Y188465D02*
Y200669D01*
X305253Y188465D02*
Y200669D01*
X298167D02*
X305253D01*
X298167Y188465D02*
X305253D01*
X277222D02*
Y200669D01*
X284308Y188465D02*
Y200669D01*
X277222D02*
X284308D01*
X277222Y188465D02*
X284308D01*
X402615Y188780D02*
Y200984D01*
X409702Y188780D02*
Y200984D01*
X402615D02*
X409702D01*
X402615Y188780D02*
X409702D01*
X373063Y349421D02*
Y357689D01*
X364795Y349421D02*
Y357689D01*
Y349421D02*
X373063D01*
X364795Y357689D02*
X373063D01*
X338346Y343386D02*
X350157D01*
Y355197D01*
X338346D02*
X350157D01*
X338346Y343386D02*
Y355197D01*
X227886Y61008D02*
Y313016D01*
X208398D02*
X227886D01*
X208398Y61008D02*
Y313016D01*
Y61008D02*
X227886D01*
X497716Y231929D02*
Y242559D01*
X484331Y231929D02*
Y242559D01*
Y231929D02*
X497716D01*
X484331Y242559D02*
X497716D01*
X348976Y319095D02*
Y329724D01*
X369449Y319095D02*
Y329724D01*
X348976D02*
X369449D01*
X348976Y319095D02*
X369449D01*
X480905Y259639D02*
X496654D01*
X480905Y279324D02*
X496654D01*
Y259639D02*
Y279324D01*
X480905Y259639D02*
Y279324D01*
X575628Y247988D02*
X592203D01*
X575274D02*
Y270913D01*
X528819Y271220D02*
X575274D01*
X528818Y19607D02*
X575275D01*
X528819Y19606D02*
Y271220D01*
X575276Y19606D02*
Y42834D01*
X575280Y42838D01*
X592205D01*
X596929Y42834D02*
Y247992D01*
X593780Y251141D02*
X596929Y247992D01*
X592205Y251141D02*
X593780D01*
X592205Y247990D02*
Y251141D01*
X593780Y39685D02*
X596929Y42834D01*
X592205Y39685D02*
X593780D01*
X592205D02*
Y42838D01*
X333798Y197165D02*
X340491D01*
X333798Y210157D02*
X340491D01*
X333798Y197165D02*
Y210157D01*
X340491Y197165D02*
Y210157D01*
X491800Y17152D02*
Y51601D01*
X507548Y17152D02*
Y51601D01*
X491800D02*
X507548D01*
X491800Y17152D02*
X507548D01*
X140650Y79567D02*
X147539D01*
X140650Y66575D02*
X147539D01*
Y79567D01*
X140650Y66575D02*
Y79567D01*
X82205Y65905D02*
Y79291D01*
X89291Y65905D02*
Y79291D01*
X82205Y65905D02*
X89291D01*
X82205Y79291D02*
X89291D01*
X169449Y79409D02*
X176535D01*
X169449Y66024D02*
X176535D01*
Y79409D01*
X169449Y66024D02*
Y79409D01*
X188090Y79410D02*
X194980D01*
X188090Y66418D02*
X194980D01*
Y79410D01*
X188090Y66418D02*
Y79410D01*
X38858Y79331D02*
X45945D01*
X38858Y65945D02*
X45945D01*
Y79331D01*
X38858Y65945D02*
Y79331D01*
X56594Y79331D02*
X63484D01*
X56594Y66339D02*
X63484D01*
Y79331D01*
X56594Y66339D02*
Y79331D01*
X99035Y79292D02*
X105925D01*
X99035Y66299D02*
X105925D01*
Y79292D01*
X99035Y66299D02*
Y79292D01*
X436389Y17152D02*
Y51601D01*
X452137Y17152D02*
Y51601D01*
X436389D02*
X452137D01*
X436389Y17152D02*
X452137D01*
X380979D02*
Y51601D01*
X396727Y17152D02*
Y51601D01*
X380979D02*
X396727D01*
X380979Y17152D02*
X396727D01*
X325568D02*
Y51601D01*
X341316Y17152D02*
Y51601D01*
X325568D02*
X341316D01*
X325568Y17152D02*
X341316D01*
X270157D02*
Y51601D01*
X285905Y17152D02*
Y51601D01*
X270157D02*
X285905D01*
X270157Y17152D02*
X285905D01*
X374016Y204921D02*
Y211614D01*
X361024Y204921D02*
Y211614D01*
Y204921D02*
X374016D01*
X361024Y211614D02*
X374016D01*
X348327Y208622D02*
X355217D01*
X348327Y195630D02*
X355217D01*
Y208622D01*
X348327Y195630D02*
Y208622D01*
X433957Y208937D02*
X440847D01*
X433957Y195945D02*
X440847D01*
Y208937D01*
X433957Y195945D02*
Y208937D01*
X414449Y204291D02*
Y210984D01*
X427441Y204291D02*
Y210984D01*
X414449D02*
X427441D01*
X414449Y204291D02*
X427441D01*
X269646Y204961D02*
Y211653D01*
X256654Y204961D02*
Y211653D01*
Y204961D02*
X269646D01*
X256654Y211653D02*
X269646D01*
X327695Y203681D02*
Y210571D01*
X314703Y203681D02*
Y210571D01*
Y203681D02*
X327695D01*
X314703Y210571D02*
X327695D01*
X27886Y61008D02*
Y313016D01*
X8398D02*
X27886D01*
X8398Y61008D02*
Y313016D01*
Y61008D02*
X27886D01*
X347638Y363464D02*
X358661D01*
X347638Y376850D02*
X358661D01*
X347638Y363464D02*
Y376850D01*
X358661Y363464D02*
Y376850D01*
X390276Y352323D02*
X394213D01*
X392244Y350354D02*
Y354291D01*
X422362Y12992D02*
Y16929D01*
X420394Y14961D02*
X424331D01*
X367874Y12480D02*
Y16417D01*
X365906Y14449D02*
X369843D01*
X284291Y7992D02*
X288228D01*
X286260Y6024D02*
Y9961D01*
X311732Y12087D02*
Y16024D01*
X309764Y14055D02*
X313701D01*
X245512Y201929D02*
X249449D01*
X247480Y199961D02*
Y203898D01*
X407795Y286378D02*
X411732D01*
X409764Y284409D02*
Y288346D01*
X464528Y300709D02*
Y304646D01*
X462559Y302677D02*
X466496D01*
X408701Y174646D02*
Y178583D01*
X406732Y176614D02*
X410669D01*
X381969Y174449D02*
Y178386D01*
X380000Y176417D02*
X383937D01*
X302638Y176024D02*
Y179961D01*
X300669Y177992D02*
X304606D01*
X280827Y176024D02*
Y179961D01*
X278858Y177992D02*
X282795D01*
X253504Y12365D02*
Y16302D01*
X251535Y14334D02*
X255472D01*
X281811Y61496D02*
X285748D01*
X283780Y59528D02*
Y63465D01*
X340984Y8583D02*
X344921D01*
X342953Y6614D02*
Y10551D01*
X397598Y8228D02*
X401535D01*
X399567Y6260D02*
Y10197D01*
X419528Y49409D02*
X423465D01*
X421496Y47441D02*
Y51378D01*
X503780Y60000D02*
X507717D01*
X505748Y58032D02*
Y61969D01*
X506496Y9449D02*
X510433D01*
X508465Y7480D02*
Y11417D01*
X451220Y8622D02*
X455157D01*
X453189Y6654D02*
Y10591D01*
X478071Y13268D02*
Y17205D01*
X476102Y15236D02*
X480039D01*
X475394Y49094D02*
X479331D01*
X477362Y47126D02*
Y51063D01*
X481902Y340857D02*
X540363Y282396D01*
X481902Y340857D02*
X540363Y399319D01*
X598825Y340857D01*
X540363Y282396D02*
X598825Y340857D01*
X385214Y192913D02*
Y196850D01*
X383245Y194882D02*
X387182D01*
X454134Y135512D02*
Y139449D01*
X452165Y137480D02*
X456102D01*
X448071Y59921D02*
X452008D01*
X450039Y57953D02*
Y61890D01*
X393425Y60000D02*
X397362D01*
X395394Y58032D02*
Y61969D01*
X337874Y59921D02*
X341811D01*
X339843Y57953D02*
Y61890D01*
X458454Y259750D02*
Y263687D01*
X456485Y261719D02*
X460422D01*
X408296Y305301D02*
X412233D01*
X410265Y303333D02*
Y307270D01*
X384134Y284764D02*
Y288701D01*
X382165Y286732D02*
X386102D01*
X127087Y70906D02*
Y74843D01*
X125118Y72874D02*
X129055D01*
X365197Y46929D02*
Y50866D01*
X363228Y48898D02*
X367165D01*
X308465Y46417D02*
Y50354D01*
X306496Y48386D02*
X310433D01*
X253346Y47402D02*
Y51339D01*
X251378Y49370D02*
X255315D01*
X477992Y123583D02*
Y127520D01*
X476024Y125551D02*
X479961D01*
X476969Y84528D02*
Y88465D01*
X475000Y86496D02*
X478937D01*
X453504Y155407D02*
X457441D01*
X455472Y153438D02*
Y157375D01*
X457008Y108937D02*
X460945D01*
X458976Y106969D02*
Y110906D01*
X428858Y103858D02*
Y107795D01*
X426890Y105827D02*
X430827D01*
X431378Y150866D02*
Y154803D01*
X429409Y152835D02*
X433346D01*
X450079Y90669D02*
X454016D01*
X452047Y88701D02*
Y92638D01*
X299741Y194567D02*
X303678D01*
X301710Y192598D02*
Y196535D01*
X278797Y194567D02*
X282734D01*
X280765Y192598D02*
Y196535D01*
X404190Y194882D02*
X408127D01*
X406158Y192913D02*
Y196850D01*
X366961Y353555D02*
X370898D01*
X368929Y351587D02*
Y355524D01*
X344252Y347323D02*
Y351260D01*
X342283Y349291D02*
X346220D01*
X489055Y237244D02*
X492992D01*
X491024Y235276D02*
Y239213D01*
X357244Y324409D02*
X361181D01*
X359213Y322441D02*
Y326378D01*
X488780Y267513D02*
Y271450D01*
X486811Y269481D02*
X490748D01*
X545128Y143444D02*
Y147381D01*
X543159Y145413D02*
X547096D01*
X337145Y201693D02*
Y205630D01*
X335176Y203661D02*
X339113D01*
X497706Y34377D02*
X501643D01*
X499674Y32408D02*
Y36345D01*
X144094Y71103D02*
Y75040D01*
X142126Y73071D02*
X146063D01*
X83780Y72598D02*
X87717D01*
X85748Y70630D02*
Y74567D01*
X172992Y70748D02*
Y74685D01*
X171024Y72716D02*
X174961D01*
X191535Y70945D02*
Y74882D01*
X189567Y72914D02*
X193504D01*
X42402Y70669D02*
Y74606D01*
X40433Y72638D02*
X44370D01*
X60039Y70866D02*
Y74803D01*
X58071Y72835D02*
X62008D01*
X102480Y70827D02*
Y74764D01*
X100512Y72795D02*
X104449D01*
X442295Y34377D02*
X446232D01*
X444263Y32408D02*
Y36345D01*
X386884Y34377D02*
X390821D01*
X388853Y32408D02*
Y36345D01*
X331474Y34377D02*
X335411D01*
X333442Y32408D02*
Y36345D01*
X276063Y34377D02*
X280000D01*
X278031Y32408D02*
Y36345D01*
X365551Y208268D02*
X369488D01*
X367520Y206299D02*
Y210236D01*
X351772Y200158D02*
Y204095D01*
X349803Y202126D02*
X353740D01*
X437402Y200472D02*
Y204409D01*
X435433Y202441D02*
X439370D01*
X418976Y207638D02*
X422913D01*
X420945Y205669D02*
Y209606D01*
X261181Y208307D02*
X265118D01*
X263150Y206339D02*
Y210276D01*
X319231Y207126D02*
X323168D01*
X321199Y205157D02*
Y209094D01*
X353150Y368189D02*
Y372126D01*
X351181Y370157D02*
X355118D01*
D14*
X566810Y314410D02*
X567505Y315124D01*
X568180Y315856D01*
X568836Y316605D01*
X569471Y317371D01*
X570086Y318155D01*
X570680Y318954D01*
X571252Y319769D01*
X571803Y320599D01*
X572331Y321443D01*
X572836Y322301D01*
X573319Y323171D01*
X573778Y324055D01*
X574214Y324951D01*
X574625Y325857D01*
X575012Y326775D01*
X575375Y327702D01*
X575713Y328639D01*
X576025Y329584D01*
X576313Y330537D01*
X576575Y331498D01*
X576811Y332465D01*
X577022Y333439D01*
X577206Y334417D01*
X577364Y335400D01*
X577497Y336387D01*
X577602Y337377D01*
X577682Y338370D01*
X577735Y339364D01*
X577761Y340359D01*
Y341355D01*
X577735Y342351D01*
X577682Y343345D01*
X577602Y344337D01*
X577497Y345327D01*
X577364Y346315D01*
X577206Y347298D01*
X577022Y348276D01*
X576811Y349249D01*
X576575Y350217D01*
X576313Y351177D01*
X576025Y352131D01*
X575713Y353076D01*
X575375Y354013D01*
X575012Y354940D01*
X574625Y355857D01*
X574214Y356764D01*
X573778Y357660D01*
X573319Y358543D01*
X572836Y359414D01*
X572331Y360272D01*
X571803Y361116D01*
X571252Y361946D01*
X570680Y362761D01*
X570086Y363560D01*
X569471Y364343D01*
X568836Y365110D01*
X568180Y365859D01*
X567505Y366591D01*
X566810Y367304D01*
X566097Y367999D01*
X565365Y368674D01*
X564616Y369330D01*
X563849Y369966D01*
X563066Y370580D01*
X562267Y371174D01*
X561452Y371746D01*
X560622Y372297D01*
X559778Y372825D01*
X558920Y373331D01*
X558049Y373813D01*
X557165Y374272D01*
X556270Y374708D01*
X555363Y375119D01*
X554446Y375506D01*
X553518Y375869D01*
X552582Y376207D01*
X551637Y376519D01*
X550683Y376807D01*
X549722Y377069D01*
X548755Y377305D01*
X547782Y377516D01*
X546804Y377700D01*
X545820Y377859D01*
X544834Y377991D01*
X543843Y378097D01*
X542851Y378176D01*
X541856Y378229D01*
X540861Y378256D01*
X539865Y378256D01*
X538870Y378229D01*
X537876Y378176D01*
X536883Y378097D01*
X535893Y377991D01*
X534906Y377859D01*
X533923Y377700D01*
X532945Y377516D01*
X531971Y377305D01*
X531004Y377069D01*
X530043Y376807D01*
X529090Y376520D01*
X528145Y376207D01*
X527208Y375869D01*
X526281Y375506D01*
X525363Y375119D01*
X524457Y374708D01*
X523561Y374272D01*
X522677Y373813D01*
X521806Y373331D01*
X520949Y372825D01*
X520104Y372297D01*
X519275Y371747D01*
X518460Y371174D01*
X517661Y370581D01*
X516877Y369966D01*
X516111Y369330D01*
X515361Y368674D01*
X514630Y367999D01*
X513916Y367304D01*
X513916Y367304D02*
X513222Y366591D01*
X512546Y365859D01*
X511890Y365110D01*
X511255Y364343D01*
X510640Y363560D01*
X510046Y362761D01*
X509474Y361946D01*
X508923Y361116D01*
X508395Y360272D01*
X507890Y359414D01*
X507407Y358543D01*
X506948Y357660D01*
X506513Y356764D01*
X506101Y355857D01*
X505714Y354940D01*
X505351Y354013D01*
X505014Y353076D01*
X504701Y352131D01*
X504414Y351177D01*
X504151Y350217D01*
X503915Y349249D01*
X503705Y348276D01*
X503520Y347298D01*
X503362Y346315D01*
X503230Y345328D01*
X503124Y344338D01*
X503044Y343345D01*
X502991Y342351D01*
X502965Y341355D01*
Y340359D01*
X502991Y339364D01*
X503044Y338370D01*
X503124Y337377D01*
X503230Y336387D01*
X503362Y335400D01*
X503520Y334417D01*
X503705Y333439D01*
X503915Y332466D01*
X504151Y331498D01*
X504414Y330538D01*
X504701Y329584D01*
X505014Y328639D01*
X505351Y327702D01*
X505714Y326775D01*
X506101Y325857D01*
X506513Y324951D01*
X506948Y324055D01*
X507407Y323172D01*
X507890Y322301D01*
X508395Y321443D01*
X508923Y320599D01*
X509474Y319769D01*
X510046Y318954D01*
X510640Y318155D01*
X511255Y317372D01*
X511890Y316605D01*
X512546Y315856D01*
X513222Y315124D01*
X513916Y314410D01*
X514630Y313716D01*
X515361Y313040D01*
X516111Y312385D01*
X516877Y311749D01*
X517660Y311134D01*
X518460Y310541D01*
X519274Y309968D01*
X520104Y309418D01*
X520948Y308890D01*
X521806Y308384D01*
X522677Y307902D01*
X523561Y307442D01*
X524456Y307007D01*
X525363Y306595D01*
X526280Y306208D01*
X527208Y305846D01*
X528144Y305508D01*
X529090Y305195D01*
X530043Y304908D01*
X531004Y304646D01*
X531971Y304409D01*
X532944Y304199D01*
X533923Y304014D01*
X534906Y303856D01*
X535893Y303724D01*
X536883Y303618D01*
X537875Y303539D01*
X538870Y303486D01*
X539865Y303459D01*
X540861Y303459D01*
X541856Y303486D01*
X542851Y303539D01*
X543843Y303618D01*
X544833Y303724D01*
X545820Y303856D01*
X546803Y304014D01*
X547782Y304199D01*
X548755Y304409D01*
X549722Y304646D01*
X550683Y304908D01*
X551636Y305195D01*
X552582Y305508D01*
X553518Y305846D01*
X554446Y306208D01*
X555363Y306595D01*
X556270Y307007D01*
X557165Y307442D01*
X558049Y307901D01*
X558920Y308384D01*
X559778Y308889D01*
X560622Y309418D01*
X561452Y309968D01*
X562266Y310540D01*
X563066Y311134D01*
X563849Y311749D01*
X564615Y312385D01*
X565365Y313040D01*
X566096Y313716D01*
X566810Y314410D01*
X417330Y6484D02*
Y23437D01*
X427394D01*
Y6484D02*
Y23437D01*
X417330Y6484D02*
X427394D01*
X362842Y5972D02*
Y22926D01*
X372906D01*
Y5972D02*
Y22926D01*
X362842Y5972D02*
X372906D01*
X277783Y2960D02*
X294737D01*
X277783D02*
Y13024D01*
X294737D01*
Y2960D02*
Y13024D01*
X306700Y5578D02*
Y22532D01*
X316764D01*
Y5578D02*
Y22532D01*
X306700Y5578D02*
X316764D01*
X400224Y171582D02*
Y181646D01*
Y171582D02*
X417178D01*
Y181646D01*
X400224D02*
X417178D01*
X373492Y171385D02*
Y181449D01*
Y171385D02*
X390445D01*
Y181449D01*
X373492D02*
X390445D01*
X294161Y172960D02*
Y183024D01*
Y172960D02*
X311115D01*
Y183024D01*
X294161D02*
X311115D01*
X272350Y172960D02*
Y183024D01*
Y172960D02*
X289304D01*
Y183024D01*
X272350D02*
X289304D01*
X248472Y5857D02*
Y22811D01*
X258536D01*
Y5857D02*
Y22811D01*
X248472Y5857D02*
X258536D01*
X275303Y56464D02*
X292256D01*
X275303D02*
Y66528D01*
X292256D01*
Y56464D02*
Y66528D01*
X334476Y3551D02*
X351430D01*
X334476D02*
Y13615D01*
X351430D01*
Y3551D02*
Y13615D01*
X391090Y3196D02*
X408044D01*
X391090D02*
Y13260D01*
X408044D01*
Y3196D02*
Y13260D01*
X416464Y57886D02*
X426528D01*
X416464Y40933D02*
Y57886D01*
Y40933D02*
X426528D01*
Y57886D01*
X497271Y54968D02*
X514225D01*
X497271D02*
Y65032D01*
X514225D01*
Y54968D02*
Y65032D01*
X499988Y4417D02*
X516941D01*
X499988D02*
Y14481D01*
X516941D01*
Y4417D02*
Y14481D01*
X444712Y3590D02*
X461666D01*
X444712D02*
Y13654D01*
X461666D01*
Y3590D02*
Y13654D01*
X473039Y6759D02*
Y23713D01*
X483103D01*
Y6759D02*
Y23713D01*
X473039Y6759D02*
X483103D01*
X472330Y57571D02*
X482394D01*
X472330Y40618D02*
Y57571D01*
Y40618D02*
X482394D01*
Y57571D01*
X441563Y54889D02*
X458516D01*
X441563D02*
Y64953D01*
X458516D01*
Y54889D02*
Y64953D01*
X386917Y54968D02*
X403870D01*
X386917D02*
Y65032D01*
X403870D01*
Y54968D02*
Y65032D01*
X331366Y54889D02*
X348319D01*
X331366D02*
Y64953D01*
X348319D01*
Y54889D02*
Y64953D01*
X453422Y253242D02*
Y270195D01*
X463486D01*
Y253242D02*
Y270195D01*
X453422Y253242D02*
X463486D01*
X401788Y310333D02*
X418741D01*
Y300269D02*
Y310333D01*
X401788Y300269D02*
X418741D01*
X401788D02*
Y310333D01*
X389166Y278256D02*
Y295209D01*
X379102Y278256D02*
X389166D01*
X379102D02*
Y295209D01*
X389166D01*
X370229Y40421D02*
Y57374D01*
X360165Y40421D02*
X370229D01*
X360165D02*
Y57374D01*
X370229D01*
X313496Y39909D02*
Y56863D01*
X303433Y39909D02*
X313496D01*
X303433D02*
Y56863D01*
X313496D01*
X258378Y40893D02*
Y57847D01*
X248315Y40893D02*
X258378D01*
X248315D02*
Y57847D01*
X258378D01*
X483024Y117074D02*
Y134028D01*
X472960Y117074D02*
X483024D01*
X472960D02*
Y134028D01*
X483024D01*
X482000Y78019D02*
Y94973D01*
X471937Y78019D02*
X482000D01*
X471937D02*
Y94973D01*
X482000D01*
X446996Y150375D02*
X463949D01*
X446996D02*
Y160439D01*
X463949D01*
Y150375D02*
Y160439D01*
X450500Y103905D02*
X467453D01*
X450500D02*
Y113969D01*
X467453D01*
Y103905D02*
Y113969D01*
X423826Y97350D02*
Y114304D01*
X433890D01*
Y97350D02*
Y114304D01*
X423826Y97350D02*
X433890D01*
X426346Y144358D02*
Y161311D01*
X436410D01*
Y144358D02*
Y161311D01*
X426346Y144358D02*
X436410D01*
D16*
X311575Y146142D02*
X324358D01*
X325762Y144738D01*
X403270Y151255D02*
X408000Y146525D01*
X250038Y152000D02*
X251625Y150413D01*
X319376Y151255D02*
X403270D01*
X318533Y150413D02*
X319376Y151255D01*
X251625Y150413D02*
X318533D01*
X35630Y7165D02*
X83575D01*
X8800Y33995D02*
X35630Y7165D01*
X8800Y33995D02*
Y102670D01*
X561403Y1575D02*
X564400Y4572D01*
X327670Y1575D02*
X561403D01*
X564400Y4572D02*
Y149568D01*
X538878Y217913D02*
X541378D01*
X533878Y222913D02*
X538878Y217913D01*
Y207913D02*
X541378D01*
X533878Y202913D02*
X538878Y207913D01*
X189882Y3124D02*
X191431Y1575D01*
X315330D01*
X509519Y3362D02*
X562110Y55954D01*
X326929Y3362D02*
X509519D01*
X562110Y55954D02*
Y102181D01*
X499500Y35900D02*
X536904D01*
X560323Y59319D01*
Y70477D01*
X497500Y39200D02*
X535019D01*
X556378Y60559D01*
Y67913D01*
X453300Y42000D02*
X534823D01*
X552823Y60000D01*
Y64547D01*
X560000Y153968D02*
X564400Y149568D01*
X473639Y293301D02*
X500539D01*
X426925Y40400D02*
X427213Y40687D01*
X230500Y46400D02*
X231029Y46929D01*
X539000Y66900D02*
Y67913D01*
X529500Y188900D02*
X541378D01*
X540784Y147181D02*
Y147913D01*
X439919Y297953D02*
X480709D01*
X431063Y272835D02*
Y289097D01*
X428543Y270315D02*
X431063Y272835D01*
X359575Y270315D02*
X428543D01*
X431063Y289097D02*
X439919Y297953D01*
X343590Y286300D02*
X359575Y270315D01*
X249400Y286300D02*
X343590D01*
X408787Y250472D02*
X410215Y251901D01*
X316607Y250472D02*
X408787D01*
X315679Y251400D02*
X316607Y250472D01*
X88553Y121601D02*
X244040D01*
X210526Y132600D02*
X252511D01*
X256707Y136795D02*
X421108D01*
X252511Y132600D02*
X256707Y136795D01*
X257447Y135008D02*
X420368D01*
X244040Y121601D02*
X257447Y135008D01*
X470000Y82300D02*
X485700Y98000D01*
X541291D01*
X541378Y97913D01*
X426761Y40236D02*
X426925Y40400D01*
X36000Y161400D02*
X80116Y117283D01*
X204764D01*
X275252Y125772D02*
X438990D01*
X269803Y131220D02*
X275252Y125772D01*
X266339Y131220D02*
X269803D01*
X254646Y122480D02*
X255520D01*
X253141Y126268D02*
X256558Y129685D01*
X253077Y126268D02*
X253141D01*
X250858Y124049D02*
X253077Y126268D01*
X250858Y120598D02*
Y124049D01*
X255520Y122480D02*
X261134Y116866D01*
X250858Y120598D02*
X256557Y114900D01*
X420368Y135008D02*
X427817Y127559D01*
X421108Y136795D02*
X421817Y136087D01*
X422864D01*
X256557Y114900D02*
X457163D01*
X422864Y136087D02*
X429604Y129346D01*
X459866Y127811D02*
X467449Y120228D01*
X431391Y131134D02*
X436769D01*
X423502Y139024D02*
X431391Y131134D01*
X429604Y129346D02*
X437509D01*
X438502Y127811D02*
X459866D01*
X427817Y127559D02*
X438249D01*
X437761Y129598D02*
X440500D01*
X439242Y126024D02*
X458417D01*
X438990Y125772D02*
X439242Y126024D01*
X438249Y127559D02*
X438502Y127811D01*
X437509Y129346D02*
X437761Y129598D01*
X437021Y131386D02*
X437373D01*
X436769Y131134D02*
X437021Y131386D01*
X437373D02*
X438987Y133000D01*
X440500Y129598D02*
X449902Y139000D01*
X458417Y126024D02*
X466000Y118441D01*
X271457Y120905D02*
X457879D01*
X459074Y122100D01*
X464520Y116654D01*
X256795Y129449D02*
X257244D01*
X256558Y129685D02*
X256795Y129449D01*
X445315Y150945D02*
X446745D01*
X460301Y164500D01*
X446762Y87638D02*
X447205D01*
X437700Y96700D02*
X446762Y87638D01*
X469410Y101654D02*
X469953D01*
X475200Y106900D01*
X468465Y124921D02*
Y125465D01*
X480200Y137200D01*
X477937Y128645D02*
X537865D01*
X469520Y120228D02*
X477937Y128645D01*
X467449Y120228D02*
X469520D01*
X440000Y31900D02*
X460935Y52835D01*
X516653D01*
X426925Y40400D02*
X427071D01*
X422513Y40523D02*
Y42200D01*
Y40523D02*
X423283Y39752D01*
Y38329D02*
Y39752D01*
Y38329D02*
X425000Y36613D01*
X422825Y45075D02*
X427213Y40687D01*
X223387Y42567D02*
X332015D01*
X334524Y45075D02*
X381250D01*
X332015Y42567D02*
X334524Y45075D01*
X231029Y46929D02*
X330118D01*
X491910Y94213D02*
X527008D01*
X491611Y94511D02*
X491910Y94213D01*
X475300Y78200D02*
X491611Y94511D01*
X277160Y183200D02*
X395000D01*
X300700Y25400D02*
X311363Y36063D01*
X314016D01*
X327504Y1409D02*
X327670Y1575D01*
X315496Y1409D02*
X327504D01*
X326764Y3197D02*
X326929Y3362D01*
X326189Y5150D02*
X499050D01*
X326024Y4984D02*
X326189Y5150D01*
X325449Y6937D02*
X491737D01*
X325283Y6772D02*
X325449Y6937D01*
X324708Y8724D02*
X327974D01*
X324543Y8559D02*
X324708Y8724D01*
X318457Y8559D02*
X324543D01*
X323803Y10346D02*
X339656Y26200D01*
X319197Y10346D02*
X323803D01*
X315330Y1575D02*
X315496Y1409D01*
X312819Y6614D02*
X316236Y3197D01*
X313559Y8402D02*
X316976Y4984D01*
X314299Y10189D02*
X317717Y6772D01*
X315040Y11976D02*
X318457Y8559D01*
X315780Y13764D02*
X319197Y10346D01*
X317717Y6772D02*
X325283D01*
X316976Y4984D02*
X326024D01*
X316236Y3197D02*
X326764D01*
X327974Y8724D02*
X342452Y23202D01*
X314036Y13764D02*
X315780D01*
X339656Y26200D02*
X484500D01*
X311774Y11976D02*
X315040D01*
X193229Y10189D02*
X314299D01*
X192489Y8402D02*
X313559D01*
X191748Y6614D02*
X312819D01*
X491737Y6937D02*
X496100Y11300D01*
X499050Y5150D02*
X501900Y8000D01*
X82834Y8953D02*
X84070Y10189D01*
X83575Y7165D02*
X84811Y8402D01*
X187700Y6299D02*
X188313Y6912D01*
X128368Y6299D02*
X187700D01*
X134339Y8699D02*
X192191D01*
X133727Y8087D02*
X134339Y8699D01*
X133599Y10487D02*
X192931D01*
X132986Y9874D02*
X133599Y10487D01*
X192931D02*
X193229Y10189D01*
X192191Y8699D02*
X192489Y8402D01*
X191451Y6912D02*
X191748Y6614D01*
X188313Y6912D02*
X191451D01*
X128053Y6614D02*
X128368Y6299D01*
X85551Y6614D02*
X128053D01*
X129108Y8087D02*
X133727D01*
X128793Y8402D02*
X129108Y8087D01*
X84811Y8402D02*
X128793D01*
X129849Y9874D02*
X132986D01*
X129534Y10189D02*
X129849Y9874D01*
X84070Y10189D02*
X129534D01*
X304300Y23500D02*
X314036Y13764D01*
X304038Y19713D02*
X311774Y11976D01*
X82244Y3307D02*
X85551Y6614D01*
X59147Y8953D02*
X82834D01*
X81890Y3307D02*
X82244D01*
X18100Y50000D02*
X59147Y8953D01*
X444187Y217913D02*
X538878D01*
X415800Y246300D02*
X444187Y217913D01*
X460301Y164500D02*
X472700D01*
X194800Y217012D02*
X213142D01*
X23142Y257012D02*
X49488D01*
X85100Y221400D01*
X261000D01*
X295413Y186987D01*
X414187D01*
X423275Y177900D01*
X535812D01*
X539744Y173968D01*
X544549D01*
X545323Y174742D01*
Y179358D01*
X548878Y182913D01*
X23142Y237012D02*
X62688D01*
X88777Y210923D01*
X197523D01*
X198600Y212000D01*
X248360D01*
X277160Y183200D01*
X410600Y178800D02*
Y183000D01*
X406000Y174200D02*
X410600Y178800D01*
X279400Y174200D02*
X406000D01*
X252200Y201400D02*
X279400Y174200D01*
X94800Y201400D02*
X252200D01*
X64100Y232100D02*
X94800Y201400D01*
X18054Y232100D02*
X64100D01*
X13142Y237012D02*
X18054Y232100D01*
X423275Y146525D02*
X425202Y144598D01*
X408000Y146525D02*
X423275D01*
X88154Y152000D02*
X250038D01*
X23142Y217012D02*
X88154Y152000D01*
X538597Y127913D02*
X541378D01*
X537865Y128645D02*
X538597Y127913D01*
X23142Y187012D02*
X88553Y121601D01*
X556378Y127913D02*
Y130992D01*
X548470Y138900D02*
X556378Y130992D01*
X545970Y138900D02*
X548470D01*
X543836Y141034D02*
X545970Y138900D01*
X543836Y141034D02*
Y144792D01*
X545323Y146279D01*
Y149547D01*
X543012Y151858D02*
X545323Y149547D01*
X539744Y151858D02*
X543012D01*
X536854Y148968D02*
X539744Y151858D01*
X527000Y148968D02*
X536854D01*
X517032Y139000D02*
X527000Y148968D01*
X449902Y139000D02*
X517032D01*
X206438Y128513D02*
X210526Y132600D01*
X103887Y128513D02*
X206438D01*
X41000Y191400D02*
X103887Y128513D01*
X17530Y191400D02*
X41000D01*
X13142Y187012D02*
X17530Y191400D01*
X431700Y90700D02*
X433700Y88700D01*
X227500Y90700D02*
X431700D01*
X226800Y91400D02*
X227500Y90700D01*
X65200Y91400D02*
X226800D01*
X24000Y132600D02*
X65200Y91400D01*
X8800Y132600D02*
X24000D01*
X7000Y134400D02*
X8800Y132600D01*
X7000Y134400D02*
Y170870D01*
X13142Y177012D01*
X556378Y107913D02*
X562110Y102181D01*
X32900Y104800D02*
X75100Y62600D01*
X272600D01*
X288200Y78200D01*
X475300D01*
X496100Y11300D02*
Y25000D01*
X18100Y50000D02*
Y101970D01*
X23142Y107012D01*
X392737Y45075D02*
X422825D01*
X390375Y42713D02*
X392737Y45075D01*
X383612Y42713D02*
X390375D01*
X381250Y45075D02*
X383612Y42713D01*
X221354Y44600D02*
X223387Y42567D01*
X206600Y44600D02*
X221354D01*
X261134Y116866D02*
X458772D01*
X460772Y114866D01*
X479071D01*
X482118Y117913D01*
X541378D01*
X457163Y114900D02*
X459150Y112913D01*
X533878D01*
X218474Y231679D02*
X223142Y227012D01*
X205279Y231679D02*
X218474D01*
X202400Y228800D02*
X205279Y231679D01*
X202400Y82300D02*
X265750D01*
X271037Y77013D01*
X275336D01*
X280623Y82300D01*
X470000D01*
X210830Y224700D02*
X213142Y227012D01*
X199900Y224700D02*
X210830D01*
X193113Y231487D02*
X199900Y224700D01*
X193113Y231487D02*
Y256000D01*
X195200Y258087D01*
X202687D01*
X209375Y251400D01*
X315679D01*
X410215Y251901D02*
X420864D01*
X421844Y250921D01*
X547279D01*
X563200Y235000D01*
X228600Y48300D02*
X230500Y46400D01*
X281500Y25400D02*
X300700D01*
X267200Y39700D02*
X281500Y25400D01*
X219600Y39700D02*
X267200D01*
X267088Y87012D02*
X273300Y80800D01*
X223142Y87012D02*
X267088D01*
X223142Y77012D02*
X267788D01*
X270800Y74000D01*
X278600D01*
X281900Y77300D01*
X325762Y144738D02*
X418676D01*
X422603Y140811D01*
X425547D01*
X431437Y134921D01*
X435200D01*
X253800Y154200D02*
X404400D01*
X407500Y151100D01*
Y149813D02*
Y151100D01*
Y149813D02*
X409000Y148313D01*
X413013D01*
X414900Y150200D01*
X428600D01*
X433000Y145800D01*
Y141000D02*
Y145800D01*
X539000Y67913D02*
X541378D01*
X479149Y66900D02*
X539000D01*
X473987Y61738D02*
X479149Y66900D01*
X455125Y61738D02*
X473987D01*
X430000Y36613D02*
X455125Y61738D01*
X425000Y36613D02*
X430000D01*
X393437Y42200D02*
X422513D01*
X392162Y40925D02*
X393437Y42200D01*
X371062Y40925D02*
X392162D01*
X368700Y43287D02*
X371062Y40925D01*
X362087Y43287D02*
X368700D01*
X359579Y40779D02*
X362087Y43287D01*
X306703Y40779D02*
X359579D01*
X295423Y29500D02*
X306703Y40779D01*
X526165Y75200D02*
X533878Y82913D01*
X495800Y75200D02*
X526165D01*
X524365Y133400D02*
X533878Y142913D01*
X500200Y133400D02*
X524365D01*
X527891Y168900D02*
X533878Y162913D01*
X275900Y168900D02*
X527891D01*
X263400Y181400D02*
X275900Y168900D01*
X113100Y181400D02*
X263400D01*
X100600Y193900D02*
X113100Y181400D01*
X541378Y187913D02*
Y188900D01*
X524200Y194200D02*
X529500Y188900D01*
X413600Y194200D02*
X524200D01*
X374900Y232900D02*
X413600Y194200D01*
X484500Y26200D02*
X497500Y39200D01*
X358600Y31200D02*
X386300D01*
X389400Y28100D01*
X439400D01*
X453300Y42000D01*
X548878Y68492D02*
X552823Y64547D01*
X548878Y68492D02*
Y72913D01*
X388800Y19400D02*
X391500Y16700D01*
X480300D01*
X499500Y35900D01*
X556378Y74422D02*
X560323Y70477D01*
X556378Y74422D02*
Y77913D01*
X470700Y73200D02*
X483700D01*
X491100Y80600D01*
X519800D01*
X526600Y87400D01*
X536312D01*
X540799Y82913D01*
X548878D01*
Y152913D02*
Y157334D01*
X544354Y161858D02*
X548878Y157334D01*
X538402Y161858D02*
X544354D01*
X535512Y158968D02*
X538402Y161858D01*
X463368Y158968D02*
X535512D01*
X450900Y146500D02*
X463368Y158968D01*
X553402Y153968D02*
X560000D01*
X550700Y156670D02*
X553402Y153968D01*
X550700Y156670D02*
Y161091D01*
X548878Y162913D02*
X550700Y161091D01*
X196900Y251000D02*
Y254300D01*
Y251000D02*
X205900Y242000D01*
X337000D01*
X388600Y190400D01*
X519358D01*
X522900Y186858D01*
X535512D01*
X538470Y183900D01*
X542944D01*
X545944Y186900D01*
X549786D01*
X554744Y191858D01*
X559000D01*
X560400Y190458D01*
Y176000D02*
Y190458D01*
X557313Y172913D02*
X560400Y176000D01*
X548878Y172913D02*
X557313D01*
X427091Y224109D02*
X442300Y208900D01*
X536786D01*
X539744Y211858D01*
X543012D01*
X545323Y209547D01*
Y204937D02*
Y209547D01*
X544933Y204547D02*
X545323Y204937D01*
X544933Y201279D02*
Y204547D01*
Y201279D02*
X548878Y197334D01*
Y192913D02*
Y197334D01*
X223142Y247012D02*
X408901D01*
X412003Y250113D01*
X419577D01*
X422679Y247012D01*
X545188D01*
X568000Y224200D01*
X8800Y211354D02*
X13142Y207012D01*
X8800Y211354D02*
Y240000D01*
X10800Y242000D01*
X16100D01*
X18100Y244000D01*
Y260000D01*
X19500Y261400D01*
X289300D01*
X291700Y259000D01*
X499562Y72913D02*
X533878D01*
X498057Y71407D02*
X499562Y72913D01*
X476482Y71407D02*
X498057D01*
X470387Y65313D02*
X476482Y71407D01*
X352913Y65313D02*
X470387D01*
X351600Y64000D02*
X352913Y65313D01*
X548878Y98492D02*
Y102913D01*
Y98492D02*
X552823Y94547D01*
Y91279D02*
Y94547D01*
X552000Y90456D02*
X552823Y91279D01*
X552000Y85370D02*
Y90456D01*
Y85370D02*
X552823Y84547D01*
Y81279D02*
Y84547D01*
X550444Y78900D02*
X552823Y81279D01*
X547944Y78900D02*
X550444D01*
X543012Y73968D02*
X547944Y78900D01*
X540512Y73968D02*
X543012D01*
X535444Y68900D02*
X540512Y73968D01*
X477574Y68900D02*
X535444D01*
X472199Y63525D02*
X477574Y68900D01*
X449325Y63525D02*
X472199D01*
X444900Y59100D02*
X449325Y63525D01*
X59400Y59100D02*
X444900D01*
X27500Y91000D02*
X59400Y59100D01*
X27500Y91000D02*
Y120000D01*
X26100Y121400D02*
X27500Y120000D01*
X11800Y121400D02*
X26100D01*
X5200Y128000D02*
X11800Y121400D01*
X5200Y128000D02*
Y176000D01*
X11200Y182000D01*
X18154D01*
X23142Y177012D01*
X213142D02*
X218154Y172000D01*
X230000D01*
X236200Y165800D01*
X420000D01*
X421200Y164600D01*
Y158600D02*
Y164600D01*
X418700Y156100D02*
X421200Y158600D01*
X415200Y156100D02*
X418700D01*
X411200Y152100D02*
X415200Y156100D01*
X126900Y162000D02*
X417000D01*
X69800Y219100D02*
X126900Y162000D01*
X48100Y219100D02*
X69800D01*
X45800Y221400D02*
X48100Y219100D01*
X17530Y221400D02*
X45800D01*
X13142Y217012D02*
X17530Y221400D01*
X478097Y122913D02*
X533878D01*
X471837Y116654D02*
X478097Y122913D01*
X464520Y116654D02*
X471837D01*
X466000Y118441D02*
X470641D01*
X477000Y124800D01*
X530000D01*
X532058Y126858D01*
X536854D01*
X541378Y122334D01*
X546444Y127400D01*
X551312D01*
X556378Y122334D01*
Y117913D02*
Y122334D01*
X439598Y23202D02*
X442300Y20500D01*
X342452Y23202D02*
X439598D01*
X254687Y19713D02*
X304038D01*
X246200Y28200D02*
X254687Y19713D01*
X381000Y52100D02*
X386600Y46500D01*
X207016Y52100D02*
X381000D01*
X204200Y133300D02*
X207912Y137012D01*
X213142D01*
X194500Y141400D02*
X417038D01*
X419414Y139024D01*
X423502D01*
X438987Y133000D02*
Y136087D01*
X444000Y141100D01*
X505000D01*
X521000Y157100D01*
X540565D01*
X541378Y157913D01*
X206000Y72600D02*
X264300D01*
X198600Y80000D02*
X206000Y72600D01*
X198600Y80000D02*
Y84000D01*
X201612Y87012D01*
X213142D01*
X248500Y96700D02*
X437700D01*
X242500Y102700D02*
X248500Y96700D01*
X20000Y161400D02*
X36000D01*
X17500Y158900D02*
X20000Y161400D01*
X17500Y151370D02*
Y158900D01*
X13142Y147012D02*
X17500Y151370D01*
X8800Y162670D02*
X13142Y167012D01*
X8800Y143800D02*
Y162670D01*
Y143800D02*
X10000Y142600D01*
X33600D01*
X73600Y102600D01*
X233400D01*
X237287Y106487D01*
X248287D01*
X251775Y103000D01*
X459525D01*
X465413Y97113D01*
X472987D01*
X478788Y102913D01*
X533878D01*
X501900Y8000D02*
Y29800D01*
X8800Y102670D02*
X13142Y107012D01*
X225354Y254800D02*
X319500D01*
X223142Y257012D02*
X225354Y254800D01*
X241800Y217400D02*
X249400D01*
X241412Y217012D02*
X241800Y217400D01*
X223142Y217012D02*
X241412D01*
X540784Y147913D02*
X541378D01*
X530481Y147181D02*
X540784D01*
X520500Y137200D02*
X530481Y147181D01*
X480200Y137200D02*
X520500D01*
X556378Y147913D02*
X562600Y141691D01*
Y116000D02*
Y141691D01*
X560500Y113900D02*
X562600Y116000D01*
X556786Y113900D02*
X560500D01*
X551786Y108900D02*
X556786Y113900D01*
X549286Y108900D02*
X551786D01*
X544354Y103968D02*
X549286Y108900D01*
X539744Y103968D02*
X544354D01*
X536812Y106900D02*
X539744Y103968D01*
X475200Y106900D02*
X536812D01*
X23142Y157012D02*
X68754Y111400D01*
X251700D01*
X251800Y111300D01*
X457197D01*
X459597Y108900D01*
X536786D01*
X540799Y112913D01*
X548878D01*
X393200Y31900D02*
X440000D01*
X8800Y261354D02*
X13142Y257012D01*
X8800Y261354D02*
Y270000D01*
X10800Y272000D01*
X271500D01*
X279400Y264100D01*
X530808D01*
X542200Y252708D01*
X553592D01*
X563350Y242950D01*
X320400Y206200D02*
X328647Y197953D01*
X296700Y206200D02*
X320400D01*
D17*
X386732Y344449D02*
Y360197D01*
X397756Y344449D02*
Y360197D01*
X386732Y344449D02*
X397756D01*
X386732Y360197D02*
X397756D01*
X241772Y191299D02*
Y212559D01*
X253189Y191299D02*
Y212559D01*
X241772Y191299D02*
X253189D01*
X241772Y212559D02*
X253189D01*
X398543Y276339D02*
Y296417D01*
X420197Y276339D02*
Y296417D01*
X398543D02*
X420197D01*
X398543Y276339D02*
X420197D01*
X455669Y307008D02*
X473386D01*
X455669Y298346D02*
X473386D01*
X455669D02*
Y307008D01*
X473386Y298346D02*
Y307008D01*
X377340Y187795D02*
X393088D01*
X377340Y201969D02*
X393088D01*
Y187795D02*
Y201969D01*
X377340Y187795D02*
Y201969D01*
X438780Y126457D02*
X469488D01*
X438780Y148504D02*
X469488D01*
Y126457D02*
Y148504D01*
X438780Y126457D02*
Y148504D01*
X121378Y83701D02*
X132795D01*
X121378Y62047D02*
X132795D01*
Y83701D01*
X121378Y62047D02*
Y83701D01*
X436693Y79646D02*
Y101693D01*
X467402Y79646D02*
Y101693D01*
X436693D02*
X467402D01*
X436693Y79646D02*
X467402D01*
X293836Y187480D02*
Y201654D01*
X309584Y187480D02*
Y201654D01*
X293836D02*
X309584D01*
X293836Y187480D02*
X309584D01*
X272891D02*
Y201654D01*
X288639Y187480D02*
Y201654D01*
X272891D02*
X288639D01*
X272891Y187480D02*
X288639D01*
X398284Y187795D02*
Y201969D01*
X414033Y187795D02*
Y201969D01*
X398284D02*
X414033D01*
X398284Y187795D02*
X414033D01*
X374047Y349028D02*
Y358083D01*
X363811Y349028D02*
Y358083D01*
Y349028D02*
X374047D01*
X363811Y358083D02*
X374047D01*
X337559Y342992D02*
X350945D01*
Y355591D01*
X337559D02*
X350945D01*
X337559Y342992D02*
Y355591D01*
X228772Y60122D02*
Y313902D01*
X207512D02*
X228772D01*
X207512Y60122D02*
Y313902D01*
Y60122D02*
X228772D01*
X501850Y229764D02*
Y244724D01*
X480197Y229764D02*
Y244724D01*
Y229764D02*
X501850D01*
X480197Y244724D02*
X501850D01*
X347795Y318898D02*
Y329921D01*
X370630Y318898D02*
Y329921D01*
X347795D02*
X370630D01*
X347795Y318898D02*
X370630D01*
X472441Y257670D02*
X505118D01*
X472441Y281292D02*
X505118D01*
Y257670D02*
Y281292D01*
X472441Y257670D02*
Y281292D01*
X528423Y19212D02*
X598108D01*
Y271614D01*
X528423D02*
X598108D01*
X528423Y19212D02*
Y271614D01*
X332814Y194803D02*
X341476D01*
X332814Y212520D02*
X341476D01*
X332814Y194803D02*
Y212520D01*
X341476Y194803D02*
Y212520D01*
X485206Y16069D02*
Y52684D01*
X514143Y16069D02*
Y52684D01*
X485206D02*
X514143D01*
X485206Y16069D02*
X514143D01*
X138386Y83701D02*
X149803D01*
X138386Y62441D02*
X149803D01*
Y83701D01*
X138386Y62441D02*
Y83701D01*
X80039Y61772D02*
Y83425D01*
X91457Y61772D02*
Y83425D01*
X80039Y61772D02*
X91457D01*
X80039Y83425D02*
X91457D01*
X167283Y83543D02*
X178701D01*
X167283Y61890D02*
X178701D01*
Y83543D01*
X167283Y61890D02*
Y83543D01*
X185827Y83543D02*
X197244D01*
X185827Y62284D02*
X197244D01*
Y83543D01*
X185827Y62284D02*
Y83543D01*
X36693Y83465D02*
X48110D01*
X36693Y61811D02*
X48110D01*
Y83465D01*
X36693Y61811D02*
Y83465D01*
X54331Y83465D02*
X65748D01*
X54331Y62205D02*
X65748D01*
Y83465D01*
X54331Y62205D02*
Y83465D01*
X96772Y83425D02*
X108189D01*
X96772Y62166D02*
X108189D01*
Y83425D01*
X96772Y62166D02*
Y83425D01*
X429795Y16069D02*
Y52684D01*
X458732Y16069D02*
Y52684D01*
X429795D02*
X458732D01*
X429795Y16069D02*
X458732D01*
X374384D02*
Y52684D01*
X403321Y16069D02*
Y52684D01*
X374384D02*
X403321D01*
X374384Y16069D02*
X403321D01*
X318974D02*
Y52684D01*
X347911Y16069D02*
Y52684D01*
X318974D02*
X347911D01*
X318974Y16069D02*
X347911D01*
X263563D02*
Y52684D01*
X292500Y16069D02*
Y52684D01*
X263563D02*
X292500D01*
X263563Y16069D02*
X292500D01*
X376378Y203937D02*
Y212598D01*
X358661Y203937D02*
Y212598D01*
Y203937D02*
X376378D01*
X358661Y212598D02*
X376378D01*
X346063Y212756D02*
X357480D01*
X346063Y191496D02*
X357480D01*
Y212756D01*
X346063Y191496D02*
Y212756D01*
X431693Y213071D02*
X443110D01*
X431693Y191811D02*
X443110D01*
Y213071D01*
X431693Y191811D02*
Y213071D01*
X412087Y203307D02*
Y211968D01*
X429803Y203307D02*
Y211968D01*
X412087D02*
X429803D01*
X412087Y203307D02*
X429803D01*
X272008Y203976D02*
Y212638D01*
X254291Y203976D02*
Y212638D01*
Y203976D02*
X272008D01*
X254291Y212638D02*
X272008D01*
X331829Y201417D02*
Y212835D01*
X310569Y201417D02*
Y212835D01*
Y201417D02*
X331829D01*
X310569Y212835D02*
X331829D01*
X28772Y60122D02*
Y313902D01*
X7512D02*
X28772D01*
X7512Y60122D02*
Y313902D01*
Y60122D02*
X28772D01*
X347638Y362283D02*
X358661D01*
X347638Y378031D02*
X358661D01*
X347638Y362283D02*
Y378031D01*
X358661Y362283D02*
Y378031D01*
D75*
X533878Y132913D02*
X548878D01*
X556000Y208291D02*
Y211874D01*
X541378Y167913D02*
X556378D01*
X533878Y92913D02*
X548878D01*
Y218996D02*
Y222913D01*
X556000Y208291D02*
X556378Y207913D01*
X541378Y227913D02*
X556378D01*
X553878Y207913D02*
X556378D01*
X538878Y167913D02*
X541378D01*
X548878Y202913D02*
X553878Y207913D01*
X533878Y172913D02*
X538878Y167913D01*
X533878Y62913D02*
X548878D01*
Y218996D02*
X556000Y211874D01*
X364900Y38183D02*
X419496D01*
X560936Y268450D02*
X561400Y267987D01*
X560936Y268450D02*
Y268564D01*
X543122Y286378D02*
X560936Y268564D01*
X560416Y268043D02*
X560472Y267987D01*
X291157Y268043D02*
X560416D01*
X560472Y267987D02*
X561400D01*
X572300Y257087D01*
Y215400D02*
Y257087D01*
X445157Y286221D02*
X542965D01*
X543122Y286378D01*
X283300Y275900D02*
X291157Y268043D01*
X471024Y325472D02*
X538898D01*
X547323Y333898D01*
X419496Y38183D02*
X423339Y34341D01*
X311890Y24606D02*
Y25576D01*
X324822Y38507D01*
X311890Y24606D02*
X312544D01*
X321811Y15339D01*
X321654Y14134D02*
Y15182D01*
X321811Y15339D01*
X245945Y13661D02*
X248622Y16339D01*
X131417Y13661D02*
X245945D01*
X564813Y207913D02*
X572300Y215400D01*
X518365Y47400D02*
X530431Y59466D01*
X364900Y38183D02*
Y39500D01*
X423339Y34341D02*
X434010D01*
X459135Y59466D01*
X530431D01*
X533878Y62913D01*
X223142Y297012D02*
X244254Y275900D01*
X283300D01*
X556378Y207913D02*
X564813D01*
X470600Y47400D02*
X518365D01*
X363907Y38507D02*
X364900Y39500D01*
X324822Y38507D02*
X363907D01*
D78*
X547323Y347817D02*
D03*
Y333898D02*
D03*
X533403D02*
D03*
Y347817D02*
D03*
X540363Y340857D02*
D03*
D79*
X466417Y238071D02*
D03*
D80*
X456417D02*
D03*
D81*
X213142Y67012D02*
D03*
Y77012D02*
D03*
Y87012D02*
D03*
Y97012D02*
D03*
Y107012D02*
D03*
Y117012D02*
D03*
Y127012D02*
D03*
Y137012D02*
D03*
Y147012D02*
D03*
Y157012D02*
D03*
Y167012D02*
D03*
Y177012D02*
D03*
Y187012D02*
D03*
Y197012D02*
D03*
Y207012D02*
D03*
Y217012D02*
D03*
Y227012D02*
D03*
Y237012D02*
D03*
Y247012D02*
D03*
Y257012D02*
D03*
Y267012D02*
D03*
Y277012D02*
D03*
Y287012D02*
D03*
Y297012D02*
D03*
Y307012D02*
D03*
X223142Y67012D02*
D03*
Y77012D02*
D03*
Y87012D02*
D03*
Y97012D02*
D03*
Y107012D02*
D03*
Y117012D02*
D03*
Y127012D02*
D03*
Y137012D02*
D03*
Y147012D02*
D03*
Y157012D02*
D03*
Y167012D02*
D03*
Y177012D02*
D03*
Y187012D02*
D03*
Y197012D02*
D03*
Y207012D02*
D03*
Y217012D02*
D03*
Y227012D02*
D03*
Y237012D02*
D03*
Y247012D02*
D03*
Y257012D02*
D03*
Y267012D02*
D03*
Y277012D02*
D03*
Y287012D02*
D03*
Y297012D02*
D03*
X13142Y67012D02*
D03*
Y77012D02*
D03*
Y87012D02*
D03*
Y97012D02*
D03*
Y107012D02*
D03*
Y117012D02*
D03*
Y127012D02*
D03*
Y137012D02*
D03*
Y147012D02*
D03*
Y157012D02*
D03*
Y167012D02*
D03*
Y177012D02*
D03*
Y187012D02*
D03*
Y197012D02*
D03*
Y207012D02*
D03*
Y217012D02*
D03*
Y227012D02*
D03*
Y237012D02*
D03*
Y247012D02*
D03*
Y257012D02*
D03*
Y267012D02*
D03*
Y277012D02*
D03*
Y287012D02*
D03*
Y297012D02*
D03*
Y307012D02*
D03*
X23142Y67012D02*
D03*
Y77012D02*
D03*
Y87012D02*
D03*
Y97012D02*
D03*
Y107012D02*
D03*
Y117012D02*
D03*
Y127012D02*
D03*
Y137012D02*
D03*
Y147012D02*
D03*
Y157012D02*
D03*
Y167012D02*
D03*
Y177012D02*
D03*
Y187012D02*
D03*
Y197012D02*
D03*
Y207012D02*
D03*
Y217012D02*
D03*
Y227012D02*
D03*
Y237012D02*
D03*
Y247012D02*
D03*
Y257012D02*
D03*
Y267012D02*
D03*
Y277012D02*
D03*
Y287012D02*
D03*
Y297012D02*
D03*
D82*
X223142Y307012D02*
D03*
X23142D02*
D03*
D83*
X556378Y227913D02*
D03*
Y217913D02*
D03*
Y207913D02*
D03*
Y197913D02*
D03*
Y187913D02*
D03*
Y177913D02*
D03*
Y167913D02*
D03*
Y157913D02*
D03*
Y147913D02*
D03*
Y137913D02*
D03*
Y127913D02*
D03*
Y117913D02*
D03*
Y107913D02*
D03*
Y97913D02*
D03*
Y87913D02*
D03*
Y77913D02*
D03*
X548878Y222913D02*
D03*
Y212913D02*
D03*
Y202913D02*
D03*
Y192913D02*
D03*
Y182913D02*
D03*
Y172913D02*
D03*
Y162913D02*
D03*
Y152913D02*
D03*
Y142913D02*
D03*
Y132913D02*
D03*
Y122913D02*
D03*
Y112913D02*
D03*
Y102913D02*
D03*
Y92913D02*
D03*
Y82913D02*
D03*
Y72913D02*
D03*
X556378Y67913D02*
D03*
X548878Y62913D02*
D03*
X541378Y227913D02*
D03*
Y217913D02*
D03*
Y207913D02*
D03*
Y197913D02*
D03*
Y187913D02*
D03*
Y177913D02*
D03*
Y167913D02*
D03*
Y157913D02*
D03*
Y147913D02*
D03*
Y137913D02*
D03*
Y127913D02*
D03*
Y117913D02*
D03*
Y107913D02*
D03*
Y97913D02*
D03*
Y87913D02*
D03*
Y77913D02*
D03*
Y67913D02*
D03*
X533878Y222913D02*
D03*
Y212913D02*
D03*
Y202913D02*
D03*
Y192913D02*
D03*
Y182913D02*
D03*
Y172913D02*
D03*
Y162913D02*
D03*
Y152913D02*
D03*
Y142913D02*
D03*
Y132913D02*
D03*
Y122913D02*
D03*
Y112913D02*
D03*
Y102913D02*
D03*
Y92913D02*
D03*
Y82913D02*
D03*
Y72913D02*
D03*
D84*
Y62913D02*
D03*
D85*
X311575Y146142D02*
D03*
X353150Y375669D02*
D03*
X473779Y293347D02*
D03*
X480709Y297953D02*
D03*
X406021Y304801D02*
D03*
X458917Y302677D02*
D03*
X392244Y346811D02*
D03*
X384134Y290476D02*
D03*
X445157Y286221D02*
D03*
X402283Y292283D02*
D03*
X471024Y325472D02*
D03*
X204764Y117283D02*
D03*
X254646Y122480D02*
D03*
X266339Y131220D02*
D03*
X271457Y120905D02*
D03*
X257244Y129449D02*
D03*
X445315Y150945D02*
D03*
X447205Y87638D02*
D03*
X469410Y101654D02*
D03*
X468465Y124921D02*
D03*
X516653Y52835D02*
D03*
X427071Y40400D02*
D03*
X419496Y38183D02*
D03*
X330118Y46929D02*
D03*
X527008Y94213D02*
D03*
X395000Y183200D02*
D03*
X311890Y24606D02*
D03*
X314016Y36063D02*
D03*
X321654Y14134D02*
D03*
X189882Y3124D02*
D03*
X81890Y3307D02*
D03*
X248622Y16339D02*
D03*
X131417Y13661D02*
D03*
X415800Y246300D02*
D03*
X472700Y164500D02*
D03*
X194800Y217012D02*
D03*
X364900Y39500D02*
D03*
X410600Y183000D02*
D03*
X425202Y144598D02*
D03*
X433700Y88700D02*
D03*
X32900Y104800D02*
D03*
X496100Y25000D02*
D03*
X206600Y44600D02*
D03*
X202400Y228800D02*
D03*
Y82300D02*
D03*
X563200Y235000D02*
D03*
X228600Y48300D02*
D03*
X219600Y39700D02*
D03*
X273300Y80800D02*
D03*
X281900Y77300D02*
D03*
X435200Y134921D02*
D03*
X253800Y154200D02*
D03*
X433000Y141000D02*
D03*
X295423Y29500D02*
D03*
X495800Y75200D02*
D03*
X500200Y133400D02*
D03*
X100600Y193900D02*
D03*
X374900Y232900D02*
D03*
X304300Y23500D02*
D03*
X358600Y31200D02*
D03*
X388800Y19400D02*
D03*
X470700Y73200D02*
D03*
X450900Y146500D02*
D03*
X196900Y254300D02*
D03*
X427091Y224109D02*
D03*
X568000Y224200D02*
D03*
X291700Y259000D02*
D03*
X351600Y64000D02*
D03*
X411200Y152100D02*
D03*
X417000Y162000D02*
D03*
X442300Y20500D02*
D03*
X246200Y28200D02*
D03*
X386600Y46500D02*
D03*
X207016Y52100D02*
D03*
X204200Y133300D02*
D03*
X194500Y141400D02*
D03*
X264300Y72600D02*
D03*
X242500Y102700D02*
D03*
X501900Y29800D02*
D03*
X500539Y293301D02*
D03*
X319500Y254800D02*
D03*
X249400Y286300D02*
D03*
Y217400D02*
D03*
X393200Y31900D02*
D03*
X470600Y47400D02*
D03*
X563350Y242950D02*
D03*
X328647Y197953D02*
D03*
X296700Y206200D02*
D03*
D86*
X368929Y355130D02*
D03*
Y351980D02*
D03*
M02*
