G04*
G04 #@! TF.GenerationSoftware,Altium Limited,Altium Designer,19.0.15 (446)*
G04*
G04 Layer_Color=128*
%FSLAX25Y25*%
%MOIN*%
G70*
G01*
G75*
%ADD11C,0.00394*%
%ADD14C,0.00787*%
%ADD17C,0.00197*%
%ADD88C,0.00200*%
D11*
X483280Y270843D02*
Y268875D01*
X483673Y268481D01*
X484460D01*
X484854Y268875D01*
Y270843D01*
X485641Y268481D02*
X486428D01*
X486034D01*
Y270843D01*
X485641Y270449D01*
X489183Y268481D02*
X487609D01*
X489183Y270056D01*
Y270449D01*
X488790Y270843D01*
X488002D01*
X487609Y270449D01*
X450787Y143976D02*
X450524Y144961D01*
X449803Y145681D01*
X448819Y145945D01*
X447835Y145681D01*
X447114Y144961D01*
X446850Y143976D01*
X447114Y142992D01*
X447835Y142272D01*
X448819Y142008D01*
X449803Y142272D01*
X450524Y142992D01*
X450787Y143976D01*
X448701Y97165D02*
X448437Y98150D01*
X447717Y98870D01*
X446732Y99134D01*
X445748Y98870D01*
X445027Y98150D01*
X444764Y97165D01*
X445027Y96181D01*
X445748Y95461D01*
X446732Y95197D01*
X447717Y95461D01*
X448437Y96181D01*
X448701Y97165D01*
X371488Y352571D02*
X371187Y353497D01*
X370400Y354069D01*
X369427D01*
X368639Y353497D01*
X368339Y352571D01*
X368639Y351645D01*
X369427Y351073D01*
X370400D01*
X371187Y351645D01*
X371488Y352571D01*
X486417Y275781D02*
X486154Y276765D01*
X485433Y277485D01*
X484449Y277749D01*
X483465Y277485D01*
X482744Y276765D01*
X482480Y275781D01*
X482744Y274796D01*
X483465Y274076D01*
X484449Y273812D01*
X485433Y274076D01*
X486154Y274796D01*
X486417Y275781D01*
X497312Y48156D02*
X497048Y49140D01*
X496328Y49861D01*
X495343Y50125D01*
X494359Y49861D01*
X493639Y49140D01*
X493375Y48156D01*
X493639Y47172D01*
X494359Y46451D01*
X495343Y46188D01*
X496328Y46451D01*
X497048Y47172D01*
X497312Y48156D01*
X441901Y48156D02*
X441638Y49140D01*
X440917Y49861D01*
X439933Y50125D01*
X438948Y49861D01*
X438228Y49140D01*
X437964Y48156D01*
X438228Y47172D01*
X438948Y46451D01*
X439933Y46188D01*
X440917Y46451D01*
X441638Y47172D01*
X441901Y48156D01*
X386491Y48156D02*
X386227Y49140D01*
X385506Y49861D01*
X384522Y50125D01*
X383538Y49861D01*
X382817Y49140D01*
X382554Y48156D01*
X382817Y47172D01*
X383538Y46451D01*
X384522Y46188D01*
X385506Y46451D01*
X386227Y47172D01*
X386491Y48156D01*
X331080D02*
X330816Y49140D01*
X330096Y49861D01*
X329111Y50125D01*
X328127Y49861D01*
X327407Y49140D01*
X327143Y48156D01*
X327407Y47172D01*
X328127Y46451D01*
X329111Y46188D01*
X330096Y46451D01*
X330816Y47172D01*
X331080Y48156D01*
X275669D02*
X275406Y49140D01*
X274685Y49861D01*
X273701Y50125D01*
X272716Y49861D01*
X271996Y49140D01*
X271732Y48156D01*
X271996Y47172D01*
X272716Y46451D01*
X273701Y46188D01*
X274685Y46451D01*
X275406Y47172D01*
X275669Y48156D01*
X386732Y345630D02*
Y359016D01*
X397756Y345630D02*
Y359016D01*
X386732Y345630D02*
X397756D01*
X386732Y359016D02*
X397756D01*
X244036Y195433D02*
Y208425D01*
X250925Y195433D02*
Y208425D01*
X244036Y195433D02*
X250925D01*
X244036Y208425D02*
X250925D01*
X404646Y277323D02*
Y295433D01*
X414882Y277323D02*
Y295433D01*
X404646D02*
X414882D01*
X404646Y277323D02*
X414882D01*
X458130Y305925D02*
X470925D01*
X458130Y299429D02*
X470925D01*
X458130D02*
Y305925D01*
X470925Y299429D02*
Y305925D01*
X381670Y188780D02*
X388757D01*
X381670Y200984D02*
X388757D01*
Y188780D02*
Y200984D01*
X381670Y188780D02*
Y200984D01*
X445276Y127441D02*
X462992D01*
X445276Y147520D02*
X462992D01*
Y127441D02*
Y147520D01*
X445276Y127441D02*
Y147520D01*
X123543Y79567D02*
X130630D01*
X123543Y66181D02*
X130630D01*
Y79567D01*
X123543Y66181D02*
Y79567D01*
X443189Y80630D02*
Y100709D01*
X460906Y80630D02*
Y100709D01*
X443189D02*
X460906D01*
X443189Y80630D02*
X460906D01*
X298167Y188465D02*
Y200669D01*
X305253Y188465D02*
Y200669D01*
X298167D02*
X305253D01*
X298167Y188465D02*
X305253D01*
X277222D02*
Y200669D01*
X284308Y188465D02*
Y200669D01*
X277222D02*
X284308D01*
X277222Y188465D02*
X284308D01*
X402615Y188780D02*
Y200984D01*
X409702Y188780D02*
Y200984D01*
X402615D02*
X409702D01*
X402615Y188780D02*
X409702D01*
X373063Y349421D02*
Y357689D01*
X364795Y349421D02*
Y357689D01*
Y349421D02*
X373063D01*
X364795Y357689D02*
X373063D01*
X338346Y343386D02*
X350157D01*
Y355197D01*
X338346D02*
X350157D01*
X338346Y343386D02*
Y355197D01*
X227886Y61008D02*
Y313016D01*
X208398D02*
X227886D01*
X208398Y61008D02*
Y313016D01*
Y61008D02*
X227886D01*
X497716Y231929D02*
Y242559D01*
X484331Y231929D02*
Y242559D01*
Y231929D02*
X497716D01*
X484331Y242559D02*
X497716D01*
X348976Y319095D02*
Y329724D01*
X369449Y319095D02*
Y329724D01*
X348976D02*
X369449D01*
X348976Y319095D02*
X369449D01*
X480905Y259639D02*
X496654D01*
X480905Y279324D02*
X496654D01*
Y259639D02*
Y279324D01*
X480905Y259639D02*
Y279324D01*
X575628Y247988D02*
X592203D01*
X575274D02*
Y270913D01*
X528819Y271220D02*
X575274D01*
X528818Y19607D02*
X575275D01*
X528819Y19606D02*
Y271220D01*
X575276Y19606D02*
Y42834D01*
X575280Y42838D01*
X592205D01*
X596929Y42834D02*
Y247992D01*
X593780Y251141D02*
X596929Y247992D01*
X592205Y251141D02*
X593780D01*
X592205Y247990D02*
Y251141D01*
X593780Y39685D02*
X596929Y42834D01*
X592205Y39685D02*
X593780D01*
X592205D02*
Y42838D01*
X333798Y197165D02*
X340491D01*
X333798Y210157D02*
X340491D01*
X333798Y197165D02*
Y210157D01*
X340491Y197165D02*
Y210157D01*
X491800Y17152D02*
Y51601D01*
X507548Y17152D02*
Y51601D01*
X491800D02*
X507548D01*
X491800Y17152D02*
X507548D01*
X140650Y79567D02*
X147539D01*
X140650Y66575D02*
X147539D01*
Y79567D01*
X140650Y66575D02*
Y79567D01*
X82205Y65905D02*
Y79291D01*
X89291Y65905D02*
Y79291D01*
X82205Y65905D02*
X89291D01*
X82205Y79291D02*
X89291D01*
X169449Y79409D02*
X176535D01*
X169449Y66024D02*
X176535D01*
Y79409D01*
X169449Y66024D02*
Y79409D01*
X188090Y79410D02*
X194980D01*
X188090Y66418D02*
X194980D01*
Y79410D01*
X188090Y66418D02*
Y79410D01*
X38858Y79331D02*
X45945D01*
X38858Y65945D02*
X45945D01*
Y79331D01*
X38858Y65945D02*
Y79331D01*
X56594Y79331D02*
X63484D01*
X56594Y66339D02*
X63484D01*
Y79331D01*
X56594Y66339D02*
Y79331D01*
X99035Y79292D02*
X105925D01*
X99035Y66299D02*
X105925D01*
Y79292D01*
X99035Y66299D02*
Y79292D01*
X436389Y17152D02*
Y51601D01*
X452137Y17152D02*
Y51601D01*
X436389D02*
X452137D01*
X436389Y17152D02*
X452137D01*
X380979D02*
Y51601D01*
X396727Y17152D02*
Y51601D01*
X380979D02*
X396727D01*
X380979Y17152D02*
X396727D01*
X325568D02*
Y51601D01*
X341316Y17152D02*
Y51601D01*
X325568D02*
X341316D01*
X325568Y17152D02*
X341316D01*
X270157D02*
Y51601D01*
X285905Y17152D02*
Y51601D01*
X270157D02*
X285905D01*
X270157Y17152D02*
X285905D01*
X374016Y204921D02*
Y211614D01*
X361024Y204921D02*
Y211614D01*
Y204921D02*
X374016D01*
X361024Y211614D02*
X374016D01*
X348327Y208622D02*
X355217D01*
X348327Y195630D02*
X355217D01*
Y208622D01*
X348327Y195630D02*
Y208622D01*
X433957Y208937D02*
X440847D01*
X433957Y195945D02*
X440847D01*
Y208937D01*
X433957Y195945D02*
Y208937D01*
X414449Y204291D02*
Y210984D01*
X427441Y204291D02*
Y210984D01*
X414449D02*
X427441D01*
X414449Y204291D02*
X427441D01*
X269646Y204961D02*
Y211653D01*
X256654Y204961D02*
Y211653D01*
Y204961D02*
X269646D01*
X256654Y211653D02*
X269646D01*
X327695Y203681D02*
Y210571D01*
X314703Y203681D02*
Y210571D01*
Y203681D02*
X327695D01*
X314703Y210571D02*
X327695D01*
X27886Y61008D02*
Y313016D01*
X8398D02*
X27886D01*
X8398Y61008D02*
Y313016D01*
Y61008D02*
X27886D01*
X347638Y363464D02*
X358661D01*
X347638Y376850D02*
X358661D01*
X347638Y363464D02*
Y376850D01*
X358661Y363464D02*
Y376850D01*
X390276Y352323D02*
X394213D01*
X392244Y350354D02*
Y354291D01*
X422362Y12992D02*
Y16929D01*
X420394Y14961D02*
X424331D01*
X367874Y12480D02*
Y16417D01*
X365906Y14449D02*
X369843D01*
X284291Y7992D02*
X288228D01*
X286260Y6024D02*
Y9961D01*
X311732Y12087D02*
Y16024D01*
X309764Y14055D02*
X313701D01*
X245512Y201929D02*
X249449D01*
X247480Y199961D02*
Y203898D01*
X407795Y286378D02*
X411732D01*
X409764Y284409D02*
Y288346D01*
X464528Y300709D02*
Y304646D01*
X462559Y302677D02*
X466496D01*
X408701Y174646D02*
Y178583D01*
X406732Y176614D02*
X410669D01*
X381969Y174449D02*
Y178386D01*
X380000Y176417D02*
X383937D01*
X302638Y176024D02*
Y179961D01*
X300669Y177992D02*
X304606D01*
X280827Y176024D02*
Y179961D01*
X278858Y177992D02*
X282795D01*
X253504Y12365D02*
Y16302D01*
X251535Y14334D02*
X255472D01*
X281811Y61496D02*
X285748D01*
X283780Y59528D02*
Y63465D01*
X340984Y8583D02*
X344921D01*
X342953Y6614D02*
Y10551D01*
X397598Y8228D02*
X401535D01*
X399567Y6260D02*
Y10197D01*
X419528Y49409D02*
X423465D01*
X421496Y47441D02*
Y51378D01*
X503780Y60000D02*
X507717D01*
X505748Y58032D02*
Y61969D01*
X506496Y9449D02*
X510433D01*
X508465Y7480D02*
Y11417D01*
X451220Y8622D02*
X455157D01*
X453189Y6654D02*
Y10591D01*
X478071Y13268D02*
Y17205D01*
X476102Y15236D02*
X480039D01*
X475394Y49094D02*
X479331D01*
X477362Y47126D02*
Y51063D01*
X481902Y340857D02*
X540363Y282396D01*
X481902Y340857D02*
X540363Y399319D01*
X598825Y340857D01*
X540363Y282396D02*
X598825Y340857D01*
X385214Y192913D02*
Y196850D01*
X383245Y194882D02*
X387182D01*
X454134Y135512D02*
Y139449D01*
X452165Y137480D02*
X456102D01*
X448071Y59921D02*
X452008D01*
X450039Y57953D02*
Y61890D01*
X393425Y60000D02*
X397362D01*
X395394Y58032D02*
Y61969D01*
X337874Y59921D02*
X341811D01*
X339843Y57953D02*
Y61890D01*
X458454Y259750D02*
Y263687D01*
X456485Y261719D02*
X460422D01*
X408296Y305301D02*
X412233D01*
X410265Y303333D02*
Y307270D01*
X384134Y284764D02*
Y288701D01*
X382165Y286732D02*
X386102D01*
X127087Y70906D02*
Y74843D01*
X125118Y72874D02*
X129055D01*
X365197Y46929D02*
Y50866D01*
X363228Y48898D02*
X367165D01*
X308465Y46417D02*
Y50354D01*
X306496Y48386D02*
X310433D01*
X253346Y47402D02*
Y51339D01*
X251378Y49370D02*
X255315D01*
X477992Y123583D02*
Y127520D01*
X476024Y125551D02*
X479961D01*
X476969Y84528D02*
Y88465D01*
X475000Y86496D02*
X478937D01*
X453504Y155407D02*
X457441D01*
X455472Y153438D02*
Y157375D01*
X457008Y108937D02*
X460945D01*
X458976Y106969D02*
Y110906D01*
X428858Y103858D02*
Y107795D01*
X426890Y105827D02*
X430827D01*
X431378Y150866D02*
Y154803D01*
X429409Y152835D02*
X433346D01*
X450079Y90669D02*
X454016D01*
X452047Y88701D02*
Y92638D01*
X299741Y194567D02*
X303678D01*
X301710Y192598D02*
Y196535D01*
X278797Y194567D02*
X282734D01*
X280765Y192598D02*
Y196535D01*
X404190Y194882D02*
X408127D01*
X406158Y192913D02*
Y196850D01*
X366961Y353555D02*
X370898D01*
X368929Y351587D02*
Y355524D01*
X344252Y347323D02*
Y351260D01*
X342283Y349291D02*
X346220D01*
X489055Y237244D02*
X492992D01*
X491024Y235276D02*
Y239213D01*
X357244Y324409D02*
X361181D01*
X359213Y322441D02*
Y326378D01*
X488780Y267513D02*
Y271450D01*
X486811Y269481D02*
X490748D01*
X545128Y143444D02*
Y147381D01*
X543159Y145413D02*
X547096D01*
X337145Y201693D02*
Y205630D01*
X335176Y203661D02*
X339113D01*
X497706Y34377D02*
X501643D01*
X499674Y32408D02*
Y36345D01*
X144094Y71103D02*
Y75040D01*
X142126Y73071D02*
X146063D01*
X83780Y72598D02*
X87717D01*
X85748Y70630D02*
Y74567D01*
X172992Y70748D02*
Y74685D01*
X171024Y72716D02*
X174961D01*
X191535Y70945D02*
Y74882D01*
X189567Y72914D02*
X193504D01*
X42402Y70669D02*
Y74606D01*
X40433Y72638D02*
X44370D01*
X60039Y70866D02*
Y74803D01*
X58071Y72835D02*
X62008D01*
X102480Y70827D02*
Y74764D01*
X100512Y72795D02*
X104449D01*
X442295Y34377D02*
X446232D01*
X444263Y32408D02*
Y36345D01*
X386884Y34377D02*
X390821D01*
X388853Y32408D02*
Y36345D01*
X331474Y34377D02*
X335411D01*
X333442Y32408D02*
Y36345D01*
X276063Y34377D02*
X280000D01*
X278031Y32408D02*
Y36345D01*
X365551Y208268D02*
X369488D01*
X367520Y206299D02*
Y210236D01*
X351772Y200158D02*
Y204095D01*
X349803Y202126D02*
X353740D01*
X437402Y200472D02*
Y204409D01*
X435433Y202441D02*
X439370D01*
X418976Y207638D02*
X422913D01*
X420945Y205669D02*
Y209606D01*
X261181Y208307D02*
X265118D01*
X263150Y206339D02*
Y210276D01*
X319231Y207126D02*
X323168D01*
X321199Y205157D02*
Y209094D01*
X353150Y368189D02*
Y372126D01*
X351181Y370157D02*
X355118D01*
D14*
X566810Y314410D02*
X567505Y315124D01*
X568180Y315856D01*
X568836Y316605D01*
X569471Y317371D01*
X570086Y318155D01*
X570680Y318954D01*
X571252Y319769D01*
X571803Y320599D01*
X572331Y321443D01*
X572836Y322301D01*
X573319Y323171D01*
X573778Y324055D01*
X574214Y324951D01*
X574625Y325857D01*
X575012Y326775D01*
X575375Y327702D01*
X575713Y328639D01*
X576025Y329584D01*
X576313Y330537D01*
X576575Y331498D01*
X576811Y332465D01*
X577022Y333439D01*
X577206Y334417D01*
X577364Y335400D01*
X577497Y336387D01*
X577602Y337377D01*
X577682Y338370D01*
X577735Y339364D01*
X577761Y340359D01*
Y341355D01*
X577735Y342351D01*
X577682Y343345D01*
X577602Y344337D01*
X577497Y345327D01*
X577364Y346315D01*
X577206Y347298D01*
X577022Y348276D01*
X576811Y349249D01*
X576575Y350217D01*
X576313Y351177D01*
X576025Y352131D01*
X575713Y353076D01*
X575375Y354013D01*
X575012Y354940D01*
X574625Y355857D01*
X574214Y356764D01*
X573778Y357660D01*
X573319Y358543D01*
X572836Y359414D01*
X572331Y360272D01*
X571803Y361116D01*
X571252Y361946D01*
X570680Y362761D01*
X570086Y363560D01*
X569471Y364343D01*
X568836Y365110D01*
X568180Y365859D01*
X567505Y366591D01*
X566810Y367304D01*
X566097Y367999D01*
X565365Y368674D01*
X564616Y369330D01*
X563849Y369966D01*
X563066Y370580D01*
X562267Y371174D01*
X561452Y371746D01*
X560622Y372297D01*
X559778Y372825D01*
X558920Y373331D01*
X558049Y373813D01*
X557165Y374272D01*
X556270Y374708D01*
X555363Y375119D01*
X554446Y375506D01*
X553518Y375869D01*
X552582Y376207D01*
X551637Y376519D01*
X550683Y376807D01*
X549722Y377069D01*
X548755Y377305D01*
X547782Y377516D01*
X546804Y377700D01*
X545820Y377859D01*
X544834Y377991D01*
X543843Y378097D01*
X542851Y378176D01*
X541856Y378229D01*
X540861Y378256D01*
X539865Y378256D01*
X538870Y378229D01*
X537876Y378176D01*
X536883Y378097D01*
X535893Y377991D01*
X534906Y377859D01*
X533923Y377700D01*
X532945Y377516D01*
X531971Y377305D01*
X531004Y377069D01*
X530043Y376807D01*
X529090Y376520D01*
X528145Y376207D01*
X527208Y375869D01*
X526281Y375506D01*
X525363Y375119D01*
X524457Y374708D01*
X523561Y374272D01*
X522677Y373813D01*
X521806Y373331D01*
X520949Y372825D01*
X520104Y372297D01*
X519275Y371747D01*
X518460Y371174D01*
X517661Y370581D01*
X516877Y369966D01*
X516111Y369330D01*
X515361Y368674D01*
X514630Y367999D01*
X513916Y367304D01*
X513916Y367304D02*
X513222Y366591D01*
X512546Y365859D01*
X511890Y365110D01*
X511255Y364343D01*
X510640Y363560D01*
X510046Y362761D01*
X509474Y361946D01*
X508923Y361116D01*
X508395Y360272D01*
X507890Y359414D01*
X507407Y358543D01*
X506948Y357660D01*
X506513Y356764D01*
X506101Y355857D01*
X505714Y354940D01*
X505351Y354013D01*
X505014Y353076D01*
X504701Y352131D01*
X504414Y351177D01*
X504151Y350217D01*
X503915Y349249D01*
X503705Y348276D01*
X503520Y347298D01*
X503362Y346315D01*
X503230Y345328D01*
X503124Y344338D01*
X503044Y343345D01*
X502991Y342351D01*
X502965Y341355D01*
Y340359D01*
X502991Y339364D01*
X503044Y338370D01*
X503124Y337377D01*
X503230Y336387D01*
X503362Y335400D01*
X503520Y334417D01*
X503705Y333439D01*
X503915Y332466D01*
X504151Y331498D01*
X504414Y330538D01*
X504701Y329584D01*
X505014Y328639D01*
X505351Y327702D01*
X505714Y326775D01*
X506101Y325857D01*
X506513Y324951D01*
X506948Y324055D01*
X507407Y323172D01*
X507890Y322301D01*
X508395Y321443D01*
X508923Y320599D01*
X509474Y319769D01*
X510046Y318954D01*
X510640Y318155D01*
X511255Y317372D01*
X511890Y316605D01*
X512546Y315856D01*
X513222Y315124D01*
X513916Y314410D01*
X514630Y313716D01*
X515361Y313040D01*
X516111Y312385D01*
X516877Y311749D01*
X517660Y311134D01*
X518460Y310541D01*
X519274Y309968D01*
X520104Y309418D01*
X520948Y308890D01*
X521806Y308384D01*
X522677Y307902D01*
X523561Y307442D01*
X524456Y307007D01*
X525363Y306595D01*
X526280Y306208D01*
X527208Y305846D01*
X528144Y305508D01*
X529090Y305195D01*
X530043Y304908D01*
X531004Y304646D01*
X531971Y304409D01*
X532944Y304199D01*
X533923Y304014D01*
X534906Y303856D01*
X535893Y303724D01*
X536883Y303618D01*
X537875Y303539D01*
X538870Y303486D01*
X539865Y303459D01*
X540861Y303459D01*
X541856Y303486D01*
X542851Y303539D01*
X543843Y303618D01*
X544833Y303724D01*
X545820Y303856D01*
X546803Y304014D01*
X547782Y304199D01*
X548755Y304409D01*
X549722Y304646D01*
X550683Y304908D01*
X551636Y305195D01*
X552582Y305508D01*
X553518Y305846D01*
X554446Y306208D01*
X555363Y306595D01*
X556270Y307007D01*
X557165Y307442D01*
X558049Y307901D01*
X558920Y308384D01*
X559778Y308889D01*
X560622Y309418D01*
X561452Y309968D01*
X562266Y310540D01*
X563066Y311134D01*
X563849Y311749D01*
X564615Y312385D01*
X565365Y313040D01*
X566096Y313716D01*
X566810Y314410D01*
X417330Y6484D02*
Y23437D01*
X427394D01*
Y6484D02*
Y23437D01*
X417330Y6484D02*
X427394D01*
X362842Y5972D02*
Y22926D01*
X372906D01*
Y5972D02*
Y22926D01*
X362842Y5972D02*
X372906D01*
X277783Y2960D02*
X294737D01*
X277783D02*
Y13024D01*
X294737D01*
Y2960D02*
Y13024D01*
X306700Y5578D02*
Y22532D01*
X316764D01*
Y5578D02*
Y22532D01*
X306700Y5578D02*
X316764D01*
X400224Y171582D02*
Y181646D01*
Y171582D02*
X417178D01*
Y181646D01*
X400224D02*
X417178D01*
X373492Y171385D02*
Y181449D01*
Y171385D02*
X390445D01*
Y181449D01*
X373492D02*
X390445D01*
X294161Y172960D02*
Y183024D01*
Y172960D02*
X311115D01*
Y183024D01*
X294161D02*
X311115D01*
X272350Y172960D02*
Y183024D01*
Y172960D02*
X289304D01*
Y183024D01*
X272350D02*
X289304D01*
X248472Y5857D02*
Y22811D01*
X258536D01*
Y5857D02*
Y22811D01*
X248472Y5857D02*
X258536D01*
X275303Y56464D02*
X292256D01*
X275303D02*
Y66528D01*
X292256D01*
Y56464D02*
Y66528D01*
X334476Y3551D02*
X351430D01*
X334476D02*
Y13615D01*
X351430D01*
Y3551D02*
Y13615D01*
X391090Y3196D02*
X408044D01*
X391090D02*
Y13260D01*
X408044D01*
Y3196D02*
Y13260D01*
X416464Y57886D02*
X426528D01*
X416464Y40933D02*
Y57886D01*
Y40933D02*
X426528D01*
Y57886D01*
X497271Y54968D02*
X514225D01*
X497271D02*
Y65032D01*
X514225D01*
Y54968D02*
Y65032D01*
X499988Y4417D02*
X516941D01*
X499988D02*
Y14481D01*
X516941D01*
Y4417D02*
Y14481D01*
X444712Y3590D02*
X461666D01*
X444712D02*
Y13654D01*
X461666D01*
Y3590D02*
Y13654D01*
X473039Y6759D02*
Y23713D01*
X483103D01*
Y6759D02*
Y23713D01*
X473039Y6759D02*
X483103D01*
X472330Y57571D02*
X482394D01*
X472330Y40618D02*
Y57571D01*
Y40618D02*
X482394D01*
Y57571D01*
X441563Y54889D02*
X458516D01*
X441563D02*
Y64953D01*
X458516D01*
Y54889D02*
Y64953D01*
X386917Y54968D02*
X403870D01*
X386917D02*
Y65032D01*
X403870D01*
Y54968D02*
Y65032D01*
X331366Y54889D02*
X348319D01*
X331366D02*
Y64953D01*
X348319D01*
Y54889D02*
Y64953D01*
X453422Y253242D02*
Y270195D01*
X463486D01*
Y253242D02*
Y270195D01*
X453422Y253242D02*
X463486D01*
X401788Y310333D02*
X418741D01*
Y300269D02*
Y310333D01*
X401788Y300269D02*
X418741D01*
X401788D02*
Y310333D01*
X389166Y278256D02*
Y295209D01*
X379102Y278256D02*
X389166D01*
X379102D02*
Y295209D01*
X389166D01*
X370229Y40421D02*
Y57374D01*
X360165Y40421D02*
X370229D01*
X360165D02*
Y57374D01*
X370229D01*
X313496Y39909D02*
Y56863D01*
X303433Y39909D02*
X313496D01*
X303433D02*
Y56863D01*
X313496D01*
X258378Y40893D02*
Y57847D01*
X248315Y40893D02*
X258378D01*
X248315D02*
Y57847D01*
X258378D01*
X483024Y117074D02*
Y134028D01*
X472960Y117074D02*
X483024D01*
X472960D02*
Y134028D01*
X483024D01*
X482000Y78019D02*
Y94973D01*
X471937Y78019D02*
X482000D01*
X471937D02*
Y94973D01*
X482000D01*
X446996Y150375D02*
X463949D01*
X446996D02*
Y160439D01*
X463949D01*
Y150375D02*
Y160439D01*
X450500Y103905D02*
X467453D01*
X450500D02*
Y113969D01*
X467453D01*
Y103905D02*
Y113969D01*
X423826Y97350D02*
Y114304D01*
X433890D01*
Y97350D02*
Y114304D01*
X423826Y97350D02*
X433890D01*
X426346Y144358D02*
Y161311D01*
X436410D01*
Y144358D02*
Y161311D01*
X426346Y144358D02*
X436410D01*
D17*
X386732Y344449D02*
Y360197D01*
X397756Y344449D02*
Y360197D01*
X386732Y344449D02*
X397756D01*
X386732Y360197D02*
X397756D01*
X241772Y191299D02*
Y212559D01*
X253189Y191299D02*
Y212559D01*
X241772Y191299D02*
X253189D01*
X241772Y212559D02*
X253189D01*
X398543Y276339D02*
Y296417D01*
X420197Y276339D02*
Y296417D01*
X398543D02*
X420197D01*
X398543Y276339D02*
X420197D01*
X455669Y307008D02*
X473386D01*
X455669Y298346D02*
X473386D01*
X455669D02*
Y307008D01*
X473386Y298346D02*
Y307008D01*
X377340Y187795D02*
X393088D01*
X377340Y201969D02*
X393088D01*
Y187795D02*
Y201969D01*
X377340Y187795D02*
Y201969D01*
X438780Y126457D02*
X469488D01*
X438780Y148504D02*
X469488D01*
Y126457D02*
Y148504D01*
X438780Y126457D02*
Y148504D01*
X121378Y83701D02*
X132795D01*
X121378Y62047D02*
X132795D01*
Y83701D01*
X121378Y62047D02*
Y83701D01*
X436693Y79646D02*
Y101693D01*
X467402Y79646D02*
Y101693D01*
X436693D02*
X467402D01*
X436693Y79646D02*
X467402D01*
X293836Y187480D02*
Y201654D01*
X309584Y187480D02*
Y201654D01*
X293836D02*
X309584D01*
X293836Y187480D02*
X309584D01*
X272891D02*
Y201654D01*
X288639Y187480D02*
Y201654D01*
X272891D02*
X288639D01*
X272891Y187480D02*
X288639D01*
X398284Y187795D02*
Y201969D01*
X414033Y187795D02*
Y201969D01*
X398284D02*
X414033D01*
X398284Y187795D02*
X414033D01*
X374047Y349028D02*
Y358083D01*
X363811Y349028D02*
Y358083D01*
Y349028D02*
X374047D01*
X363811Y358083D02*
X374047D01*
X337559Y342992D02*
X350945D01*
Y355591D01*
X337559D02*
X350945D01*
X337559Y342992D02*
Y355591D01*
X228772Y60122D02*
Y313902D01*
X207512D02*
X228772D01*
X207512Y60122D02*
Y313902D01*
Y60122D02*
X228772D01*
X501850Y229764D02*
Y244724D01*
X480197Y229764D02*
Y244724D01*
Y229764D02*
X501850D01*
X480197Y244724D02*
X501850D01*
X347795Y318898D02*
Y329921D01*
X370630Y318898D02*
Y329921D01*
X347795D02*
X370630D01*
X347795Y318898D02*
X370630D01*
X472441Y257670D02*
X505118D01*
X472441Y281292D02*
X505118D01*
Y257670D02*
Y281292D01*
X472441Y257670D02*
Y281292D01*
X528423Y19212D02*
X598108D01*
Y271614D01*
X528423D02*
X598108D01*
X528423Y19212D02*
Y271614D01*
X332814Y194803D02*
X341476D01*
X332814Y212520D02*
X341476D01*
X332814Y194803D02*
Y212520D01*
X341476Y194803D02*
Y212520D01*
X485206Y16069D02*
Y52684D01*
X514143Y16069D02*
Y52684D01*
X485206D02*
X514143D01*
X485206Y16069D02*
X514143D01*
X138386Y83701D02*
X149803D01*
X138386Y62441D02*
X149803D01*
Y83701D01*
X138386Y62441D02*
Y83701D01*
X80039Y61772D02*
Y83425D01*
X91457Y61772D02*
Y83425D01*
X80039Y61772D02*
X91457D01*
X80039Y83425D02*
X91457D01*
X167283Y83543D02*
X178701D01*
X167283Y61890D02*
X178701D01*
Y83543D01*
X167283Y61890D02*
Y83543D01*
X185827Y83543D02*
X197244D01*
X185827Y62284D02*
X197244D01*
Y83543D01*
X185827Y62284D02*
Y83543D01*
X36693Y83465D02*
X48110D01*
X36693Y61811D02*
X48110D01*
Y83465D01*
X36693Y61811D02*
Y83465D01*
X54331Y83465D02*
X65748D01*
X54331Y62205D02*
X65748D01*
Y83465D01*
X54331Y62205D02*
Y83465D01*
X96772Y83425D02*
X108189D01*
X96772Y62166D02*
X108189D01*
Y83425D01*
X96772Y62166D02*
Y83425D01*
X429795Y16069D02*
Y52684D01*
X458732Y16069D02*
Y52684D01*
X429795D02*
X458732D01*
X429795Y16069D02*
X458732D01*
X374384D02*
Y52684D01*
X403321Y16069D02*
Y52684D01*
X374384D02*
X403321D01*
X374384Y16069D02*
X403321D01*
X318974D02*
Y52684D01*
X347911Y16069D02*
Y52684D01*
X318974D02*
X347911D01*
X318974Y16069D02*
X347911D01*
X263563D02*
Y52684D01*
X292500Y16069D02*
Y52684D01*
X263563D02*
X292500D01*
X263563Y16069D02*
X292500D01*
X376378Y203937D02*
Y212598D01*
X358661Y203937D02*
Y212598D01*
Y203937D02*
X376378D01*
X358661Y212598D02*
X376378D01*
X346063Y212756D02*
X357480D01*
X346063Y191496D02*
X357480D01*
Y212756D01*
X346063Y191496D02*
Y212756D01*
X431693Y213071D02*
X443110D01*
X431693Y191811D02*
X443110D01*
Y213071D01*
X431693Y191811D02*
Y213071D01*
X412087Y203307D02*
Y211968D01*
X429803Y203307D02*
Y211968D01*
X412087D02*
X429803D01*
X412087Y203307D02*
X429803D01*
X272008Y203976D02*
Y212638D01*
X254291Y203976D02*
Y212638D01*
Y203976D02*
X272008D01*
X254291Y212638D02*
X272008D01*
X331829Y201417D02*
Y212835D01*
X310569Y201417D02*
Y212835D01*
Y201417D02*
X331829D01*
X310569Y212835D02*
X331829D01*
X28772Y60122D02*
Y313902D01*
X7512D02*
X28772D01*
X7512Y60122D02*
Y313902D01*
Y60122D02*
X28772D01*
X347638Y362283D02*
X358661D01*
X347638Y378031D02*
X358661D01*
X347638Y362283D02*
Y378031D01*
X358661Y362283D02*
Y378031D01*
D88*
X544961Y347817D02*
X549685D01*
X547323Y345455D02*
Y350179D01*
X544961Y333898D02*
X549685D01*
X547323Y331535D02*
Y336260D01*
X531041Y333898D02*
X535766D01*
X533403Y331535D02*
Y336260D01*
X531041Y347817D02*
X535766D01*
X533403Y345455D02*
Y350179D01*
X538001Y340857D02*
X542725D01*
X540363Y338495D02*
Y343220D01*
X464646Y238071D02*
X468189D01*
X466417Y236299D02*
Y239843D01*
X454646Y238071D02*
X458189D01*
X456417Y236299D02*
Y239843D01*
X211094Y67012D02*
X215189D01*
X213142Y64965D02*
Y69059D01*
X211094Y77012D02*
X215189D01*
X213142Y74965D02*
Y79059D01*
X211094Y87012D02*
X215189D01*
X213142Y84965D02*
Y89059D01*
X211094Y97012D02*
X215189D01*
X213142Y94965D02*
Y99059D01*
X211094Y107012D02*
X215189D01*
X213142Y104965D02*
Y109059D01*
X211094Y117012D02*
X215189D01*
X213142Y114965D02*
Y119059D01*
X211094Y127012D02*
X215189D01*
X213142Y124965D02*
Y129059D01*
X211094Y137012D02*
X215189D01*
X213142Y134965D02*
Y139059D01*
X211094Y147012D02*
X215189D01*
X213142Y144965D02*
Y149059D01*
X211094Y157012D02*
X215189D01*
X213142Y154965D02*
Y159059D01*
X211094Y167012D02*
X215189D01*
X213142Y164965D02*
Y169059D01*
X211094Y177012D02*
X215189D01*
X213142Y174965D02*
Y179059D01*
X211094Y187012D02*
X215189D01*
X213142Y184965D02*
Y189059D01*
X211094Y197012D02*
X215189D01*
X213142Y194965D02*
Y199059D01*
X211094Y207012D02*
X215189D01*
X213142Y204965D02*
Y209059D01*
X211094Y217012D02*
X215189D01*
X213142Y214965D02*
Y219059D01*
X211094Y227012D02*
X215189D01*
X213142Y224965D02*
Y229059D01*
X211094Y237012D02*
X215189D01*
X213142Y234965D02*
Y239059D01*
X211094Y247012D02*
X215189D01*
X213142Y244965D02*
Y249059D01*
X211094Y257012D02*
X215189D01*
X213142Y254965D02*
Y259059D01*
X211094Y267012D02*
X215189D01*
X213142Y264965D02*
Y269059D01*
X211094Y277012D02*
X215189D01*
X213142Y274965D02*
Y279059D01*
X211094Y287012D02*
X215189D01*
X213142Y284965D02*
Y289059D01*
X211094Y297012D02*
X215189D01*
X213142Y294965D02*
Y299059D01*
X211094Y307012D02*
X215189D01*
X213142Y304965D02*
Y309059D01*
X221094Y67012D02*
X225189D01*
X223142Y64965D02*
Y69059D01*
X221094Y77012D02*
X225189D01*
X223142Y74965D02*
Y79059D01*
X221094Y87012D02*
X225189D01*
X223142Y84965D02*
Y89059D01*
X221094Y97012D02*
X225189D01*
X223142Y94965D02*
Y99059D01*
X221094Y107012D02*
X225189D01*
X223142Y104965D02*
Y109059D01*
X221094Y117012D02*
X225189D01*
X223142Y114965D02*
Y119059D01*
X221094Y127012D02*
X225189D01*
X223142Y124965D02*
Y129059D01*
X221094Y137012D02*
X225189D01*
X223142Y134965D02*
Y139059D01*
X221094Y147012D02*
X225189D01*
X223142Y144965D02*
Y149059D01*
X221094Y157012D02*
X225189D01*
X223142Y154965D02*
Y159059D01*
X221094Y167012D02*
X225189D01*
X223142Y164965D02*
Y169059D01*
X221094Y177012D02*
X225189D01*
X223142Y174965D02*
Y179059D01*
X221094Y187012D02*
X225189D01*
X223142Y184965D02*
Y189059D01*
X221094Y197012D02*
X225189D01*
X223142Y194965D02*
Y199059D01*
X221094Y207012D02*
X225189D01*
X223142Y204965D02*
Y209059D01*
X221094Y217012D02*
X225189D01*
X223142Y214965D02*
Y219059D01*
X221094Y227012D02*
X225189D01*
X223142Y224965D02*
Y229059D01*
X221094Y237012D02*
X225189D01*
X223142Y234965D02*
Y239059D01*
X221094Y247012D02*
X225189D01*
X223142Y244965D02*
Y249059D01*
X221094Y257012D02*
X225189D01*
X223142Y254965D02*
Y259059D01*
X221094Y267012D02*
X225189D01*
X223142Y264965D02*
Y269059D01*
X221094Y277012D02*
X225189D01*
X223142Y274965D02*
Y279059D01*
X221094Y287012D02*
X225189D01*
X223142Y284965D02*
Y289059D01*
X221094Y297012D02*
X225189D01*
X223142Y294965D02*
Y299059D01*
X221094Y307012D02*
X225189D01*
X223142Y304965D02*
Y309059D01*
X543463Y259409D02*
X554289D01*
X548876Y253996D02*
Y264822D01*
X543463Y31417D02*
X554289D01*
X548876Y26003D02*
Y36830D01*
X554705Y227913D02*
X558051D01*
X556378Y226240D02*
Y229586D01*
X554705Y217913D02*
X558051D01*
X556378Y216240D02*
Y219586D01*
X554705Y207913D02*
X558051D01*
X556378Y206240D02*
Y209586D01*
X554705Y197913D02*
X558051D01*
X556378Y196240D02*
Y199586D01*
X554705Y187913D02*
X558051D01*
X556378Y186240D02*
Y189586D01*
X554705Y177913D02*
X558051D01*
X556378Y176240D02*
Y179586D01*
X554705Y167913D02*
X558051D01*
X556378Y166240D02*
Y169586D01*
X554705Y157913D02*
X558051D01*
X556378Y156240D02*
Y159586D01*
X554705Y147913D02*
X558051D01*
X556378Y146240D02*
Y149586D01*
X554705Y137913D02*
X558051D01*
X556378Y136240D02*
Y139586D01*
X554705Y127913D02*
X558051D01*
X556378Y126240D02*
Y129586D01*
X554705Y117913D02*
X558051D01*
X556378Y116240D02*
Y119586D01*
X554705Y107913D02*
X558051D01*
X556378Y106240D02*
Y109586D01*
X554705Y97913D02*
X558051D01*
X556378Y96240D02*
Y99586D01*
X554705Y87913D02*
X558051D01*
X556378Y86240D02*
Y89586D01*
X554705Y77913D02*
X558051D01*
X556378Y76240D02*
Y79586D01*
X547205Y222913D02*
X550551D01*
X548878Y221240D02*
Y224586D01*
X547205Y212913D02*
X550551D01*
X548878Y211240D02*
Y214586D01*
X547205Y202913D02*
X550551D01*
X548878Y201240D02*
Y204586D01*
X547205Y192913D02*
X550551D01*
X548878Y191240D02*
Y194586D01*
X547205Y182913D02*
X550551D01*
X548878Y181240D02*
Y184586D01*
X547205Y172913D02*
X550551D01*
X548878Y171240D02*
Y174586D01*
X547205Y162913D02*
X550551D01*
X548878Y161240D02*
Y164586D01*
X547205Y152913D02*
X550551D01*
X548878Y151240D02*
Y154586D01*
X547205Y142913D02*
X550551D01*
X548878Y141240D02*
Y144586D01*
X547205Y132913D02*
X550551D01*
X548878Y131240D02*
Y134586D01*
X547205Y122913D02*
X550551D01*
X548878Y121240D02*
Y124586D01*
X547205Y112913D02*
X550551D01*
X548878Y111240D02*
Y114586D01*
X547205Y102913D02*
X550551D01*
X548878Y101240D02*
Y104586D01*
X547205Y92913D02*
X550551D01*
X548878Y91240D02*
Y94586D01*
X547205Y82913D02*
X550551D01*
X548878Y81240D02*
Y84586D01*
X547205Y72913D02*
X550551D01*
X548878Y71240D02*
Y74586D01*
X554705Y67913D02*
X558051D01*
X556378Y66240D02*
Y69586D01*
X547205Y62913D02*
X550551D01*
X548878Y61240D02*
Y64586D01*
X539705Y227913D02*
X543051D01*
X541378Y226240D02*
Y229586D01*
X539705Y217913D02*
X543051D01*
X541378Y216240D02*
Y219586D01*
X539705Y207913D02*
X543051D01*
X541378Y206240D02*
Y209586D01*
X539705Y197913D02*
X543051D01*
X541378Y196240D02*
Y199586D01*
X539705Y187913D02*
X543051D01*
X541378Y186240D02*
Y189586D01*
X539705Y177913D02*
X543051D01*
X541378Y176240D02*
Y179586D01*
X539705Y167913D02*
X543051D01*
X541378Y166240D02*
Y169586D01*
X539705Y157913D02*
X543051D01*
X541378Y156240D02*
Y159586D01*
X539705Y147913D02*
X543051D01*
X541378Y146240D02*
Y149586D01*
X539705Y137913D02*
X543051D01*
X541378Y136240D02*
Y139586D01*
X539705Y127913D02*
X543051D01*
X541378Y126240D02*
Y129586D01*
X539705Y117913D02*
X543051D01*
X541378Y116240D02*
Y119586D01*
X539705Y107913D02*
X543051D01*
X541378Y106240D02*
Y109586D01*
X539705Y97913D02*
X543051D01*
X541378Y96240D02*
Y99586D01*
X539705Y87913D02*
X543051D01*
X541378Y86240D02*
Y89586D01*
X539705Y77913D02*
X543051D01*
X541378Y76240D02*
Y79586D01*
X539705Y67913D02*
X543051D01*
X541378Y66240D02*
Y69586D01*
X532205Y222913D02*
X535551D01*
X533878Y221240D02*
Y224586D01*
X532205Y212913D02*
X535551D01*
X533878Y211240D02*
Y214586D01*
X532205Y202913D02*
X535551D01*
X533878Y201240D02*
Y204586D01*
X532205Y192913D02*
X535551D01*
X533878Y191240D02*
Y194586D01*
X532205Y182913D02*
X535551D01*
X533878Y181240D02*
Y184586D01*
X532205Y172913D02*
X535551D01*
X533878Y171240D02*
Y174586D01*
X532205Y162913D02*
X535551D01*
X533878Y161240D02*
Y164586D01*
X532205Y152913D02*
X535551D01*
X533878Y151240D02*
Y154586D01*
X532205Y142913D02*
X535551D01*
X533878Y141240D02*
Y144586D01*
X532205Y132913D02*
X535551D01*
X533878Y131240D02*
Y134586D01*
X532205Y122913D02*
X535551D01*
X533878Y121240D02*
Y124586D01*
X532205Y112913D02*
X535551D01*
X533878Y111240D02*
Y114586D01*
X532205Y102913D02*
X535551D01*
X533878Y101240D02*
Y104586D01*
X532205Y92913D02*
X535551D01*
X533878Y91240D02*
Y94586D01*
X532205Y82913D02*
X535551D01*
X533878Y81240D02*
Y84586D01*
X532205Y72913D02*
X535551D01*
X533878Y71240D02*
Y74586D01*
X532205Y62913D02*
X535551D01*
X533878Y61240D02*
Y64586D01*
X11094Y67012D02*
X15189D01*
X13142Y64965D02*
Y69059D01*
X11094Y77012D02*
X15189D01*
X13142Y74965D02*
Y79059D01*
X11094Y87012D02*
X15189D01*
X13142Y84965D02*
Y89059D01*
X11094Y97012D02*
X15189D01*
X13142Y94965D02*
Y99059D01*
X11094Y107012D02*
X15189D01*
X13142Y104965D02*
Y109059D01*
X11094Y117012D02*
X15189D01*
X13142Y114965D02*
Y119059D01*
X11094Y127012D02*
X15189D01*
X13142Y124965D02*
Y129059D01*
X11094Y137012D02*
X15189D01*
X13142Y134965D02*
Y139059D01*
X11094Y147012D02*
X15189D01*
X13142Y144965D02*
Y149059D01*
X11094Y157012D02*
X15189D01*
X13142Y154965D02*
Y159059D01*
X11094Y167012D02*
X15189D01*
X13142Y164965D02*
Y169059D01*
X11094Y177012D02*
X15189D01*
X13142Y174965D02*
Y179059D01*
X11094Y187012D02*
X15189D01*
X13142Y184965D02*
Y189059D01*
X11094Y197012D02*
X15189D01*
X13142Y194965D02*
Y199059D01*
X11094Y207012D02*
X15189D01*
X13142Y204965D02*
Y209059D01*
X11094Y217012D02*
X15189D01*
X13142Y214965D02*
Y219059D01*
X11094Y227012D02*
X15189D01*
X13142Y224965D02*
Y229059D01*
X11094Y237012D02*
X15189D01*
X13142Y234965D02*
Y239059D01*
X11094Y247012D02*
X15189D01*
X13142Y244965D02*
Y249059D01*
X11094Y257012D02*
X15189D01*
X13142Y254965D02*
Y259059D01*
X11094Y267012D02*
X15189D01*
X13142Y264965D02*
Y269059D01*
X11094Y277012D02*
X15189D01*
X13142Y274965D02*
Y279059D01*
X11094Y287012D02*
X15189D01*
X13142Y284965D02*
Y289059D01*
X11094Y297012D02*
X15189D01*
X13142Y294965D02*
Y299059D01*
X11094Y307012D02*
X15189D01*
X13142Y304965D02*
Y309059D01*
X21094Y67012D02*
X25189D01*
X23142Y64965D02*
Y69059D01*
X21094Y77012D02*
X25189D01*
X23142Y74965D02*
Y79059D01*
X21094Y87012D02*
X25189D01*
X23142Y84965D02*
Y89059D01*
X21094Y97012D02*
X25189D01*
X23142Y94965D02*
Y99059D01*
X21094Y107012D02*
X25189D01*
X23142Y104965D02*
Y109059D01*
X21094Y117012D02*
X25189D01*
X23142Y114965D02*
Y119059D01*
X21094Y127012D02*
X25189D01*
X23142Y124965D02*
Y129059D01*
X21094Y137012D02*
X25189D01*
X23142Y134965D02*
Y139059D01*
X21094Y147012D02*
X25189D01*
X23142Y144965D02*
Y149059D01*
X21094Y157012D02*
X25189D01*
X23142Y154965D02*
Y159059D01*
X21094Y167012D02*
X25189D01*
X23142Y164965D02*
Y169059D01*
X21094Y177012D02*
X25189D01*
X23142Y174965D02*
Y179059D01*
X21094Y187012D02*
X25189D01*
X23142Y184965D02*
Y189059D01*
X21094Y197012D02*
X25189D01*
X23142Y194965D02*
Y199059D01*
X21094Y207012D02*
X25189D01*
X23142Y204965D02*
Y209059D01*
X21094Y217012D02*
X25189D01*
X23142Y214965D02*
Y219059D01*
X21094Y227012D02*
X25189D01*
X23142Y224965D02*
Y229059D01*
X21094Y237012D02*
X25189D01*
X23142Y234965D02*
Y239059D01*
X21094Y247012D02*
X25189D01*
X23142Y244965D02*
Y249059D01*
X21094Y257012D02*
X25189D01*
X23142Y254965D02*
Y259059D01*
X21094Y267012D02*
X25189D01*
X23142Y264965D02*
Y269059D01*
X21094Y277012D02*
X25189D01*
X23142Y274965D02*
Y279059D01*
X21094Y287012D02*
X25189D01*
X23142Y284965D02*
Y289059D01*
X21094Y297012D02*
X25189D01*
X23142Y294965D02*
Y299059D01*
X21094Y307012D02*
X25189D01*
X23142Y304965D02*
Y309059D01*
X310175Y146142D02*
X312975D01*
X311575Y144742D02*
Y147542D01*
X351750Y375669D02*
X354550D01*
X353150Y374269D02*
Y377069D01*
X472379Y293347D02*
X475179D01*
X473779Y291947D02*
Y294746D01*
X479309Y297953D02*
X482109D01*
X480709Y296553D02*
Y299353D01*
X404621Y304801D02*
X407421D01*
X406021Y303401D02*
Y306201D01*
X457517Y302677D02*
X460317D01*
X458917Y301277D02*
Y304077D01*
X390844Y346811D02*
X393644D01*
X392244Y345411D02*
Y348211D01*
X382734Y290476D02*
X385534D01*
X384134Y289076D02*
Y291876D01*
X443757Y286221D02*
X446558D01*
X445157Y284821D02*
Y287620D01*
X400883Y292283D02*
X403683D01*
X402283Y290883D02*
Y293683D01*
X469624Y325472D02*
X472424D01*
X471024Y324072D02*
Y326872D01*
X203364Y117283D02*
X206164D01*
X204764Y115884D02*
Y118684D01*
X253246Y122480D02*
X256046D01*
X254646Y121080D02*
Y123880D01*
X264939Y131220D02*
X267739D01*
X266339Y129821D02*
Y132621D01*
X270057Y120905D02*
X272857D01*
X271457Y119506D02*
Y122306D01*
X255844Y129449D02*
X258644D01*
X257244Y128049D02*
Y130849D01*
X443915Y150945D02*
X446715D01*
X445315Y149545D02*
Y152345D01*
X445805Y87638D02*
X448605D01*
X447205Y86238D02*
Y89038D01*
X468010Y101654D02*
X470810D01*
X469410Y100253D02*
Y103053D01*
X467065Y124921D02*
X469865D01*
X468465Y123521D02*
Y126321D01*
X515253Y52835D02*
X518053D01*
X516653Y51435D02*
Y54235D01*
X425671Y40400D02*
X428471D01*
X427071Y39000D02*
Y41800D01*
X418096Y38183D02*
X420896D01*
X419496Y36783D02*
Y39583D01*
X328718Y46929D02*
X331518D01*
X330118Y45529D02*
Y48329D01*
X525608Y94213D02*
X528408D01*
X527008Y92813D02*
Y95613D01*
X393600Y183200D02*
X396400D01*
X395000Y181800D02*
Y184600D01*
X310490Y24606D02*
X313290D01*
X311890Y23206D02*
Y26006D01*
X312616Y36063D02*
X315416D01*
X314016Y34663D02*
Y37463D01*
X320253Y14134D02*
X323054D01*
X321654Y12734D02*
Y15534D01*
X188482Y3124D02*
X191282D01*
X189882Y1724D02*
Y4524D01*
X80490Y3307D02*
X83290D01*
X81890Y1907D02*
Y4707D01*
X247222Y16339D02*
X250022D01*
X248622Y14939D02*
Y17739D01*
X130017Y13661D02*
X132817D01*
X131417Y12261D02*
Y15061D01*
X414400Y246300D02*
X417200D01*
X415800Y244900D02*
Y247700D01*
X471300Y164500D02*
X474100D01*
X472700Y163100D02*
Y165900D01*
X193400Y217012D02*
X196200D01*
X194800Y215612D02*
Y218412D01*
X363500Y39500D02*
X366300D01*
X364900Y38100D02*
Y40900D01*
X409200Y183000D02*
X412000D01*
X410600Y181600D02*
Y184400D01*
X423802Y144598D02*
X426602D01*
X425202Y143198D02*
Y145998D01*
X432300Y88700D02*
X435100D01*
X433700Y87300D02*
Y90100D01*
X31500Y104800D02*
X34300D01*
X32900Y103400D02*
Y106200D01*
X494700Y25000D02*
X497500D01*
X496100Y23600D02*
Y26400D01*
X205200Y44600D02*
X208000D01*
X206600Y43200D02*
Y46000D01*
X201000Y228800D02*
X203800D01*
X202400Y227400D02*
Y230200D01*
X201000Y82300D02*
X203800D01*
X202400Y80900D02*
Y83700D01*
X561800Y235000D02*
X564600D01*
X563200Y233600D02*
Y236400D01*
X227200Y48300D02*
X230000D01*
X228600Y46900D02*
Y49700D01*
X218200Y39700D02*
X221000D01*
X219600Y38300D02*
Y41100D01*
X271900Y80800D02*
X274700D01*
X273300Y79400D02*
Y82200D01*
X280500Y77300D02*
X283300D01*
X281900Y75900D02*
Y78700D01*
X433800Y134921D02*
X436600D01*
X435200Y133521D02*
Y136321D01*
X252400Y154200D02*
X255200D01*
X253800Y152800D02*
Y155600D01*
X431600Y141000D02*
X434400D01*
X433000Y139600D02*
Y142400D01*
X294023Y29500D02*
X296823D01*
X295423Y28100D02*
Y30900D01*
X494400Y75200D02*
X497200D01*
X495800Y73800D02*
Y76600D01*
X498800Y133400D02*
X501600D01*
X500200Y132000D02*
Y134800D01*
X99200Y193900D02*
X102000D01*
X100600Y192500D02*
Y195300D01*
X373500Y232900D02*
X376300D01*
X374900Y231500D02*
Y234300D01*
X302900Y23500D02*
X305700D01*
X304300Y22100D02*
Y24900D01*
X357200Y31200D02*
X360000D01*
X358600Y29800D02*
Y32600D01*
X387400Y19400D02*
X390200D01*
X388800Y18000D02*
Y20800D01*
X469300Y73200D02*
X472100D01*
X470700Y71800D02*
Y74600D01*
X449500Y146500D02*
X452300D01*
X450900Y145100D02*
Y147900D01*
X195500Y254300D02*
X198300D01*
X196900Y252900D02*
Y255700D01*
X425691Y224109D02*
X428491D01*
X427091Y222709D02*
Y225509D01*
X566600Y224200D02*
X569400D01*
X568000Y222800D02*
Y225600D01*
X290300Y259000D02*
X293100D01*
X291700Y257600D02*
Y260400D01*
X350200Y64000D02*
X353000D01*
X351600Y62600D02*
Y65400D01*
X409800Y152100D02*
X412600D01*
X411200Y150700D02*
Y153500D01*
X415600Y162000D02*
X418400D01*
X417000Y160600D02*
Y163400D01*
X440900Y20500D02*
X443700D01*
X442300Y19100D02*
Y21900D01*
X244800Y28200D02*
X247600D01*
X246200Y26800D02*
Y29600D01*
X385200Y46500D02*
X388000D01*
X386600Y45100D02*
Y47900D01*
X205616Y52100D02*
X208416D01*
X207016Y50700D02*
Y53500D01*
X202800Y133300D02*
X205600D01*
X204200Y131900D02*
Y134700D01*
X193100Y141400D02*
X195900D01*
X194500Y140000D02*
Y142800D01*
X262900Y72600D02*
X265700D01*
X264300Y71200D02*
Y74000D01*
X241100Y102700D02*
X243900D01*
X242500Y101300D02*
Y104100D01*
X500500Y29800D02*
X503300D01*
X501900Y28400D02*
Y31200D01*
X499139Y293301D02*
X501939D01*
X500539Y291901D02*
Y294701D01*
X318100Y254800D02*
X320900D01*
X319500Y253400D02*
Y256200D01*
X248000Y286300D02*
X250800D01*
X249400Y284900D02*
Y287700D01*
X248000Y217400D02*
X250800D01*
X249400Y216000D02*
Y218800D01*
X391800Y31900D02*
X394600D01*
X393200Y30500D02*
Y33300D01*
X469200Y47400D02*
X472000D01*
X470600Y46000D02*
Y48800D01*
X561950Y242950D02*
X564750D01*
X563350Y241550D02*
Y244350D01*
X327247Y197953D02*
X330047D01*
X328647Y196553D02*
Y199353D01*
X295300Y206200D02*
X298100D01*
X296700Y204800D02*
Y207600D01*
X368535Y355130D02*
X369323D01*
X368929Y354736D02*
Y355524D01*
X368535Y351980D02*
X369323D01*
X368929Y351587D02*
Y352374D01*
M02*
