%TF.GenerationSoftware,Altium Limited,Altium Designer,19.0.15 (446)*%
G04 Layer_Color=255*
%FSLAX26Y26*%
%MOIN*%
%TF.FileFunction,Pads,Bot*%
%TF.Part,Single*%
G01*
G75*
%TA.AperFunction,ComponentPad*%
%ADD36C,0.053150*%
%ADD37R,0.053150X0.053150*%
%ADD38C,0.061024*%
%ADD39R,0.061024X0.061024*%
%ADD40C,0.070866*%
%ADD41R,0.059055X0.059055*%
%ADD42C,0.059055*%
D36*
X5563780Y2279129D02*
D03*
Y2179129D02*
D03*
Y2079129D02*
D03*
Y1979129D02*
D03*
Y1879129D02*
D03*
Y1779129D02*
D03*
Y1679129D02*
D03*
Y1579129D02*
D03*
Y1479129D02*
D03*
Y1379129D02*
D03*
Y1279129D02*
D03*
Y1179129D02*
D03*
Y1079129D02*
D03*
Y979129D02*
D03*
Y879129D02*
D03*
Y779129D02*
D03*
X5488778Y2229129D02*
D03*
Y2129129D02*
D03*
Y2029129D02*
D03*
Y1929129D02*
D03*
Y1829129D02*
D03*
Y1729129D02*
D03*
Y1629129D02*
D03*
Y1529129D02*
D03*
Y1429129D02*
D03*
Y1329129D02*
D03*
Y1229129D02*
D03*
Y1129129D02*
D03*
Y1029129D02*
D03*
Y929129D02*
D03*
Y829129D02*
D03*
Y729129D02*
D03*
X5563780Y679129D02*
D03*
X5488778Y629129D02*
D03*
X5413780Y2279129D02*
D03*
Y2179129D02*
D03*
Y2079129D02*
D03*
Y1979129D02*
D03*
Y1879129D02*
D03*
Y1779129D02*
D03*
Y1679129D02*
D03*
Y1579129D02*
D03*
Y1479129D02*
D03*
Y1379129D02*
D03*
Y1279129D02*
D03*
Y1179129D02*
D03*
Y1079129D02*
D03*
Y979129D02*
D03*
Y879129D02*
D03*
Y779129D02*
D03*
Y679129D02*
D03*
X5338778Y2229129D02*
D03*
Y2129129D02*
D03*
Y2029129D02*
D03*
Y1929129D02*
D03*
Y1829129D02*
D03*
Y1729129D02*
D03*
Y1629129D02*
D03*
Y1529129D02*
D03*
Y1429129D02*
D03*
Y1329129D02*
D03*
Y1229129D02*
D03*
Y1129129D02*
D03*
Y1029129D02*
D03*
Y929129D02*
D03*
Y829129D02*
D03*
Y729129D02*
D03*
D37*
Y629129D02*
D03*
D38*
X2131417Y670119D02*
D03*
Y770119D02*
D03*
Y870119D02*
D03*
Y970119D02*
D03*
Y1070119D02*
D03*
Y1170119D02*
D03*
Y1270119D02*
D03*
Y1370119D02*
D03*
Y1470119D02*
D03*
Y1570119D02*
D03*
Y1670119D02*
D03*
Y1770119D02*
D03*
Y1870119D02*
D03*
Y1970119D02*
D03*
Y2070119D02*
D03*
Y2170119D02*
D03*
Y2270119D02*
D03*
Y2370119D02*
D03*
Y2470119D02*
D03*
Y2570119D02*
D03*
Y2670119D02*
D03*
Y2770119D02*
D03*
Y2870119D02*
D03*
Y2970119D02*
D03*
Y3070119D02*
D03*
X2231417Y670119D02*
D03*
Y770119D02*
D03*
Y870119D02*
D03*
Y970119D02*
D03*
Y1070119D02*
D03*
Y1170119D02*
D03*
Y1270119D02*
D03*
Y1370119D02*
D03*
Y1470119D02*
D03*
Y1570119D02*
D03*
Y1670119D02*
D03*
Y1770119D02*
D03*
Y1870119D02*
D03*
Y1970119D02*
D03*
Y2070119D02*
D03*
Y2170119D02*
D03*
Y2270119D02*
D03*
Y2370119D02*
D03*
Y2470119D02*
D03*
Y2570119D02*
D03*
Y2670119D02*
D03*
Y2770119D02*
D03*
Y2870119D02*
D03*
Y2970119D02*
D03*
X131417Y670119D02*
D03*
Y770119D02*
D03*
Y870119D02*
D03*
Y970119D02*
D03*
Y1070119D02*
D03*
Y1170119D02*
D03*
Y1270119D02*
D03*
Y1370119D02*
D03*
Y1470119D02*
D03*
Y1570119D02*
D03*
Y1670119D02*
D03*
Y1770119D02*
D03*
Y1870119D02*
D03*
Y1970119D02*
D03*
Y2070119D02*
D03*
Y2170119D02*
D03*
Y2270119D02*
D03*
Y2370119D02*
D03*
Y2470119D02*
D03*
Y2570119D02*
D03*
Y2670119D02*
D03*
Y2770119D02*
D03*
Y2870119D02*
D03*
Y2970119D02*
D03*
Y3070119D02*
D03*
X231417Y670119D02*
D03*
Y770119D02*
D03*
Y870119D02*
D03*
Y970119D02*
D03*
Y1070119D02*
D03*
Y1170119D02*
D03*
Y1270119D02*
D03*
Y1370119D02*
D03*
Y1470119D02*
D03*
Y1570119D02*
D03*
Y1670119D02*
D03*
Y1770119D02*
D03*
Y1870119D02*
D03*
Y1970119D02*
D03*
Y2070119D02*
D03*
Y2170119D02*
D03*
Y2270119D02*
D03*
Y2370119D02*
D03*
Y2470119D02*
D03*
Y2570119D02*
D03*
Y2670119D02*
D03*
Y2770119D02*
D03*
Y2870119D02*
D03*
Y2970119D02*
D03*
D39*
X2231417Y3070119D02*
D03*
X231417D02*
D03*
D40*
X5403631Y3408573D02*
D03*
X5334034Y3478171D02*
D03*
Y3338976D02*
D03*
X5473228Y3478171D02*
D03*
Y3338976D02*
D03*
D41*
X4664173Y2380710D02*
D03*
D42*
X4564173D02*
D03*
%TF.MD5,36154116d60a77ce72e75f5db82de410*%
M02*
