%TF.GenerationSoftware,Altium Limited,Altium Designer,19.0.15 (446)*%
G04 Layer_Color=32896*
%FSLAX26Y26*%
%MOIN*%
%TF.FileFunction,Other,Mechanical_12*%
%TF.Part,Single*%
G01*
G75*
%TA.AperFunction,NonConductor*%
%ADD87C,0.005906*%
D87*
X4199016Y110236D02*
Y188976D01*
X4248228D01*
Y110236D02*
Y188976D01*
X4199016Y110236D02*
X4248228D01*
X3654134Y105118D02*
Y183858D01*
X3703346D01*
Y105118D02*
Y183858D01*
X3654134Y105118D02*
X3703346D01*
X2823228Y55316D02*
X2901968D01*
X2823228D02*
Y104528D01*
X2901968D01*
Y55316D02*
Y104528D01*
X3092716Y101182D02*
Y179922D01*
X3141930D01*
Y101182D02*
Y179922D01*
X3092716Y101182D02*
X3141930D01*
X4047638Y1741536D02*
Y1790748D01*
Y1741536D02*
X4126378D01*
Y1790748D01*
X4047638D02*
X4126378D01*
X3780314Y1739566D02*
Y1788780D01*
Y1739566D02*
X3859056D01*
Y1788780D01*
X3780314D02*
X3859056D01*
X2987008Y1755316D02*
Y1804528D01*
Y1755316D02*
X3065748D01*
Y1804528D01*
X2987008D02*
X3065748D01*
X2768898Y1755316D02*
Y1804528D01*
Y1755316D02*
X2847638D01*
Y1804528D01*
X2768898D02*
X2847638D01*
X2510434Y103968D02*
Y182708D01*
X2559646D01*
Y103968D02*
Y182708D01*
X2510434Y103968D02*
X2559646D01*
X2798426Y590354D02*
X2877166D01*
X2798426D02*
Y639566D01*
X2877166D01*
Y590354D02*
Y639566D01*
X3390158Y61220D02*
X3468898D01*
X3390158D02*
Y110434D01*
X3468898D01*
Y61220D02*
Y110434D01*
X3956300Y57678D02*
X4035040D01*
X3956300D02*
Y106890D01*
X4035040D01*
Y57678D02*
Y106890D01*
X4190354Y533464D02*
X4239566D01*
X4190354Y454724D02*
Y533464D01*
Y454724D02*
X4239566D01*
Y533464D01*
X5018110Y575394D02*
X5096850D01*
X5018110D02*
Y624606D01*
X5096850D01*
Y575394D02*
Y624606D01*
X5045276Y69882D02*
X5124016D01*
X5045276D02*
Y119094D01*
X5124016D01*
Y69882D02*
Y119094D01*
X4492520Y61614D02*
X4571260D01*
X4492520D02*
Y110826D01*
X4571260D01*
Y61614D02*
Y110826D01*
X4756102Y112992D02*
Y191732D01*
X4805316D01*
Y112992D02*
Y191732D01*
X4756102Y112992D02*
X4805316D01*
X4749016Y530316D02*
X4798228D01*
X4749016Y451574D02*
Y530316D01*
Y451574D02*
X4798228D01*
Y530316D01*
X4461024Y574606D02*
X4539764D01*
X4461024D02*
Y623820D01*
X4539764D01*
Y574606D02*
Y623820D01*
X3914566Y575394D02*
X3993308D01*
X3914566D02*
Y624606D01*
X3993308D01*
Y575394D02*
Y624606D01*
X3359056Y574606D02*
X3437796D01*
X3359056D02*
Y623820D01*
X3437796D01*
Y574606D02*
Y623820D01*
X4559930Y2577816D02*
Y2656556D01*
X4609144D01*
Y2577816D02*
Y2656556D01*
X4559930Y2577816D02*
X4609144D01*
X4063278Y3077618D02*
X4142018D01*
Y3028406D02*
Y3077618D01*
X4063278Y3028406D02*
X4142018D01*
X4063278D02*
Y3077618D01*
X3865944Y2827952D02*
Y2906692D01*
X3816732Y2827952D02*
X3865944D01*
X3816732D02*
Y2906692D01*
X3865944D01*
X3676574Y449606D02*
Y528346D01*
X3627362Y449606D02*
X3676574D01*
X3627362D02*
Y528346D01*
X3676574D01*
X3109252Y444488D02*
Y523228D01*
X3060040Y444488D02*
X3109252D01*
X3060040D02*
Y523228D01*
X3109252D01*
X2558070Y454330D02*
Y533070D01*
X2508858Y454330D02*
X2558070D01*
X2508858D02*
Y533070D01*
X2558070D01*
X4804528Y1216142D02*
Y1294882D01*
X4755316Y1216142D02*
X4804528D01*
X4755316D02*
Y1294882D01*
X4804528D01*
X4794292Y825590D02*
Y904330D01*
X4745078Y825590D02*
X4794292D01*
X4745078D02*
Y904330D01*
X4794292D01*
X4515354Y1529462D02*
X4594094D01*
X4515354D02*
Y1578676D01*
X4594094D01*
Y1529462D02*
Y1578676D01*
X4550394Y1064764D02*
X4629134D01*
X4550394D02*
Y1113976D01*
X4629134D01*
Y1064764D02*
Y1113976D01*
X4263976Y1018898D02*
Y1097638D01*
X4313190D01*
Y1018898D02*
Y1097638D01*
X4263976Y1018898D02*
X4313190D01*
X4289174Y1488976D02*
Y1567716D01*
X4338386D01*
Y1488976D02*
Y1567716D01*
X4289174Y1488976D02*
X4338386D01*
%TF.MD5,21bf3884ff829620a5550e6997bc913d*%
M02*
