%TF.GenerationSoftware,Altium Limited,Altium Designer,19.0.15 (446)*%
G04 Layer_Color=2752767*
%FSLAX26Y26*%
%MOIN*%
%TF.FileFunction,Drawing*%
%TF.Part,Single*%
G01*
G75*
%TA.AperFunction,NonConductor*%
%ADD61C,0.010000*%
%ADD92C,0.005000*%
%ADD93C,0.006667*%
D61*
X4884869Y115338D02*
X4874872Y125335D01*
X4854879D01*
X4844882Y115338D01*
Y75351D01*
X4854879Y65354D01*
X4874872D01*
X4884869Y75351D01*
X4944850Y65354D02*
X4904863D01*
X4944850Y105341D01*
Y115338D01*
X4934853Y125335D01*
X4914859D01*
X4904863Y115338D01*
X4964843D02*
X4974840Y125335D01*
X4994833D01*
X5004830Y115338D01*
Y75351D01*
X4994833Y65354D01*
X4974840D01*
X4964843Y75351D01*
Y115338D01*
D92*
X5468759Y2574089D02*
Y2614089D01*
X5508759D01*
Y2574089D01*
X5468759D01*
Y294168D02*
Y334168D01*
X5508759D01*
Y294168D01*
X5468759D01*
X2131417Y650119D02*
X2111417Y690119D01*
X2151417D01*
X2131417Y650119D01*
Y750119D02*
X2111417Y790119D01*
X2151417D01*
X2131417Y750119D01*
Y850119D02*
X2111417Y890119D01*
X2151417D01*
X2131417Y850119D01*
Y950119D02*
X2111417Y990119D01*
X2151417D01*
X2131417Y950119D01*
Y1050119D02*
X2111417Y1090119D01*
X2151417D01*
X2131417Y1050119D01*
Y1150119D02*
X2111417Y1190119D01*
X2151417D01*
X2131417Y1150119D01*
Y1250119D02*
X2111417Y1290119D01*
X2151417D01*
X2131417Y1250119D01*
Y1350119D02*
X2111417Y1390119D01*
X2151417D01*
X2131417Y1350119D01*
Y1450119D02*
X2111417Y1490119D01*
X2151417D01*
X2131417Y1450119D01*
Y1550119D02*
X2111417Y1590119D01*
X2151417D01*
X2131417Y1550119D01*
Y1650119D02*
X2111417Y1690119D01*
X2151417D01*
X2131417Y1650119D01*
Y1750119D02*
X2111417Y1790119D01*
X2151417D01*
X2131417Y1750119D01*
Y1850119D02*
X2111417Y1890119D01*
X2151417D01*
X2131417Y1850119D01*
Y1950119D02*
X2111417Y1990119D01*
X2151417D01*
X2131417Y1950119D01*
Y2050119D02*
X2111417Y2090119D01*
X2151417D01*
X2131417Y2050119D01*
Y2150119D02*
X2111417Y2190119D01*
X2151417D01*
X2131417Y2150119D01*
Y2250119D02*
X2111417Y2290119D01*
X2151417D01*
X2131417Y2250119D01*
Y2350119D02*
X2111417Y2390119D01*
X2151417D01*
X2131417Y2350119D01*
Y2450119D02*
X2111417Y2490119D01*
X2151417D01*
X2131417Y2450119D01*
Y2550119D02*
X2111417Y2590119D01*
X2151417D01*
X2131417Y2550119D01*
Y2650119D02*
X2111417Y2690119D01*
X2151417D01*
X2131417Y2650119D01*
Y2750119D02*
X2111417Y2790119D01*
X2151417D01*
X2131417Y2750119D01*
Y2850119D02*
X2111417Y2890119D01*
X2151417D01*
X2131417Y2850119D01*
Y2950119D02*
X2111417Y2990119D01*
X2151417D01*
X2131417Y2950119D01*
Y3050119D02*
X2111417Y3090119D01*
X2151417D01*
X2131417Y3050119D01*
X2231417Y650119D02*
X2211417Y690119D01*
X2251417D01*
X2231417Y650119D01*
Y750119D02*
X2211417Y790119D01*
X2251417D01*
X2231417Y750119D01*
Y850119D02*
X2211417Y890119D01*
X2251417D01*
X2231417Y850119D01*
Y950119D02*
X2211417Y990119D01*
X2251417D01*
X2231417Y950119D01*
Y1050119D02*
X2211417Y1090119D01*
X2251417D01*
X2231417Y1050119D01*
Y1150119D02*
X2211417Y1190119D01*
X2251417D01*
X2231417Y1150119D01*
Y1250119D02*
X2211417Y1290119D01*
X2251417D01*
X2231417Y1250119D01*
Y1350119D02*
X2211417Y1390119D01*
X2251417D01*
X2231417Y1350119D01*
Y1450119D02*
X2211417Y1490119D01*
X2251417D01*
X2231417Y1450119D01*
Y1550119D02*
X2211417Y1590119D01*
X2251417D01*
X2231417Y1550119D01*
Y1650119D02*
X2211417Y1690119D01*
X2251417D01*
X2231417Y1650119D01*
Y1750119D02*
X2211417Y1790119D01*
X2251417D01*
X2231417Y1750119D01*
Y1850119D02*
X2211417Y1890119D01*
X2251417D01*
X2231417Y1850119D01*
Y1950119D02*
X2211417Y1990119D01*
X2251417D01*
X2231417Y1950119D01*
Y2050119D02*
X2211417Y2090119D01*
X2251417D01*
X2231417Y2050119D01*
Y2150119D02*
X2211417Y2190119D01*
X2251417D01*
X2231417Y2150119D01*
Y2250119D02*
X2211417Y2290119D01*
X2251417D01*
X2231417Y2250119D01*
Y2350119D02*
X2211417Y2390119D01*
X2251417D01*
X2231417Y2350119D01*
Y2450119D02*
X2211417Y2490119D01*
X2251417D01*
X2231417Y2450119D01*
Y2550119D02*
X2211417Y2590119D01*
X2251417D01*
X2231417Y2550119D01*
Y2650119D02*
X2211417Y2690119D01*
X2251417D01*
X2231417Y2650119D01*
Y2750119D02*
X2211417Y2790119D01*
X2251417D01*
X2231417Y2750119D01*
Y2850119D02*
X2211417Y2890119D01*
X2251417D01*
X2231417Y2850119D01*
Y2950119D02*
X2211417Y2990119D01*
X2251417D01*
X2231417Y2950119D01*
Y3050119D02*
X2211417Y3090119D01*
X2251417D01*
X2231417Y3050119D01*
X131417Y650119D02*
X111417Y690119D01*
X151417D01*
X131417Y650119D01*
Y750119D02*
X111417Y790119D01*
X151417D01*
X131417Y750119D01*
Y850119D02*
X111417Y890119D01*
X151417D01*
X131417Y850119D01*
Y950119D02*
X111417Y990119D01*
X151417D01*
X131417Y950119D01*
Y1050119D02*
X111417Y1090119D01*
X151417D01*
X131417Y1050119D01*
Y1150119D02*
X111417Y1190119D01*
X151417D01*
X131417Y1150119D01*
Y1250119D02*
X111417Y1290119D01*
X151417D01*
X131417Y1250119D01*
Y1350119D02*
X111417Y1390119D01*
X151417D01*
X131417Y1350119D01*
Y1450119D02*
X111417Y1490119D01*
X151417D01*
X131417Y1450119D01*
Y1550119D02*
X111417Y1590119D01*
X151417D01*
X131417Y1550119D01*
Y1650119D02*
X111417Y1690119D01*
X151417D01*
X131417Y1650119D01*
Y1750119D02*
X111417Y1790119D01*
X151417D01*
X131417Y1750119D01*
Y1850119D02*
X111417Y1890119D01*
X151417D01*
X131417Y1850119D01*
Y1950119D02*
X111417Y1990119D01*
X151417D01*
X131417Y1950119D01*
Y2050119D02*
X111417Y2090119D01*
X151417D01*
X131417Y2050119D01*
Y2150119D02*
X111417Y2190119D01*
X151417D01*
X131417Y2150119D01*
Y2250119D02*
X111417Y2290119D01*
X151417D01*
X131417Y2250119D01*
Y2350119D02*
X111417Y2390119D01*
X151417D01*
X131417Y2350119D01*
Y2450119D02*
X111417Y2490119D01*
X151417D01*
X131417Y2450119D01*
Y2550119D02*
X111417Y2590119D01*
X151417D01*
X131417Y2550119D01*
Y2650119D02*
X111417Y2690119D01*
X151417D01*
X131417Y2650119D01*
Y2750119D02*
X111417Y2790119D01*
X151417D01*
X131417Y2750119D01*
Y2850119D02*
X111417Y2890119D01*
X151417D01*
X131417Y2850119D01*
Y2950119D02*
X111417Y2990119D01*
X151417D01*
X131417Y2950119D01*
Y3050119D02*
X111417Y3090119D01*
X151417D01*
X131417Y3050119D01*
X231417Y650119D02*
X211417Y690119D01*
X251417D01*
X231417Y650119D01*
Y750119D02*
X211417Y790119D01*
X251417D01*
X231417Y750119D01*
Y850119D02*
X211417Y890119D01*
X251417D01*
X231417Y850119D01*
Y950119D02*
X211417Y990119D01*
X251417D01*
X231417Y950119D01*
Y1050119D02*
X211417Y1090119D01*
X251417D01*
X231417Y1050119D01*
Y1150119D02*
X211417Y1190119D01*
X251417D01*
X231417Y1150119D01*
Y1250119D02*
X211417Y1290119D01*
X251417D01*
X231417Y1250119D01*
Y1350119D02*
X211417Y1390119D01*
X251417D01*
X231417Y1350119D01*
Y1450119D02*
X211417Y1490119D01*
X251417D01*
X231417Y1450119D01*
Y1550119D02*
X211417Y1590119D01*
X251417D01*
X231417Y1550119D01*
Y1650119D02*
X211417Y1690119D01*
X251417D01*
X231417Y1650119D01*
Y1750119D02*
X211417Y1790119D01*
X251417D01*
X231417Y1750119D01*
Y1850119D02*
X211417Y1890119D01*
X251417D01*
X231417Y1850119D01*
Y1950119D02*
X211417Y1990119D01*
X251417D01*
X231417Y1950119D01*
Y2050119D02*
X211417Y2090119D01*
X251417D01*
X231417Y2050119D01*
Y2150119D02*
X211417Y2190119D01*
X251417D01*
X231417Y2150119D01*
Y2250119D02*
X211417Y2290119D01*
X251417D01*
X231417Y2250119D01*
Y2350119D02*
X211417Y2390119D01*
X251417D01*
X231417Y2350119D01*
Y2450119D02*
X211417Y2490119D01*
X251417D01*
X231417Y2450119D01*
Y2550119D02*
X211417Y2590119D01*
X251417D01*
X231417Y2550119D01*
Y2650119D02*
X211417Y2690119D01*
X251417D01*
X231417Y2650119D01*
Y2750119D02*
X211417Y2790119D01*
X251417D01*
X231417Y2750119D01*
Y2850119D02*
X211417Y2890119D01*
X251417D01*
X231417Y2850119D01*
Y2950119D02*
X211417Y2990119D01*
X251417D01*
X231417Y2950119D01*
Y3050119D02*
X211417Y3090119D01*
X251417D01*
X231417Y3050119D01*
X5403631Y3388573D02*
X5413631Y3398573D01*
X5423631D01*
X5413631Y3408573D01*
X5423631Y3418573D01*
X5413631D01*
X5403631Y3428573D01*
X5393631Y3418573D01*
X5383631D01*
X5393631Y3408573D01*
X5383631Y3398573D01*
X5393631D01*
X5403631Y3388573D01*
X5334034Y3458171D02*
X5344034Y3468171D01*
X5354034D01*
X5344034Y3478171D01*
X5354034Y3488171D01*
X5344034D01*
X5334034Y3498171D01*
X5324034Y3488171D01*
X5314034D01*
X5324034Y3478171D01*
X5314034Y3468171D01*
X5324034D01*
X5334034Y3458171D01*
Y3318976D02*
X5344034Y3328976D01*
X5354034D01*
X5344034Y3338976D01*
X5354034Y3348976D01*
X5344034D01*
X5334034Y3358976D01*
X5324034Y3348976D01*
X5314034D01*
X5324034Y3338976D01*
X5314034Y3328976D01*
X5324034D01*
X5334034Y3318976D01*
X5473228Y3458171D02*
X5483228Y3468171D01*
X5493228D01*
X5483228Y3478171D01*
X5493228Y3488171D01*
X5483228D01*
X5473228Y3498171D01*
X5463228Y3488171D01*
X5453228D01*
X5463228Y3478171D01*
X5453228Y3468171D01*
X5463228D01*
X5473228Y3458171D01*
Y3318976D02*
X5483228Y3328976D01*
X5493228D01*
X5483228Y3338976D01*
X5493228Y3348976D01*
X5483228D01*
X5473228Y3358976D01*
X5463228Y3348976D01*
X5453228D01*
X5463228Y3338976D01*
X5453228Y3328976D01*
X5463228D01*
X5473228Y3318976D01*
X4644173Y2360710D02*
X4654173Y2380710D01*
X4644173Y2400710D01*
X4664173Y2390710D01*
X4684173Y2400710D01*
X4674173Y2380710D01*
X4684173Y2360710D01*
X4664173Y2370710D01*
X4644173Y2360710D01*
X4544173D02*
X4554173Y2380710D01*
X4544173Y2400710D01*
X4564173Y2390710D01*
X4584173Y2400710D01*
X4574173Y2380710D01*
X4584173Y2360710D01*
X4564173Y2370710D01*
X4544173Y2360710D01*
X3679291Y3509804D02*
Y3499804D01*
X3699291D01*
Y3509804D01*
X3709291D01*
Y3529804D01*
X3699291D01*
Y3539804D01*
X3679291D01*
Y3529804D01*
X3669291D01*
Y3509804D01*
X3679291D01*
Y3540552D02*
Y3530552D01*
X3699291D01*
Y3540552D01*
X3709291D01*
Y3560552D01*
X3699291D01*
Y3570552D01*
X3679291D01*
Y3560552D01*
X3669291D01*
Y3540552D01*
X3679291D01*
X5453228Y3318976D02*
X5463228D01*
X5473228Y3328976D01*
X5483228Y3318976D01*
X5493228D01*
Y3328976D01*
X5483228Y3338976D01*
X5493228Y3348976D01*
Y3358976D01*
X5483228D01*
X5473228Y3348976D01*
X5463228Y3358976D01*
X5453228D01*
Y3348976D01*
X5463228Y3338976D01*
X5453228Y3328976D01*
Y3318976D01*
Y3458171D02*
X5463228D01*
X5473228Y3468171D01*
X5483228Y3458171D01*
X5493228D01*
Y3468171D01*
X5483228Y3478171D01*
X5493228Y3488171D01*
Y3498171D01*
X5483228D01*
X5473228Y3488171D01*
X5463228Y3498171D01*
X5453228D01*
Y3488171D01*
X5463228Y3478171D01*
X5453228Y3468171D01*
Y3458171D01*
X5383631Y3388573D02*
X5393631D01*
X5403631Y3398573D01*
X5413631Y3388573D01*
X5423631D01*
Y3398573D01*
X5413631Y3408573D01*
X5423631Y3418573D01*
Y3428573D01*
X5413631D01*
X5403631Y3418573D01*
X5393631Y3428573D01*
X5383631D01*
Y3418573D01*
X5393631Y3408573D01*
X5383631Y3398573D01*
Y3388573D01*
X5314034Y3458171D02*
X5324034D01*
X5334034Y3468171D01*
X5344034Y3458171D01*
X5354034D01*
Y3468171D01*
X5344034Y3478171D01*
X5354034Y3488171D01*
Y3498171D01*
X5344034D01*
X5334034Y3488171D01*
X5324034Y3498171D01*
X5314034D01*
Y3488171D01*
X5324034Y3478171D01*
X5314034Y3468171D01*
Y3458171D01*
Y3318976D02*
X5324034D01*
X5334034Y3328976D01*
X5344034Y3318976D01*
X5354034D01*
Y3328976D01*
X5344034Y3338976D01*
X5354034Y3348976D01*
Y3358976D01*
X5344034D01*
X5334034Y3348976D01*
X5324034Y3358976D01*
X5314034D01*
Y3348976D01*
X5324034Y3338976D01*
X5314034Y3328976D01*
Y3318976D01*
X3095748Y1461417D02*
X3115748Y1481417D01*
X3135748Y1461417D01*
X3115748Y1441417D01*
X3095748Y1461417D01*
X3511496Y3756692D02*
X3531496Y3776692D01*
X3551496Y3756692D01*
X3531496Y3736692D01*
X3511496Y3756692D01*
X4717795Y2933465D02*
X4737795Y2953465D01*
X4757795Y2933465D01*
X4737795Y2913465D01*
X4717795Y2933465D01*
X4787087Y2979528D02*
X4807087Y2999528D01*
X4827087Y2979528D01*
X4807087Y2959528D01*
X4787087Y2979528D01*
X4040214Y3048012D02*
X4060214Y3068012D01*
X4080214Y3048012D01*
X4060214Y3028012D01*
X4040214Y3048012D01*
X4569173Y3026772D02*
X4589173Y3046772D01*
X4609173Y3026772D01*
X4589173Y3006772D01*
X4569173Y3026772D01*
X3902442Y3468110D02*
X3922442Y3488110D01*
X3942442Y3468110D01*
X3922442Y3448110D01*
X3902442Y3468110D01*
X3821338Y2904756D02*
X3841338Y2924756D01*
X3861338Y2904756D01*
X3841338Y2884756D01*
X3821338Y2904756D01*
X4431575Y2862205D02*
X4451575Y2882205D01*
X4471575Y2862205D01*
X4451575Y2842205D01*
X4431575Y2862205D01*
X4002834Y2922834D02*
X4022834Y2942834D01*
X4042834Y2922834D01*
X4022834Y2902834D01*
X4002834Y2922834D01*
X4690236Y3254724D02*
X4710236Y3274724D01*
X4730236Y3254724D01*
X4710236Y3234724D01*
X4690236Y3254724D01*
X2027638Y1172835D02*
X2047638Y1192835D01*
X2067638Y1172835D01*
X2047638Y1152835D01*
X2027638Y1172835D01*
X2526457Y1224803D02*
X2546457Y1244803D01*
X2566457Y1224803D01*
X2546457Y1204803D01*
X2526457Y1224803D01*
X2643386Y1312205D02*
X2663386Y1332205D01*
X2683386Y1312205D01*
X2663386Y1292205D01*
X2643386Y1312205D01*
X2694567Y1209055D02*
X2714567Y1229055D01*
X2734567Y1209055D01*
X2714567Y1189055D01*
X2694567Y1209055D01*
X2552441Y1294488D02*
X2572441Y1314488D01*
X2592441Y1294488D01*
X2572441Y1274488D01*
X2552441Y1294488D01*
X4433150Y1509449D02*
X4453150Y1529449D01*
X4473150Y1509449D01*
X4453150Y1489449D01*
X4433150Y1509449D01*
X4452047Y876378D02*
X4472047Y896378D01*
X4492047Y876378D01*
X4472047Y856378D01*
X4452047Y876378D01*
X4674095Y1016535D02*
X4694095Y1036535D01*
X4714095Y1016535D01*
X4694095Y996535D01*
X4674095Y1016535D01*
X4664646Y1249213D02*
X4684646Y1269213D01*
X4704646Y1249213D01*
X4684646Y1229213D01*
X4664646Y1249213D01*
X5146535Y528346D02*
X5166535Y548346D01*
X5186535Y528346D01*
X5166535Y508346D01*
X5146535Y528346D01*
X4250708Y404000D02*
X4270708Y424000D01*
X4290708Y404000D01*
X4270708Y384000D01*
X4250708Y404000D01*
X4174960Y381834D02*
X4194960Y401834D01*
X4214960Y381834D01*
X4194960Y361834D01*
X4174960Y381834D01*
X3281181Y469291D02*
X3301181Y489291D01*
X3321181Y469291D01*
X3301181Y449291D01*
X3281181Y469291D01*
X5250079Y942126D02*
X5270079Y962126D01*
X5290079Y942126D01*
X5270079Y922126D01*
X5250079Y942126D01*
X3930000Y1832000D02*
X3950000Y1852000D01*
X3970000Y1832000D01*
X3950000Y1812000D01*
X3930000Y1832000D01*
X3098898Y246063D02*
X3118898Y266063D01*
X3138898Y246063D01*
X3118898Y226063D01*
X3098898Y246063D01*
X3120157Y360630D02*
X3140157Y380630D01*
X3160157Y360630D01*
X3140157Y340630D01*
X3120157Y360630D01*
X3196535Y141339D02*
X3216535Y161339D01*
X3236535Y141339D01*
X3216535Y121339D01*
X3196535Y141339D01*
X1878819Y31244D02*
X1898819Y51244D01*
X1918819Y31244D01*
X1898819Y11244D01*
X1878819Y31244D01*
X798898Y33071D02*
X818898Y53071D01*
X838898Y33071D01*
X818898Y13071D01*
X798898Y33071D01*
X2466220Y163386D02*
X2486220Y183386D01*
X2506220Y163386D01*
X2486220Y143386D01*
X2466220Y163386D01*
X1294173Y136614D02*
X1314173Y156614D01*
X1334173Y136614D01*
X1314173Y116614D01*
X1294173Y136614D01*
X4138000Y2463000D02*
X4158000Y2483000D01*
X4178000Y2463000D01*
X4158000Y2443000D01*
X4138000Y2463000D01*
X4707000Y1645000D02*
X4727000Y1665000D01*
X4747000Y1645000D01*
X4727000Y1625000D01*
X4707000Y1645000D01*
X1928000Y2170120D02*
X1948000Y2190120D01*
X1968000Y2170120D01*
X1948000Y2150120D01*
X1928000Y2170120D01*
X3629000Y395000D02*
X3649000Y415000D01*
X3669000Y395000D01*
X3649000Y375000D01*
X3629000Y395000D01*
X4086000Y1830000D02*
X4106000Y1850000D01*
X4126000Y1830000D01*
X4106000Y1810000D01*
X4086000Y1830000D01*
X4232016Y1445984D02*
X4252016Y1465984D01*
X4272016Y1445984D01*
X4252016Y1425984D01*
X4232016Y1445984D01*
X4317000Y887000D02*
X4337000Y907000D01*
X4357000Y887000D01*
X4337000Y867000D01*
X4317000Y887000D01*
X309000Y1048000D02*
X329000Y1068000D01*
X349000Y1048000D01*
X329000Y1028000D01*
X309000Y1048000D01*
X4941000Y250000D02*
X4961000Y270000D01*
X4981000Y250000D01*
X4961000Y230000D01*
X4941000Y250000D01*
X2046000Y446000D02*
X2066000Y466000D01*
X2086000Y446000D01*
X2066000Y426000D01*
X2046000Y446000D01*
X2004000Y2288000D02*
X2024000Y2308000D01*
X2044000Y2288000D01*
X2024000Y2268000D01*
X2004000Y2288000D01*
Y823000D02*
X2024000Y843000D01*
X2044000Y823000D01*
X2024000Y803000D01*
X2004000Y823000D01*
X5612000Y2350000D02*
X5632000Y2370000D01*
X5652000Y2350000D01*
X5632000Y2330000D01*
X5612000Y2350000D01*
X2266000Y483000D02*
X2286000Y503000D01*
X2306000Y483000D01*
X2286000Y463000D01*
X2266000Y483000D01*
X2176000Y397000D02*
X2196000Y417000D01*
X2216000Y397000D01*
X2196000Y377000D01*
X2176000Y397000D01*
X2713000Y808000D02*
X2733000Y828000D01*
X2753000Y808000D01*
X2733000Y788000D01*
X2713000Y808000D01*
X2799000Y773000D02*
X2819000Y793000D01*
X2839000Y773000D01*
X2819000Y753000D01*
X2799000Y773000D01*
X4332000Y1349212D02*
X4352000Y1369212D01*
X4372000Y1349212D01*
X4352000Y1329212D01*
X4332000Y1349212D01*
X2518000Y1542000D02*
X2538000Y1562000D01*
X2558000Y1542000D01*
X2538000Y1522000D01*
X2518000Y1542000D01*
X4310000Y1410000D02*
X4330000Y1430000D01*
X4350000Y1410000D01*
X4330000Y1390000D01*
X4310000Y1410000D01*
X2934234Y295000D02*
X2954234Y315000D01*
X2974234Y295000D01*
X2954234Y275000D01*
X2934234Y295000D01*
X4938000Y752000D02*
X4958000Y772000D01*
X4978000Y752000D01*
X4958000Y732000D01*
X4938000Y752000D01*
X4982000Y1334000D02*
X5002000Y1354000D01*
X5022000Y1334000D01*
X5002000Y1314000D01*
X4982000Y1334000D01*
X986000Y1939000D02*
X1006000Y1959000D01*
X1026000Y1939000D01*
X1006000Y1919000D01*
X986000Y1939000D01*
X3729000Y2329000D02*
X3749000Y2349000D01*
X3769000Y2329000D01*
X3749000Y2309000D01*
X3729000Y2329000D01*
X3023000Y235000D02*
X3043000Y255000D01*
X3063000Y235000D01*
X3043000Y215000D01*
X3023000Y235000D01*
X3566000Y312000D02*
X3586000Y332000D01*
X3606000Y312000D01*
X3586000Y292000D01*
X3566000Y312000D01*
X3868000Y194000D02*
X3888000Y214000D01*
X3908000Y194000D01*
X3888000Y174000D01*
X3868000Y194000D01*
X4687000Y732000D02*
X4707000Y752000D01*
X4727000Y732000D01*
X4707000Y712000D01*
X4687000Y732000D01*
X4489000Y1465000D02*
X4509000Y1485000D01*
X4529000Y1465000D01*
X4509000Y1445000D01*
X4489000Y1465000D01*
X1949000Y2543000D02*
X1969000Y2563000D01*
X1989000Y2543000D01*
X1969000Y2523000D01*
X1949000Y2543000D01*
X4250914Y2241086D02*
X4270914Y2261086D01*
X4290914Y2241086D01*
X4270914Y2221086D01*
X4250914Y2241086D01*
X5660000Y2242000D02*
X5680000Y2262000D01*
X5700000Y2242000D01*
X5680000Y2222000D01*
X5660000Y2242000D01*
X2897000Y2590000D02*
X2917000Y2610000D01*
X2937000Y2590000D01*
X2917000Y2570000D01*
X2897000Y2590000D01*
X3496000Y640000D02*
X3516000Y660000D01*
X3536000Y640000D01*
X3516000Y620000D01*
X3496000Y640000D01*
X4092000Y1521000D02*
X4112000Y1541000D01*
X4132000Y1521000D01*
X4112000Y1501000D01*
X4092000Y1521000D01*
X4150000Y1620000D02*
X4170000Y1640000D01*
X4190000Y1620000D01*
X4170000Y1600000D01*
X4150000Y1620000D01*
X4403000Y205000D02*
X4423000Y225000D01*
X4443000Y205000D01*
X4423000Y185000D01*
X4403000Y205000D01*
X2442000Y282000D02*
X2462000Y302000D01*
X2482000Y282000D01*
X2462000Y262000D01*
X2442000Y282000D01*
X3846000Y465000D02*
X3866000Y485000D01*
X3886000Y465000D01*
X3866000Y445000D01*
X3846000Y465000D01*
X2050156Y521000D02*
X2070156Y541000D01*
X2090156Y521000D01*
X2070156Y501000D01*
X2050156Y521000D01*
X2022000Y1333000D02*
X2042000Y1353000D01*
X2062000Y1333000D01*
X2042000Y1313000D01*
X2022000Y1333000D01*
X1925000Y1414000D02*
X1945000Y1434000D01*
X1965000Y1414000D01*
X1945000Y1394000D01*
X1925000Y1414000D01*
X2623000Y726000D02*
X2643000Y746000D01*
X2663000Y726000D01*
X2643000Y706000D01*
X2623000Y726000D01*
X2405000Y1027000D02*
X2425000Y1047000D01*
X2445000Y1027000D01*
X2425000Y1007000D01*
X2405000Y1027000D01*
X4999000Y298000D02*
X5019000Y318000D01*
X5039000Y298000D01*
X5019000Y278000D01*
X4999000Y298000D01*
X4985394Y2933008D02*
X5005394Y2953008D01*
X5025394Y2933008D01*
X5005394Y2913008D01*
X4985394Y2933008D01*
X3175000Y2548000D02*
X3195000Y2568000D01*
X3215000Y2548000D01*
X3195000Y2528000D01*
X3175000Y2548000D01*
X2474000Y2863000D02*
X2494000Y2883000D01*
X2514000Y2863000D01*
X2494000Y2843000D01*
X2474000Y2863000D01*
Y2174000D02*
X2494000Y2194000D01*
X2514000Y2174000D01*
X2494000Y2154000D01*
X2474000Y2174000D01*
X3912000Y319000D02*
X3932000Y339000D01*
X3952000Y319000D01*
X3932000Y299000D01*
X3912000Y319000D01*
X4686000Y474000D02*
X4706000Y494000D01*
X4726000Y474000D01*
X4706000Y454000D01*
X4686000Y474000D01*
X5613500Y2429500D02*
X5633500Y2449500D01*
X5653500Y2429500D01*
X5633500Y2409500D01*
X5613500Y2429500D01*
X3266472Y1979528D02*
X3286472Y1999528D01*
X3306472Y1979528D01*
X3286472Y1959528D01*
X3266472Y1979528D01*
X2947000Y2062000D02*
X2967000Y2082000D01*
X2987000Y2062000D01*
X2967000Y2042000D01*
X2947000Y2062000D01*
D93*
X5583780Y2279129D02*
G03*
X5583780Y2279129I-20000J0D01*
G01*
Y2179129D02*
G03*
X5583780Y2179129I-20000J0D01*
G01*
Y2079129D02*
G03*
X5583780Y2079129I-20000J0D01*
G01*
Y1979129D02*
G03*
X5583780Y1979129I-20000J0D01*
G01*
Y1879129D02*
G03*
X5583780Y1879129I-20000J0D01*
G01*
Y1779129D02*
G03*
X5583780Y1779129I-20000J0D01*
G01*
Y1679129D02*
G03*
X5583780Y1679129I-20000J0D01*
G01*
Y1579129D02*
G03*
X5583780Y1579129I-20000J0D01*
G01*
Y1479129D02*
G03*
X5583780Y1479129I-20000J0D01*
G01*
Y1379129D02*
G03*
X5583780Y1379129I-20000J0D01*
G01*
Y1279129D02*
G03*
X5583780Y1279129I-20000J0D01*
G01*
Y1179129D02*
G03*
X5583780Y1179129I-20000J0D01*
G01*
Y1079129D02*
G03*
X5583780Y1079129I-20000J0D01*
G01*
Y979129D02*
G03*
X5583780Y979129I-20000J0D01*
G01*
Y879129D02*
G03*
X5583780Y879129I-20000J0D01*
G01*
Y779129D02*
G03*
X5583780Y779129I-20000J0D01*
G01*
X5508778Y2229129D02*
G03*
X5508778Y2229129I-20000J0D01*
G01*
Y2129129D02*
G03*
X5508778Y2129129I-20000J0D01*
G01*
Y2029129D02*
G03*
X5508778Y2029129I-20000J0D01*
G01*
Y1929129D02*
G03*
X5508778Y1929129I-20000J0D01*
G01*
Y1829129D02*
G03*
X5508778Y1829129I-20000J0D01*
G01*
Y1729129D02*
G03*
X5508778Y1729129I-20000J0D01*
G01*
Y1629129D02*
G03*
X5508778Y1629129I-20000J0D01*
G01*
Y1529129D02*
G03*
X5508778Y1529129I-20000J0D01*
G01*
Y1429129D02*
G03*
X5508778Y1429129I-20000J0D01*
G01*
Y1329129D02*
G03*
X5508778Y1329129I-20000J0D01*
G01*
Y1229129D02*
G03*
X5508778Y1229129I-20000J0D01*
G01*
Y1129129D02*
G03*
X5508778Y1129129I-20000J0D01*
G01*
Y1029129D02*
G03*
X5508778Y1029129I-20000J0D01*
G01*
Y929129D02*
G03*
X5508778Y929129I-20000J0D01*
G01*
Y829129D02*
G03*
X5508778Y829129I-20000J0D01*
G01*
Y729129D02*
G03*
X5508778Y729129I-20000J0D01*
G01*
X5583780Y679129D02*
G03*
X5583780Y679129I-20000J0D01*
G01*
X5508778Y629129D02*
G03*
X5508778Y629129I-20000J0D01*
G01*
X5433780Y2279129D02*
G03*
X5433780Y2279129I-20000J0D01*
G01*
Y2179129D02*
G03*
X5433780Y2179129I-20000J0D01*
G01*
Y2079129D02*
G03*
X5433780Y2079129I-20000J0D01*
G01*
Y1979129D02*
G03*
X5433780Y1979129I-20000J0D01*
G01*
Y1879129D02*
G03*
X5433780Y1879129I-20000J0D01*
G01*
Y1779129D02*
G03*
X5433780Y1779129I-20000J0D01*
G01*
Y1679129D02*
G03*
X5433780Y1679129I-20000J0D01*
G01*
Y1579129D02*
G03*
X5433780Y1579129I-20000J0D01*
G01*
Y1479129D02*
G03*
X5433780Y1479129I-20000J0D01*
G01*
Y1379129D02*
G03*
X5433780Y1379129I-20000J0D01*
G01*
Y1279129D02*
G03*
X5433780Y1279129I-20000J0D01*
G01*
Y1179129D02*
G03*
X5433780Y1179129I-20000J0D01*
G01*
Y1079129D02*
G03*
X5433780Y1079129I-20000J0D01*
G01*
Y979129D02*
G03*
X5433780Y979129I-20000J0D01*
G01*
Y879129D02*
G03*
X5433780Y879129I-20000J0D01*
G01*
Y779129D02*
G03*
X5433780Y779129I-20000J0D01*
G01*
Y679129D02*
G03*
X5433780Y679129I-20000J0D01*
G01*
X5358778Y2229129D02*
G03*
X5358778Y2229129I-20000J0D01*
G01*
Y2129129D02*
G03*
X5358778Y2129129I-20000J0D01*
G01*
Y2029129D02*
G03*
X5358778Y2029129I-20000J0D01*
G01*
Y1929129D02*
G03*
X5358778Y1929129I-20000J0D01*
G01*
Y1829129D02*
G03*
X5358778Y1829129I-20000J0D01*
G01*
Y1729129D02*
G03*
X5358778Y1729129I-20000J0D01*
G01*
Y1629129D02*
G03*
X5358778Y1629129I-20000J0D01*
G01*
Y1529129D02*
G03*
X5358778Y1529129I-20000J0D01*
G01*
Y1429129D02*
G03*
X5358778Y1429129I-20000J0D01*
G01*
Y1329129D02*
G03*
X5358778Y1329129I-20000J0D01*
G01*
Y1229129D02*
G03*
X5358778Y1229129I-20000J0D01*
G01*
Y1129129D02*
G03*
X5358778Y1129129I-20000J0D01*
G01*
Y1029129D02*
G03*
X5358778Y1029129I-20000J0D01*
G01*
Y929129D02*
G03*
X5358778Y929129I-20000J0D01*
G01*
Y829129D02*
G03*
X5358778Y829129I-20000J0D01*
G01*
Y729129D02*
G03*
X5358778Y729129I-20000J0D01*
G01*
Y629129D02*
G03*
X5358778Y629129I-20000J0D01*
G01*
%TF.MD5,4efac4c7082de0b3b9a6ce789e8e6c2a*%
M02*
