%TF.GenerationSoftware,Altium Limited,Altium Designer,19.0.15 (446)*%
G04 Layer_Color=255*
%FSLAX26Y26*%
%MOIN*%
%TF.FileFunction,Pads,Top*%
%TF.Part,Single*%
G01*
G75*
%TA.AperFunction,SMDPad,CuDef*%
G04:AMPARAMS|DCode=10|XSize=74.803mil|YSize=125.984mil|CornerRadius=0mil|HoleSize=0mil|Usage=FLASHONLY|Rotation=90.000|XOffset=0mil|YOffset=0mil|HoleType=Round|Shape=Octagon|*
%AMOCTAGOND10*
4,1,8,-0.062992,-0.018701,-0.062992,0.018701,-0.044291,0.037402,0.044291,0.037402,0.062992,0.018701,0.062992,-0.018701,0.044291,-0.037402,-0.044291,-0.037402,-0.062992,-0.018701,0.0*
%
%ADD10OCTAGOND10*%

%ADD11R,0.055118X0.023622*%
%ADD12R,0.070866X0.023622*%
%ADD13R,0.019685X0.011024*%
%ADD14R,0.035433X0.062992*%
G04:AMPARAMS|DCode=15|XSize=25.591mil|YSize=64.961mil|CornerRadius=1.919mil|HoleSize=0mil|Usage=FLASHONLY|Rotation=90.000|XOffset=0mil|YOffset=0mil|HoleType=Round|Shape=RoundedRectangle|*
%AMROUNDEDRECTD15*
21,1,0.025591,0.061122,0,0,90.0*
21,1,0.021752,0.064961,0,0,90.0*
1,1,0.003839,0.030561,0.010876*
1,1,0.003839,0.030561,-0.010876*
1,1,0.003839,-0.030561,-0.010876*
1,1,0.003839,-0.030561,0.010876*
%
%ADD15ROUNDEDRECTD15*%
%ADD16R,0.043307X0.025591*%
G04:AMPARAMS|DCode=17|XSize=17.716mil|YSize=55.118mil|CornerRadius=1.949mil|HoleSize=0mil|Usage=FLASHONLY|Rotation=90.000|XOffset=0mil|YOffset=0mil|HoleType=Round|Shape=RoundedRectangle|*
%AMROUNDEDRECTD17*
21,1,0.017716,0.051221,0,0,90.0*
21,1,0.013819,0.055118,0,0,90.0*
1,1,0.003898,0.025610,0.006910*
1,1,0.003898,0.025610,-0.006910*
1,1,0.003898,-0.025610,-0.006910*
1,1,0.003898,-0.025610,0.006910*
%
%ADD17ROUNDEDRECTD17*%
%ADD18O,0.061024X0.023622*%
%ADD19R,0.074803X0.059055*%
%ADD20R,0.072835X0.053150*%
%ADD21R,0.041339X0.102362*%
%ADD22R,0.043307X0.064961*%
%ADD23R,0.057087X0.110236*%
%ADD24R,0.066929X0.043307*%
%ADD25R,0.053150X0.072835*%
%ADD26R,0.043307X0.066929*%
%ADD27R,0.078740X0.078740*%
%ADD28R,0.039370X0.106299*%
%ADD29R,0.055301X0.061268*%
%ADD30R,0.061268X0.055301*%
%ADD31R,0.102362X0.037402*%
%TA.AperFunction,ComponentPad*%
%ADD36C,0.053150*%
%ADD37R,0.053150X0.053150*%
%ADD38C,0.061024*%
%ADD39R,0.061024X0.061024*%
%ADD40C,0.070866*%
%ADD41R,0.059055X0.059055*%
%ADD42C,0.059055*%
D10*
X4129134Y2863780D02*
D03*
D11*
X4022835Y2804724D02*
D03*
Y2922835D02*
D03*
D12*
X4030709Y2863780D02*
D03*
D13*
X3726693Y3506024D02*
D03*
Y3525709D02*
D03*
Y3545394D02*
D03*
Y3565079D02*
D03*
X3651890D02*
D03*
Y3545394D02*
D03*
Y3525709D02*
D03*
Y3506024D02*
D03*
D14*
X3689291Y3535552D02*
D03*
D15*
X4999016Y2619814D02*
D03*
Y2669814D02*
D03*
Y2719814D02*
D03*
Y2769814D02*
D03*
X4776575Y2619814D02*
D03*
Y2669814D02*
D03*
Y2719814D02*
D03*
Y2769814D02*
D03*
D16*
X2969855Y1983071D02*
D03*
Y1945670D02*
D03*
Y1908268D02*
D03*
X3064344D02*
D03*
Y1983071D02*
D03*
X2760407D02*
D03*
Y1945670D02*
D03*
Y1908268D02*
D03*
X2854895D02*
D03*
Y1983071D02*
D03*
X4014341Y1986221D02*
D03*
Y1948819D02*
D03*
Y1911418D02*
D03*
X4108829D02*
D03*
Y1986221D02*
D03*
X3804892D02*
D03*
Y1948819D02*
D03*
Y1911418D02*
D03*
X3899381D02*
D03*
Y1986221D02*
D03*
D17*
X4404331Y983465D02*
D03*
Y957874D02*
D03*
Y932284D02*
D03*
Y906693D02*
D03*
Y881102D02*
D03*
Y855512D02*
D03*
Y829921D02*
D03*
X4636614Y983465D02*
D03*
Y957874D02*
D03*
Y932284D02*
D03*
Y906693D02*
D03*
Y881102D02*
D03*
Y855512D02*
D03*
Y829921D02*
D03*
X4425197Y1451575D02*
D03*
Y1425984D02*
D03*
Y1400394D02*
D03*
Y1374803D02*
D03*
Y1349213D02*
D03*
Y1323622D02*
D03*
Y1298032D02*
D03*
X4657480Y1451575D02*
D03*
Y1425984D02*
D03*
Y1400394D02*
D03*
Y1374803D02*
D03*
Y1349213D02*
D03*
Y1323622D02*
D03*
Y1298032D02*
D03*
D18*
X4892411Y493766D02*
D03*
Y443766D02*
D03*
Y393766D02*
D03*
Y343766D02*
D03*
Y293766D02*
D03*
Y243766D02*
D03*
Y193766D02*
D03*
X5101072Y493766D02*
D03*
Y443766D02*
D03*
Y393766D02*
D03*
Y343766D02*
D03*
Y293766D02*
D03*
Y243766D02*
D03*
Y193766D02*
D03*
X4338304Y493766D02*
D03*
Y443766D02*
D03*
Y393766D02*
D03*
Y343766D02*
D03*
Y293766D02*
D03*
Y243766D02*
D03*
Y193766D02*
D03*
X4546966Y493766D02*
D03*
Y443766D02*
D03*
Y393766D02*
D03*
Y343766D02*
D03*
Y293766D02*
D03*
Y243766D02*
D03*
Y193766D02*
D03*
X3784197Y493766D02*
D03*
Y443766D02*
D03*
Y393766D02*
D03*
Y343766D02*
D03*
Y293766D02*
D03*
Y243766D02*
D03*
Y193766D02*
D03*
X3992859Y493766D02*
D03*
Y443766D02*
D03*
Y393766D02*
D03*
Y343766D02*
D03*
Y293766D02*
D03*
Y243766D02*
D03*
Y193766D02*
D03*
X3230091Y493766D02*
D03*
Y443766D02*
D03*
Y393766D02*
D03*
Y343766D02*
D03*
Y293766D02*
D03*
Y243766D02*
D03*
Y193766D02*
D03*
X3438752Y493766D02*
D03*
Y443766D02*
D03*
Y393766D02*
D03*
Y343766D02*
D03*
Y293766D02*
D03*
Y243766D02*
D03*
Y193766D02*
D03*
X2675984Y493766D02*
D03*
Y443766D02*
D03*
Y393766D02*
D03*
Y343766D02*
D03*
Y293766D02*
D03*
Y243766D02*
D03*
Y193766D02*
D03*
X2884646Y493766D02*
D03*
Y443766D02*
D03*
Y393766D02*
D03*
Y343766D02*
D03*
Y293766D02*
D03*
Y243766D02*
D03*
Y193766D02*
D03*
D19*
X1270866Y787797D02*
D03*
Y669687D02*
D03*
X1729921Y786221D02*
D03*
Y668111D02*
D03*
X424016Y785434D02*
D03*
Y667323D02*
D03*
X857480Y785040D02*
D03*
Y666930D02*
D03*
D20*
X1440945Y790749D02*
D03*
Y670670D02*
D03*
X1915354Y789174D02*
D03*
Y669095D02*
D03*
X600394Y788386D02*
D03*
Y668308D02*
D03*
X1024803Y787993D02*
D03*
Y667914D02*
D03*
X2474803Y2079331D02*
D03*
Y1959252D02*
D03*
X4374016Y2084449D02*
D03*
Y1964370D02*
D03*
X3517716Y2081299D02*
D03*
Y1961220D02*
D03*
D21*
X3503543Y3244095D02*
D03*
X3680709D02*
D03*
D22*
X4701378Y3026772D02*
D03*
X4589173D02*
D03*
D23*
X4970276Y2372441D02*
D03*
X4850197D02*
D03*
D24*
X3371449Y1979528D02*
D03*
Y2093701D02*
D03*
D25*
X3272030Y2071260D02*
D03*
X3151951D02*
D03*
D26*
X2688583Y2083071D02*
D03*
X2574410D02*
D03*
X4152362Y2076378D02*
D03*
X4266535D02*
D03*
X3732284Y2082677D02*
D03*
X3618110D02*
D03*
D27*
X5621279Y2594129D02*
D03*
Y314129D02*
D03*
D28*
X3399213Y3492913D02*
D03*
X3485827D02*
D03*
D29*
X4065215Y3053012D02*
D03*
X4140080D02*
D03*
X2988945Y1779921D02*
D03*
X3063810D02*
D03*
X2770835D02*
D03*
X2845700D02*
D03*
X4049575Y1766142D02*
D03*
X4124440D02*
D03*
X3782253Y1764173D02*
D03*
X3857117D02*
D03*
X4627196Y1089370D02*
D03*
X4552331D02*
D03*
X4592157Y1554069D02*
D03*
X4517292D02*
D03*
X5122078Y94488D02*
D03*
X5047213D02*
D03*
X5094913Y600000D02*
D03*
X5020048D02*
D03*
X4569322Y86221D02*
D03*
X4494457D02*
D03*
X4537826Y599213D02*
D03*
X4462961D02*
D03*
X4033102Y82284D02*
D03*
X3958237D02*
D03*
X3991369Y600000D02*
D03*
X3916505D02*
D03*
X3466960Y85827D02*
D03*
X3392095D02*
D03*
X3435858Y599213D02*
D03*
X3360993D02*
D03*
X2900031Y79921D02*
D03*
X2825166D02*
D03*
X2875228Y614961D02*
D03*
X2800363D02*
D03*
D30*
X3841339Y2904755D02*
D03*
Y2829890D02*
D03*
X4584537Y2579753D02*
D03*
Y2654618D02*
D03*
X4288583Y1020835D02*
D03*
Y1095700D02*
D03*
X4313779Y1490914D02*
D03*
Y1565779D02*
D03*
X4769685Y902393D02*
D03*
Y827528D02*
D03*
X4779921Y1292944D02*
D03*
Y1218079D02*
D03*
X4780709Y114930D02*
D03*
Y189795D02*
D03*
X4773622Y528377D02*
D03*
Y453512D02*
D03*
X4223622Y112174D02*
D03*
Y187039D02*
D03*
X4214961Y531527D02*
D03*
Y456662D02*
D03*
X3678740Y107056D02*
D03*
Y181921D02*
D03*
X3651968Y526409D02*
D03*
Y451544D02*
D03*
X3117323Y103119D02*
D03*
Y177984D02*
D03*
X3084646Y521291D02*
D03*
Y446426D02*
D03*
X2535039Y105906D02*
D03*
Y180770D02*
D03*
X2533465Y531133D02*
D03*
Y456268D02*
D03*
D31*
X3922441Y3578346D02*
D03*
Y3468110D02*
D03*
X3531496Y3646457D02*
D03*
Y3756693D02*
D03*
D36*
X5563780Y2279129D02*
D03*
Y2179129D02*
D03*
Y2079129D02*
D03*
Y1979129D02*
D03*
Y1879129D02*
D03*
Y1779129D02*
D03*
Y1679129D02*
D03*
Y1579129D02*
D03*
Y1479129D02*
D03*
Y1379129D02*
D03*
Y1279129D02*
D03*
Y1179129D02*
D03*
Y1079129D02*
D03*
Y979129D02*
D03*
Y879129D02*
D03*
Y779129D02*
D03*
X5488778Y2229129D02*
D03*
Y2129129D02*
D03*
Y2029129D02*
D03*
Y1929129D02*
D03*
Y1829129D02*
D03*
Y1729129D02*
D03*
Y1629129D02*
D03*
Y1529129D02*
D03*
Y1429129D02*
D03*
Y1329129D02*
D03*
Y1229129D02*
D03*
Y1129129D02*
D03*
Y1029129D02*
D03*
Y929129D02*
D03*
Y829129D02*
D03*
Y729129D02*
D03*
X5563780Y679129D02*
D03*
X5488778Y629129D02*
D03*
X5413780Y2279129D02*
D03*
Y2179129D02*
D03*
Y2079129D02*
D03*
Y1979129D02*
D03*
Y1879129D02*
D03*
Y1779129D02*
D03*
Y1679129D02*
D03*
Y1579129D02*
D03*
Y1479129D02*
D03*
Y1379129D02*
D03*
Y1279129D02*
D03*
Y1179129D02*
D03*
Y1079129D02*
D03*
Y979129D02*
D03*
Y879129D02*
D03*
Y779129D02*
D03*
Y679129D02*
D03*
X5338778Y2229129D02*
D03*
Y2129129D02*
D03*
Y2029129D02*
D03*
Y1929129D02*
D03*
Y1829129D02*
D03*
Y1729129D02*
D03*
Y1629129D02*
D03*
Y1529129D02*
D03*
Y1429129D02*
D03*
Y1329129D02*
D03*
Y1229129D02*
D03*
Y1129129D02*
D03*
Y1029129D02*
D03*
Y929129D02*
D03*
Y829129D02*
D03*
Y729129D02*
D03*
D37*
Y629129D02*
D03*
D38*
X2131417Y670119D02*
D03*
Y770119D02*
D03*
Y870119D02*
D03*
Y970119D02*
D03*
Y1070119D02*
D03*
Y1170119D02*
D03*
Y1270119D02*
D03*
Y1370119D02*
D03*
Y1470119D02*
D03*
Y1570119D02*
D03*
Y1670119D02*
D03*
Y1770119D02*
D03*
Y1870119D02*
D03*
Y1970119D02*
D03*
Y2070119D02*
D03*
Y2170119D02*
D03*
Y2270119D02*
D03*
Y2370119D02*
D03*
Y2470119D02*
D03*
Y2570119D02*
D03*
Y2670119D02*
D03*
Y2770119D02*
D03*
Y2870119D02*
D03*
Y2970119D02*
D03*
Y3070119D02*
D03*
X2231417Y670119D02*
D03*
Y770119D02*
D03*
Y870119D02*
D03*
Y970119D02*
D03*
Y1070119D02*
D03*
Y1170119D02*
D03*
Y1270119D02*
D03*
Y1370119D02*
D03*
Y1470119D02*
D03*
Y1570119D02*
D03*
Y1670119D02*
D03*
Y1770119D02*
D03*
Y1870119D02*
D03*
Y1970119D02*
D03*
Y2070119D02*
D03*
Y2170119D02*
D03*
Y2270119D02*
D03*
Y2370119D02*
D03*
Y2470119D02*
D03*
Y2570119D02*
D03*
Y2670119D02*
D03*
Y2770119D02*
D03*
Y2870119D02*
D03*
Y2970119D02*
D03*
X131417Y670119D02*
D03*
Y770119D02*
D03*
Y870119D02*
D03*
Y970119D02*
D03*
Y1070119D02*
D03*
Y1170119D02*
D03*
Y1270119D02*
D03*
Y1370119D02*
D03*
Y1470119D02*
D03*
Y1570119D02*
D03*
Y1670119D02*
D03*
Y1770119D02*
D03*
Y1870119D02*
D03*
Y1970119D02*
D03*
Y2070119D02*
D03*
Y2170119D02*
D03*
Y2270119D02*
D03*
Y2370119D02*
D03*
Y2470119D02*
D03*
Y2570119D02*
D03*
Y2670119D02*
D03*
Y2770119D02*
D03*
Y2870119D02*
D03*
Y2970119D02*
D03*
Y3070119D02*
D03*
X231417Y670119D02*
D03*
Y770119D02*
D03*
Y870119D02*
D03*
Y970119D02*
D03*
Y1070119D02*
D03*
Y1170119D02*
D03*
Y1270119D02*
D03*
Y1370119D02*
D03*
Y1470119D02*
D03*
Y1570119D02*
D03*
Y1670119D02*
D03*
Y1770119D02*
D03*
Y1870119D02*
D03*
Y1970119D02*
D03*
Y2070119D02*
D03*
Y2170119D02*
D03*
Y2270119D02*
D03*
Y2370119D02*
D03*
Y2470119D02*
D03*
Y2570119D02*
D03*
Y2670119D02*
D03*
Y2770119D02*
D03*
Y2870119D02*
D03*
Y2970119D02*
D03*
D39*
X2231417Y3070119D02*
D03*
X231417D02*
D03*
D40*
X5403631Y3408573D02*
D03*
X5334034Y3478171D02*
D03*
Y3338976D02*
D03*
X5473228Y3478171D02*
D03*
Y3338976D02*
D03*
D41*
X4664173Y2380710D02*
D03*
D42*
X4564173D02*
D03*
%TF.MD5,918a783efa27f1d5d749e232fa4add41*%
M02*
