%TF.GenerationSoftware,Altium Limited,Altium Designer,19.0.15 (446)*%
G04 Layer_Color=8388736*
%FSLAX26Y26*%
%MOIN*%
%TF.FileFunction,Soldermask,Top*%
%TF.Part,Single*%
G01*
G75*
%TA.AperFunction,SMDPad,CuDef*%
%ADD10R,0.066929X0.098425*%
%ADD11R,0.055301X0.061268*%
%ADD13R,0.061268X0.055301*%
%TA.AperFunction,ComponentPad*%
%ADD48C,0.078866*%
%ADD49R,0.061150X0.061150*%
%ADD50C,0.061150*%
%ADD51C,0.069024*%
%ADD52R,0.069024X0.069024*%
%ADD53R,0.067055X0.067055*%
%ADD54C,0.067055*%
%TA.AperFunction,ViaPad*%
%ADD55C,0.058000*%
%TA.AperFunction,TestPad*%
%ADD56C,0.058000*%
%TA.AperFunction,ViaPad*%
%ADD57C,0.078866*%
%ADD58C,0.025197*%
%TA.AperFunction,SMDPad,CuDef*%
%ADD65O,0.069024X0.031622*%
%ADD66R,0.086740X0.086740*%
%ADD67R,0.051307X0.074929*%
%ADD68R,0.080835X0.061150*%
%ADD69R,0.074929X0.051307*%
%ADD70R,0.061150X0.080835*%
%ADD71R,0.051307X0.033591*%
%ADD72R,0.047307X0.029591*%
G04:AMPARAMS|DCode=73|XSize=82.803mil|YSize=133.984mil|CornerRadius=0mil|HoleSize=0mil|Usage=FLASHONLY|Rotation=90.000|XOffset=0mil|YOffset=0mil|HoleType=Round|Shape=Octagon|*
%AMOCTAGOND73*
4,1,8,-0.066992,-0.020701,-0.066992,0.020701,-0.046291,0.041402,0.046291,0.041402,0.066992,0.020701,0.066992,-0.020701,0.046291,-0.041402,-0.046291,-0.041402,-0.066992,-0.020701,0.0*
%
%ADD73OCTAGOND73*%

%ADD74R,0.063118X0.031622*%
%ADD75R,0.078866X0.031622*%
%ADD76R,0.023685X0.015024*%
%ADD77R,0.039433X0.066992*%
G04:AMPARAMS|DCode=78|XSize=33.591mil|YSize=72.961mil|CornerRadius=5.919mil|HoleSize=0mil|Usage=FLASHONLY|Rotation=90.000|XOffset=0mil|YOffset=0mil|HoleType=Round|Shape=RoundedRectangle|*
%AMROUNDEDRECTD78*
21,1,0.033591,0.061122,0,0,90.0*
21,1,0.021752,0.072961,0,0,90.0*
1,1,0.011839,0.030561,0.010876*
1,1,0.011839,0.030561,-0.010876*
1,1,0.011839,-0.030561,-0.010876*
1,1,0.011839,-0.030561,0.010876*
%
%ADD78ROUNDEDRECTD78*%
G04:AMPARAMS|DCode=79|XSize=21.517mil|YSize=58.918mil|CornerRadius=3.849mil|HoleSize=0mil|Usage=FLASHONLY|Rotation=90.000|XOffset=0mil|YOffset=0mil|HoleType=Round|Shape=RoundedRectangle|*
%AMROUNDEDRECTD79*
21,1,0.021517,0.051221,0,0,90.0*
21,1,0.013819,0.058918,0,0,90.0*
1,1,0.007698,0.025610,0.006910*
1,1,0.007698,0.025610,-0.006910*
1,1,0.007698,-0.025610,-0.006910*
1,1,0.007698,-0.025610,0.006910*
%
%ADD79ROUNDEDRECTD79*%
%ADD80R,0.082803X0.067055*%
%ADD81R,0.049339X0.110362*%
%ADD82R,0.051307X0.072961*%
%ADD83R,0.065087X0.118236*%
%ADD84R,0.047370X0.114299*%
%ADD85R,0.110362X0.045402*%
G36*
X5713928Y436253D02*
X5714442Y436150D01*
X5714939Y435982D01*
X5715409Y435750D01*
X5715845Y435459D01*
X5716239Y435113D01*
X5716585Y434719D01*
X5716876Y434283D01*
X5717108Y433812D01*
X5717277Y433316D01*
X5717379Y432801D01*
X5717413Y432278D01*
Y196058D01*
X5717379Y195535D01*
X5717277Y195020D01*
X5717108Y194524D01*
X5716876Y194054D01*
X5716585Y193618D01*
X5716239Y193223D01*
X5715845Y192878D01*
X5715409Y192586D01*
X5714939Y192354D01*
X5714442Y192186D01*
X5713928Y192083D01*
X5713405Y192049D01*
X5370688D01*
X5370165Y192083D01*
X5369651Y192186D01*
X5369154Y192354D01*
X5368684Y192586D01*
X5368248Y192878D01*
X5367854Y193223D01*
X5367508Y193618D01*
X5367217Y194054D01*
X5366985Y194524D01*
X5366816Y195020D01*
X5366714Y195535D01*
X5366680Y196058D01*
Y314168D01*
Y321909D01*
X5366714Y322433D01*
X5368735Y337783D01*
Y337783D01*
X5368837Y338297D01*
X5372844Y353252D01*
X5373013Y353749D01*
X5378938Y368053D01*
X5379170Y368523D01*
X5379170Y368524D01*
X5386911Y381932D01*
X5387203Y382368D01*
X5396628Y394651D01*
X5396974Y395045D01*
X5407921Y405993D01*
X5408316Y406339D01*
X5420599Y415764D01*
X5421035Y416055D01*
X5434443Y423797D01*
X5434758Y423952D01*
X5434913Y424029D01*
X5449218Y429954D01*
X5449714Y430122D01*
X5464669Y434129D01*
X5465184Y434232D01*
X5480534Y436252D01*
X5481057Y436287D01*
X5488798D01*
X5713405Y436287D01*
X5713928Y436253D01*
D02*
G37*
G36*
Y2716174D02*
X5714442Y2716072D01*
X5714939Y2715903D01*
X5715409Y2715671D01*
X5715845Y2715380D01*
X5716239Y2715034D01*
X5716585Y2714640D01*
X5716876Y2714204D01*
X5717108Y2713734D01*
X5717277Y2713237D01*
X5717379Y2712723D01*
X5717413Y2712200D01*
Y2475979D01*
X5717379Y2475456D01*
X5717277Y2474942D01*
X5717108Y2474445D01*
X5716876Y2473975D01*
X5716585Y2473539D01*
X5716239Y2473145D01*
X5715845Y2472799D01*
X5715409Y2472508D01*
X5714939Y2472276D01*
X5714442Y2472107D01*
X5713928Y2472005D01*
X5713405Y2471970D01*
X5481057D01*
X5480534Y2472005D01*
X5465184Y2474026D01*
X5464669Y2474128D01*
X5449714Y2478135D01*
X5449218Y2478304D01*
X5434913Y2484229D01*
X5434758Y2484305D01*
X5434443Y2484461D01*
X5421035Y2492202D01*
X5420599Y2492493D01*
X5408316Y2501919D01*
X5407921Y2502264D01*
X5396974Y2513212D01*
X5396628Y2513606D01*
X5387203Y2525890D01*
X5386911Y2526326D01*
X5379170Y2539733D01*
X5379170Y2539734D01*
X5378938Y2540204D01*
X5373013Y2554509D01*
X5372844Y2555005D01*
X5368837Y2569960D01*
X5368735Y2570474D01*
Y2570475D01*
X5366714Y2585825D01*
X5366680Y2586348D01*
Y2594089D01*
Y2712200D01*
X5366714Y2712723D01*
X5366816Y2713237D01*
X5366985Y2713734D01*
X5367217Y2714204D01*
X5367508Y2714640D01*
X5367854Y2715034D01*
X5368248Y2715380D01*
X5368684Y2715671D01*
X5369154Y2715903D01*
X5369651Y2716072D01*
X5370165Y2716174D01*
X5370688Y2716208D01*
X5713405D01*
X5713928Y2716174D01*
D02*
G37*
D10*
X4874803Y3417323D02*
D03*
Y3574803D02*
D03*
D11*
X3916504Y600000D02*
D03*
X3991370D02*
D03*
X3360992Y599212D02*
D03*
X3435858D02*
D03*
X5047214Y94488D02*
D03*
X5122078D02*
D03*
X4105936Y1986614D02*
D03*
X4031072D02*
D03*
X4065214Y3053012D02*
D03*
X4140080D02*
D03*
X3013836Y1983464D02*
D03*
X2938972D02*
D03*
X2813702Y1987532D02*
D03*
X2738838D02*
D03*
X3900032Y1983464D02*
D03*
X3825166D02*
D03*
X4627196Y1089370D02*
D03*
X4552332D02*
D03*
X4592156Y1554070D02*
D03*
X4517292D02*
D03*
X5094912Y600000D02*
D03*
X5020048D02*
D03*
X4569322Y86220D02*
D03*
X4494458D02*
D03*
X4537826Y599212D02*
D03*
X4462962D02*
D03*
X4033102Y82284D02*
D03*
X3958236D02*
D03*
X3466960Y85826D02*
D03*
X3392096D02*
D03*
X2900030Y79922D02*
D03*
X2825166D02*
D03*
X2875228Y614960D02*
D03*
X2800362D02*
D03*
D13*
X4779922Y1218080D02*
D03*
Y1292944D02*
D03*
X3841338Y2904756D02*
D03*
Y2829890D02*
D03*
X4584536Y2579754D02*
D03*
Y2654618D02*
D03*
X4288582Y1020836D02*
D03*
Y1095700D02*
D03*
X4313780Y1490914D02*
D03*
Y1565778D02*
D03*
X4769686Y902394D02*
D03*
Y827528D02*
D03*
X4780708Y114930D02*
D03*
Y189794D02*
D03*
X4773622Y528378D02*
D03*
Y453512D02*
D03*
X4223622Y112174D02*
D03*
Y187038D02*
D03*
X4214960Y531526D02*
D03*
Y456662D02*
D03*
X3678740Y107056D02*
D03*
Y181920D02*
D03*
X3651968Y526408D02*
D03*
Y451544D02*
D03*
X3117322Y103118D02*
D03*
Y177984D02*
D03*
X3084646Y521290D02*
D03*
Y446426D02*
D03*
X2535040Y105906D02*
D03*
Y180770D02*
D03*
X2533464Y531134D02*
D03*
Y456268D02*
D03*
D48*
X5403631Y3408573D02*
D03*
X5334034Y3338976D02*
D03*
Y3478171D02*
D03*
X5473228Y3338976D02*
D03*
Y3478171D02*
D03*
D49*
X5338778Y629128D02*
D03*
D50*
Y729128D02*
D03*
Y829128D02*
D03*
Y929128D02*
D03*
Y1029128D02*
D03*
Y1129128D02*
D03*
Y1229128D02*
D03*
Y1329128D02*
D03*
Y1429128D02*
D03*
Y1529128D02*
D03*
Y1629128D02*
D03*
Y1729128D02*
D03*
Y1829128D02*
D03*
Y1929128D02*
D03*
Y2029128D02*
D03*
Y2129128D02*
D03*
Y2229128D02*
D03*
X5413780Y679128D02*
D03*
Y779128D02*
D03*
Y879128D02*
D03*
Y979128D02*
D03*
Y1079128D02*
D03*
Y1179128D02*
D03*
Y1279128D02*
D03*
Y1379128D02*
D03*
Y1479128D02*
D03*
Y1579128D02*
D03*
Y1679128D02*
D03*
Y1779128D02*
D03*
Y1879128D02*
D03*
Y1979128D02*
D03*
Y2079128D02*
D03*
Y2179128D02*
D03*
Y2279128D02*
D03*
X5488778Y629128D02*
D03*
X5563780Y679128D02*
D03*
X5488778Y729128D02*
D03*
Y829128D02*
D03*
Y929128D02*
D03*
Y1029128D02*
D03*
Y1129128D02*
D03*
Y1229128D02*
D03*
Y1329128D02*
D03*
Y1429128D02*
D03*
Y1529128D02*
D03*
Y1629128D02*
D03*
Y1729128D02*
D03*
Y1829128D02*
D03*
Y1929128D02*
D03*
Y2029128D02*
D03*
Y2129128D02*
D03*
Y2229128D02*
D03*
X5563780Y779128D02*
D03*
Y879128D02*
D03*
Y979128D02*
D03*
Y1079128D02*
D03*
Y1179128D02*
D03*
Y1279128D02*
D03*
Y1379128D02*
D03*
Y1479128D02*
D03*
Y1579128D02*
D03*
Y1679128D02*
D03*
Y1779128D02*
D03*
Y1879128D02*
D03*
Y1979128D02*
D03*
Y2079128D02*
D03*
Y2179128D02*
D03*
Y2279128D02*
D03*
D51*
X2131418Y670118D02*
D03*
Y770118D02*
D03*
Y870118D02*
D03*
Y970118D02*
D03*
Y1070118D02*
D03*
Y1170118D02*
D03*
Y1270118D02*
D03*
Y1370118D02*
D03*
Y1470118D02*
D03*
Y1570118D02*
D03*
Y1670118D02*
D03*
Y1770118D02*
D03*
Y1870118D02*
D03*
Y1970118D02*
D03*
Y2070118D02*
D03*
Y2170118D02*
D03*
Y2270118D02*
D03*
Y2370118D02*
D03*
Y2470118D02*
D03*
Y2570118D02*
D03*
Y2670118D02*
D03*
Y2770118D02*
D03*
Y2870118D02*
D03*
Y2970118D02*
D03*
Y3070118D02*
D03*
X2231418Y670118D02*
D03*
Y770118D02*
D03*
Y870118D02*
D03*
Y970118D02*
D03*
Y1070118D02*
D03*
Y1170118D02*
D03*
Y1270118D02*
D03*
Y1370118D02*
D03*
Y1470118D02*
D03*
Y1570118D02*
D03*
Y1670118D02*
D03*
Y1770118D02*
D03*
Y1870118D02*
D03*
Y1970118D02*
D03*
Y2070118D02*
D03*
Y2170118D02*
D03*
Y2270118D02*
D03*
Y2370118D02*
D03*
Y2470118D02*
D03*
Y2570118D02*
D03*
Y2670118D02*
D03*
Y2770118D02*
D03*
Y2870118D02*
D03*
Y2970118D02*
D03*
X131418Y670118D02*
D03*
Y770118D02*
D03*
Y870118D02*
D03*
Y970118D02*
D03*
Y1070118D02*
D03*
Y1170118D02*
D03*
Y1270118D02*
D03*
Y1370118D02*
D03*
Y1470118D02*
D03*
Y1570118D02*
D03*
Y1670118D02*
D03*
Y1770118D02*
D03*
Y1870118D02*
D03*
Y1970118D02*
D03*
Y2070118D02*
D03*
Y2170118D02*
D03*
Y2270118D02*
D03*
Y2370118D02*
D03*
Y2470118D02*
D03*
Y2570118D02*
D03*
Y2670118D02*
D03*
Y2770118D02*
D03*
Y2870118D02*
D03*
Y2970118D02*
D03*
Y3070118D02*
D03*
X231418Y670118D02*
D03*
Y770118D02*
D03*
Y870118D02*
D03*
Y970118D02*
D03*
Y1070118D02*
D03*
Y1170118D02*
D03*
Y1270118D02*
D03*
Y1370118D02*
D03*
Y1470118D02*
D03*
Y1570118D02*
D03*
Y1670118D02*
D03*
Y1770118D02*
D03*
Y1870118D02*
D03*
Y1970118D02*
D03*
Y2070118D02*
D03*
Y2170118D02*
D03*
Y2270118D02*
D03*
Y2370118D02*
D03*
Y2470118D02*
D03*
Y2570118D02*
D03*
Y2670118D02*
D03*
Y2770118D02*
D03*
Y2870118D02*
D03*
Y2970118D02*
D03*
D52*
X2231418Y3070118D02*
D03*
X231418D02*
D03*
D53*
X4664174Y2380710D02*
D03*
D54*
X4564174D02*
D03*
D55*
X4874803Y3574803D02*
D03*
Y3417323D02*
D03*
X3502756Y2565354D02*
D03*
X5344095Y2909843D02*
D03*
X2862231Y1459055D02*
D03*
X2913122Y1308822D02*
D03*
X3635346Y875591D02*
D03*
X1714000Y98000D02*
D03*
X3054000Y140000D02*
D03*
X4655512Y2153150D02*
D03*
X2857480Y2176772D02*
D03*
X3922440Y3466141D02*
D03*
X4325016Y1425984D02*
D03*
X4589174Y3026772D02*
D03*
X3531496Y3756692D02*
D03*
X4022834Y2922834D02*
D03*
X4031072Y1986614D02*
D03*
X4389000Y694882D02*
D03*
X4589370Y720079D02*
D03*
X5094912Y600000D02*
D03*
X4214960Y531526D02*
D03*
X4097000Y527953D02*
D03*
X2277098Y337252D02*
D03*
X2179528Y502756D02*
D03*
X2160236Y399606D02*
D03*
X2391748Y421276D02*
D03*
X4750196Y1374804D02*
D03*
X4775197Y2611811D02*
D03*
X4705118Y934130D02*
D03*
X4548376Y2483000D02*
D03*
X4473228Y901181D02*
D03*
X3790551Y1769449D02*
D03*
X4284646Y871260D02*
D03*
X4203543Y833465D02*
D03*
X4341248Y917598D02*
D03*
X3156693Y367716D02*
D03*
X4973228Y911417D02*
D03*
X4113000Y434000D02*
D03*
X5014000Y393766D02*
D03*
X4322000Y537000D02*
D03*
X3506299Y658268D02*
D03*
X3557296Y608268D02*
D03*
X1571650Y611022D02*
D03*
X1915354Y669096D02*
D03*
X3841338Y2904756D02*
D03*
X4065214Y3053012D02*
D03*
X4012134Y2483000D02*
D03*
X4404000Y548000D02*
D03*
X3679922Y2361418D02*
D03*
X3845000Y293766D02*
D03*
X5661000Y1310000D02*
D03*
X2367748Y991000D02*
D03*
X2357000Y281504D02*
D03*
X3889000Y393766D02*
D03*
X1995000Y1244000D02*
D03*
X5342000Y426000D02*
D03*
X4967000Y1501394D02*
D03*
X5022000Y1576000D02*
D03*
X3970078Y1722834D02*
D03*
X3665000Y680000D02*
D03*
X2340000Y2431000D02*
D03*
X4563000Y985000D02*
D03*
X5114000D02*
D03*
X3910630Y2254166D02*
D03*
X3974000Y2261000D02*
D03*
X4472000Y1493000D02*
D03*
X5380000Y514000D02*
D03*
X2965000Y475000D02*
D03*
X5451000Y494000D02*
D03*
X333000Y665000D02*
D03*
X4110000Y591000D02*
D03*
X4051700Y1639370D02*
D03*
X4111000Y1374000D02*
D03*
X386000Y1632000D02*
D03*
X383000Y876000D02*
D03*
X295000Y928000D02*
D03*
X3349888Y532000D02*
D03*
X4956000Y273766D02*
D03*
X2403000Y786000D02*
D03*
X2336000Y693000D02*
D03*
X2050394Y1463606D02*
D03*
X2409000Y1353000D02*
D03*
X5264000Y1191000D02*
D03*
X2407000Y1108000D02*
D03*
X2312000Y1121000D02*
D03*
X1924804Y2197244D02*
D03*
X2031000Y726000D02*
D03*
X2752512Y337252D02*
D03*
X2782000Y482000D02*
D03*
X4294000Y682000D02*
D03*
X5282000Y294000D02*
D03*
X2587000Y2485000D02*
D03*
X4640064Y646064D02*
D03*
X5265716Y734716D02*
D03*
X5024000Y1353000D02*
D03*
X4420000Y2069000D02*
D03*
D56*
X4687795Y3571260D02*
D03*
D57*
X5473228Y3478171D02*
D03*
Y3338976D02*
D03*
X5334034Y3478171D02*
D03*
Y3338976D02*
D03*
X5403631Y3408573D02*
D03*
D58*
X3689292Y3519804D02*
D03*
Y3550552D02*
D03*
D65*
X5101072Y193766D02*
D03*
Y243766D02*
D03*
Y293766D02*
D03*
Y343766D02*
D03*
Y393766D02*
D03*
Y443766D02*
D03*
Y493766D02*
D03*
X4892410Y193766D02*
D03*
Y243766D02*
D03*
Y293766D02*
D03*
Y343766D02*
D03*
Y393766D02*
D03*
Y443766D02*
D03*
Y493766D02*
D03*
X4338304D02*
D03*
Y443766D02*
D03*
Y393766D02*
D03*
Y343766D02*
D03*
Y293766D02*
D03*
Y243766D02*
D03*
Y193766D02*
D03*
X4546966Y493766D02*
D03*
Y443766D02*
D03*
Y393766D02*
D03*
Y343766D02*
D03*
Y293766D02*
D03*
Y243766D02*
D03*
Y193766D02*
D03*
X3784198Y493766D02*
D03*
Y443766D02*
D03*
Y393766D02*
D03*
Y343766D02*
D03*
Y293766D02*
D03*
Y243766D02*
D03*
Y193766D02*
D03*
X3992858Y493766D02*
D03*
Y443766D02*
D03*
Y393766D02*
D03*
Y343766D02*
D03*
Y293766D02*
D03*
Y243766D02*
D03*
Y193766D02*
D03*
X3230090Y493766D02*
D03*
Y443766D02*
D03*
Y393766D02*
D03*
Y343766D02*
D03*
Y293766D02*
D03*
Y243766D02*
D03*
Y193766D02*
D03*
X3438752Y493766D02*
D03*
Y443766D02*
D03*
Y393766D02*
D03*
Y343766D02*
D03*
Y293766D02*
D03*
Y243766D02*
D03*
Y193766D02*
D03*
X2675984Y493766D02*
D03*
Y443766D02*
D03*
Y393766D02*
D03*
Y343766D02*
D03*
Y293766D02*
D03*
Y243766D02*
D03*
Y193766D02*
D03*
X2884646Y493766D02*
D03*
Y443766D02*
D03*
Y393766D02*
D03*
Y343766D02*
D03*
Y293766D02*
D03*
Y243766D02*
D03*
Y193766D02*
D03*
D66*
X5621278Y314128D02*
D03*
Y2594128D02*
D03*
D67*
X4329528Y1888584D02*
D03*
X4215354D02*
D03*
X3590090Y1880710D02*
D03*
X3704264D02*
D03*
X2546390Y1881102D02*
D03*
X2660562D02*
D03*
D68*
X4437008Y1776576D02*
D03*
Y1896654D02*
D03*
X3489696Y1759252D02*
D03*
Y1879332D02*
D03*
X1440944Y790748D02*
D03*
Y670670D02*
D03*
X1915354Y789174D02*
D03*
Y669096D02*
D03*
X600394Y788386D02*
D03*
Y668308D02*
D03*
X1024804Y787992D02*
D03*
Y667914D02*
D03*
X2446784Y1877362D02*
D03*
Y1757284D02*
D03*
D69*
X3343430Y1891732D02*
D03*
Y1777560D02*
D03*
D70*
X3123932Y1869292D02*
D03*
X3244010D02*
D03*
D71*
X4116876Y1870078D02*
D03*
Y1795276D02*
D03*
X3922804Y1876770D02*
D03*
Y1801968D02*
D03*
X3022068Y1855118D02*
D03*
Y1780314D02*
D03*
X2835124Y1857482D02*
D03*
Y1782678D02*
D03*
D72*
X4022386Y1795276D02*
D03*
Y1832678D02*
D03*
Y1870078D02*
D03*
X3828316Y1801968D02*
D03*
Y1839370D02*
D03*
Y1876770D02*
D03*
X2927580Y1780314D02*
D03*
Y1817716D02*
D03*
Y1855118D02*
D03*
X2740636Y1782678D02*
D03*
Y1820080D02*
D03*
Y1857482D02*
D03*
D73*
X4129134Y2863780D02*
D03*
D74*
X4022834Y2804724D02*
D03*
Y2922834D02*
D03*
D75*
X4030708Y2863780D02*
D03*
D76*
X3726692Y3506024D02*
D03*
Y3525710D02*
D03*
Y3545394D02*
D03*
Y3565080D02*
D03*
X3651890D02*
D03*
Y3545394D02*
D03*
Y3525710D02*
D03*
Y3506024D02*
D03*
D77*
X3689292Y3535552D02*
D03*
D78*
X4999016Y2619814D02*
D03*
Y2669814D02*
D03*
Y2719814D02*
D03*
Y2769814D02*
D03*
X4776574Y2619814D02*
D03*
Y2669814D02*
D03*
Y2719814D02*
D03*
Y2769814D02*
D03*
D79*
X4404330Y983464D02*
D03*
Y957874D02*
D03*
Y932284D02*
D03*
Y906692D02*
D03*
Y881102D02*
D03*
Y855512D02*
D03*
Y829922D02*
D03*
X4636614Y983464D02*
D03*
Y957874D02*
D03*
Y932284D02*
D03*
Y906692D02*
D03*
Y881102D02*
D03*
Y855512D02*
D03*
Y829922D02*
D03*
X4425196Y1451574D02*
D03*
Y1425984D02*
D03*
Y1400394D02*
D03*
Y1374804D02*
D03*
Y1349212D02*
D03*
Y1323622D02*
D03*
Y1298032D02*
D03*
X4657480Y1451574D02*
D03*
Y1425984D02*
D03*
Y1400394D02*
D03*
Y1374804D02*
D03*
Y1349212D02*
D03*
Y1323622D02*
D03*
Y1298032D02*
D03*
D80*
X1270866Y787798D02*
D03*
Y669688D02*
D03*
X1729922Y786222D02*
D03*
Y668110D02*
D03*
X424016Y785434D02*
D03*
Y667324D02*
D03*
X857480Y785040D02*
D03*
Y666930D02*
D03*
D81*
X3503544Y3244094D02*
D03*
X3680708D02*
D03*
D82*
X4701378Y3026772D02*
D03*
X4589174D02*
D03*
D83*
X4970276Y2372442D02*
D03*
X4850196D02*
D03*
D84*
X3399212Y3492914D02*
D03*
X3485826D02*
D03*
D85*
X3922442Y3578346D02*
D03*
Y3468110D02*
D03*
X3531496Y3646456D02*
D03*
Y3756692D02*
D03*
%TF.MD5,a951579d24a25af53921ec467ee18b98*%
M02*
