%TF.GenerationSoftware,Altium Limited,Altium Designer,19.0.15 (446)*%
G04 Layer_Color=0*
%FSLAX26Y26*%
%MOIN*%
%TF.FileFunction,Plated,1,2,PTH,Drill*%
%TF.Part,Single*%
G01*
G75*
%TA.AperFunction,ComponentDrill*%
%ADD85C,0.033465*%
%ADD86C,0.040945*%
%ADD87C,0.035433*%
%TA.AperFunction,ViaDrill,NotFilled*%
%ADD88C,0.007874*%
%ADD89C,0.047244*%
%ADD90C,0.028000*%
D85*
X5563780Y2279129D02*
D03*
Y2179129D02*
D03*
Y2079129D02*
D03*
Y1979129D02*
D03*
Y1879129D02*
D03*
Y1779129D02*
D03*
Y1679129D02*
D03*
Y1579129D02*
D03*
Y1479129D02*
D03*
Y1379129D02*
D03*
Y1279129D02*
D03*
Y1179129D02*
D03*
Y1079129D02*
D03*
Y979129D02*
D03*
Y879129D02*
D03*
Y779129D02*
D03*
X5488778Y2229129D02*
D03*
Y2129129D02*
D03*
Y2029129D02*
D03*
Y1929129D02*
D03*
Y1829129D02*
D03*
Y1729129D02*
D03*
Y1629129D02*
D03*
Y1529129D02*
D03*
Y1429129D02*
D03*
Y1329129D02*
D03*
Y1229129D02*
D03*
Y1129129D02*
D03*
Y1029129D02*
D03*
Y929129D02*
D03*
Y829129D02*
D03*
Y729129D02*
D03*
X5563780Y679129D02*
D03*
X5488778Y629129D02*
D03*
X5413780Y2279129D02*
D03*
Y2179129D02*
D03*
Y2079129D02*
D03*
Y1979129D02*
D03*
Y1879129D02*
D03*
Y1779129D02*
D03*
Y1679129D02*
D03*
Y1579129D02*
D03*
Y1479129D02*
D03*
Y1379129D02*
D03*
Y1279129D02*
D03*
Y1179129D02*
D03*
Y1079129D02*
D03*
Y979129D02*
D03*
Y879129D02*
D03*
Y779129D02*
D03*
Y679129D02*
D03*
X5338778Y2229129D02*
D03*
Y2129129D02*
D03*
Y2029129D02*
D03*
Y1929129D02*
D03*
Y1829129D02*
D03*
Y1729129D02*
D03*
Y1629129D02*
D03*
Y1529129D02*
D03*
Y1429129D02*
D03*
Y1329129D02*
D03*
Y1229129D02*
D03*
Y1129129D02*
D03*
Y1029129D02*
D03*
Y929129D02*
D03*
Y829129D02*
D03*
Y729129D02*
D03*
Y629129D02*
D03*
D86*
X2131417Y670119D02*
D03*
Y770119D02*
D03*
Y870119D02*
D03*
Y970119D02*
D03*
Y1070119D02*
D03*
Y1170119D02*
D03*
Y1270119D02*
D03*
Y1370119D02*
D03*
Y1470119D02*
D03*
Y1570119D02*
D03*
Y1670119D02*
D03*
Y1770119D02*
D03*
Y1870119D02*
D03*
Y1970119D02*
D03*
Y2070119D02*
D03*
Y2170119D02*
D03*
Y2270119D02*
D03*
Y2370119D02*
D03*
Y2470119D02*
D03*
Y2570119D02*
D03*
Y2670119D02*
D03*
Y2770119D02*
D03*
Y2870119D02*
D03*
Y2970119D02*
D03*
Y3070119D02*
D03*
X2231417Y670119D02*
D03*
Y770119D02*
D03*
Y870119D02*
D03*
Y970119D02*
D03*
Y1070119D02*
D03*
Y1170119D02*
D03*
Y1270119D02*
D03*
Y1370119D02*
D03*
Y1470119D02*
D03*
Y1570119D02*
D03*
Y1670119D02*
D03*
Y1770119D02*
D03*
Y1870119D02*
D03*
Y1970119D02*
D03*
Y2070119D02*
D03*
Y2170119D02*
D03*
Y2270119D02*
D03*
Y2370119D02*
D03*
Y2470119D02*
D03*
Y2570119D02*
D03*
Y2670119D02*
D03*
Y2770119D02*
D03*
Y2870119D02*
D03*
Y2970119D02*
D03*
Y3070119D02*
D03*
X131417Y670119D02*
D03*
Y770119D02*
D03*
Y870119D02*
D03*
Y970119D02*
D03*
Y1070119D02*
D03*
Y1170119D02*
D03*
Y1270119D02*
D03*
Y1370119D02*
D03*
Y1470119D02*
D03*
Y1570119D02*
D03*
Y1670119D02*
D03*
Y1770119D02*
D03*
Y1870119D02*
D03*
Y1970119D02*
D03*
Y2070119D02*
D03*
Y2170119D02*
D03*
Y2270119D02*
D03*
Y2370119D02*
D03*
Y2470119D02*
D03*
Y2570119D02*
D03*
Y2670119D02*
D03*
Y2770119D02*
D03*
Y2870119D02*
D03*
Y2970119D02*
D03*
Y3070119D02*
D03*
X231417Y670119D02*
D03*
Y770119D02*
D03*
Y870119D02*
D03*
Y970119D02*
D03*
Y1070119D02*
D03*
Y1170119D02*
D03*
Y1270119D02*
D03*
Y1370119D02*
D03*
Y1470119D02*
D03*
Y1570119D02*
D03*
Y1670119D02*
D03*
Y1770119D02*
D03*
Y1870119D02*
D03*
Y1970119D02*
D03*
Y2070119D02*
D03*
Y2170119D02*
D03*
Y2270119D02*
D03*
Y2370119D02*
D03*
Y2470119D02*
D03*
Y2570119D02*
D03*
Y2670119D02*
D03*
Y2770119D02*
D03*
Y2870119D02*
D03*
Y2970119D02*
D03*
Y3070119D02*
D03*
D87*
X4664173Y2380710D02*
D03*
X4564173D02*
D03*
D88*
X3689291Y3519804D02*
D03*
Y3550552D02*
D03*
D89*
X5473228Y3338976D02*
D03*
Y3478171D02*
D03*
X5403631Y3408573D02*
D03*
X5334034Y3478171D02*
D03*
Y3338976D02*
D03*
D90*
X3115748Y1461417D02*
D03*
X3531496Y3756692D02*
D03*
X4737795Y2933465D02*
D03*
X4807087Y2979528D02*
D03*
X4060214Y3048012D02*
D03*
X4589173Y3026772D02*
D03*
X3922442Y3468110D02*
D03*
X3841338Y2904756D02*
D03*
X4451575Y2862205D02*
D03*
X4022834Y2922834D02*
D03*
X4710236Y3254724D02*
D03*
X2047638Y1172835D02*
D03*
X2546457Y1224803D02*
D03*
X2663386Y1312205D02*
D03*
X2714567Y1209055D02*
D03*
X2572441Y1294488D02*
D03*
X4453150Y1509449D02*
D03*
X4472047Y876378D02*
D03*
X4694095Y1016535D02*
D03*
X4684646Y1249213D02*
D03*
X5166535Y528346D02*
D03*
X4270708Y404000D02*
D03*
X4194960Y381834D02*
D03*
X3301181Y469291D02*
D03*
X5270079Y942126D02*
D03*
X3950000Y1832000D02*
D03*
X3118898Y246063D02*
D03*
X3140157Y360630D02*
D03*
X3216535Y141339D02*
D03*
X1898819Y31244D02*
D03*
X818898Y33071D02*
D03*
X2486220Y163386D02*
D03*
X1314173Y136614D02*
D03*
X4158000Y2463000D02*
D03*
X4727000Y1645000D02*
D03*
X1948000Y2170120D02*
D03*
X3649000Y395000D02*
D03*
X4106000Y1830000D02*
D03*
X4252016Y1445984D02*
D03*
X4337000Y887000D02*
D03*
X329000Y1048000D02*
D03*
X4961000Y250000D02*
D03*
X2066000Y446000D02*
D03*
X2024000Y2288000D02*
D03*
Y823000D02*
D03*
X5632000Y2350000D02*
D03*
X2286000Y483000D02*
D03*
X2196000Y397000D02*
D03*
X2733000Y808000D02*
D03*
X2819000Y773000D02*
D03*
X4352000Y1349212D02*
D03*
X2538000Y1542000D02*
D03*
X4330000Y1410000D02*
D03*
X2954234Y295000D02*
D03*
X4958000Y752000D02*
D03*
X5002000Y1334000D02*
D03*
X1006000Y1939000D02*
D03*
X3749000Y2329000D02*
D03*
X3043000Y235000D02*
D03*
X3586000Y312000D02*
D03*
X3888000Y194000D02*
D03*
X4707000Y732000D02*
D03*
X4509000Y1465000D02*
D03*
X1969000Y2543000D02*
D03*
X4270914Y2241086D02*
D03*
X5680000Y2242000D02*
D03*
X2917000Y2590000D02*
D03*
X3516000Y640000D02*
D03*
X4112000Y1521000D02*
D03*
X4170000Y1620000D02*
D03*
X4423000Y205000D02*
D03*
X2462000Y282000D02*
D03*
X3866000Y465000D02*
D03*
X2070156Y521000D02*
D03*
X2042000Y1333000D02*
D03*
X1945000Y1414000D02*
D03*
X2643000Y726000D02*
D03*
X2425000Y1027000D02*
D03*
X5019000Y298000D02*
D03*
X5005394Y2933008D02*
D03*
X3195000Y2548000D02*
D03*
X2494000Y2863000D02*
D03*
Y2174000D02*
D03*
X3932000Y319000D02*
D03*
X4706000Y474000D02*
D03*
X5633500Y2429500D02*
D03*
X3286472Y1979528D02*
D03*
X2967000Y2062000D02*
D03*
%TF.MD5,f72a13b876d03527cabd240ef397ff81*%
M02*
