%TF.GenerationSoftware,Altium Limited,Altium Designer,19.0.15 (446)*%
G04 Layer_Color=8388736*
%FSLAX26Y26*%
%MOIN*%
%TF.FileFunction,Other,Mechanical_10*%
%TF.Part,Single*%
G01*
G75*
%TA.AperFunction,NonConductor*%
%ADD57C,0.007874*%
D57*
X4173304Y64838D02*
Y234374D01*
X4273942D01*
Y64838D02*
Y234374D01*
X4173304Y64838D02*
X4273942D01*
X3628422Y59720D02*
Y229256D01*
X3729060D01*
Y59720D02*
Y229256D01*
X3628422Y59720D02*
X3729060D01*
X2777830Y29602D02*
X2947366D01*
X2777830D02*
Y130240D01*
X2947366D01*
Y29602D02*
Y130240D01*
X3067004Y55784D02*
Y225318D01*
X3167642D01*
Y55784D02*
Y225318D01*
X3067004Y55784D02*
X3167642D01*
X4002240Y1715822D02*
Y1816460D01*
Y1715822D02*
X4171776D01*
Y1816460D01*
X4002240D02*
X4171776D01*
X3734918Y1713854D02*
Y1814492D01*
Y1713854D02*
X3904452D01*
Y1814492D01*
X3734918D02*
X3904452D01*
X2941610Y1729602D02*
Y1830240D01*
Y1729602D02*
X3111146D01*
Y1830240D01*
X2941610D02*
X3111146D01*
X2723500Y1729602D02*
Y1830240D01*
Y1729602D02*
X2893036D01*
Y1830240D01*
X2723500D02*
X2893036D01*
X2484720Y58570D02*
Y228106D01*
X2585358D01*
Y58570D02*
Y228106D01*
X2484720Y58570D02*
X2585358D01*
X2753028Y564642D02*
X2922564D01*
X2753028D02*
Y665280D01*
X2922564D01*
Y564642D02*
Y665280D01*
X3344760Y35508D02*
X3514296D01*
X3344760D02*
Y136146D01*
X3514296D01*
Y35508D02*
Y136146D01*
X3910902Y31964D02*
X4080438D01*
X3910902D02*
Y132602D01*
X4080438D01*
Y31964D02*
Y132602D01*
X4164642Y578862D02*
X4265280D01*
X4164642Y409326D02*
Y578862D01*
Y409326D02*
X4265280D01*
Y578862D01*
X4972712Y549682D02*
X5142248D01*
X4972712D02*
Y650320D01*
X5142248D01*
Y549682D02*
Y650320D01*
X4999878Y44170D02*
X5169414D01*
X4999878D02*
Y144808D01*
X5169414D01*
Y44170D02*
Y144808D01*
X4447122Y35902D02*
X4616658D01*
X4447122D02*
Y136540D01*
X4616658D01*
Y35902D02*
Y136540D01*
X4730390Y67594D02*
Y237130D01*
X4831028D01*
Y67594D02*
Y237130D01*
X4730390Y67594D02*
X4831028D01*
X4723304Y575712D02*
X4823940D01*
X4723304Y406178D02*
Y575712D01*
Y406178D02*
X4823940D01*
Y575712D01*
X4415626Y548894D02*
X4585162D01*
X4415626D02*
Y649532D01*
X4585162D01*
Y548894D02*
Y649532D01*
X3869170Y549682D02*
X4038704D01*
X3869170D02*
Y650320D01*
X4038704D01*
Y549682D02*
Y650320D01*
X3313658Y548894D02*
X3483194D01*
X3313658D02*
Y649532D01*
X3483194D01*
Y548894D02*
Y649532D01*
X4534218Y2532418D02*
Y2701954D01*
X4634856D01*
Y2532418D02*
Y2701954D01*
X4534218Y2532418D02*
X4634856D01*
X4017880Y3103332D02*
X4187414D01*
Y3002694D02*
Y3103332D01*
X4017880Y3002694D02*
X4187414D01*
X4017880D02*
Y3103332D01*
X3891658Y2782556D02*
Y2952090D01*
X3791020Y2782556D02*
X3891658D01*
X3791020D02*
Y2952090D01*
X3891658D01*
X3702288Y404208D02*
Y573744D01*
X3601650Y404208D02*
X3702288D01*
X3601650D02*
Y573744D01*
X3702288D01*
X3134964Y399090D02*
Y568626D01*
X3034326Y399090D02*
X3134964D01*
X3034326D02*
Y568626D01*
X3134964D01*
X2583784Y408934D02*
Y578468D01*
X2483146Y408934D02*
X2583784D01*
X2483146D02*
Y578468D01*
X2583784D01*
X4830240Y1170744D02*
Y1340280D01*
X4729602Y1170744D02*
X4830240D01*
X4729602D02*
Y1340280D01*
X4830240D01*
X4820004Y780192D02*
Y949728D01*
X4719366Y780192D02*
X4820004D01*
X4719366D02*
Y949728D01*
X4820004D01*
X4469956Y1503750D02*
X4639492D01*
X4469956D02*
Y1604388D01*
X4639492D01*
Y1503750D02*
Y1604388D01*
X4504996Y1039052D02*
X4674532D01*
X4504996D02*
Y1139690D01*
X4674532D01*
Y1039052D02*
Y1139690D01*
X4238264Y973500D02*
Y1143036D01*
X4338902D01*
Y973500D02*
Y1143036D01*
X4238264Y973500D02*
X4338902D01*
X4263460Y1443578D02*
Y1613114D01*
X4364098D01*
Y1443578D02*
Y1613114D01*
X4263460Y1443578D02*
X4364098D01*
%TF.MD5,217521130b0307f3363e46adff17b4ff*%
M02*
