%TF.GenerationSoftware,Altium Limited,Altium Designer,19.0.15 (446)*%
G04 Layer_Physical_Order=1*
G04 Layer_Color=255*
%FSLAX26Y26*%
%MOIN*%
%TF.FileFunction,Copper,L1,Top,Signal*%
%TF.Part,Single*%
G01*
G75*
%TA.AperFunction,SMDPad,CuDef*%
%ADD10R,0.066929X0.098425*%
%ADD11R,0.055301X0.061268*%
%ADD12O,0.061024X0.023622*%
%ADD13R,0.061268X0.055301*%
%ADD14R,0.078740X0.078740*%
%ADD15R,0.043307X0.066929*%
%ADD16R,0.072835X0.053150*%
%ADD17R,0.066929X0.043307*%
%ADD18R,0.053150X0.072835*%
%ADD19R,0.043307X0.025591*%
G04:AMPARAMS|DCode=20|XSize=74.803mil|YSize=125.984mil|CornerRadius=0mil|HoleSize=0mil|Usage=FLASHONLY|Rotation=90.000|XOffset=0mil|YOffset=0mil|HoleType=Round|Shape=Octagon|*
%AMOCTAGOND20*
4,1,8,-0.062992,-0.018701,-0.062992,0.018701,-0.044291,0.037402,0.044291,0.037402,0.062992,0.018701,0.062992,-0.018701,0.044291,-0.037402,-0.044291,-0.037402,-0.062992,-0.018701,0.0*
%
%ADD20OCTAGOND20*%

%ADD21R,0.055118X0.023622*%
%ADD22R,0.070866X0.023622*%
%ADD23R,0.019685X0.011024*%
%ADD24R,0.035433X0.062992*%
G04:AMPARAMS|DCode=25|XSize=25.591mil|YSize=64.961mil|CornerRadius=1.919mil|HoleSize=0mil|Usage=FLASHONLY|Rotation=90.000|XOffset=0mil|YOffset=0mil|HoleType=Round|Shape=RoundedRectangle|*
%AMROUNDEDRECTD25*
21,1,0.025591,0.061122,0,0,90.0*
21,1,0.021752,0.064961,0,0,90.0*
1,1,0.003839,0.030561,0.010876*
1,1,0.003839,0.030561,-0.010876*
1,1,0.003839,-0.030561,-0.010876*
1,1,0.003839,-0.030561,0.010876*
%
%ADD25ROUNDEDRECTD25*%
G04:AMPARAMS|DCode=26|XSize=17.716mil|YSize=55.118mil|CornerRadius=1.949mil|HoleSize=0mil|Usage=FLASHONLY|Rotation=90.000|XOffset=0mil|YOffset=0mil|HoleType=Round|Shape=RoundedRectangle|*
%AMROUNDEDRECTD26*
21,1,0.017716,0.051221,0,0,90.0*
21,1,0.013819,0.055118,0,0,90.0*
1,1,0.003898,0.025610,0.006910*
1,1,0.003898,0.025610,-0.006910*
1,1,0.003898,-0.025610,-0.006910*
1,1,0.003898,-0.025610,0.006910*
%
%ADD26ROUNDEDRECTD26*%
%ADD27R,0.074803X0.059055*%
%ADD28R,0.041339X0.102362*%
%ADD29R,0.043307X0.064961*%
%ADD30R,0.057087X0.110236*%
%ADD31R,0.039370X0.106299*%
%ADD32R,0.102362X0.037402*%
%TA.AperFunction,Conductor*%
%ADD33C,0.010000*%
%ADD34C,0.019685*%
%ADD35C,0.017716*%
%ADD36C,0.011024*%
%TA.AperFunction,ComponentPad*%
%ADD37C,0.070866*%
%ADD38R,0.053150X0.053150*%
%ADD39C,0.053150*%
%ADD40C,0.061024*%
%ADD41R,0.061024X0.061024*%
%ADD42R,0.059055X0.059055*%
%ADD43C,0.059055*%
%TA.AperFunction,ViaPad*%
%ADD44C,0.050000*%
%TA.AperFunction,TestPad*%
%ADD45C,0.050000*%
%TA.AperFunction,ViaPad*%
%ADD46C,0.070866*%
%ADD47C,0.019685*%
G36*
X5370688Y196058D02*
X5713405D01*
Y432278D01*
X5488798Y432278D01*
X5481057D01*
X5465707Y430257D01*
X5450752Y426250D01*
X5436448Y420325D01*
X5423039Y412584D01*
X5410756Y403159D01*
X5399808Y392211D01*
X5390383Y379927D01*
X5382641Y366519D01*
X5376716Y352215D01*
X5372709Y337260D01*
X5370688Y321909D01*
Y314168D01*
D01*
Y196058D01*
D02*
G37*
G36*
Y2712200D02*
X5713405D01*
Y2475979D01*
X5488798D01*
X5481057D01*
X5465707Y2478000D01*
X5450752Y2482007D01*
X5436448Y2487932D01*
X5423039Y2495673D01*
X5410756Y2505099D01*
X5399808Y2516047D01*
X5390383Y2528330D01*
X5382641Y2541738D01*
X5376716Y2556043D01*
X5372709Y2570998D01*
X5370688Y2586348D01*
Y2594089D01*
D01*
Y2712200D01*
D02*
G37*
D10*
X4874803Y3417323D02*
D03*
Y3574803D02*
D03*
D11*
X3916504Y600000D02*
D03*
X3991370D02*
D03*
X3360992Y599212D02*
D03*
X3435858D02*
D03*
X5047214Y94488D02*
D03*
X5122078D02*
D03*
X4105936Y1986614D02*
D03*
X4031072D02*
D03*
X4065214Y3053012D02*
D03*
X4140080D02*
D03*
X3013836Y1983464D02*
D03*
X2938972D02*
D03*
X2813702Y1987532D02*
D03*
X2738838D02*
D03*
X3900032Y1983464D02*
D03*
X3825166D02*
D03*
X4627196Y1089370D02*
D03*
X4552332D02*
D03*
X4592156Y1554070D02*
D03*
X4517292D02*
D03*
X5094912Y600000D02*
D03*
X5020048D02*
D03*
X4569322Y86220D02*
D03*
X4494458D02*
D03*
X4537826Y599212D02*
D03*
X4462962D02*
D03*
X4033102Y82284D02*
D03*
X3958236D02*
D03*
X3466960Y85826D02*
D03*
X3392096D02*
D03*
X2900030Y79922D02*
D03*
X2825166D02*
D03*
X2875228Y614960D02*
D03*
X2800362D02*
D03*
D12*
X5101072Y193766D02*
D03*
Y243766D02*
D03*
Y293766D02*
D03*
Y343766D02*
D03*
Y393766D02*
D03*
Y443766D02*
D03*
Y493766D02*
D03*
X4892410Y193766D02*
D03*
Y243766D02*
D03*
Y293766D02*
D03*
Y343766D02*
D03*
Y393766D02*
D03*
Y443766D02*
D03*
Y493766D02*
D03*
X4338304D02*
D03*
Y443766D02*
D03*
Y393766D02*
D03*
Y343766D02*
D03*
Y293766D02*
D03*
Y243766D02*
D03*
Y193766D02*
D03*
X4546966Y493766D02*
D03*
Y443766D02*
D03*
Y393766D02*
D03*
Y343766D02*
D03*
Y293766D02*
D03*
Y243766D02*
D03*
Y193766D02*
D03*
X3784198Y493766D02*
D03*
Y443766D02*
D03*
Y393766D02*
D03*
Y343766D02*
D03*
Y293766D02*
D03*
Y243766D02*
D03*
Y193766D02*
D03*
X3992858Y493766D02*
D03*
Y443766D02*
D03*
Y393766D02*
D03*
Y343766D02*
D03*
Y293766D02*
D03*
Y243766D02*
D03*
Y193766D02*
D03*
X3230090Y493766D02*
D03*
Y443766D02*
D03*
Y393766D02*
D03*
Y343766D02*
D03*
Y293766D02*
D03*
Y243766D02*
D03*
Y193766D02*
D03*
X3438752Y493766D02*
D03*
Y443766D02*
D03*
Y393766D02*
D03*
Y343766D02*
D03*
Y293766D02*
D03*
Y243766D02*
D03*
Y193766D02*
D03*
X2675984Y493766D02*
D03*
Y443766D02*
D03*
Y393766D02*
D03*
Y343766D02*
D03*
Y293766D02*
D03*
Y243766D02*
D03*
Y193766D02*
D03*
X2884646Y493766D02*
D03*
Y443766D02*
D03*
Y393766D02*
D03*
Y343766D02*
D03*
Y293766D02*
D03*
Y243766D02*
D03*
Y193766D02*
D03*
D13*
X4779922Y1218080D02*
D03*
Y1292944D02*
D03*
X3841338Y2904756D02*
D03*
Y2829890D02*
D03*
X4584536Y2579754D02*
D03*
Y2654618D02*
D03*
X4288582Y1020836D02*
D03*
Y1095700D02*
D03*
X4313780Y1490914D02*
D03*
Y1565778D02*
D03*
X4769686Y902394D02*
D03*
Y827528D02*
D03*
X4780708Y114930D02*
D03*
Y189794D02*
D03*
X4773622Y528378D02*
D03*
Y453512D02*
D03*
X4223622Y112174D02*
D03*
Y187038D02*
D03*
X4214960Y531526D02*
D03*
Y456662D02*
D03*
X3678740Y107056D02*
D03*
Y181920D02*
D03*
X3651968Y526408D02*
D03*
Y451544D02*
D03*
X3117322Y103118D02*
D03*
Y177984D02*
D03*
X3084646Y521290D02*
D03*
Y446426D02*
D03*
X2535040Y105906D02*
D03*
Y180770D02*
D03*
X2533464Y531134D02*
D03*
Y456268D02*
D03*
D14*
X5621278Y314128D02*
D03*
Y2594128D02*
D03*
D15*
X4329528Y1888584D02*
D03*
X4215354D02*
D03*
X3590090Y1880710D02*
D03*
X3704264D02*
D03*
X2546390Y1881102D02*
D03*
X2660562D02*
D03*
D16*
X4437008Y1776576D02*
D03*
Y1896654D02*
D03*
X3489696Y1759252D02*
D03*
Y1879332D02*
D03*
X1440944Y790748D02*
D03*
Y670670D02*
D03*
X1915354Y789174D02*
D03*
Y669096D02*
D03*
X600394Y788386D02*
D03*
Y668308D02*
D03*
X1024804Y787992D02*
D03*
Y667914D02*
D03*
X2446784Y1877362D02*
D03*
Y1757284D02*
D03*
D17*
X3343430Y1891732D02*
D03*
Y1777560D02*
D03*
D18*
X3123932Y1869292D02*
D03*
X3244010D02*
D03*
D19*
X4116876Y1870078D02*
D03*
Y1795276D02*
D03*
X4022386D02*
D03*
Y1832678D02*
D03*
Y1870078D02*
D03*
X3922804Y1876770D02*
D03*
Y1801968D02*
D03*
X3828316D02*
D03*
Y1839370D02*
D03*
Y1876770D02*
D03*
X3022068Y1855118D02*
D03*
Y1780314D02*
D03*
X2927580D02*
D03*
Y1817716D02*
D03*
Y1855118D02*
D03*
X2835124Y1857482D02*
D03*
Y1782678D02*
D03*
X2740636D02*
D03*
Y1820080D02*
D03*
Y1857482D02*
D03*
D20*
X4129134Y2863780D02*
D03*
D21*
X4022834Y2804724D02*
D03*
Y2922834D02*
D03*
D22*
X4030708Y2863780D02*
D03*
D23*
X3726692Y3506024D02*
D03*
Y3525710D02*
D03*
Y3545394D02*
D03*
Y3565080D02*
D03*
X3651890D02*
D03*
Y3545394D02*
D03*
Y3525710D02*
D03*
Y3506024D02*
D03*
D24*
X3689292Y3535552D02*
D03*
D25*
X4999016Y2619814D02*
D03*
Y2669814D02*
D03*
Y2719814D02*
D03*
Y2769814D02*
D03*
X4776574Y2619814D02*
D03*
Y2669814D02*
D03*
Y2719814D02*
D03*
Y2769814D02*
D03*
D26*
X4404330Y983464D02*
D03*
Y957874D02*
D03*
Y932284D02*
D03*
Y906692D02*
D03*
Y881102D02*
D03*
Y855512D02*
D03*
Y829922D02*
D03*
X4636614Y983464D02*
D03*
Y957874D02*
D03*
Y932284D02*
D03*
Y906692D02*
D03*
Y881102D02*
D03*
Y855512D02*
D03*
Y829922D02*
D03*
X4425196Y1451574D02*
D03*
Y1425984D02*
D03*
Y1400394D02*
D03*
Y1374804D02*
D03*
Y1349212D02*
D03*
Y1323622D02*
D03*
Y1298032D02*
D03*
X4657480Y1451574D02*
D03*
Y1425984D02*
D03*
Y1400394D02*
D03*
Y1374804D02*
D03*
Y1349212D02*
D03*
Y1323622D02*
D03*
Y1298032D02*
D03*
D27*
X1270866Y787798D02*
D03*
Y669688D02*
D03*
X1729922Y786222D02*
D03*
Y668110D02*
D03*
X424016Y785434D02*
D03*
Y667324D02*
D03*
X857480Y785040D02*
D03*
Y666930D02*
D03*
D28*
X3503544Y3244094D02*
D03*
X3680708D02*
D03*
D29*
X4701378Y3026772D02*
D03*
X4589174D02*
D03*
D30*
X4970276Y2372442D02*
D03*
X4850196D02*
D03*
D31*
X3399212Y3492914D02*
D03*
X3485826D02*
D03*
D32*
X3922442Y3578346D02*
D03*
Y3468110D02*
D03*
X3531496Y3646456D02*
D03*
Y3756692D02*
D03*
D33*
X3096221Y1816535D02*
X3201096D01*
X3244010Y1859449D01*
Y1869292D01*
X5409450Y2239678D02*
X5459449Y2189679D01*
X5384020Y2239678D02*
X5409450D01*
X2373874Y677312D02*
Y717000D01*
X2345000Y745874D02*
X2373874Y717000D01*
X1270866Y787798D02*
X1273816Y790748D01*
X1440944D01*
X187300Y2726000D02*
X231418Y2770118D01*
X114000Y2726000D02*
X187300D01*
X201693Y2713504D02*
X400000D01*
X176000Y2687811D02*
X201693Y2713504D01*
X176000Y2670118D02*
Y2687811D01*
X4731890Y3531496D02*
Y3598425D01*
X4652284Y3678031D02*
X4731890Y3598425D01*
X3474982Y3678031D02*
X4652284D01*
X4642000Y3441606D02*
X4731890Y3531496D01*
X4642000Y2840000D02*
Y3441606D01*
X4012134Y2794024D02*
X4022834Y2804724D01*
X2390008Y237008D02*
X2429921Y276921D01*
X2329020Y237008D02*
X2390008D01*
X2314972Y251056D02*
X2329020Y237008D01*
X3588712Y1879332D02*
X3590090Y1880710D01*
X3489696Y1879332D02*
X3588712D01*
X3079000Y1799314D02*
X3096221Y1816535D01*
X3119000Y2003000D02*
X3659464D01*
X2862231Y1459055D02*
Y1517231D01*
X2938000Y1593000D01*
X2913122Y1308822D02*
X2951178D01*
X3301038Y958962D01*
X3391591Y875591D02*
X3635346D01*
X3318912Y802912D02*
X3391591Y875591D01*
X1647000Y165000D02*
X1714000Y98000D01*
X2950234Y243766D02*
X3054000Y140000D01*
X597442Y785434D02*
X600394Y788386D01*
X424016Y785434D02*
X597442D01*
X2800000Y1839950D02*
Y1851652D01*
X2760652Y1891000D02*
X2800000Y1851652D01*
X2723989Y1891000D02*
X2760652D01*
X3318110Y3624016D02*
X3370865Y3676772D01*
X3318110Y2637401D02*
Y3624016D01*
X2857480Y2176772D02*
X3318110Y2637401D01*
X5300496Y2269000D02*
X5354698D01*
X5066929Y2035433D02*
X5300496Y2269000D01*
X5066929Y1727913D02*
Y2035433D01*
X4769568Y1430552D02*
X5066929Y1727913D01*
X5492604Y2189679D02*
X5528227Y2154057D01*
X5459449Y2189679D02*
X5492604D01*
X5528227Y2112788D02*
Y2154057D01*
X5524000Y2108561D02*
X5528227Y2112788D01*
X5524000Y2049698D02*
Y2108561D01*
X5316142Y3529921D02*
X5353150D01*
X5132283Y3346063D02*
X5316142Y3529921D01*
X5353150D02*
X5453543Y3429528D01*
X5334034Y3338976D02*
X5402756D01*
X5453543Y3389764D01*
Y3429528D01*
X5319203Y3408573D02*
X5403631D01*
X5132283Y2731102D02*
Y3346063D01*
X3370865Y3676772D02*
X3473723D01*
X3474982Y3678031D01*
X4389086Y1367086D02*
X4396804Y1374804D01*
X4233808Y1367086D02*
X4389086D01*
X4233722Y1367000D02*
X4233808Y1367086D01*
X4227000Y1367000D02*
X4233722D01*
X4203543Y1311543D02*
X4241212Y1349212D01*
X4425196D01*
X4121960Y1384960D02*
X4360000D01*
X4375434Y1400394D01*
X4203543Y833465D02*
Y1311543D01*
X4146850Y1286850D02*
X4227000Y1367000D01*
X4325016Y1425984D02*
X4425196D01*
X4313780Y1464866D02*
X4348590D01*
X4313780D02*
Y1490914D01*
X4111000Y1374000D02*
X4121960Y1384960D01*
X4389000Y694882D02*
X4427882D01*
X4494417Y761417D01*
X4593000Y480000D02*
Y716449D01*
X4589370Y720079D02*
X4593000Y716449D01*
X4702000Y384000D02*
Y679890D01*
X4620472Y761417D02*
X4702000Y679890D01*
X4494417Y761417D02*
X4620472D01*
X4097000Y478000D02*
Y527953D01*
X2277098Y337252D02*
Y824438D01*
X2161811Y813347D02*
X2179528Y795630D01*
Y502756D02*
Y795630D01*
X2161811Y813347D02*
X2175000Y826536D01*
X2160236Y399606D02*
Y410764D01*
X2087000Y484000D02*
X2160236Y410764D01*
X2348819Y652257D02*
X2373874Y677312D01*
X2348819Y289685D02*
Y652257D01*
Y289685D02*
X2357000Y281504D01*
X2429921Y708921D02*
X2561000Y840000D01*
X2429921Y276921D02*
Y708921D01*
X4715464Y1336930D02*
X4797432D01*
X4703182Y1349212D02*
X4715464Y1336930D01*
X4657480Y1349212D02*
X4703182D01*
X4717479Y1430552D02*
X4769568D01*
X4712911Y1425984D02*
X4717479Y1430552D01*
X4657480Y1425984D02*
X4712911D01*
X4724883Y1412678D02*
X4835284D01*
X4712599Y1400394D02*
X4724883Y1412678D01*
X4657480Y1400394D02*
X4712599D01*
X4835284Y1412678D02*
X4924000Y1501394D01*
X4797432Y1336930D02*
X4920750Y1460248D01*
X4657480Y1374804D02*
X4750196D01*
X4752000Y1373000D01*
X2678740Y1936248D02*
X2723989Y1891000D01*
X2678740Y1936248D02*
Y2474016D01*
X2614173Y2538583D02*
X2678740Y2474016D01*
X2576772Y2538583D02*
X2614173D01*
X2546390Y2508201D02*
X2576772Y2538583D01*
X2546390Y1881102D02*
Y2508201D01*
X4805787Y2540787D02*
X4934814Y2669814D01*
X4699691Y2540787D02*
X4805787D01*
X4603898Y2444994D02*
X4699691Y2540787D01*
X4794661Y2558661D02*
X4955814Y2719814D01*
X4680433Y2558661D02*
X4794661D01*
X4521772Y2400000D02*
X4680433Y2558661D01*
X4691074Y2669814D02*
X4776574D01*
X4601014Y2579754D02*
X4691074Y2669814D01*
X4584536Y2579754D02*
X4601014D01*
X4677680Y906692D02*
X4705118Y934130D01*
X4636614Y906692D02*
X4677680D01*
X4739008Y902394D02*
X4769686D01*
X4701000Y864386D02*
X4739008Y902394D01*
X4701000Y850922D02*
Y864386D01*
X4442125Y932284D02*
X4473228Y901181D01*
X4284646Y871260D02*
Y951796D01*
X4289764Y956914D01*
X4274693Y682000D02*
X4294000D01*
X4146850Y809842D02*
X4274693Y682000D01*
X4146850Y809842D02*
Y1286850D01*
X4341248Y917598D02*
X4349402D01*
X4360308Y906692D01*
X4289764Y956914D02*
X4404330Y957874D01*
X3156693Y367716D02*
X3172716D01*
X3198766Y393766D01*
X3156693Y360009D02*
Y367716D01*
X3147684Y351000D02*
X3156693Y360009D01*
X4973228Y911417D02*
X4986000Y924189D01*
X4113000Y366766D02*
Y434000D01*
X4892410Y393766D02*
X5014000D01*
X3509842Y473608D02*
Y654725D01*
X3506299Y658268D02*
X3509842Y654725D01*
X3558000Y360000D02*
Y607564D01*
X3557296Y608268D02*
X3558000Y607564D01*
X5282000Y294000D02*
Y676128D01*
X5285000Y679128D01*
X5220866Y259866D02*
Y785432D01*
X5180000Y219000D02*
X5220866Y259866D01*
Y785432D02*
X5264562Y829128D01*
X5160000Y293766D02*
X5202992Y336758D01*
Y803738D01*
X5253543Y3342913D02*
X5319203Y3408573D01*
X5253543Y2772441D02*
Y3342913D01*
X5150916Y2669814D02*
X5253543Y2772441D01*
X4999016Y2669814D02*
X5150916D01*
X5120995Y2719814D02*
X5132283Y2731102D01*
X4999016Y2719814D02*
X5120995D01*
X4692827Y1295205D02*
X4721088Y1292944D01*
X4657480Y1298032D02*
X4692827Y1295205D01*
X4703000Y1285032D01*
X4690000Y1298032D02*
X4692827Y1295205D01*
X3485826Y3517000D02*
X3629000D01*
X3651000Y3278708D02*
Y3506024D01*
X1730000Y786222D02*
Y1465000D01*
X424000Y785434D02*
Y2607000D01*
X231418Y2671000D02*
X360000D01*
X1015000Y787992D02*
Y2098504D01*
X2938000Y1593000D02*
Y1780314D01*
X164000Y2040000D02*
Y2070118D01*
X3013000Y1828000D02*
X3057000D01*
X2980118D02*
X3013000D01*
X4215354Y1900000D02*
X4251000D01*
X3704264Y1947264D02*
X3784000Y2027000D01*
X4721088Y1292944D02*
X4779922D01*
X4584536Y2523000D02*
Y2579754D01*
X4544536Y2483000D02*
X4584536Y2523000D01*
X4012134Y2483000D02*
Y2794024D01*
X4642000Y2840000D02*
X4712186Y2769814D01*
X4776574D01*
X1015000Y787992D02*
X1024804D01*
X857480Y785040D02*
X1015000Y787992D01*
X3784198Y293766D02*
X3845000D01*
X2391748Y421276D02*
Y732252D01*
X2364000Y760000D02*
X2391748Y732252D01*
X2364000Y760000D02*
Y927126D01*
X2464748Y1027874D01*
Y1557252D01*
X2340000Y1682000D02*
X2464748Y1557252D01*
X2340000Y1682000D02*
Y2293000D01*
X2274804Y2358196D02*
X2340000Y2293000D01*
X2274804Y2358196D02*
Y2526732D01*
X2231418Y2570118D02*
X2274804Y2526732D01*
X5580128Y1229128D02*
X5661000Y1310000D01*
X5488778Y1229128D02*
X5580128D01*
X4404330Y932284D02*
X4442125D01*
X2367748Y991000D02*
Y1287252D01*
X2331000Y1324000D02*
X2367748Y1287252D01*
X2331000Y1324000D02*
Y1566000D01*
X2277000Y1620000D02*
X2331000Y1566000D01*
X2197000Y1620000D02*
X2277000D01*
X2177000Y1640000D02*
X2197000Y1620000D01*
X2177000Y1640000D02*
Y1692418D01*
X2131418Y1738000D02*
X2177000Y1692418D01*
X2131418Y1738000D02*
Y1770118D01*
X2088000Y1326700D02*
X2131418Y1370118D01*
X2088000Y1240000D02*
Y1326700D01*
Y1240000D02*
X2114000Y1214000D01*
X2275000D01*
X2349874Y1139126D01*
Y1044874D02*
Y1139126D01*
X2320000Y1015000D02*
X2349874Y1044874D01*
X2320000Y971000D02*
Y1015000D01*
Y971000D02*
X2345000Y946000D01*
Y745874D02*
Y946000D01*
X3784198Y393766D02*
X3889000D01*
X3198766D02*
X3230090D01*
X2087000Y484000D02*
Y982000D01*
X1995000Y1074000D02*
X2087000Y982000D01*
X1995000Y1074000D02*
Y1244000D01*
X3491766Y293766D02*
X3558000Y360000D01*
X3438752Y293766D02*
X3491766D01*
X5413780Y748334D02*
Y779128D01*
Y748334D02*
X5453230Y708884D01*
Y662786D02*
Y708884D01*
X5342000Y551556D02*
X5453230Y662786D01*
X5342000Y426000D02*
Y551556D01*
X4040000Y293766D02*
X4113000Y366766D01*
X3992858Y293766D02*
X4040000D01*
X4924000Y1501394D02*
X4967000D01*
X4920750Y1460248D02*
X5003938D01*
X5022000Y1478310D01*
Y1576000D01*
X3970078Y985078D02*
Y1722834D01*
X3665000Y680000D02*
X3970078Y985078D01*
X1508000Y670670D02*
X1567648Y611022D01*
X1440944Y670670D02*
X1508000D01*
X2340000Y2431000D02*
Y2635000D01*
X2261000Y2714000D02*
X2340000Y2635000D01*
X2032000Y2714000D02*
X2261000D01*
X1994410Y2676410D02*
X2032000Y2714000D01*
X1994410Y2553966D02*
Y2676410D01*
X1970158Y2529712D02*
X1994410Y2553966D01*
X1970158Y1331956D02*
Y2529712D01*
X1957126Y1318924D02*
X1970158Y1331956D01*
X1957126Y866874D02*
Y1318924D01*
Y866874D02*
X2069000Y755000D01*
Y680000D02*
Y755000D01*
X2006000Y617000D02*
X2069000Y680000D01*
X1886000Y617000D02*
X2006000D01*
X1760000Y743000D02*
X1886000Y617000D01*
X1609782Y743000D02*
X1760000D01*
X1501782Y851000D02*
X1609782Y743000D01*
X1180000Y851000D02*
X1501782D01*
X1071638Y742638D02*
X1180000Y851000D01*
X711330Y742638D02*
X1071638D01*
X637000Y668308D02*
X711330Y742638D01*
X600394Y668308D02*
X637000D01*
X4062766Y443766D02*
X4097000Y478000D01*
X3992858Y443766D02*
X4062766D01*
X5354698Y2269000D02*
X5384020Y2239678D01*
X5524000Y2049698D02*
X5529000Y2044698D01*
Y2000140D02*
Y2044698D01*
X5524330Y1995470D02*
X5529000Y2000140D01*
X5524330Y1949368D02*
Y1995470D01*
Y1949368D02*
X5528228Y1945470D01*
Y1899368D02*
Y1945470D01*
X5524330Y1895470D02*
X5528228Y1899368D01*
X5524330Y1849368D02*
Y1895470D01*
Y1849368D02*
X5528228Y1845470D01*
Y1799368D02*
Y1845470D01*
X5524330Y1795470D02*
X5528228Y1799368D01*
X5524330Y1749368D02*
Y1795470D01*
Y1749368D02*
X5528228Y1745470D01*
Y1699368D02*
Y1745470D01*
X5524330Y1695470D02*
X5528228Y1699368D01*
X5524330Y1649368D02*
Y1695470D01*
Y1649368D02*
X5528228Y1645470D01*
Y1599368D02*
Y1645470D01*
X5524330Y1595470D02*
X5528228Y1599368D01*
X5524330Y1562786D02*
Y1595470D01*
Y1562786D02*
X5534558Y1552558D01*
Y1505698D02*
Y1552558D01*
X5524330Y1495470D02*
X5534558Y1505698D01*
X5524330Y1462786D02*
Y1495470D01*
Y1462786D02*
X5563780Y1423336D01*
Y1379128D02*
Y1423336D01*
X4590126Y957874D02*
X4636614D01*
X4563000Y985000D02*
X4590126Y957874D01*
X5114000Y985000D02*
X5209000Y1080000D01*
X5358860D01*
X5397438Y1118578D01*
X5419578D01*
X5459000Y1158000D01*
Y1203114D01*
X5449328Y1212786D02*
X5459000Y1203114D01*
X5449328Y1212786D02*
Y1245470D01*
X5460000Y1256142D01*
Y1302114D01*
X5449328Y1312786D02*
X5460000Y1302114D01*
X5449328Y1312786D02*
Y1345470D01*
X5472858Y1369000D01*
X5518116D01*
X5547438Y1339678D01*
X5583678D01*
X5604000Y1360000D01*
Y1438908D01*
X5563780Y1479128D02*
X5604000Y1438908D01*
X4986000Y924189D02*
Y1389000D01*
X4993000Y1396000D01*
X5201000D01*
X5284000Y1479000D01*
X5344442D01*
X5394570Y1529128D01*
X5488778D01*
X3277560Y1777560D02*
X3343430D01*
X3254000Y1754000D02*
X3277560Y1777560D01*
X2991000Y1754000D02*
X3254000D01*
X2985000Y1760000D02*
X2991000Y1754000D01*
X2985000Y1760000D02*
Y1800000D01*
X3013000Y1828000D01*
X3057000D02*
Y1941000D01*
X3119000Y2003000D01*
X3659464D02*
X3910630Y2254166D01*
X2927580Y1855118D02*
X2953000D01*
X2980118Y1828000D01*
X2804000Y1782678D02*
X2835124D01*
X2446784Y1881102D02*
X2546390D01*
X2446784Y1877362D02*
X2447000D01*
X2804000Y1782678D02*
Y1835950D01*
X4022386Y1870078D02*
X4054000D01*
X4084078Y1840000D01*
X4166770D01*
X4215354Y1888584D01*
X3704264Y1880710D02*
Y1947264D01*
X3797230Y1876770D02*
X3828316D01*
X3784000Y1890000D02*
X3797230Y1876770D01*
X3784000Y1890000D02*
Y2027000D01*
X3974000Y2217000D01*
Y2261000D01*
X1647000Y165000D02*
Y595000D01*
X1520000Y722000D02*
X1647000Y595000D01*
X1121000Y722000D02*
X1520000D01*
X1066914Y667914D02*
X1121000Y722000D01*
X1024804Y667914D02*
X1066914D01*
X4604078Y829922D02*
X4636614D01*
X4450536Y983464D02*
X4604078Y829922D01*
X4404330Y983464D02*
X4450536D01*
X4614056Y932284D02*
X4636614D01*
X4538610Y933674D02*
X4614056Y932284D01*
X4489000Y983284D02*
X4538610Y933674D01*
X4489000Y983284D02*
Y1476000D01*
X4472000Y1493000D02*
X4489000Y1476000D01*
X3438752Y443766D02*
X3480000D01*
X3509842Y473608D01*
X5563780Y644780D02*
Y679128D01*
X5508000Y589000D02*
X5563780Y644780D01*
X5455000Y589000D02*
X5508000D01*
X5380000Y514000D02*
X5455000Y589000D01*
X2933766Y443766D02*
X2965000Y475000D01*
X2884646Y443766D02*
X2933766D01*
X5488778Y1084920D02*
Y1129128D01*
Y1084920D02*
X5555120Y1018578D01*
X5611000D01*
X5632000Y997578D01*
Y675000D02*
Y997578D01*
X5451000Y494000D02*
X5632000Y675000D01*
X333000Y665000D02*
Y1468536D01*
X231418Y1570118D02*
X333000Y1468536D01*
X4288582Y983464D02*
Y1020836D01*
Y983464D02*
X4404330D01*
X4288582Y1020836D02*
X4440000D01*
X4466000Y1046836D01*
Y1440000D01*
X4454426Y1451574D02*
X4466000Y1440000D01*
X4425196Y1451574D02*
X4454426D01*
X4361882D02*
X4425196D01*
X4348590Y1464866D02*
X4361882Y1451574D01*
X4636614Y829922D02*
X4680000D01*
X4701000Y850922D01*
X4769686Y902394D02*
Y1056314D01*
X4703000Y1123000D02*
X4769686Y1056314D01*
X4703000Y1123000D02*
Y1285032D01*
X4657480Y1298032D02*
X4690000D01*
X4779922Y1292944D02*
X4821894D01*
X4935564Y1406614D01*
Y1430000D01*
X4947938Y1442374D01*
X5041374D01*
X5119000Y1520000D01*
Y2009350D01*
X5338778Y2229128D01*
X5413780Y2079128D02*
Y2179128D01*
X3944166Y2804724D02*
X4022834D01*
X3919000Y2829890D02*
X3944166Y2804724D01*
X3841338Y2829890D02*
X3919000D01*
X4955814Y2719814D02*
X4999016D01*
X4521772Y2360000D02*
Y2400000D01*
Y2360000D02*
X4543464Y2338308D01*
X4600080D01*
X4621772Y2360000D01*
Y2424000D01*
X4652772Y2455000D01*
X4887718D01*
X4970276Y2372442D01*
X4564174Y2380710D02*
X4603898Y2420434D01*
Y2444994D01*
X4934814Y2669814D02*
X4999016D01*
X4664174Y2380710D02*
X4808650D01*
X4816918Y2372442D01*
X4850196D01*
X3485826Y3492914D02*
Y3517000D01*
X3629000D02*
X3637710Y3525710D01*
X3651890D01*
X4701378Y2959622D02*
Y3026772D01*
Y2959622D02*
X4891186Y2769814D01*
X4999016D01*
X3651000Y3506024D02*
X3651890D01*
X3651000Y3278708D02*
X3680708Y3249000D01*
Y3244094D02*
Y3249000D01*
X88000Y2700000D02*
X114000Y2726000D01*
X88000Y840000D02*
Y2700000D01*
Y840000D02*
X108000Y820000D01*
X265000D01*
X285000Y800000D01*
Y640000D02*
Y800000D01*
Y640000D02*
X298000Y627000D01*
X360000D01*
X371000Y638000D01*
Y700000D01*
X398000Y727000D01*
X452858D01*
X551000Y628858D01*
X650000D01*
X745906Y724764D01*
X1091458D01*
X1154492Y787798D01*
X1270866D01*
X378000Y2817000D02*
X1730000Y1465000D01*
X178300Y2817000D02*
X378000D01*
X131418Y2770118D02*
X178300Y2817000D01*
X1729922Y786222D02*
X1730000D01*
X1821000D01*
X1915354Y789174D01*
X231418Y2670118D02*
Y2671000D01*
X360000D02*
X424000Y2607000D01*
Y785434D02*
X424016D01*
X131418Y2670118D02*
X176000D01*
X400000Y2713504D02*
X1015000Y2098504D01*
X3793174Y1766826D02*
X3828316Y1801968D01*
X4051700Y1639370D02*
Y1769576D01*
X4026000Y1795276D02*
X4051700Y1769576D01*
X4022386Y1795276D02*
X4026000D01*
X4375434Y1400394D02*
X4425196D01*
X131418Y2070118D02*
X164000D01*
Y2040000D02*
X184000Y2020000D01*
X246000D01*
X386000Y1880000D01*
Y1632000D02*
Y1880000D01*
X2927580Y1780314D02*
X2938000D01*
X231418Y1770118D02*
X341724Y1659812D01*
Y1594126D02*
Y1659812D01*
Y1594126D02*
X383000Y1552850D01*
Y876000D02*
Y1552850D01*
X4360308Y906692D02*
X4404330D01*
X131418Y1470118D02*
X187536Y1414000D01*
X288000D01*
X295000Y928000D01*
X3318912Y562976D02*
X3349888Y532000D01*
X3318912Y562976D02*
Y802912D01*
X4936000Y293766D02*
X4956000Y273766D01*
X4892410Y293766D02*
X4936000D01*
X2231418Y2670118D02*
X2292678Y2608858D01*
Y2371322D02*
Y2608858D01*
Y2371322D02*
X2362000Y2302000D01*
Y1690000D02*
Y2302000D01*
Y1690000D02*
X2482622Y1569378D01*
Y865622D02*
Y1569378D01*
X2403000Y786000D02*
X2482622Y865622D01*
X4582000Y469000D02*
X4593000Y480000D01*
X4500000Y469000D02*
X4582000D01*
X4478000Y447000D02*
X4500000Y469000D01*
X4478000Y360000D02*
Y447000D01*
X4411766Y293766D02*
X4478000Y360000D01*
X4338304Y293766D02*
X4411766D01*
X2012284Y2550984D02*
X2131418Y2670118D01*
X2012284Y2546562D02*
Y2550984D01*
X1988032Y2522310D02*
X2012284Y2546562D01*
X1988032Y1402006D02*
X2033000Y1357038D01*
Y1074858D02*
Y1357038D01*
Y1074858D02*
X2087858Y1020000D01*
X2267000D01*
X2279738Y1007262D01*
Y953994D02*
X2316000Y917732D01*
Y713000D02*
Y917732D01*
X4637000Y319000D02*
X4702000Y384000D01*
X4501000Y319000D02*
X4637000D01*
X4294000Y280000D02*
Y380000D01*
X4307766Y393766D02*
X4338304D01*
X2012284Y2546562D02*
X2131418Y2670118D01*
X1988032Y1402006D02*
Y2522310D01*
X2279738Y953994D02*
Y1007262D01*
X2316000Y713000D02*
X2336000Y693000D01*
X4451000Y269000D02*
X4501000Y319000D01*
X4305000Y269000D02*
X4451000D01*
X4294000Y280000D02*
X4305000Y269000D01*
X4294000Y380000D02*
X4307766Y393766D01*
X2050394Y2489094D02*
X2131418Y2570118D01*
X2050394Y1463606D02*
Y2489094D01*
X2131418Y2470118D02*
X2181000Y2420536D01*
Y1740000D02*
Y2420536D01*
Y1740000D02*
X2201000Y1720000D01*
X2275000D01*
X2301998Y1693002D01*
Y1633898D02*
Y1693002D01*
Y1633898D02*
X2366000Y1569896D01*
Y1396000D02*
Y1569896D01*
Y1396000D02*
X2409000Y1353000D01*
X5264000Y1191000D02*
X5275872Y1179128D01*
X5413780D01*
X2231418Y2370118D02*
X2320576Y2280960D01*
Y1664050D02*
Y2280960D01*
Y1664050D02*
X2407000Y1577626D01*
Y1419874D02*
Y1577626D01*
Y1419874D02*
X2446874Y1380000D01*
Y1147874D02*
Y1380000D01*
X2407000Y1108000D02*
X2446874Y1147874D01*
X2100000Y1121000D02*
X2312000D01*
X2051000Y1170000D02*
X2100000Y1121000D01*
X2051000Y1170000D02*
Y1374786D01*
X2005906Y1419880D02*
X2051000Y1374786D01*
X2005906Y1419880D02*
Y2514906D01*
X2108000Y2617000D01*
X2160000D01*
X2175000Y2602000D01*
Y2540000D02*
Y2602000D01*
X2155000Y2520000D02*
X2175000Y2540000D01*
X2113000Y2520000D02*
X2155000D01*
X2088032Y2495032D02*
X2113000Y2520000D01*
X2088032Y2413504D02*
Y2495032D01*
Y2413504D02*
X2131418Y2370118D01*
X1924804Y872196D02*
Y2197244D01*
Y872196D02*
X2031000Y766000D01*
Y726000D02*
Y766000D01*
X3301038Y333038D02*
Y958962D01*
X3261766Y293766D02*
X3301038Y333038D01*
X3230090Y293766D02*
X3261766D01*
X2131418Y970118D02*
X2181536Y920000D01*
X2275000D01*
X2295000Y900000D01*
Y394972D02*
Y900000D01*
Y394972D02*
X2314972Y375000D01*
Y251056D02*
Y375000D01*
X2561000Y840000D02*
Y1720000D01*
X2623678Y1782678D01*
X2740636D01*
X2231418Y870118D02*
X2277098Y824438D01*
X2709026Y293766D02*
X2752512Y337252D01*
X2675984Y293766D02*
X2709026D01*
X2131418Y870118D02*
X2175000Y826536D01*
X2782000Y467000D02*
Y482000D01*
X2708766Y393766D02*
X2782000Y467000D01*
X2675984Y393766D02*
X2708766D01*
X4396804Y1374804D02*
X4425196D01*
X2884646Y243766D02*
Y293766D01*
Y243766D02*
X2950234D01*
X5285000Y679128D02*
X5413780D01*
X3438752Y243766D02*
Y293766D01*
X3992858Y243766D02*
Y293766D01*
X4546966Y243766D02*
Y293766D01*
Y243766D02*
X4607000D01*
X4682234Y319000D01*
X5000000D01*
X5053000Y266000D01*
Y230000D02*
Y266000D01*
Y230000D02*
X5064000Y219000D01*
X5180000D01*
X5264562Y829128D02*
X5338778D01*
X5101072Y243766D02*
Y293766D01*
X5160000D01*
X5202992Y803738D02*
X5271058Y871804D01*
X5406456D01*
X5413780Y879128D01*
X2660562Y1881102D02*
X2684182Y1857482D01*
X2740636D01*
X2660562Y1881102D02*
Y2411438D01*
X2587000Y2485000D02*
X2660562Y2411438D01*
X2884646Y393766D02*
Y443766D01*
X3438752Y393766D02*
Y443766D01*
X3992858Y393766D02*
Y443766D01*
X4546966Y393766D02*
Y443766D01*
Y393766D02*
X4585766D01*
X4640064Y448064D01*
Y646064D01*
X5265716Y734716D02*
X5317000Y786000D01*
X5364860D01*
X5407988Y829128D01*
X5488778D01*
X5101072Y393766D02*
Y443766D01*
X5130766D01*
X5167000Y480000D01*
Y840000D01*
X5216678Y889678D01*
X5368538D01*
X5397860Y919000D01*
X5443114D01*
X5482986Y879128D01*
X5563780D01*
X5024000Y1353000D02*
X5044000Y1373000D01*
X5347000D01*
X5403128Y1429128D01*
X5488778D01*
X3590090Y1809910D02*
Y1880710D01*
Y1809910D02*
X3720000Y1680000D01*
X3776032D01*
X3898000Y1801968D01*
X3922804D01*
X4116876Y1795276D02*
X4302804D01*
X4329528Y1822000D01*
Y1888584D01*
X4379000D01*
X4387070Y1896654D01*
X4437008D01*
X2800000Y1839950D02*
X2804000Y1835950D01*
X3022068Y1780314D02*
X3060000D01*
X3079000Y1799314D01*
X3244010Y1869292D02*
X3282000D01*
X3304440Y1891732D01*
X3343430D01*
X4215354Y1888584D02*
Y1900000D01*
X4251000D02*
X4420000Y2069000D01*
D34*
X5344095Y2348814D02*
Y2909843D01*
Y2348814D02*
X5413780Y2279128D01*
X4521772Y2299000D02*
X5393307D01*
X5404719Y2288189D02*
X5413780Y2279128D01*
X4321282Y620000D02*
X4361282D01*
X4382070Y599212D01*
X4462962D01*
X1729000Y169819D02*
X1852362Y46457D01*
X1729000Y169819D02*
Y668110D01*
X2875780Y1750394D02*
X2888000Y1762614D01*
X2803937Y1750394D02*
X2875780D01*
X2781000Y1773331D02*
X2803937Y1750394D01*
X2934904Y1987532D02*
X2938972Y1983464D01*
X2813702Y1987532D02*
X2934904D01*
X3435000Y1804252D02*
Y1920000D01*
Y1804252D02*
X3480000Y1759252D01*
X3197640Y1943000D02*
X3458000D01*
X3123932Y1869292D02*
X3197640Y1943000D01*
X2825166Y48552D02*
Y79922D01*
Y48552D02*
X2842718Y31000D01*
X3253174D01*
X2900030Y79922D02*
X3100486D01*
X3117322Y96758D01*
X2800362Y1409842D02*
Y1750394D01*
Y987958D02*
Y1409842D01*
X3305700D01*
X3435000Y1539142D02*
Y1804252D01*
X3305700Y1409842D02*
X3435000Y1539142D01*
X1270000Y438000D02*
X1663000Y45000D01*
X1270000Y438000D02*
Y669688D01*
X1663000Y45000D02*
X2500000D01*
X2781000Y1773331D02*
Y1810000D01*
X4128567Y2314000D02*
X4164850Y2277717D01*
Y2153150D02*
Y2277717D01*
X4128567Y2314000D02*
X4129134Y2314567D01*
X3549544Y2314000D02*
X4128567D01*
X4129134Y2314567D02*
Y2863780D01*
X4105936Y2094235D02*
X4164850Y2153150D01*
X4695276Y1471247D02*
Y2113386D01*
X4655512Y2153150D02*
X4695276Y2113386D01*
X4164850Y2153150D02*
X4655512D01*
X2738838Y2074836D02*
Y2828162D01*
Y1987532D02*
Y2074836D01*
X3013836D01*
X3757890Y3468110D02*
X3922442D01*
X5798145Y3153253D02*
X5798145Y201067D01*
X5473228Y3478171D02*
X5798145Y3153253D01*
X4001864Y1593930D02*
X4068000Y1527794D01*
X4001864Y1593930D02*
Y1652340D01*
X4105984Y1565778D02*
X4313780D01*
X4068000Y1527794D02*
X4105984Y1565778D01*
X4068000Y830000D02*
Y1527794D01*
X3916504Y676798D02*
X4069706Y830000D01*
X3916504Y600000D02*
Y676798D01*
X4589174Y2659256D02*
Y3026772D01*
X4584536Y2654618D02*
X4589174Y2659256D01*
X4591339Y2719814D02*
X4776574D01*
X3935021Y2031814D02*
X3959430Y2007405D01*
X4013264D01*
X4031072Y1989598D01*
Y1986614D02*
Y1989598D01*
X3013836Y2074836D02*
X3253000Y2314000D01*
X3013836Y1983464D02*
Y2074836D01*
X3929528Y3571260D02*
X4687795D01*
X3922442Y3578346D02*
X3929528Y3571260D01*
X3836980Y2031814D02*
X3935021D01*
X4208268Y538218D02*
X4214960Y531526D01*
X4246260Y849016D02*
X4275590Y819686D01*
X4228346Y1083301D02*
X4288582Y1095700D01*
X4228346Y869072D02*
Y1083301D01*
Y869072D02*
X4246260Y851158D01*
Y849016D02*
Y851158D01*
X4322000Y493766D02*
Y537000D01*
X5798145Y184760D02*
Y201067D01*
X5707874Y94488D02*
X5798145Y184760D01*
X5122078Y94488D02*
X5707874D01*
X5101072Y493766D02*
Y543000D01*
X3253000Y2314000D02*
X3549544D01*
X2447000Y3120000D02*
X2738838Y2828162D01*
X4537000Y550766D02*
Y599212D01*
Y506650D02*
Y550766D01*
Y506650D02*
X4548426Y495226D01*
X4732000Y130000D02*
Y158220D01*
X4370000Y493766D02*
X4480000D01*
X4537000D02*
Y506650D01*
X3435858Y493766D02*
Y510858D01*
X3944000Y440000D02*
Y480000D01*
Y209766D02*
Y440000D01*
X3390000Y465000D02*
X3435858Y510858D01*
X3390000Y203766D02*
Y240000D01*
X2825330Y274330D02*
Y493766D01*
Y220000D02*
Y274330D01*
X5146000Y1536350D02*
X5294000Y1684350D01*
X5020048Y1010398D02*
X5068282Y1058632D01*
X5338778Y1329128D01*
X4517292Y1089370D02*
Y1554070D01*
X4068000Y830000D02*
X4069706D01*
X4725000Y778686D02*
Y827528D01*
Y576000D02*
Y778686D01*
X4918000Y94488D02*
X4996000D01*
X5047214D01*
X4822694Y189794D02*
X4840000Y172488D01*
X4404000Y783686D02*
X4440000D01*
X4725000Y468512D02*
Y576000D01*
X4341282Y720968D02*
X4404000Y783686D01*
X4264000Y562718D02*
X4321282Y620000D01*
X3681606Y3565080D02*
X3700000D01*
X3989355Y1826339D02*
X3995694Y1832678D01*
X3603618Y600000D02*
Y664100D01*
X2888000Y1817716D02*
Y1899028D01*
X1173000Y669688D02*
X1270000D01*
X2500000Y45000D02*
X2746078D01*
X2183000Y3018536D02*
X2231418Y2970118D01*
X2183000Y3018536D02*
Y3110000D01*
X2193000Y3120000D01*
X2447000D01*
X3503544Y2360000D02*
Y3244094D01*
Y2360000D02*
X3549544Y2314000D01*
X4592156Y1423730D02*
Y1554070D01*
Y1251844D02*
Y1423730D01*
Y1251844D02*
X4627196Y1216804D01*
Y1089370D02*
Y1216804D01*
X4480000Y493766D02*
X4537000Y550766D01*
X4338304Y493766D02*
X4370000D01*
X4404000Y527766D01*
Y548000D01*
X2900030Y79922D02*
Y178382D01*
X2884646Y193766D02*
X2900030Y178382D01*
X2851564Y193766D02*
X2884646D01*
X2825330Y220000D02*
X2851564Y193766D01*
X2739894Y524844D02*
X2800486D01*
X2708816Y493766D02*
X2739894Y524844D01*
X2675984Y493766D02*
X2708816D01*
X2825330D02*
X2884646D01*
X2825330D02*
Y500000D01*
X2800486Y524844D02*
X2825330Y500000D01*
X2675984Y193766D02*
X2744766D01*
X2825330Y274330D01*
X1122312Y619000D02*
X1173000Y669688D01*
X965000Y619000D02*
X1122312D01*
X917070Y666930D02*
X965000Y619000D01*
X857480Y666930D02*
X917070D01*
X2938972Y1950000D02*
Y1983464D01*
X2888000Y1899028D02*
X2938972Y1950000D01*
X3659000Y1829000D02*
X3755000D01*
X2740636Y1820080D02*
X2770920D01*
X2781000Y1810000D01*
X3458000Y1943000D02*
X3645000D01*
X2888000Y1817716D02*
X2927580D01*
X2888000Y1762614D02*
Y1817716D01*
X3648000Y1840000D02*
X3659000Y1829000D01*
X3230090Y443766D02*
X3261000D01*
X3278320Y461086D01*
Y510000D01*
X2800362Y987958D02*
X3278320Y510000D01*
X3765370Y1839370D02*
X3828316D01*
X2800362Y614960D02*
Y987958D01*
X3645000Y1943000D02*
X3648000Y1940000D01*
X3825166Y1983464D02*
Y2020000D01*
X3836980Y2031814D01*
X3808252Y2904756D02*
X3841338D01*
X3679922Y2776426D02*
X3808252Y2904756D01*
X3679922Y2361418D02*
Y2776426D01*
X3603618Y600000D02*
X3916504D01*
X3603618Y491420D02*
Y600000D01*
Y491420D02*
X3611614Y459386D01*
X3651968Y451544D01*
X3360992Y599212D02*
Y640000D01*
X3428710Y707718D01*
X3560000D01*
X3603618Y664100D01*
X4068000Y830000D02*
X4279706Y620000D01*
X3825166Y1949834D02*
Y1983464D01*
Y1949834D02*
X3868000Y1907000D01*
Y1860000D02*
Y1907000D01*
Y1860000D02*
X3888630Y1839370D01*
X3983016Y1820000D02*
X3989355Y1826339D01*
X3983016Y1775142D02*
Y1820000D01*
X4017322Y1667798D02*
Y1740836D01*
X3828316Y1839370D02*
X3888630D01*
X3976324D01*
X3989355Y1826339D01*
X3983016Y1775142D02*
X4017322Y1740836D01*
X4279706Y620000D02*
X4321282D01*
X4725000Y468512D02*
X4740000Y453512D01*
X3995694Y1832678D02*
X4022386D01*
X4001864Y1652340D02*
X4017322Y1667798D01*
X4069706Y830000D02*
X4279706Y620000D01*
X4264000Y470000D02*
X4282896Y443766D01*
X4264000Y470000D02*
Y562718D01*
X4282896Y443766D02*
X4338304D01*
X4740000Y453512D02*
X4773622D01*
X4214960Y456662D02*
X4250662D01*
X4725000Y827528D02*
X4769686D01*
X4749000Y600000D02*
X5020048D01*
X4725000Y576000D02*
X4749000Y600000D01*
X5020048D02*
Y880000D01*
Y1010398D01*
X5099154Y929128D02*
X5338778D01*
X5068282Y960000D02*
X5099154Y929128D01*
X5068282Y960000D02*
Y1058632D01*
X5294000Y1573906D02*
X5338778Y1529128D01*
X5294000Y1573906D02*
Y1684350D01*
X5338778Y1729128D01*
X4499054Y2321718D02*
X4521772Y2299000D01*
X4499054Y2321718D02*
Y2597054D01*
X4556618Y2654618D01*
X4584536D01*
X4250662Y456662D02*
X4264000Y470000D01*
X4341282Y620472D02*
Y720968D01*
X4720000Y783686D02*
X4725000Y778686D01*
X4322000Y493766D02*
X4338304D01*
X4093718Y574718D02*
X4110000Y591000D01*
X4069000Y574718D02*
X4093718D01*
X4054282Y560000D02*
X4069000Y574718D01*
X4054282Y520000D02*
Y560000D01*
X4028048Y493766D02*
X4054282Y520000D01*
X3992858Y493766D02*
X4028048D01*
X2738838Y1948644D02*
Y1987532D01*
Y1948644D02*
X2830000Y1857482D01*
X2835124D01*
X3503544Y3244094D02*
Y3297000D01*
X3399212Y3401332D02*
X3503544Y3297000D01*
X3399212Y3401332D02*
Y3492914D01*
X3013836Y1923232D02*
Y1983464D01*
Y1923232D02*
X3022068Y1915000D01*
Y1855118D02*
Y1915000D01*
X3399212Y3492914D02*
Y3605668D01*
X3440000Y3646456D01*
X3531496D01*
X4030708Y2863780D02*
X4129134D01*
X4105936Y1932940D02*
Y1986614D01*
Y1932940D02*
X4116876Y1922000D01*
Y1870078D02*
Y1922000D01*
X3531496Y3646456D02*
X3593000D01*
Y3572394D02*
Y3646456D01*
Y3572394D02*
X3620000Y3545394D01*
X4129134Y2863780D02*
Y2952000D01*
X4140080Y2962946D01*
Y3053012D01*
X4094922Y1870078D02*
X4116876D01*
X4064000Y1901000D02*
X4094922Y1870078D01*
X3983000Y1901000D02*
X4064000D01*
X3958770Y1876770D02*
X3983000Y1901000D01*
X3922804Y1876770D02*
X3958770D01*
X4105936Y1986614D02*
Y2094235D01*
X3900032Y1899542D02*
X3922804Y1876770D01*
X3900032Y1899542D02*
Y1983464D01*
X5482402Y2035504D02*
X5488778Y2029128D01*
X4537000Y493766D02*
X4546966D01*
X4548426Y495226D01*
X4537000Y599212D02*
X4537826D01*
X5094912Y549160D02*
Y600000D01*
Y549160D02*
X5101072Y543000D01*
X4892410Y493766D02*
X5101072D01*
X4849612D02*
X4892410D01*
X4815000Y528378D02*
X4849612Y493766D01*
X4773622Y528378D02*
X4815000D01*
X3117322Y96758D02*
Y103118D01*
X3160000D01*
X3185000Y128118D01*
Y180000D01*
X3198766Y193766D01*
X3230090D01*
X2657000D02*
X2675984D01*
X2569140Y105906D02*
X2657000Y193766D01*
X2535040Y105906D02*
X2569140D01*
X2884646Y493766D02*
X2917382D01*
X2944906Y521290D01*
X3084646D01*
X2884646Y493766D02*
Y549000D01*
X2875228Y558418D02*
X2884646Y549000D01*
X2875228Y558418D02*
Y614960D01*
X3438752Y153208D02*
Y193766D01*
Y153208D02*
X3466960Y125000D01*
Y85826D02*
Y125000D01*
X3084646Y521290D02*
X3143000D01*
X3170524Y493766D01*
X3230090D01*
X2623368D02*
X2675984D01*
X2586000Y531134D02*
X2623368Y493766D01*
X2533464Y531134D02*
X2586000D01*
X3400000Y193766D02*
X3438752D01*
X3390000Y203766D02*
X3400000Y193766D01*
X3230090D02*
X3343766D01*
X3390000Y240000D01*
Y465000D01*
X3435858Y493766D02*
X3438752D01*
X3435858Y510858D02*
X3438752Y493766D01*
X3435858Y510858D02*
Y599212D01*
X3466960Y85826D02*
X3562000D01*
X3583230Y107056D01*
X3678740D01*
X3720056D01*
X3733000Y120000D01*
Y180000D01*
X3746766Y193766D01*
X3784198D01*
X3960000D02*
X3992858D01*
X3944000Y209766D02*
X3960000Y193766D01*
X3944000Y480000D02*
X3957766Y493766D01*
X3784198Y193766D02*
X3897766D01*
X3928884Y224884D01*
X3944000Y440000D01*
X3957766Y493766D02*
X3992858D01*
X3784198D02*
X3957766D01*
X3992858Y157244D02*
Y193766D01*
Y157244D02*
X4033102Y117000D01*
Y82284D02*
Y117000D01*
X3733642Y493766D02*
X3784198D01*
X3701000Y526408D02*
X3733642Y493766D01*
X3651968Y526408D02*
X3701000D01*
X3992858Y493766D02*
Y546000D01*
X3991370Y547488D02*
X3992858Y546000D01*
X3991370Y547488D02*
Y600000D01*
X4033102Y82284D02*
X4113000D01*
X4142890Y112174D01*
X4223622D01*
X4265000D01*
Y138766D01*
X4320000Y193766D01*
X4338304D01*
X4546966D01*
Y150356D02*
Y193766D01*
Y150356D02*
X4569322Y128000D01*
Y86220D02*
Y128000D01*
X4747070Y114930D02*
X4780708D01*
X4732000Y130000D02*
X4747070Y114930D01*
X4732000Y230000D02*
X4744000Y242000D01*
X4569322Y86220D02*
X4660000D01*
X4732000Y158220D01*
Y230000D01*
X4744000Y242000D02*
X4818000D01*
X4866234Y193766D01*
X4892410D01*
X5101072D01*
Y154006D02*
Y193766D01*
Y154006D02*
X5122078Y133000D01*
Y94488D02*
Y133000D01*
X3823636Y3578346D02*
X3922442D01*
X3771000Y3525710D02*
X3823636Y3578346D01*
X1270000Y669688D02*
X1270866D01*
X1729000Y668110D02*
X1729922D01*
X2496770Y180770D02*
X2535040D01*
X2486000Y170000D02*
X2496770Y180770D01*
X2486000Y59000D02*
Y170000D01*
Y59000D02*
X2500000Y45000D01*
X2746078D02*
X2781000Y79922D01*
X2825166D01*
X2535040Y180770D02*
Y262000D01*
X2533464Y263576D02*
X2535040Y262000D01*
X2533464Y263576D02*
Y456268D01*
X2598000D01*
X2610502Y443766D01*
X2675984D01*
X3253174Y31000D02*
X3308000Y85826D01*
X3392096D01*
X752000Y666930D02*
X857480D01*
X691210Y606140D02*
X752000Y666930D01*
X539798Y606140D02*
X691210D01*
X478614Y667324D02*
X539798Y606140D01*
X424016Y667324D02*
X478614D01*
X2498732Y456268D02*
X2533464D01*
X2485000Y470000D02*
X2498732Y456268D01*
X2485000Y470000D02*
Y580000D01*
X2519960Y614960D01*
X2800362D01*
X3392096Y50000D02*
Y85826D01*
Y50000D02*
X3405096Y37000D01*
X3812000D01*
X3857284Y82284D01*
X3958236D01*
Y44764D02*
Y82284D01*
Y44764D02*
X3970000Y33000D01*
X4310000D01*
X4363220Y86220D01*
X4494458D01*
X3158660Y443766D02*
X3230090D01*
X3156000Y446426D02*
X3158660Y443766D01*
X3084646Y446426D02*
X3156000D01*
X2532796Y1820080D02*
X2740636D01*
X2470000Y1757284D02*
X2532796Y1820080D01*
X2446784Y1757284D02*
X2470000D01*
X3084646Y327676D02*
Y446426D01*
Y327676D02*
X3117322Y295000D01*
Y177984D02*
Y295000D01*
X4780708Y189794D02*
X4822694D01*
X4494458Y86220D02*
X4506458Y37000D01*
X4938512D01*
X4996000Y94488D01*
X4780708Y189794D02*
X4840000Y172488D01*
X4918000Y94488D01*
X2404716Y1757284D02*
X2446784D01*
X2392000Y1770000D02*
X2404716Y1757284D01*
X2392000Y1770000D02*
Y2909536D01*
X2231418Y3070118D02*
X2392000Y2909536D01*
X3435000Y1920000D02*
X3458000Y1943000D01*
X3648000Y1840000D02*
Y1940000D01*
X3755000Y1829000D02*
X3765370Y1839370D01*
X3480000Y1759252D02*
X3489696D01*
X4313780Y1565778D02*
Y1730356D01*
X4360000Y1776576D01*
X4437008D01*
X4313780Y1565778D02*
X4469298D01*
X4481006Y1554070D01*
X4517292D01*
X4214960Y325662D02*
Y456662D01*
Y325662D02*
X4223622Y317000D01*
Y187038D02*
Y317000D01*
X4517292Y1089370D02*
X4552332D01*
X4288582Y1095700D02*
Y1240000D01*
X4346614Y1298032D01*
X3651968Y329772D02*
Y451544D01*
Y329772D02*
X3678740Y303000D01*
Y181920D02*
Y303000D01*
X3651968Y451544D02*
X3714000D01*
X3721778Y443766D01*
X3784198D01*
X4773622Y453512D02*
X4828000D01*
X4837746Y443766D01*
X4892410D01*
X4779922Y1108000D02*
Y1218080D01*
Y1108000D02*
X4895000Y992922D01*
Y909612D02*
Y992922D01*
Y909612D02*
X4944612Y860000D01*
X5000048D01*
X5020048Y880000D01*
X4779922Y1218080D02*
X4910000D01*
X4961600Y1269680D01*
Y1401256D01*
X4980000Y1419656D01*
X5126938D01*
X5146000Y1438718D01*
Y1536350D01*
X5488778Y929128D02*
X5579872D01*
X5609000Y900000D01*
Y752420D02*
Y900000D01*
X5580000Y723420D02*
X5609000Y752420D01*
X5545432Y723420D02*
X5580000D01*
X5526140Y704128D02*
X5545432Y723420D01*
X5526140Y703850D02*
Y704128D01*
X5488778Y666488D02*
X5526140Y703850D01*
X5488778Y629128D02*
Y666488D01*
X5332402Y1735504D02*
X5338778Y1729128D01*
X5332402Y1735504D02*
Y1791296D01*
X5338778Y1797672D01*
Y1829128D01*
X5332402Y1835504D02*
X5338778Y1829128D01*
X5332402Y1835504D02*
Y1891296D01*
X5338778Y1897672D01*
Y1929128D01*
X5563780Y1647672D02*
Y1679128D01*
Y1647672D02*
X5570156Y1641296D01*
Y1585504D02*
Y1641296D01*
X5563780Y1579128D02*
X5570156Y1585504D01*
X5563780Y1679128D02*
X5570156Y1685504D01*
Y1741296D01*
X5563780Y1747672D02*
X5570156Y1741296D01*
X5563780Y1747672D02*
Y1779128D01*
X5290000Y1977906D02*
X5338778Y1929128D01*
X5290000Y1977906D02*
Y2080350D01*
X5338778Y2129128D01*
X5563780Y1779128D02*
X5570156Y1785504D01*
Y1841296D01*
X5563780Y1847672D02*
X5570156Y1841296D01*
X5563780Y1847672D02*
Y1879128D01*
X5628346Y1943694D01*
Y2114562D01*
X5563780Y2179128D02*
X5628346Y2114562D01*
X5563780Y2179128D02*
X5570156Y2185504D01*
Y2241296D01*
X5563780Y2247672D02*
X5570156Y2241296D01*
X5563780Y2247672D02*
Y2279128D01*
D35*
X4675603Y1451574D02*
X4695276Y1471247D01*
X4657480Y1451574D02*
X4675603D01*
X4275590Y819686D02*
X4404000D01*
X4627196Y983464D02*
Y1089370D01*
X4620000Y1451574D02*
X4657480D01*
X4592156Y1423730D02*
X4620000Y1451574D01*
X4627196Y983464D02*
X4636614D01*
X4404330Y829922D02*
X4409158Y823664D01*
X4440000Y783686D01*
X4720000D01*
X4404000Y819686D02*
X4440000Y783686D01*
X4346614Y1298032D02*
X4425196D01*
D36*
X3726000Y3500000D02*
Y3506024D01*
Y3500000D02*
X3757890Y3468110D01*
X3704976Y3506024D02*
X3726000D01*
X3681606Y3529394D02*
Y3535552D01*
Y3529394D02*
X3704976Y3506024D01*
X3681606Y3535552D02*
X3689292D01*
X3681606D02*
Y3565080D01*
X3726000Y3506024D02*
X3726692D01*
X3700000Y3565080D02*
X3726692D01*
X3651890D02*
X3681606D01*
X3620000Y3545394D02*
X3651890D01*
X3726692Y3525710D02*
X3771000D01*
X3726692D02*
Y3545394D01*
D37*
X5403631Y3408573D02*
D03*
X5334034Y3338976D02*
D03*
Y3478171D02*
D03*
X5473228Y3338976D02*
D03*
Y3478171D02*
D03*
D38*
X5338778Y629128D02*
D03*
D39*
Y729128D02*
D03*
Y829128D02*
D03*
Y929128D02*
D03*
Y1029128D02*
D03*
Y1129128D02*
D03*
Y1229128D02*
D03*
Y1329128D02*
D03*
Y1429128D02*
D03*
Y1529128D02*
D03*
Y1629128D02*
D03*
Y1729128D02*
D03*
Y1829128D02*
D03*
Y1929128D02*
D03*
Y2029128D02*
D03*
Y2129128D02*
D03*
Y2229128D02*
D03*
X5413780Y679128D02*
D03*
Y779128D02*
D03*
Y879128D02*
D03*
Y979128D02*
D03*
Y1079128D02*
D03*
Y1179128D02*
D03*
Y1279128D02*
D03*
Y1379128D02*
D03*
Y1479128D02*
D03*
Y1579128D02*
D03*
Y1679128D02*
D03*
Y1779128D02*
D03*
Y1879128D02*
D03*
Y1979128D02*
D03*
Y2079128D02*
D03*
Y2179128D02*
D03*
Y2279128D02*
D03*
X5488778Y629128D02*
D03*
X5563780Y679128D02*
D03*
X5488778Y729128D02*
D03*
Y829128D02*
D03*
Y929128D02*
D03*
Y1029128D02*
D03*
Y1129128D02*
D03*
Y1229128D02*
D03*
Y1329128D02*
D03*
Y1429128D02*
D03*
Y1529128D02*
D03*
Y1629128D02*
D03*
Y1729128D02*
D03*
Y1829128D02*
D03*
Y1929128D02*
D03*
Y2029128D02*
D03*
Y2129128D02*
D03*
Y2229128D02*
D03*
X5563780Y779128D02*
D03*
Y879128D02*
D03*
Y979128D02*
D03*
Y1079128D02*
D03*
Y1179128D02*
D03*
Y1279128D02*
D03*
Y1379128D02*
D03*
Y1479128D02*
D03*
Y1579128D02*
D03*
Y1679128D02*
D03*
Y1779128D02*
D03*
Y1879128D02*
D03*
Y1979128D02*
D03*
Y2079128D02*
D03*
Y2179128D02*
D03*
Y2279128D02*
D03*
D40*
X2131418Y670118D02*
D03*
Y770118D02*
D03*
Y870118D02*
D03*
Y970118D02*
D03*
Y1070118D02*
D03*
Y1170118D02*
D03*
Y1270118D02*
D03*
Y1370118D02*
D03*
Y1470118D02*
D03*
Y1570118D02*
D03*
Y1670118D02*
D03*
Y1770118D02*
D03*
Y1870118D02*
D03*
Y1970118D02*
D03*
Y2070118D02*
D03*
Y2170118D02*
D03*
Y2270118D02*
D03*
Y2370118D02*
D03*
Y2470118D02*
D03*
Y2570118D02*
D03*
Y2670118D02*
D03*
Y2770118D02*
D03*
Y2870118D02*
D03*
Y2970118D02*
D03*
Y3070118D02*
D03*
X2231418Y670118D02*
D03*
Y770118D02*
D03*
Y870118D02*
D03*
Y970118D02*
D03*
Y1070118D02*
D03*
Y1170118D02*
D03*
Y1270118D02*
D03*
Y1370118D02*
D03*
Y1470118D02*
D03*
Y1570118D02*
D03*
Y1670118D02*
D03*
Y1770118D02*
D03*
Y1870118D02*
D03*
Y1970118D02*
D03*
Y2070118D02*
D03*
Y2170118D02*
D03*
Y2270118D02*
D03*
Y2370118D02*
D03*
Y2470118D02*
D03*
Y2570118D02*
D03*
Y2670118D02*
D03*
Y2770118D02*
D03*
Y2870118D02*
D03*
Y2970118D02*
D03*
X131418Y670118D02*
D03*
Y770118D02*
D03*
Y870118D02*
D03*
Y970118D02*
D03*
Y1070118D02*
D03*
Y1170118D02*
D03*
Y1270118D02*
D03*
Y1370118D02*
D03*
Y1470118D02*
D03*
Y1570118D02*
D03*
Y1670118D02*
D03*
Y1770118D02*
D03*
Y1870118D02*
D03*
Y1970118D02*
D03*
Y2070118D02*
D03*
Y2170118D02*
D03*
Y2270118D02*
D03*
Y2370118D02*
D03*
Y2470118D02*
D03*
Y2570118D02*
D03*
Y2670118D02*
D03*
Y2770118D02*
D03*
Y2870118D02*
D03*
Y2970118D02*
D03*
Y3070118D02*
D03*
X231418Y670118D02*
D03*
Y770118D02*
D03*
Y870118D02*
D03*
Y970118D02*
D03*
Y1070118D02*
D03*
Y1170118D02*
D03*
Y1270118D02*
D03*
Y1370118D02*
D03*
Y1470118D02*
D03*
Y1570118D02*
D03*
Y1670118D02*
D03*
Y1770118D02*
D03*
Y1870118D02*
D03*
Y1970118D02*
D03*
Y2070118D02*
D03*
Y2170118D02*
D03*
Y2270118D02*
D03*
Y2370118D02*
D03*
Y2470118D02*
D03*
Y2570118D02*
D03*
Y2670118D02*
D03*
Y2770118D02*
D03*
Y2870118D02*
D03*
Y2970118D02*
D03*
D41*
X2231418Y3070118D02*
D03*
X231418D02*
D03*
D42*
X4664174Y2380710D02*
D03*
D43*
X4564174D02*
D03*
D44*
X4874803Y3574803D02*
D03*
Y3417323D02*
D03*
X3502756Y2565354D02*
D03*
X5344095Y2909843D02*
D03*
X2862231Y1459055D02*
D03*
X2913122Y1308822D02*
D03*
X3635346Y875591D02*
D03*
X1714000Y98000D02*
D03*
X3054000Y140000D02*
D03*
X4655512Y2153150D02*
D03*
X2857480Y2176772D02*
D03*
X3922440Y3466141D02*
D03*
X4325016Y1425984D02*
D03*
X4589174Y3026772D02*
D03*
X3531496Y3756692D02*
D03*
X4022834Y2922834D02*
D03*
X4031072Y1986614D02*
D03*
X4389000Y694882D02*
D03*
X4589370Y720079D02*
D03*
X5094912Y600000D02*
D03*
X4214960Y531526D02*
D03*
X4097000Y527953D02*
D03*
X2277098Y337252D02*
D03*
X2179528Y502756D02*
D03*
X2160236Y399606D02*
D03*
X2391748Y421276D02*
D03*
X4750196Y1374804D02*
D03*
X4775197Y2611811D02*
D03*
X4705118Y934130D02*
D03*
X4548376Y2483000D02*
D03*
X4473228Y901181D02*
D03*
X3790551Y1769449D02*
D03*
X4284646Y871260D02*
D03*
X4203543Y833465D02*
D03*
X4341248Y917598D02*
D03*
X3156693Y367716D02*
D03*
X4973228Y911417D02*
D03*
X4113000Y434000D02*
D03*
X5014000Y393766D02*
D03*
X4322000Y537000D02*
D03*
X3506299Y658268D02*
D03*
X3557296Y608268D02*
D03*
X1571650Y611022D02*
D03*
X1915354Y669096D02*
D03*
X3841338Y2904756D02*
D03*
X4065214Y3053012D02*
D03*
X4012134Y2483000D02*
D03*
X4404000Y548000D02*
D03*
X3679922Y2361418D02*
D03*
X3845000Y293766D02*
D03*
X5661000Y1310000D02*
D03*
X2367748Y991000D02*
D03*
X2357000Y281504D02*
D03*
X3889000Y393766D02*
D03*
X1995000Y1244000D02*
D03*
X5342000Y426000D02*
D03*
X4967000Y1501394D02*
D03*
X5022000Y1576000D02*
D03*
X3970078Y1722834D02*
D03*
X3665000Y680000D02*
D03*
X2340000Y2431000D02*
D03*
X4563000Y985000D02*
D03*
X5114000D02*
D03*
X3910630Y2254166D02*
D03*
X3974000Y2261000D02*
D03*
X4472000Y1493000D02*
D03*
X5380000Y514000D02*
D03*
X2965000Y475000D02*
D03*
X5451000Y494000D02*
D03*
X333000Y665000D02*
D03*
X4110000Y591000D02*
D03*
X4051700Y1639370D02*
D03*
X4111000Y1374000D02*
D03*
X386000Y1632000D02*
D03*
X383000Y876000D02*
D03*
X295000Y928000D02*
D03*
X3349888Y532000D02*
D03*
X4956000Y273766D02*
D03*
X2403000Y786000D02*
D03*
X2336000Y693000D02*
D03*
X2050394Y1463606D02*
D03*
X2409000Y1353000D02*
D03*
X5264000Y1191000D02*
D03*
X2407000Y1108000D02*
D03*
X2312000Y1121000D02*
D03*
X1924804Y2197244D02*
D03*
X2031000Y726000D02*
D03*
X2752512Y337252D02*
D03*
X2782000Y482000D02*
D03*
X4294000Y682000D02*
D03*
X5282000Y294000D02*
D03*
X2587000Y2485000D02*
D03*
X4640064Y646064D02*
D03*
X5265716Y734716D02*
D03*
X5024000Y1353000D02*
D03*
X4420000Y2069000D02*
D03*
D45*
X4687795Y3571260D02*
D03*
D46*
X5473228Y3478171D02*
D03*
Y3338976D02*
D03*
X5334034Y3478171D02*
D03*
Y3338976D02*
D03*
X5403631Y3408573D02*
D03*
D47*
X3689292Y3519804D02*
D03*
Y3550552D02*
D03*
%TF.MD5,48ca710d6c10729f39db9d7be81c7ebb*%
M02*
