%TF.GenerationSoftware,Altium Limited,Altium Designer,19.0.15 (446)*%
G04 Layer_Color=16711935*
%FSLAX26Y26*%
%MOIN*%
%TF.FileFunction,Soldermask,Bot*%
%TF.Part,Single*%
G01*
G75*
%TA.AperFunction,ComponentPad*%
%ADD48C,0.078866*%
%ADD49R,0.061150X0.061150*%
%ADD50C,0.061150*%
%ADD51C,0.069024*%
%ADD52R,0.069024X0.069024*%
%ADD53R,0.067055X0.067055*%
%ADD54C,0.067055*%
%TA.AperFunction,ViaPad*%
%ADD55C,0.058000*%
%TA.AperFunction,TestPad*%
%ADD56C,0.058000*%
%TA.AperFunction,ViaPad*%
%ADD57C,0.078866*%
%ADD58C,0.025197*%
D48*
X5403631Y3408573D02*
D03*
X5334034Y3338976D02*
D03*
Y3478171D02*
D03*
X5473228Y3338976D02*
D03*
Y3478171D02*
D03*
D49*
X5338778Y629128D02*
D03*
D50*
Y729128D02*
D03*
Y829128D02*
D03*
Y929128D02*
D03*
Y1029128D02*
D03*
Y1129128D02*
D03*
Y1229128D02*
D03*
Y1329128D02*
D03*
Y1429128D02*
D03*
Y1529128D02*
D03*
Y1629128D02*
D03*
Y1729128D02*
D03*
Y1829128D02*
D03*
Y1929128D02*
D03*
Y2029128D02*
D03*
Y2129128D02*
D03*
Y2229128D02*
D03*
X5413780Y679128D02*
D03*
Y779128D02*
D03*
Y879128D02*
D03*
Y979128D02*
D03*
Y1079128D02*
D03*
Y1179128D02*
D03*
Y1279128D02*
D03*
Y1379128D02*
D03*
Y1479128D02*
D03*
Y1579128D02*
D03*
Y1679128D02*
D03*
Y1779128D02*
D03*
Y1879128D02*
D03*
Y1979128D02*
D03*
Y2079128D02*
D03*
Y2179128D02*
D03*
Y2279128D02*
D03*
X5488778Y629128D02*
D03*
X5563780Y679128D02*
D03*
X5488778Y729128D02*
D03*
Y829128D02*
D03*
Y929128D02*
D03*
Y1029128D02*
D03*
Y1129128D02*
D03*
Y1229128D02*
D03*
Y1329128D02*
D03*
Y1429128D02*
D03*
Y1529128D02*
D03*
Y1629128D02*
D03*
Y1729128D02*
D03*
Y1829128D02*
D03*
Y1929128D02*
D03*
Y2029128D02*
D03*
Y2129128D02*
D03*
Y2229128D02*
D03*
X5563780Y779128D02*
D03*
Y879128D02*
D03*
Y979128D02*
D03*
Y1079128D02*
D03*
Y1179128D02*
D03*
Y1279128D02*
D03*
Y1379128D02*
D03*
Y1479128D02*
D03*
Y1579128D02*
D03*
Y1679128D02*
D03*
Y1779128D02*
D03*
Y1879128D02*
D03*
Y1979128D02*
D03*
Y2079128D02*
D03*
Y2179128D02*
D03*
Y2279128D02*
D03*
D51*
X2131418Y670118D02*
D03*
Y770118D02*
D03*
Y870118D02*
D03*
Y970118D02*
D03*
Y1070118D02*
D03*
Y1170118D02*
D03*
Y1270118D02*
D03*
Y1370118D02*
D03*
Y1470118D02*
D03*
Y1570118D02*
D03*
Y1670118D02*
D03*
Y1770118D02*
D03*
Y1870118D02*
D03*
Y1970118D02*
D03*
Y2070118D02*
D03*
Y2170118D02*
D03*
Y2270118D02*
D03*
Y2370118D02*
D03*
Y2470118D02*
D03*
Y2570118D02*
D03*
Y2670118D02*
D03*
Y2770118D02*
D03*
Y2870118D02*
D03*
Y2970118D02*
D03*
Y3070118D02*
D03*
X2231418Y670118D02*
D03*
Y770118D02*
D03*
Y870118D02*
D03*
Y970118D02*
D03*
Y1070118D02*
D03*
Y1170118D02*
D03*
Y1270118D02*
D03*
Y1370118D02*
D03*
Y1470118D02*
D03*
Y1570118D02*
D03*
Y1670118D02*
D03*
Y1770118D02*
D03*
Y1870118D02*
D03*
Y1970118D02*
D03*
Y2070118D02*
D03*
Y2170118D02*
D03*
Y2270118D02*
D03*
Y2370118D02*
D03*
Y2470118D02*
D03*
Y2570118D02*
D03*
Y2670118D02*
D03*
Y2770118D02*
D03*
Y2870118D02*
D03*
Y2970118D02*
D03*
X131418Y670118D02*
D03*
Y770118D02*
D03*
Y870118D02*
D03*
Y970118D02*
D03*
Y1070118D02*
D03*
Y1170118D02*
D03*
Y1270118D02*
D03*
Y1370118D02*
D03*
Y1470118D02*
D03*
Y1570118D02*
D03*
Y1670118D02*
D03*
Y1770118D02*
D03*
Y1870118D02*
D03*
Y1970118D02*
D03*
Y2070118D02*
D03*
Y2170118D02*
D03*
Y2270118D02*
D03*
Y2370118D02*
D03*
Y2470118D02*
D03*
Y2570118D02*
D03*
Y2670118D02*
D03*
Y2770118D02*
D03*
Y2870118D02*
D03*
Y2970118D02*
D03*
Y3070118D02*
D03*
X231418Y670118D02*
D03*
Y770118D02*
D03*
Y870118D02*
D03*
Y970118D02*
D03*
Y1070118D02*
D03*
Y1170118D02*
D03*
Y1270118D02*
D03*
Y1370118D02*
D03*
Y1470118D02*
D03*
Y1570118D02*
D03*
Y1670118D02*
D03*
Y1770118D02*
D03*
Y1870118D02*
D03*
Y1970118D02*
D03*
Y2070118D02*
D03*
Y2170118D02*
D03*
Y2270118D02*
D03*
Y2370118D02*
D03*
Y2470118D02*
D03*
Y2570118D02*
D03*
Y2670118D02*
D03*
Y2770118D02*
D03*
Y2870118D02*
D03*
Y2970118D02*
D03*
D52*
X2231418Y3070118D02*
D03*
X231418D02*
D03*
D53*
X4664174Y2380710D02*
D03*
D54*
X4564174D02*
D03*
D55*
X4874803Y3574803D02*
D03*
Y3417323D02*
D03*
X3502756Y2565354D02*
D03*
X5344095Y2909843D02*
D03*
X2862231Y1459055D02*
D03*
X2913122Y1308822D02*
D03*
X3635346Y875591D02*
D03*
X1714000Y98000D02*
D03*
X3054000Y140000D02*
D03*
X4655512Y2153150D02*
D03*
X2857480Y2176772D02*
D03*
X3922440Y3466141D02*
D03*
X4325016Y1425984D02*
D03*
X4589174Y3026772D02*
D03*
X3531496Y3756692D02*
D03*
X4022834Y2922834D02*
D03*
X4031072Y1986614D02*
D03*
X4389000Y694882D02*
D03*
X4589370Y720079D02*
D03*
X5094912Y600000D02*
D03*
X4214960Y531526D02*
D03*
X4097000Y527953D02*
D03*
X2277098Y337252D02*
D03*
X2179528Y502756D02*
D03*
X2160236Y399606D02*
D03*
X2391748Y421276D02*
D03*
X4750196Y1374804D02*
D03*
X4775197Y2611811D02*
D03*
X4705118Y934130D02*
D03*
X4548376Y2483000D02*
D03*
X4473228Y901181D02*
D03*
X3790551Y1769449D02*
D03*
X4284646Y871260D02*
D03*
X4203543Y833465D02*
D03*
X4341248Y917598D02*
D03*
X3156693Y367716D02*
D03*
X4973228Y911417D02*
D03*
X4113000Y434000D02*
D03*
X5014000Y393766D02*
D03*
X4322000Y537000D02*
D03*
X3506299Y658268D02*
D03*
X3557296Y608268D02*
D03*
X1571650Y611022D02*
D03*
X1915354Y669096D02*
D03*
X3841338Y2904756D02*
D03*
X4065214Y3053012D02*
D03*
X4012134Y2483000D02*
D03*
X4404000Y548000D02*
D03*
X3679922Y2361418D02*
D03*
X3845000Y293766D02*
D03*
X5661000Y1310000D02*
D03*
X2367748Y991000D02*
D03*
X2357000Y281504D02*
D03*
X3889000Y393766D02*
D03*
X1995000Y1244000D02*
D03*
X5342000Y426000D02*
D03*
X4967000Y1501394D02*
D03*
X5022000Y1576000D02*
D03*
X3970078Y1722834D02*
D03*
X3665000Y680000D02*
D03*
X2340000Y2431000D02*
D03*
X4563000Y985000D02*
D03*
X5114000D02*
D03*
X3910630Y2254166D02*
D03*
X3974000Y2261000D02*
D03*
X4472000Y1493000D02*
D03*
X5380000Y514000D02*
D03*
X2965000Y475000D02*
D03*
X5451000Y494000D02*
D03*
X333000Y665000D02*
D03*
X4110000Y591000D02*
D03*
X4051700Y1639370D02*
D03*
X4111000Y1374000D02*
D03*
X386000Y1632000D02*
D03*
X383000Y876000D02*
D03*
X295000Y928000D02*
D03*
X3349888Y532000D02*
D03*
X4956000Y273766D02*
D03*
X2403000Y786000D02*
D03*
X2336000Y693000D02*
D03*
X2050394Y1463606D02*
D03*
X2409000Y1353000D02*
D03*
X5264000Y1191000D02*
D03*
X2407000Y1108000D02*
D03*
X2312000Y1121000D02*
D03*
X1924804Y2197244D02*
D03*
X2031000Y726000D02*
D03*
X2752512Y337252D02*
D03*
X2782000Y482000D02*
D03*
X4294000Y682000D02*
D03*
X5282000Y294000D02*
D03*
X2587000Y2485000D02*
D03*
X4640064Y646064D02*
D03*
X5265716Y734716D02*
D03*
X5024000Y1353000D02*
D03*
X4420000Y2069000D02*
D03*
D56*
X4687795Y3571260D02*
D03*
D57*
X5473228Y3478171D02*
D03*
Y3338976D02*
D03*
X5334034Y3478171D02*
D03*
Y3338976D02*
D03*
X5403631Y3408573D02*
D03*
D58*
X3689292Y3519804D02*
D03*
Y3550552D02*
D03*
%TF.MD5,42a4dbaa93aa2d8b0c7dbc2f022db5b4*%
M02*
